<?xml version="1.0" encoding="UTF-8"?><svg id="Camada_1" xmlns="http://www.w3.org/2000/svg" viewBox="0 0 566 423"><defs><style>.cls-1{fill:#fff;}.cls-2{fill:blue;}.cls-3{fill:#ccc;}.cls-4{fill:#1a1a1a;}</style></defs><path class="cls-4" d="M41.7,226.89H17.45c-9.64,0-17.45,7.82-17.45,17.47v17.33c0,9.65,7.81,17.47,17.45,17.47h24.25c9.64,0,17.45-7.82,17.45-17.47v-17.33c0-9.65-7.81-17.47-17.45-17.47Z"/><path class="cls-1" d="M281.14,.94H70.62c-13.47,0-24.39,10.93-24.39,24.42V156.67c0,13.49,10.92,24.42,24.39,24.42h210.52c13.47,0,24.39-10.93,24.39-24.42V25.36c0-13.49-10.92-24.42-24.39-24.42Z"/><path class="cls-2" d="M541.61,171.85h-161.5c-13.47,0-24.39,10.93-24.39,24.42v120.6c0,13.49,10.92,24.42,24.39,24.42h161.5c13.47,0,24.39-10.93,24.39-24.42v-120.6c0-13.49-10.92-24.42-24.39-24.42Z"/><path class="cls-4" d="M540.79,301.25s-1.89-.82-17.71-9.03c-15.82-8.21-23.81-10.57-29.67-11.16-6.44-.34-12.88,.71-18.88,3.07-4.81,1.99-20.51,7.86-27.43,8.8-6.92,.93-15.12-1.99-18.53-3.39-3.41-1.4-28.62-16.82-28.62-16.82,0,0-5.58,61.4-7.69,81.26h126.37c5.91-.01,11.57-2.37,15.75-6.55,4.18-4.18,6.53-9.85,6.54-15.77v-29.75c-.06-.22-.1-.43-.14-.65Z"/><path class="cls-2" d="M251.86,212.34c-11.56,2.31-22.87,5.75-33.76,10.27-13.9,6.39-26.42,13.78-26.42,13.78,0,0,13.18-33.15,15.7-39.9,2.09-5.23,4.6-10.27,7.52-15.09,0,0-6.45-8.35-6.57-12.44,0,0-13.22-1.66-22.17-8.02,0,0-6.45-2.71-7.64-5.33,0,0-13.2-9.82-12.29-18.55,0,0-9.35,14.71-20.26,44.14-10.91,29.43-17.43,41.33-12.38,73.66,5.05,32.33,32.94,40.89,38.64,42.22,5.7,1.33,16.14,4.28,26.63,2.34,6.93-1.41,13.71-3.51,20.23-6.27l-3.06,23.58-11.35,104.72h150.52l-5.86-58.88s6.07,15.3,15.82,21.05c5.07,2.99,10.82,4.6,16.7,4.69,5.88,.09,11.68-1.36,16.83-4.19,4.84-2.75,8.97-6.59,12.06-11.22s5.07-9.92,5.76-15.44c1.07-8.93,.7-21.05-2.97-37.42-3.67-16.37-15.3-66.2-15.3-66.2l-34.53-16.54s-12.08-18.24-30.65-22.48l-18.69-4.23-62.52,1.78Z"/><path class="cls-1" d="M394.82,254.96s1.19-11.3-4.14-19.62c-5.33-8.33-9.35-12.82-10.77-15.25-1.43-2.43-.77-13.19-1.71-17.29-.93-4.09-2.34-10.36-9.51-9.15-7.17,1.22-9.35,10.74-8.13,16.96,1.21,6.22,5.56,20.75,5.33,22.74-.23,1.99-11.84,9.36-18.01,11.7-6.17,2.34-17.99,6.48-21.03,11.23-3.04,4.75-2.01,10.99,3.92,11.7,0,0-7.64,4-6.1,9.64,.33,1.52,1.21,2.86,2.47,3.77,1.26,.91,2.81,1.32,4.35,1.15-.2,1.09-.17,2.21,.09,3.29,.26,1.08,.74,2.09,1.42,2.97,.67,.88,1.52,1.61,2.49,2.14,.97,.53,2.05,.86,3.15,.95,8.43,1.05,24.51-4.68,30.07-7.77,5.56-3.09,15.3-8.07,19.51-14.25,4.21-6.17,6.73-13.52,6.59-14.9Z"/><path class="cls-1" d="M252.97,158.22s-12.73-2.34-13.11,8.7c-.37,11.04,11.03,11.06,14.39,8.77,0,0-.21,26.08,25.7,25.73,25.91-.35,26.54-21.99,26.54-21.99v-3.25s11.68,3.62,13.76-4.07c2.08-7.7,.75-10.76-2.34-12.42-3.08-1.66-10.61-1.15-10.61-1.15v-2.67c-6.53-6.56-14.31-11.74-22.87-15.23-6.73-2.98-13.79-5.14-21.03-6.43,0,0-5.65,14.36-9.56,17.45l-.89,6.55Z"/><path class="cls-1" d="M262.03,191.27v7.3l-13.18,13.78,9.25,50.94,22.45-32.4,22.54,32.4,9.02-52-12.99-13.1,.09-6.25-37.19-.68Z"/><path class="cls-1" d="M492.77,244.28c9.37-4.18,13.58-15.18,9.4-24.56s-15.16-13.59-24.53-9.41c-9.37,4.18-13.58,15.18-9.4,24.56s15.16,13.59,24.53,9.41Z"/><path class="cls-1" d="M279.65,323.45H46.82c-13.47,0-24.39,10.93-24.39,24.42v38.15c0,13.49,10.92,24.42,24.39,24.42h232.83c13.47,0,24.39-10.93,24.39-24.42v-38.15c0-13.49-10.92-24.42-24.39-24.42Z"/><path class="cls-4" d="M77.87,366.96c0,2.96-.88,5.86-2.52,8.32-1.64,2.46-3.98,4.38-6.71,5.51-2.73,1.13-5.74,1.43-8.64,.85-2.9-.58-5.56-2-7.66-4.1-2.09-2.09-3.52-4.76-4.09-7.66-.58-2.9-.28-5.91,.85-8.65,1.13-2.74,3.05-5.07,5.51-6.72,2.46-1.64,5.35-2.52,8.31-2.52,1.96,0,3.91,.38,5.73,1.13,1.82,.75,3.46,1.85,4.85,3.24,1.39,1.39,2.49,3.04,3.24,4.86,.75,1.82,1.14,3.77,1.13,5.73Z"/><path class="cls-4" d="M279.81,.94H71.89c-6.82,0-13.35,2.71-18.17,7.54-4.82,4.83-7.53,11.37-7.53,18.19v17.33H305.51V26.69c0-3.38-.66-6.73-1.95-9.85-1.29-3.12-3.18-5.96-5.57-8.36-2.39-2.39-5.22-4.29-8.34-5.58-3.12-1.29-6.46-1.96-9.84-1.96Z"/><path class="cls-4" d="M249.63,156.72c-.97-5.19-1.63-10.43-1.99-15.7,.14-3.49,2.69-13.19,5.49-14.59,1.22-.66,2.51-1.17,3.85-1.52,2.46-3.33,5.69-6.02,9.41-7.84,3.72-1.82,7.83-2.71,11.97-2.59,14.93,0,25.86,5.82,30.37,13.75,4.51,7.93,3.55,20.05,3.53,23.6,.01,2.03-.27,4.04-.84,5.99l-3.93,.23-.28-2.18s-12.59-12.33-26.56-16.75c-5.63-1.96-11.36-3.6-17.17-4.91,0,0-4.44,13.03-9.55,17.45l-.21,6.39-4.09-1.33Z"/><path class="cls-1" d="M209.79,153.16s8.92,4.68,12.8,10.69c3.88,6.01,4.88,20.16-2.99,20.7s-11.28-8.49-12.26-11.11c-.98-2.62-1.33-5.85-7.38-7.88-6.05-2.04-19.58-4-22.01-8.02-2.43-4.02-6.45-6.43-6.26-19.53,0,0-4.21-13.57,2.06-19.32,6.26-5.75,13.36-5.59,26.1-5.24,12.73,.35,21.91-5.99,27.75-8.47,5.84-2.48,14.98-7.34,20.05-4.68,5.07,2.67,1.4,9.78,1.4,9.78,2.57,.92,4.68,2.81,5.89,5.26,1.38,3.7-3.81,10.81-3.81,10.81,0,0,2.99,.82,3.79,5.82,.79,5.01-6.49,9.64-12.92,11.39-8.48,1.84-17.06,3.19-25.7,4.02-3.25,.3-8.6,2.55-6.49,5.78Z"/><path class="cls-1" d="M40,236.25c-.21-.6-.61-1.12-1.13-1.49-.52-.37-1.14-.57-1.78-.57s-1.26,.2-1.78,.57c-.52,.37-.91,.89-1.13,1.49l-12.29,21.05c-1.59,2.74-.3,4.98,2.85,4.98h24.69c3.18,0,4.46-2.34,2.87-4.98l-12.31-21.05Z"/><path class="cls-2" d="M285.79,22.88c0,1.81-.54,3.58-1.54,5.08-1,1.5-2.43,2.68-4.1,3.37-1.67,.69-3.51,.87-5.28,.52s-3.4-1.22-4.68-2.5c-1.28-1.28-2.15-2.91-2.5-4.68-.35-1.77-.17-3.61,.52-5.28,.69-1.67,1.86-3.1,3.36-4.1,1.5-1.01,3.27-1.54,5.08-1.54,2.42,0,4.74,.97,6.45,2.69,1.71,1.71,2.68,4.04,2.68,6.46Z"/><path class="cls-2" d="M333.73,48.07c5.21,0,9.44-4.23,9.44-9.45s-4.23-9.45-9.44-9.45-9.44,4.23-9.44,9.45,4.23,9.45,9.44,9.45Z"/><path class="cls-2" d="M546.82,129.96c5.21,0,9.44-4.23,9.44-9.45s-4.23-9.45-9.44-9.45-9.44,4.23-9.44,9.45,4.23,9.45,9.44,9.45Z"/><path class="cls-3" d="M254.86,22.88c0,1.81-.53,3.59-1.53,5.1-1,1.51-2.43,2.69-4.1,3.39-1.67,.7-3.52,.88-5.29,.53-1.78-.35-3.41-1.22-4.69-2.5-1.28-1.28-2.16-2.92-2.51-4.69-.36-1.78-.18-3.62,.52-5.3,.69-1.68,1.87-3.11,3.37-4.12,1.51-1.01,3.28-1.55,5.09-1.55,2.42,0,4.75,.97,6.46,2.68,1.72,1.71,2.69,4.04,2.7,6.46Z"/><path class="cls-1" d="M223.98,22.88c0,1.81-.54,3.58-1.55,5.09-1.01,1.51-2.44,2.68-4.12,3.37-1.67,.69-3.52,.87-5.29,.5-1.78-.36-3.4-1.24-4.68-2.53-1.27-1.29-2.14-2.93-2.48-4.71-.34-1.78-.15-3.62,.56-5.29,.71-1.67,1.89-3.09,3.41-4.08,1.51-.99,3.29-1.51,5.1-1.5,2.4,.03,4.7,1.01,6.39,2.72,1.69,1.71,2.64,4.02,2.65,6.43Z"/><path class="cls-3" d="M262.76,198.96s4.04,9.36,17.76,9.36,17.9-8.73,17.9-8.73l.82-.68v-3.56s-4.88,5.94-18.18,5.94-18.69-5.94-18.69-5.94l.4,3.6Z"/><path class="cls-4" d="M169.77,130.99s-5.75,1.03-6.54,5.99c-.79,4.96,8.04,15.79,10.3,16.93h1.68s-4.44-10.04-2.99-15.51l-2.45-7.42Z"/><path class="cls-4" d="M188.72,163.22c3.35,.06,6.67,.64,9.84,1.73,1.98,.78,3.9,1.73,5.72,2.83-5.54,.15-10.98-1.45-15.56-4.56Z"/><path class="cls-4" d="M213.72,147.97s-4.67,1.52-4.32,4.21c3.43,2.28,6.74,4.73,9.93,7.35,1.59,1.66,2.73,2.81,2.73,2.81,0,0,.14-7.7-8.34-14.36Z"/><path class="cls-4" d="M449.68,79.34c0,1.91-.56,3.77-1.61,5.36-1.05,1.59-2.56,2.83-4.32,3.56-1.76,.73-3.69,.93-5.56,.56s-3.59-1.29-4.93-2.63c-1.35-1.35-2.27-3.06-2.64-4.93-.37-1.87-.18-3.81,.54-5.57,.73-1.76,1.96-3.27,3.55-4.33,1.58-1.06,3.44-1.63,5.35-1.63,2.55,0,4.99,1.01,6.8,2.81,1.8,1.8,2.82,4.25,2.83,6.8Z"/><path class="cls-1" d="M307.36,158.05l3.92-.23c.57-1.94,.85-3.96,.84-5.99,0-3.56,.93-15.67-3.53-23.6-3.74-6.67-12.08-11.91-23.52-13.33,7.71,3.34,15.93,8.58,14.25,15.34-2.48,9.85-37.05,3.27-37.05,3.27l.86,1.24,.21-.54c5.82,1.32,11.56,2.96,17.19,4.91,14.02,4.42,26.54,16.75,26.54,16.75l.28,2.18Z"/><path d="M541.03,302.65c-.15,.04-.3,.04-.44,0l-32.31-16.54c-9.05-4.05-19.24-4.79-28.78-2.11l-24.23,8.21c-9.97,2.8-20.63,1.67-29.81-3.13l-25.95-15.58c-.11-.06-.2-.15-.27-.24-.07-.1-.13-.21-.16-.33-.03-.12-.04-.24-.02-.37,.02-.12,.06-.24,.12-.35,.06-.11,.14-.2,.24-.27,.1-.07,.21-.13,.33-.15,.12-.03,.24-.03,.36-.01s.23,.07,.34,.13l25.96,15.48c8.7,4.55,18.81,5.62,28.27,2.97l24.27-8.23c10.08-2.82,20.84-1.99,30.37,2.34l32.31,16.51c.18,.1,.32,.25,.4,.44,.08,.19,.1,.4,.05,.6-.05,.2-.16,.38-.32,.51-.16,.13-.36,.2-.56,.21l-.16-.09Z"/><path d="M479.44,252.06c-3.86,0-7.63-1.14-10.84-3.28-3.21-2.14-5.71-5.19-7.19-8.76-1.48-3.57-1.87-7.5-1.12-11.29,.75-3.79,2.61-7.27,5.33-10.01,2.73-2.73,6.2-4.6,9.99-5.35,3.78-.75,7.71-.37,11.27,1.11,3.57,1.48,6.61,3.98,8.76,7.19,2.15,3.21,3.29,6.99,3.29,10.85,0,5.17-2.06,10.13-5.71,13.8-3.65,3.66-8.6,5.72-13.77,5.74Zm0-37.19c-3.49,0-6.9,1.03-9.8,2.96-2.9,1.94-5.17,4.69-6.51,7.92-1.34,3.23-1.69,6.78-1.01,10.21,.68,3.43,2.36,6.58,4.82,9.05,2.47,2.47,5.61,4.16,9.03,4.84,3.42,.68,6.97,.34,10.2-1,3.22-1.34,5.98-3.6,7.92-6.5,1.94-2.9,2.98-6.32,2.98-9.81,0-4.68-1.86-9.16-5.17-12.47-3.3-3.31-7.78-5.18-12.45-5.19Z"/><path d="M303.1,264.32c-.15,0-.29-.03-.42-.1-.13-.07-.24-.17-.32-.3l-21.77-31.39-21.73,31.3c-.11,.15-.25,.26-.42,.33-.17,.07-.36,.08-.54,.04-.17-.04-.33-.13-.46-.26-.12-.13-.21-.29-.24-.47l-9.77-50.94c-.02-.15-.01-.3,.03-.45,.04-.14,.12-.28,.22-.39l13.69-13.8c.1-.1,.22-.17,.36-.21,.13-.04,.28-.06,.41-.04,.14,.02,.28,.07,.4,.15,.12,.08,.22,.19,.3,.31l17.71,30.92,17.87-31.27c.07-.12,.17-.23,.28-.31,.12-.08,.25-.14,.39-.16,.14-.02,.28,0,.42,.04,.13,.04,.26,.12,.35,.22l12.9,13.1c.1,.11,.18,.24,.23,.38,.05,.14,.06,.29,.03,.44l-9.02,52c-.03,.18-.11,.35-.23,.49-.13,.13-.29,.23-.47,.26l-.21,.12Zm-53.73-51.46l9.35,48.3,20.89-30.1-17.64-30.78-12.59,12.58Zm32.31,18.2l21.03,30.06,8.53-49.31-11.68-11.86-17.87,31.11Z"/><path d="M285.98,186.8c-1.37,.01-2.73-.13-4.07-.42-.21-.08-.38-.24-.48-.44-.1-.2-.13-.43-.08-.65,.05-.22,.18-.41,.36-.54,.18-.13,.4-.2,.62-.18,0,0,6.05,1.38,9.79-1.24,.84-.62,1.54-1.41,2.04-2.32,.51-.91,.8-1.93,.88-2.97,.04-.24,.16-.46,.35-.61,.19-.15,.43-.23,.68-.21,.12,.01,.24,.05,.35,.12,.11,.06,.2,.14,.28,.24,.08,.1,.13,.21,.16,.33,.03,.12,.04,.24,.02,.37-.11,1.29-.51,2.54-1.15,3.66-.64,1.12-1.52,2.09-2.57,2.84-2.14,1.38-4.65,2.08-7.2,2.01Z"/><path d="M188.39,300.78c-7.13-.08-14.21-1.18-21.03-3.25-23.36-6.6-37.38-26.57-39.72-56.14-1.66-21.05,6.14-41.85,14.02-59.32,2.99-6.67,5.19-12.16,7.29-17.45,3.88-10.4,8.64-20.46,14.21-30.06,.06-.11,.15-.2,.24-.27,.1-.07,.21-.13,.33-.16,.12-.03,.24-.04,.37-.02,.12,.02,.24,.06,.35,.12,.1,.06,.2,.14,.27,.24,.07,.1,.13,.21,.16,.32,.03,.12,.04,.24,.02,.36-.02,.12-.06,.24-.12,.34-5.49,9.53-10.18,19.49-14.02,29.8-2.13,5.33-4.32,10.83-7.34,17.52-7.76,17.29-15.47,37.73-13.85,58.48,2.34,28.84,15.86,48.23,38.31,54.62,12.43,3.53,26.82,5.68,47.8-2.34,.23-.08,.48-.07,.7,.03,.22,.1,.4,.28,.49,.5,.04,.12,.07,.24,.06,.36,0,.12-.03,.25-.08,.36s-.12,.21-.21,.3c-.09,.08-.19,.15-.31,.2-8.9,3.52-18.37,5.37-27.94,5.45Z"/><path d="M185.75,250.4h-.12c-.25-.04-.47-.18-.61-.38-.15-.2-.21-.45-.18-.7,1.75-10.51,4.89-20.73,9.35-30.41,.37-.87,.7-1.57,.89-2.06l7.78-19.44c2.19-5.12,4.66-10.12,7.41-14.97l.89-1.66c.13-.18,.33-.31,.54-.36,.22-.05,.45-.02,.65,.08,.2,.11,.35,.28,.43,.49,.08,.21,.09,.44,0,.65l-.89,1.66c-2.67,4.77-5.07,9.68-7.2,14.71l-7.83,19.51c-.21,.49-.51,1.22-.91,2.1-4.46,9.52-7.6,19.6-9.34,29.96-.03,.21-.14,.41-.29,.55-.16,.14-.36,.23-.57,.24Z"/><path class="cls-4" d="M482.22,28.19c.8,0,1.58-.24,2.24-.68,.67-.44,1.18-1.08,1.49-1.82,.3-.74,.39-1.55,.23-2.34-.16-.78-.54-1.51-1.11-2.07-.56-.57-1.28-.95-2.07-1.11-.78-.16-1.6-.08-2.33,.23-.74,.31-1.37,.82-1.81,1.49-.44,.67-.68,1.45-.68,2.25,0,1.07,.43,2.1,1.18,2.86,.76,.76,1.79,1.19,2.86,1.19Z"/><path class="cls-4" d="M513.65,28.4c.84-.02,1.65-.28,2.34-.76,.69-.48,1.22-1.15,1.52-1.93,.31-.78,.38-1.63,.2-2.45-.17-.82-.59-1.57-1.18-2.16-.6-.59-1.36-.98-2.18-1.14-.82-.16-1.67-.07-2.44,.26-.77,.32-1.43,.87-1.89,1.57-.46,.7-.71,1.52-.71,2.36,0,.57,.12,1.13,.34,1.65,.22,.52,.54,.99,.95,1.39,.4,.4,.88,.71,1.41,.92,.52,.21,1.09,.31,1.65,.3Z"/><path class="cls-4" d="M545.07,28.07c.99-.08,1.92-.52,2.59-1.26,.68-.73,1.05-1.69,1.05-2.69s-.38-1.95-1.05-2.69c-.68-.73-1.6-1.18-2.59-1.26-.54-.04-1.09,.03-1.6,.21s-.98,.46-1.38,.83c-.4,.37-.72,.82-.94,1.32-.22,.5-.33,1.04-.33,1.58s.11,1.08,.33,1.58c.22,.5,.54,.95,.94,1.32,.4,.37,.87,.65,1.38,.83,.51,.18,1.06,.25,1.6,.21Z"/><path class="cls-4" d="M482.22,59.86c.84,0,1.66-.25,2.36-.72,.7-.47,1.24-1.13,1.57-1.91,.32-.78,.41-1.63,.24-2.46-.16-.83-.57-1.58-1.16-2.18-.6-.6-1.35-1-2.18-1.17-.83-.16-1.68-.08-2.46,.24s-1.44,.87-1.91,1.57c-.47,.7-.72,1.52-.72,2.37,0,1.13,.46,2.21,1.25,3,.8,.8,1.87,1.25,3,1.25Z"/><path class="cls-4" d="M513.65,60.07c.89,.02,1.76-.22,2.51-.7,.75-.48,1.34-1.17,1.69-1.98,.36-.81,.46-1.72,.3-2.59s-.57-1.68-1.19-2.32c-.62-.64-1.41-1.07-2.28-1.26-.87-.18-1.77-.1-2.59,.23-.82,.33-1.53,.91-2.02,1.64-.49,.74-.76,1.61-.76,2.49,0,1.16,.46,2.28,1.27,3.11,.81,.83,1.91,1.32,3.07,1.36Z"/><path class="cls-4" d="M545.07,59.74c.82,0,1.63-.24,2.31-.7,.68-.46,1.22-1.11,1.53-1.87,.32-.76,.4-1.6,.23-2.41-.16-.81-.56-1.55-1.14-2.13-.58-.58-1.33-.98-2.14-1.13s-1.65-.07-2.4,.25c-.76,.32-1.41,.86-1.86,1.54-.45,.69-.69,1.49-.69,2.32,0,.55,.11,1.09,.32,1.59,.21,.5,.52,.96,.9,1.35,.39,.38,.85,.69,1.35,.9,.5,.21,1.04,.31,1.59,.31Z"/><path class="cls-4" d="M482.22,90.99c.78,0,1.55-.23,2.2-.67,.65-.44,1.16-1.05,1.45-1.78,.3-.72,.38-1.52,.22-2.29-.15-.77-.53-1.47-1.09-2.02-.56-.55-1.26-.93-2.03-1.08-.77-.15-1.56-.07-2.28,.23-.72,.3-1.34,.81-1.77,1.47-.43,.65-.66,1.42-.65,2.2,0,1.04,.43,2.04,1.17,2.78,.74,.74,1.74,1.15,2.78,1.15Z"/><path class="cls-4" d="M513.65,91.22c.82,0,1.63-.24,2.31-.7,.68-.46,1.22-1.11,1.53-1.87,.31-.76,.39-1.6,.23-2.41-.16-.81-.56-1.55-1.14-2.13-.58-.58-1.33-.98-2.14-1.13-.81-.16-1.65-.07-2.41,.25-.76,.32-1.41,.86-1.86,1.54-.45,.69-.69,1.5-.69,2.32,0,.55,.11,1.09,.32,1.59,.21,.5,.52,.96,.9,1.35,.39,.38,.85,.69,1.35,.9,.51,.21,1.04,.31,1.59,.31Z"/><path class="cls-4" d="M545.07,90.92c.77,0,1.52-.23,2.16-.66,.64-.43,1.14-1.04,1.43-1.75,.29-.71,.37-1.49,.22-2.25-.15-.75-.52-1.45-1.07-1.99-.55-.54-1.24-.91-1.99-1.06-.75-.15-1.53-.07-2.24,.23-.71,.3-1.31,.8-1.74,1.44-.42,.64-.65,1.39-.64,2.16,0,.51,.1,1.01,.3,1.48,.2,.47,.48,.9,.84,1.26,.36,.36,.79,.64,1.26,.83,.47,.19,.97,.29,1.48,.29Z"/><path d="M427.17,423H128.34c-.16,0-.3-.1-.41-.27-.11-.18-.17-.41-.17-.66,0-.12,.01-.24,.04-.35s.07-.21,.13-.3c.05-.09,.12-.15,.19-.2,.07-.04,.15-.07,.22-.06H427.17c.08,0,.15,.02,.22,.06,.07,.04,.14,.11,.19,.2,.05,.08,.1,.19,.13,.3,.03,.11,.04,.23,.04,.35s-.01,.24-.04,.36c-.03,.11-.07,.22-.13,.3-.05,.09-.12,.16-.19,.2-.07,.05-.15,.07-.22,.07Z"/><path d="M267.5,158.31c.72-.12,1.24,.21,1.45,2.88,.21,2.67-.54,3.51-1.21,3.49-.68-.02-1.4-.94-1.4-3.09s.19-3.11,1.17-3.27Z"/><path d="M249.39,177.77h-.68c-2.1-.13-4.1-.87-5.77-2.15-1.67-1.27-2.92-3.01-3.6-5-.68-1.99-.75-4.13-.21-6.16,.54-2.03,1.67-3.85,3.25-5.24,1.46-1.3,3.26-2.17,5.2-2.51,1.93-.34,3.92-.12,5.74,.61,.11,.04,.22,.11,.3,.19,.09,.08,.16,.18,.2,.3,.05,.11,.07,.23,.07,.35,0,.12-.02,.24-.07,.35-.04,.11-.11,.22-.2,.31-.08,.09-.19,.16-.3,.21-.11,.05-.24,.08-.36,.08-.12,0-.25-.02-.36-.06-.85-.36-1.76-.56-2.69-.61-1.15-.07-2.3,.08-3.38,.45-1.09,.37-2.09,.96-2.95,1.72-.87,.76-1.58,1.68-2.1,2.72-.51,1.04-.81,2.16-.87,3.32-.08,1.15,.07,2.31,.44,3.4,.37,1.09,.95,2.11,1.71,2.98,.76,.87,1.68,1.58,2.72,2.09,1.03,.51,2.16,.81,3.31,.89,1.62,.11,3.23-.22,4.67-.96,.11-.08,.23-.13,.36-.16,.13-.03,.27-.02,.4,0,.13,.03,.25,.09,.36,.17,.11,.08,.19,.18,.26,.3,.06,.12,.1,.25,.11,.38,0,.13-.01,.27-.06,.39-.05,.12-.12,.24-.22,.33-.1,.09-.21,.17-.34,.21-1.54,.76-3.24,1.13-4.95,1.08Z"/><path d="M247.27,173.09c-.19,0-.38-.06-.54-.17-.16-.11-.28-.27-.34-.45-.06-.18-.07-.38-.02-.56,.05-.18,.16-.35,.31-.47l5.63-4.35-6.21-4.68c-.1-.07-.18-.16-.25-.26-.06-.1-.11-.22-.13-.34-.02-.12-.01-.24,.01-.36,.03-.12,.08-.23,.15-.33,.07-.1,.16-.18,.27-.25,.1-.06,.22-.11,.34-.13,.12-.02,.25-.01,.37,.01,.12,.03,.23,.08,.33,.15l7.22,5.36c.12,.08,.21,.19,.27,.32,.07,.13,.1,.27,.1,.41s-.03,.29-.1,.42c-.06,.13-.16,.24-.27,.33l-6.52,5.05c-.17,.17-.39,.28-.63,.3Z"/><path d="M311.84,177.77c-1.7,0-3.38-.4-4.88-1.19-.13-.04-.24-.12-.34-.21-.1-.09-.17-.21-.22-.33-.05-.12-.07-.26-.06-.39s.04-.26,.11-.38c.06-.12,.15-.22,.26-.3,.11-.08,.23-.14,.36-.17,.13-.03,.27-.03,.4,0,.13,.03,.25,.08,.36,.16,1.89,1,4.09,1.27,6.17,.76,2.08-.51,3.9-1.78,5.11-3.55s1.73-3.93,1.46-6.06c-.27-2.13-1.32-4.08-2.93-5.49-.86-.76-1.86-1.35-2.95-1.73-1.09-.37-2.24-.53-3.38-.45-1,.03-1.99,.24-2.92,.63-.23,.09-.48,.1-.71,0-.23-.09-.41-.27-.51-.49-.05-.11-.08-.23-.08-.35,0-.12,.02-.24,.07-.36,.05-.11,.11-.22,.2-.3,.09-.09,.19-.15,.3-.2,1.13-.4,2.33-.62,3.53-.63,2.77-.11,5.48,.86,7.54,2.72,2.06,1.86,3.31,4.45,3.49,7.22,.17,2.77-.74,5.5-2.55,7.6-1.81,2.1-4.37,3.41-7.14,3.64l-.68-.14Z"/><path d="M313.97,173.09c-.2,0-.4-.07-.56-.19l-6.54-5.05c-.11-.09-.2-.21-.26-.34-.06-.13-.09-.27-.09-.41,0-.14,.03-.28,.1-.41,.07-.13,.16-.24,.27-.32l7.22-5.36c.1-.07,.21-.12,.33-.15,.12-.03,.24-.03,.36-.01,.12,.02,.23,.06,.34,.13,.1,.06,.19,.15,.26,.25,.08,.1,.13,.21,.16,.32,.03,.12,.04,.24,.02,.36-.02,.12-.06,.24-.12,.34-.06,.1-.15,.19-.25,.26l-6.21,4.68,5.56,4.3c.15,.12,.26,.29,.31,.47,.05,.18,.05,.38-.02,.56-.06,.18-.18,.34-.34,.45-.16,.11-.34,.17-.54,.17v-.07Z"/><path d="M378.14,389.11c-11.68,0-24.32-5.82-32.71-26.24-.05-.11-.09-.24-.09-.37,0-.13,.02-.25,.06-.37,.05-.12,.12-.23,.21-.32,.09-.09,.2-.16,.32-.21,.12-.05,.24-.07,.37-.07,.13,0,.25,.03,.37,.08s.22,.13,.3,.23,.15,.21,.19,.33c8.6,21.05,22.73,28.96,42.05,23.39,32.5-9.36,23.55-50.62,20.63-64.18-4.3-19.84-15.93-68.93-16.05-69.42-.03-.12-.03-.24-.01-.36,.02-.12,.06-.24,.13-.34,.07-.1,.15-.19,.25-.27s.21-.12,.33-.15c.24-.04,.49,0,.7,.13,.21,.13,.36,.33,.43,.57,0,.49,11.68,49.61,16.03,69.45,3.04,14.04,12.27,56.56-21.91,66.36-3.76,1.13-7.66,1.73-11.59,1.78Z"/><path d="M282.4,202.31h-3.71c-6.03,.19-11.94-1.78-16.66-5.54-4.09-3.51-6.78-9.12-8.25-17.22-.9-9.21-1.28-18.47-1.12-27.72,0-.25,.1-.49,.27-.66,.18-.18,.41-.27,.66-.27s.49,.1,.66,.27,.27,.41,.27,.66c-.16,9.13,.2,18.27,1.07,27.37,1.4,7.65,3.9,12.91,7.64,16.14,4.39,3.46,9.86,5.26,15.44,5.08h3.71c5.59,.18,11.07-1.62,15.47-5.08,3.74-3.23,6.24-8.49,7.64-16.14,.82-7.77,1.14-15.58,.93-23.39,0-.12,.02-.24,.06-.36,.04-.12,.11-.22,.19-.31,.09-.09,.19-.16,.3-.21,.11-.05,.23-.08,.36-.08,.58,0,.93,.4,.93,.91,.2,7.91-.12,15.83-.96,23.7-1.47,8.09-4.18,13.71-8.27,17.21-4.71,3.8-10.61,5.8-16.66,5.64Z"/><path d="M262.03,199.48c-.25,0-.49-.1-.66-.27-.17-.18-.27-.41-.27-.66v-3.02c.04-.22,.15-.42,.32-.56,.17-.15,.38-.22,.61-.22s.44,.08,.61,.22c.17,.14,.28,.34,.32,.56v3.02c0,.12-.02,.24-.06,.36-.05,.11-.11,.22-.2,.3-.08,.09-.19,.16-.3,.2-.11,.05-.23,.07-.35,.07Z"/><path d="M299.04,199.13c-.25,0-.49-.11-.66-.29-.18-.18-.27-.42-.27-.67v-2.67c.02-.25,.13-.48,.31-.64,.18-.16,.42-.25,.67-.25,.24,.01,.47,.12,.64,.3,.17,.18,.26,.42,.25,.66v2.67c-.01,.24-.12,.47-.29,.63-.17,.16-.4,.26-.65,.26Z"/><path d="M311.23,158.47h-.14c-.12-.02-.24-.06-.34-.12-.1-.06-.19-.15-.27-.24-.07-.1-.12-.21-.15-.33-.03-.12-.03-.24-.01-.36,1.76-9.21,1.04-18.72-2.08-27.55-4.67-13.05-23.74-15.91-35.86-13.78-5.73,1.17-10.83,4.41-14.32,9.1-.07,.1-.15,.19-.25,.26-.1,.07-.21,.11-.33,.14-1.63,.32-3.16,1.06-4.42,2.15-.09,.1-.19,.18-.31,.24-.12,.06-.25,.09-.38,.09-.13,0-.26-.03-.39-.08-.12-.05-.23-.13-.32-.23-.09-.1-.16-.22-.2-.34-.04-.13-.05-.26-.04-.39,.02-.13,.06-.26,.13-.37,.07-.11,.16-.21,.27-.29,1.4-1.23,3.09-2.09,4.91-2.5,3.77-4.98,9.23-8.4,15.35-9.61,12.76-2.34,32.96,.94,37.92,14.99,3.24,9.13,3.99,18.95,2.17,28.47-.04,.22-.15,.42-.33,.56-.17,.14-.39,.22-.61,.21Z"/><path d="M249.79,158.45c-.2,0-.4-.07-.56-.19-.16-.12-.28-.3-.33-.49-1.41-5.35-2.15-10.85-2.2-16.37-.02-.13-.01-.27,.02-.4,.04-.13,.1-.25,.19-.35,.09-.1,.2-.19,.32-.24,.12-.06,.26-.09,.39-.09s.27,.03,.39,.09c.12,.06,.23,.14,.32,.24,.09,.1,.15,.22,.19,.35,.04,.13,.04,.27,.02,.4,.07,5.35,.79,10.68,2.13,15.86,.07,.24,.04,.49-.08,.7-.12,.22-.31,.37-.55,.45l-.26,.05Z"/><path d="M201.69,422.37c-.13,0-.26-.03-.37-.09-.12-.05-.22-.13-.31-.23-.09-.1-.15-.21-.19-.33-.04-.12-.05-.25-.04-.38l1.73-16.63c.04-.24,.17-.46,.36-.61,.19-.15,.43-.23,.67-.21,.12,.01,.24,.05,.35,.11,.11,.06,.2,.14,.28,.23,.08,.1,.13,.21,.17,.32,.03,.12,.04,.24,.02,.36l-1.73,16.63c-.02,.23-.13,.44-.31,.59-.17,.15-.4,.23-.63,.23Z"/><path d="M213.07,317.65h-.14c-.12-.02-.24-.05-.34-.11-.1-.06-.2-.14-.27-.24-.07-.1-.13-.21-.16-.32-.03-.12-.04-.24-.02-.36l6.07-47.15c.01-.12,.05-.24,.12-.35,.06-.11,.14-.2,.24-.27,.1-.07,.21-.13,.33-.16,.12-.03,.24-.04,.37-.02,.12,.01,.24,.05,.35,.11,.11,.06,.2,.14,.27,.24,.07,.1,.13,.21,.16,.33,.03,.12,.04,.24,.01,.36l-6.07,47.16c-.04,.22-.15,.42-.32,.56-.17,.15-.38,.23-.6,.24Z"/><path d="M352.21,422.37c-.23,0-.46-.08-.64-.23-.17-.16-.28-.38-.3-.61-6.31-67.11-11.12-107.08-14.02-128.81-.03-.25,.03-.49,.18-.69,.15-.2,.37-.33,.61-.36,.25-.03,.49,.04,.69,.2,.2,.15,.33,.38,.36,.62,2.9,21.73,7.71,61.75,14.02,128.88,.02,.24-.06,.49-.21,.67-.16,.19-.38,.31-.63,.33h-.07Z"/><path d="M261.07,155.46h-.33c-.11-.04-.22-.1-.31-.18-.09-.08-.16-.18-.21-.29-.05-.11-.08-.23-.08-.35,0-.12,.02-.24,.06-.35,1.66-4.68,8.01-5.92,11.68-5.08,.23,.07,.42,.22,.55,.42,.12,.2,.16,.45,.11,.68-.05,.23-.19,.44-.38,.57-.2,.13-.43,.19-.67,.15-3.11-.7-8.41,.47-9.65,3.88-.07,.15-.18,.28-.31,.37-.14,.09-.29,.15-.46,.16Z"/><path d="M298.41,155.46c-.19,0-.38-.05-.54-.16-.16-.11-.28-.26-.35-.45-1.24-3.41-6.52-4.68-9.63-3.88-.12,.03-.24,.03-.36,.01s-.24-.06-.34-.13c-.1-.06-.19-.15-.26-.25-.07-.1-.12-.21-.15-.33-.05-.24,0-.49,.13-.7,.13-.21,.34-.36,.58-.42,3.79-.84,10.14,.47,11.68,5.08,.04,.11,.06,.23,.06,.36,0,.12-.04,.24-.09,.35-.05,.11-.13,.21-.22,.29-.09,.08-.2,.14-.32,.18-.06,.03-.12,.06-.19,.07Z"/><path d="M260.63,130.5c-.15,0-.3-.03-.43-.09-.13-.07-.25-.16-.34-.28l-2.87-4.23c-.14-.2-.19-.45-.14-.69,.04-.24,.18-.45,.38-.6,.1-.07,.21-.12,.33-.15,.12-.03,.24-.03,.36-.01,.12,.02,.23,.06,.34,.13,.1,.06,.19,.15,.26,.25l2.99,4.23c.14,.2,.2,.45,.15,.69-.04,.24-.17,.46-.36,.6-.19,.14-.42,.2-.65,.16Z"/><path d="M361.63,238.17c-.14,0-.28-.03-.4-.09-.12-.06-.23-.15-.32-.26-17.15-20.51-35.04-24.47-48.85-25.59-.25-.02-.47-.14-.63-.33-.16-.19-.24-.43-.23-.68,0-.12,.04-.24,.1-.35s.13-.21,.23-.29c.09-.08,.2-.14,.32-.18,.12-.04,.24-.05,.36-.04,14.02,1.17,32.54,5.22,50.14,26.27,.16,.19,.23,.43,.21,.68-.02,.25-.14,.47-.33,.63-.08,.07-.17,.13-.27,.17-.1,.04-.21,.06-.32,.06Z"/><path d="M49.43,263.31H24.74c-.78,.07-1.56-.07-2.27-.41-.71-.34-1.31-.86-1.75-1.51-.35-.7-.51-1.49-.46-2.28,.05-.79,.32-1.54,.76-2.19l12.29-21.05c.31-.72,.83-1.33,1.49-1.76,.66-.43,1.43-.66,2.21-.66s1.55,.23,2.21,.66c.66,.43,1.18,1.04,1.49,1.76l12.31,21.05c.51,.62,.82,1.38,.89,2.18,.07,.8-.11,1.6-.51,2.29-.4,.69-1,1.25-1.73,1.59-.72,.34-1.54,.45-2.33,.32h.07Zm-12.34-28.07c-.46,.06-.9,.24-1.27,.51-.37,.28-.67,.65-.85,1.08l-12.29,21.05c-.27,.37-.44,.8-.51,1.25-.06,.45,0,.92,.16,1.34,.27,.35,.63,.62,1.04,.8,.41,.17,.85,.25,1.3,.2h24.76c.44,.04,.89-.04,1.29-.21,.41-.18,.77-.45,1.04-.79,.16-.43,.22-.89,.15-1.35-.07-.46-.25-.89-.52-1.25l-12.29-21.05c-.17-.42-.44-.79-.79-1.08-.35-.29-.77-.48-1.21-.56v.05Z"/><path d="M333.83,283.45c-2.37,.11-4.74-.4-6.85-1.5-.81-.45-1.51-1.06-2.07-1.8-.56-.74-.95-1.58-1.16-2.48-1.52-6.22,6.21-10.5,6.54-10.67,.11-.06,.22-.1,.34-.11,.12-.01,.24,0,.36,.03,.12,.03,.22,.09,.32,.17,.09,.08,.17,.17,.23,.27,.06,.11,.1,.22,.11,.34,.01,.12,0,.24-.03,.36-.03,.12-.09,.22-.17,.32-.08,.09-.17,.17-.27,.23,0,0-6.82,3.79-5.63,8.61,.14,.66,.43,1.27,.83,1.81,.4,.54,.92,.98,1.51,1.3,3.06,1.8,8.69,1.66,15.84-.35,9.84-2.81,27.75-11.7,28.04-11.86,.22-.11,.47-.12,.7-.04,.23,.08,.42,.24,.53,.46,.06,.11,.09,.23,.1,.35,0,.12,0,.24-.05,.36-.04,.12-.1,.22-.18,.31-.08,.09-.18,.17-.29,.22-.72,.37-18.25,9.15-28.27,11.98-3.4,1.04-6.93,1.61-10.49,1.68Z"/><path d="M340.93,292.67c-2.57,.22-5.14-.44-7.29-1.87-5.37-4.51-2.59-8.84-2.55-8.89,.15-.17,.36-.28,.58-.31s.45,.02,.64,.15c.19,.13,.33,.32,.39,.54,.06,.22,.04,.45-.07,.66,0,.14-1.85,3.04,2.2,6.43,4.04,3.39,21.03,.26,35.04-7.02,7.05-3.53,13.36-8.38,18.57-14.29,2.34-2.92,4-6.32,4.87-9.96,.87-3.64,.92-7.43,.15-11.09-1.23-7.38-4.47-14.28-9.35-19.95-.44-.54-.91-1.05-1.35-1.54-2.54-2.28-4.19-5.37-4.67-8.75-.12-1.61-.16-3.44-.23-5.31-.19-7.23-.42-15.41-5.35-16.63-1.37-.44-2.83-.49-4.23-.16-1.4,.33-2.68,1.04-3.71,2.05-3.6,3.67-4.23,11.18-1.73,20.58,.86,3.23,1.82,6.43,2.78,9.66l1.05,3.6c.39,1,.44,2.1,.14,3.13-.33,.71-.84,1.32-1.47,1.78-6.17,5.14-13.24,9.11-20.84,11.7-10.4,3.6-16.52,7.55-18.22,11.69-.36,.89-.51,1.85-.45,2.81,.06,.96,.33,1.89,.8,2.73,.31,.5,.72,.94,1.2,1.28,.48,.34,1.03,.58,1.61,.71,6.26,1.96,21.98-.93,38.8-10.2,.1-.06,.22-.1,.34-.12s.24,0,.36,.03c.12,.03,.23,.09,.32,.17,.1,.08,.18,.17,.23,.28,.06,.11,.1,.23,.11,.35,.01,.12,0,.25-.03,.36-.03,.12-.09,.23-.17,.32-.08,.1-.18,.17-.29,.23-15.39,8.49-32.31,12.84-40.25,10.36-.82-.2-1.59-.56-2.27-1.07-.67-.51-1.24-1.15-1.66-1.88-.57-1.07-.9-2.25-.97-3.47-.06-1.21,.14-2.42,.6-3.55,1.94-4.68,8.25-8.91,19.32-12.75,7.39-2.54,14.26-6.42,20.25-11.44,.38-.28,.7-.64,.94-1.05,.13-.65,.06-1.33-.19-1.94l-1.08-3.6c-.93-3.23-1.89-6.46-2.78-9.71-2.66-10.06-1.87-18.22,2.2-22.36,1.26-1.23,2.83-2.09,4.54-2.5,1.71-.41,3.5-.36,5.18,.16,6.31,1.57,6.54,10.5,6.77,18.36,0,1.85,0,3.63,.23,5.24,.49,2.97,2.01,5.68,4.28,7.65,.47,.51,.93,1.03,1.38,1.57,5.08,5.94,8.44,13.15,9.72,20.86,.8,3.93,.73,7.98-.21,11.87-.94,3.89-2.73,7.53-5.23,10.65-5.37,6.11-11.88,11.12-19.16,14.74-9.74,5.05-21.77,8.7-29.81,8.7Z"/><path d="M254.37,182.03h-29.95c-.25,0-.49-.1-.66-.27-.18-.18-.27-.41-.27-.66s.1-.49,.27-.66c.18-.17,.41-.27,.66-.27h29.95c.25,0,.49,.1,.66,.27,.18,.18,.27,.41,.27,.66s-.1,.49-.27,.66c-.18,.18-.41,.27-.66,.27Z"/><path d="M305.53,114.29c-.12,0-.24-.02-.36-.06s-.22-.11-.3-.2c-.09-.08-.16-.19-.2-.3-.05-.11-.07-.23-.07-.36V26.69c0-6.58-2.62-12.89-7.26-17.55-4.65-4.66-10.95-7.28-17.52-7.29H71.89c-6.56,.03-12.85,2.66-17.48,7.32-4.63,4.65-7.23,10.96-7.24,17.53v40.4c0,.25-.1,.49-.27,.66-.18,.18-.41,.27-.66,.27s-.49-.1-.66-.27c-.18-.18-.27-.41-.27-.66V26.69c0-7.08,2.82-13.86,7.81-18.87C58.11,2.82,64.89,0,71.96,0h207.92c7.07,0,13.85,2.82,18.84,7.82,5,5,7.81,11.79,7.82,18.87V113.38c0,.13-.03,.25-.08,.37-.05,.12-.13,.22-.22,.31-.1,.09-.21,.15-.33,.19-.12,.04-.25,.05-.38,.04Z"/><path d="M117.84,182.03h-45.88c-7.07,0-13.84-2.82-18.84-7.82-5-5-7.81-11.79-7.81-18.86,0-.25,.1-.49,.27-.66,.18-.18,.41-.27,.66-.27s.49,.1,.66,.27c.18,.18,.27,.41,.27,.66,.02,6.57,2.64,12.87,7.28,17.51,4.65,4.64,10.94,7.25,17.5,7.26h45.88c.25,0,.49,.1,.66,.27,.18,.18,.27,.41,.27,.66s-.1,.49-.27,.66c-.18,.18-.41,.27-.66,.27v.05Z"/><path d="M518.65,354.89h-103.73c-.12,0-.24-.02-.35-.06-.11-.04-.21-.11-.3-.2-.09-.09-.15-.19-.2-.3-.04-.11-.07-.23-.06-.35,0-.12,.02-.24,.06-.36,.04-.11,.11-.22,.2-.3,.08-.09,.19-.16,.3-.2,.11-.05,.23-.07,.35-.07h103.73c5.66,0,11.09-2.26,15.09-6.27,4-4.01,6.26-9.44,6.26-15.11v-77.82c0-.12,.02-.24,.07-.36,.05-.11,.12-.22,.2-.3,.09-.09,.19-.16,.3-.2,.11-.05,.23-.07,.36-.07s.24,.02,.35,.07c.11,.05,.21,.12,.3,.2,.08,.09,.15,.19,.2,.3,.04,.11,.07,.24,.06,.36v77.82c0,6.16-2.45,12.06-6.8,16.42-4.35,4.36-10.25,6.8-16.4,6.81Z"/><path d="M541.03,216.27c-.25,0-.49-.1-.66-.27-.17-.18-.27-.41-.27-.66v-8.23c0-2.81-.56-5.6-1.64-8.2-1.08-2.6-2.66-4.96-4.65-6.94-1.99-1.99-4.36-3.56-6.96-4.63-2.6-1.07-5.39-1.62-8.2-1.61h-166.34c-5.66,0-11.08,2.26-15.08,6.27-4,4.01-6.25,9.44-6.25,15.11v7.65c0,.25-.1,.49-.27,.66-.17,.18-.41,.27-.66,.27s-.49-.1-.66-.27c-.17-.18-.27-.41-.27-.66v-7.65c.04-6.15,2.5-12.03,6.84-16.38,4.34-4.35,10.22-6.81,16.36-6.85h166.34c3.06-.02,6.09,.57,8.92,1.73,2.83,1.16,5.41,2.87,7.58,5.02,2.17,2.16,3.9,4.73,5.07,7.55,1.18,2.83,1.79,5.86,1.79,8.92v8.23c0,.13-.02,.26-.07,.37-.05,.12-.12,.23-.22,.31-.09,.09-.2,.16-.32,.2-.12,.04-.25,.06-.38,.05Z"/><path d="M275.68,406.11H38.52c-6.14-.04-12.02-2.5-16.36-6.85-4.34-4.35-6.8-10.23-6.84-16.38v-42.76c0-6.16,2.45-12.06,6.8-16.42,4.35-4.36,10.25-6.8,16.4-6.81H111.98c.25,0,.49,.1,.66,.27,.17,.18,.27,.41,.27,.66,0,.12-.02,.24-.07,.35-.05,.11-.12,.21-.2,.3-.09,.08-.19,.15-.3,.2-.11,.05-.24,.07-.36,.06H38.52c-5.66,0-11.08,2.26-15.08,6.27-4,4.01-6.25,9.44-6.25,15.11v42.76c0,5.66,2.25,11.1,6.25,15.1,4,4.01,9.43,6.26,15.08,6.26h237.15c5.66,0,11.09-2.25,15.09-6.25,4-4,6.26-9.44,6.26-15.1v-42.76c0-5.67-2.26-11.1-6.26-15.11s-9.43-6.26-15.09-6.27h-95.29c-.12,0-.24-.02-.36-.06-.11-.04-.22-.11-.3-.2-.09-.08-.16-.19-.2-.3-.05-.11-.07-.23-.07-.35,0-.25,.1-.49,.27-.66,.18-.18,.41-.27,.66-.27h95.29c6.15,0,12.05,2.46,16.4,6.81,4.35,4.35,6.8,10.26,6.8,16.42v42.76c0,6.16-2.45,12.06-6.8,16.42-4.35,4.35-10.25,6.8-16.4,6.81Z"/><path d="M171.71,138.59c-.19,0-.37-.06-.53-.17-.15-.11-.27-.26-.34-.44-.21-.61-5.07-14.57,4.18-21.82,5.14-4.05,11.4-3.86,18.01-3.67,5.85,.44,11.73-.1,17.4-1.59,5.02-1.67,9.93-3.63,14.72-5.87,10.12-4.49,18.85-8.35,23.74-5.03,1.15,.92,1.97,2.2,2.33,3.63,.37,1.43,.26,2.94-.3,4.3-2.5,8.56-14.88,18.1-36.19,18.71-.12,.01-.25,0-.37-.04-.12-.04-.23-.11-.32-.19s-.16-.19-.21-.31c-.05-.12-.07-.24-.06-.37,0-.24,.08-.48,.25-.66s.4-.29,.64-.3c23.36-.72,32.71-11.7,34.48-17.45,.44-.99,.55-2.09,.32-3.14-.24-1.05-.81-2-1.62-2.71-4.04-2.76-12.73,1.1-21.94,5.19-4.85,2.28-9.84,4.26-14.93,5.94-5.87,1.56-11.96,2.12-18.01,1.66-6.54-.16-12.17-.33-16.8,3.28-8.2,6.43-3.62,19.6-3.57,19.74,.08,.23,.06,.49-.04,.71s-.29,.4-.52,.49l-.33,.12Z"/><path d="M221.43,135.13c-2.01,0-4.07,0-6.15-.23-.12,0-.24-.04-.35-.1-.11-.06-.21-.13-.29-.23-.08-.09-.14-.2-.18-.32-.04-.12-.05-.24-.04-.36,0-.12,.04-.24,.1-.35,.06-.11,.13-.21,.23-.28,.09-.08,.2-.14,.32-.17,.12-.04,.24-.05,.36-.04,18.69,1.43,35.25-4.09,38.34-12.84,.47-.94,.71-1.97,.71-3.02s-.24-2.08-.71-3.02c-.62-.74-1.38-1.35-2.24-1.79-.86-.44-1.8-.7-2.76-.76-.12,0-.24-.02-.36-.07-.11-.05-.22-.12-.3-.2-.09-.09-.16-.19-.2-.3-.05-.11-.07-.24-.07-.36s.02-.24,.07-.36c.05-.11,.12-.22,.2-.3,.09-.09,.19-.16,.3-.2,.11-.05,.24-.07,.36-.07,1.25,.09,2.46,.43,3.57,1.01,1.11,.58,2.09,1.38,2.87,2.36,.66,1.17,1.03,2.47,1.08,3.81,.05,1.34-.21,2.67-.78,3.89-3.06,8.65-16.94,14.31-34.09,14.31Z"/><path d="M192.95,147.53c-.24,0-.46-.09-.64-.25-.17-.16-.28-.38-.3-.62,0-.12,.01-.25,.05-.36s.11-.22,.19-.31c.08-.09,.18-.16,.29-.22,.11-.05,.23-.08,.35-.09,16.35-.89,18.36-16.37,18.43-17.1,.03-.24,.15-.47,.35-.62,.19-.15,.44-.22,.68-.2,.24,.03,.47,.15,.62,.35,.15,.19,.22,.44,.2,.68,0,.19-2.34,17.78-20.19,18.71l-.05,.02Z"/><path d="M218.04,185.75c-.74,0-1.47-.14-2.17-.38-5.54-1.87-9.04-10.55-10.28-14.2-1.01-2.95-5.3-4.68-7.87-5.54-2.6-.9-5.26-1.62-7.97-2.15-1.59-.35-3.2-.7-4.81-1.15-2.47-.62-4.77-1.78-6.73-3.4-1.96-1.62-3.54-3.65-4.62-5.96-2.22-4.79-3.18-10.07-2.78-15.34,0-.12,.03-.24,.08-.36,.05-.11,.13-.21,.22-.29,.09-.08,.2-.14,.32-.18,.12-.04,.24-.05,.36-.04,.24,.02,.47,.13,.63,.31,.16,.18,.24,.42,.23,.67-.37,4.91,.52,9.82,2.57,14.29,.95,2.08,2.37,3.91,4.13,5.37,1.76,1.45,3.83,2.49,6.06,3.03,1.56,.44,3.15,.79,4.67,1.12,2.79,.58,5.53,1.36,8.2,2.34,2.87,1.08,7.69,2.9,8.97,6.69,.91,2.64,4.23,11.37,9.11,13.03,.85,.26,1.75,.31,2.63,.15,.87-.16,1.7-.53,2.4-1.08,1.13-.79,2.06-1.84,2.71-3.06,.65-1.22,1-2.58,1.03-3.96-.03-2.97-.68-5.91-1.92-8.61-1.24-2.7-3.04-5.11-5.28-7.07-2.45-2.13-5.1-4.01-7.92-5.61-.39-.17-.75-.41-1.05-.72-.3-.31-.53-.68-.68-1.08-.12-.57-.05-1.16,.19-1.68,.34-.85,.88-1.61,1.56-2.22,.68-.61,1.49-1.06,2.37-1.31,1.24-.32,2.51-.49,3.79-.51,6.28-.25,12.54-1.04,18.69-2.34,5.11-.95,10.02-2.78,14.51-5.4,1.89-.99,3.38-2.6,4.23-4.56,.46-1.48,.35-3.07-.33-4.46-.67-1.39-1.85-2.47-3.3-3.02-.2-.11-.34-.3-.41-.51-.07-.22-.06-.45,.03-.66,.09-.21,.25-.38,.45-.48,.2-.1,.44-.12,.66-.06,1.84,.71,3.35,2.09,4.22,3.86,.87,1.78,1.03,3.81,.46,5.7-.96,2.4-2.73,4.38-5,5.59-4.67,2.74-9.79,4.65-15.11,5.64-6.22,1.37-12.54,2.2-18.9,2.5-1.19,.01-2.37,.16-3.53,.44-.58,.2-1.12,.52-1.56,.95-.44,.43-.79,.95-1.01,1.53-.04,.18-.04,.38,0,.56,0,.23,.56,.49,.82,.63,2.96,1.64,5.74,3.57,8.32,5.75,2.46,2.14,4.43,4.79,5.78,7.76,1.35,2.97,2.06,6.19,2.07,9.46-.02,1.68-.44,3.32-1.23,4.8-.79,1.48-1.92,2.74-3.3,3.69-1.36,.98-2.99,1.52-4.67,1.52Z"/><path d="M49.22,276.27H24.97c-4.87,0-9.54-1.94-12.99-5.39-3.45-3.45-5.39-8.12-5.4-12.99v-17.33c.02-4.87,1.97-9.53,5.42-12.96,3.44-3.44,8.11-5.37,12.97-5.37h24.25c4.87,0,9.55,1.95,12.99,5.4,3.45,3.45,5.39,8.13,5.39,13.01v17.33c-.03,4.86-1.98,9.52-5.42,12.95s-8.1,5.36-12.96,5.37Zm-24.25-52.28c-4.38,0-8.58,1.75-11.68,4.86-3.1,3.1-4.84,7.31-4.84,11.7v17.33c0,4.38,1.75,8.59,4.84,11.69,3.1,3.1,7.29,4.84,11.67,4.85h24.25c4.38,0,8.58-1.75,11.67-4.85,3.1-3.1,4.84-7.3,4.84-11.69v-17.33c0-4.39-1.74-8.6-4.84-11.7-3.1-3.11-7.3-4.85-11.68-4.86H24.97Z"/><path d="M453.23,100.93h-25.89c-2.24,0-4.38-.89-5.96-2.47-1.58-1.58-2.47-3.73-2.47-5.97v-25.87c0-2.24,.89-4.39,2.47-5.97,1.58-1.58,3.73-2.47,5.96-2.47h25.89c2.24,0,4.38,.89,5.96,2.47,1.58,1.58,2.47,3.73,2.47,5.97v25.87c0,2.24-.89,4.39-2.47,5.97-1.58,1.58-3.73,2.47-5.96,2.47Zm-25.89-40.91c-1.74,0-3.41,.7-4.64,1.94-1.23,1.24-1.92,2.91-1.92,4.66v25.87c0,.87,.16,1.72,.49,2.52,.33,.8,.81,1.53,1.42,2.14s1.33,1.1,2.13,1.43c.8,.33,1.65,.5,2.52,.5h25.89c.86,0,1.72-.17,2.52-.5,.8-.33,1.52-.82,2.13-1.43,.61-.61,1.09-1.34,1.42-2.14,.33-.8,.5-1.66,.49-2.52v-25.87c0-1.75-.69-3.42-1.92-4.66-1.23-1.24-2.9-1.93-4.64-1.94h-25.89Z"/><path d="M436.13,58.99c-.19,0-.38-.06-.53-.17-.15-.11-.27-.26-.33-.44-5-14.36-13.48-24.28-25.23-29.5-16.35-7.3-38.78-5.03-66.51,6.74-.23,.09-.48,.09-.71,0-.23-.09-.42-.27-.52-.49-.09-.23-.09-.49,0-.71,.1-.23,.28-.41,.51-.5,28.22-11.98,51.09-14.24,68.01-6.74,12.06,5.36,21.03,15.93,26.21,30.6,.08,.23,.06,.49-.05,.7-.11,.22-.3,.39-.53,.47-.1,.04-.2,.06-.3,.05Z"/><path d="M333.73,48.98c-2.05,0-4.06-.6-5.77-1.74-1.71-1.14-3.04-2.76-3.83-4.66-.79-1.9-.99-3.99-.6-6.01,.4-2.02,1.39-3.87,2.84-5.32,1.45-1.45,3.3-2.44,5.32-2.84,2.01-.4,4.1-.19,6,.6,1.9,.79,3.52,2.12,4.65,3.84,1.14,1.71,1.74,3.72,1.74,5.78,0,2.75-1.1,5.38-3.04,7.32-1.94,1.94-4.57,3.04-7.31,3.04Zm0-18.88c-1.68,0-3.33,.49-4.73,1.42-1.4,.93-2.5,2.26-3.14,3.82-.65,1.56-.82,3.27-.49,4.92,.33,1.65,1.13,3.17,2.32,4.37,1.19,1.19,2.7,2.01,4.35,2.34,1.65,.33,3.36,.16,4.92-.48,1.55-.64,2.89-1.74,3.82-3.14,.94-1.4,1.43-3.05,1.43-4.73,0-2.25-.89-4.42-2.48-6.01-1.59-1.6-3.75-2.5-6-2.5Z"/><path d="M440.26,89.89c-2.05,0-4.06-.61-5.77-1.75-1.71-1.14-3.03-2.77-3.82-4.66-.78-1.9-.99-3.99-.59-6,.4-2.02,1.39-3.87,2.85-5.32s3.3-2.44,5.32-2.84c2.01-.4,4.1-.19,5.99,.6,1.9,.79,3.51,2.12,4.65,3.84s1.74,3.72,1.74,5.78c0,2.75-1.1,5.39-3.05,7.33-1.94,1.94-4.58,3.03-7.33,3.03Zm0-18.88c-1.68,0-3.33,.5-4.73,1.43-1.4,.94-2.49,2.27-3.13,3.82-.64,1.56-.81,3.27-.48,4.92,.33,1.65,1.14,3.17,2.33,4.36,1.19,1.19,2.7,2,4.35,2.33,1.65,.33,3.36,.16,4.91-.48,1.55-.64,2.88-1.74,3.82-3.14,.93-1.4,1.43-3.05,1.43-4.73,0-2.26-.9-4.42-2.5-6.01-1.59-1.6-3.75-2.49-6.01-2.5Z"/><path d="M491.87,136.25c-7.6,.13-15.15-1.34-22.15-4.33-12.05-5.38-21.14-15.98-26.21-30.64-.04-.11-.06-.23-.05-.35,0-.12,.04-.24,.09-.35,.05-.11,.12-.21,.21-.29s.2-.14,.31-.18c.12-.04,.24-.07,.36-.06,.12,0,.24,.03,.35,.09,.11,.05,.21,.13,.29,.22,.08,.09,.14,.2,.18,.32,4.98,14.39,13.46,24.33,25.21,29.54,16.35,7.3,38.8,5.05,66.56-6.71,.11-.05,.23-.08,.35-.08,.12,0,.24,.02,.36,.07,.11,.05,.22,.11,.3,.2,.09,.09,.16,.19,.2,.3,.09,.23,.1,.48,0,.71-.09,.23-.27,.41-.49,.51-17.36,7.37-32.71,11.04-45.88,11.04Z"/><path d="M546.82,130.99c-2.05,0-4.06-.6-5.77-1.74-1.71-1.14-3.04-2.76-3.83-4.66-.79-1.9-.99-3.99-.59-6,.4-2.02,1.39-3.87,2.84-5.32,1.45-1.45,3.3-2.44,5.32-2.84,2.02-.4,4.1-.19,6,.6,1.9,.79,3.52,2.12,4.66,3.83,1.14,1.71,1.74,3.72,1.74,5.78,0,2.75-1.1,5.38-3.04,7.32-1.94,1.94-4.57,3.04-7.31,3.04Zm0-18.88c-1.68,0-3.33,.5-4.73,1.43-1.4,.94-2.49,2.27-3.13,3.82-.64,1.56-.81,3.27-.48,4.92,.33,1.65,1.14,3.17,2.33,4.36,1.19,1.19,2.7,2,4.35,2.33,1.65,.33,3.36,.16,4.91-.48,1.55-.64,2.88-1.74,3.82-3.14,.93-1.4,1.43-3.05,1.43-4.73,.02-1.13-.19-2.25-.61-3.29-.42-1.05-1.04-2-1.84-2.8-.79-.8-1.73-1.44-2.77-1.88-1.04-.43-2.16-.66-3.28-.66v.12Z"/><path d="M240.07,350.67H103.75c-.25,0-.49-.1-.66-.27-.18-.17-.27-.41-.27-.66s.1-.49,.27-.66c.18-.17,.41-.27,.66-.27H240.07c.25,0,.49,.1,.66,.27,.18,.18,.27,.41,.27,.66s-.1,.49-.27,.66c-.17,.18-.41,.27-.66,.27Z"/><path d="M240.07,373.67H103.75c-.12,0-.24-.02-.36-.06-.11-.04-.22-.11-.3-.2-.09-.08-.16-.19-.2-.3-.05-.11-.07-.23-.07-.35,0-.25,.1-.49,.27-.66,.18-.18,.41-.27,.66-.27H240.07c.12,0,.24,.02,.35,.07,.11,.05,.21,.12,.3,.2,.09,.09,.15,.19,.2,.3,.04,.11,.07,.24,.06,.36,0,.12-.02,.24-.06,.35s-.11,.21-.2,.3c-.09,.08-.19,.15-.3,.2-.11,.05-.23,.07-.35,.06Z"/><path d="M56.35,377.41c-3.14,0-6.21-.93-8.83-2.68-2.61-1.75-4.65-4.23-5.85-7.14-1.2-2.91-1.52-6.1-.9-9.19,.61-3.09,2.13-5.92,4.35-8.14,2.22-2.22,5.05-3.74,8.13-4.35,3.08-.61,6.28-.3,9.18,.9,2.9,1.2,5.38,3.24,7.13,5.86,1.75,2.61,2.68,5.69,2.68,8.84,0,4.22-1.68,8.26-4.66,11.24-2.98,2.98-7.02,4.66-11.23,4.67Zm0-29.96c-2.77,0-5.48,.82-7.79,2.36-2.31,1.54-4.1,3.73-5.16,6.3-1.06,2.57-1.34,5.39-.8,8.11,.54,2.72,1.88,5.22,3.84,7.19,1.96,1.96,4.46,3.3,7.18,3.84,2.72,.54,5.54,.26,8.1-.8,2.56-1.06,4.75-2.86,6.29-5.17,1.54-2.31,2.36-5.02,2.36-7.8,0-3.72-1.48-7.29-4.11-9.92-2.63-2.63-6.19-4.11-9.91-4.11Z"/><path class="cls-2" d="M276.59,32.96c-1.99,0-3.94-.58-5.6-1.69-1.66-1.1-2.95-2.68-3.72-4.52-.77-1.84-.97-3.87-.58-5.83,.39-1.96,1.34-3.76,2.75-5.17,1.41-1.41,3.2-2.37,5.16-2.77,1.95-.39,3.98-.19,5.82,.57,1.84,.76,3.42,2.05,4.52,3.71,1.11,1.66,1.7,3.61,1.7,5.6,0,2.67-1.06,5.23-2.94,7.12-1.88,1.89-4.44,2.95-7.1,2.96Zm0-18.29c-1.63,0-3.22,.47-4.58,1.38-1.36,.9-2.41,2.19-3.04,3.69-.63,1.51-.79,3.16-.47,4.76,.32,1.6,1.1,3.07,2.25,4.22,1.15,1.15,2.62,1.94,4.22,2.25,1.6,.32,3.25,.15,4.76-.47,1.5-.63,2.79-1.68,3.69-3.04,.9-1.36,1.38-2.95,1.38-4.58,0-2.18-.87-4.26-2.41-5.8-1.54-1.54-3.62-2.41-5.79-2.41Z"/><path class="cls-1" d="M245.7,32.02c5.04,0,9.14-4.09,9.14-9.15s-4.09-9.15-9.14-9.15-9.13,4.09-9.13,9.15,4.09,9.15,9.13,9.15Z"/><path d="M245.7,32.96c-1.99,0-3.94-.59-5.59-1.7-1.66-1.11-2.95-2.68-3.71-4.52-.76-1.84-.96-3.87-.57-5.82,.39-1.96,1.35-3.75,2.76-5.16s3.2-2.37,5.16-2.76c1.95-.39,3.98-.19,5.82,.57,1.84,.76,3.41,2.06,4.52,3.71,1.11,1.66,1.7,3.61,1.7,5.6,0,2.67-1.07,5.23-2.96,7.12-1.89,1.89-4.44,2.95-7.11,2.96Zm0-18.29c-1.63,0-3.22,.48-4.57,1.39s-2.41,2.19-3.03,3.7c-.62,1.51-.78,3.16-.46,4.76,.32,1.6,1.1,3.06,2.26,4.22,1.15,1.15,2.62,1.93,4.22,2.25,1.6,.32,3.25,.15,4.75-.48,1.5-.63,2.78-1.69,3.69-3.04s1.38-2.95,1.38-4.58c0-2.18-.88-4.27-2.42-5.81-1.54-1.54-3.63-2.4-5.81-2.4Z"/><path d="M214.93,32.96c-1.99,0-3.94-.59-5.59-1.7-1.66-1.11-2.95-2.68-3.71-4.52-.76-1.84-.96-3.87-.57-5.82,.39-1.96,1.35-3.75,2.76-5.16,1.41-1.41,3.2-2.37,5.15-2.76,1.95-.39,3.98-.19,5.82,.57,1.84,.76,3.41,2.06,4.52,3.71,1.11,1.66,1.7,3.61,1.7,5.6,0,2.67-1.07,5.23-2.96,7.12-1.89,1.89-4.44,2.95-7.11,2.96Zm0-18.29c-1.63,0-3.22,.48-4.57,1.39-1.35,.91-2.41,2.19-3.03,3.7-.62,1.51-.78,3.16-.46,4.76,.32,1.6,1.11,3.06,2.26,4.22,1.15,1.15,2.62,1.93,4.22,2.25,1.6,.32,3.25,.15,4.75-.48,1.5-.63,2.79-1.69,3.69-3.04s1.38-2.95,1.37-4.58c0-1.08-.21-2.15-.63-3.15-.41-1-1.02-1.9-1.78-2.67-.76-.76-1.67-1.37-2.67-1.78-1-.41-2.07-.62-3.14-.62Z"/><path d="M188.86,236.71c-.2,.01-.41-.05-.57-.17-.17-.12-.29-.29-.35-.49-.06-.2-.04-.41,.03-.6,.08-.19,.22-.35,.4-.45,.28-.16,27.85-17.43,59.81-23.58,.12-.02,.24-.02,.36,0,.12,.02,.23,.07,.33,.14,.1,.07,.19,.16,.25,.26,.07,.1,.11,.22,.13,.34,.03,.12,.03,.24,0,.36-.02,.12-.07,.23-.14,.33-.07,.1-.16,.19-.26,.25-.1,.06-.22,.11-.34,.13-31.61,6.1-58.9,23.16-59.18,23.39-.15,.07-.32,.09-.49,.07Z"/><path d="M322.61,262.61h-9.55c-.25,0-.49-.1-.66-.27s-.27-.41-.27-.66,.1-.49,.27-.66c.18-.18,.41-.27,.66-.27h9.67c.25,0,.49,.1,.66,.27,.18,.18,.27,.41,.27,.66s-.1,.49-.27,.66c-.17,.18-.41,.27-.66,.27h-.12Zm-19.34,0h-9.65c-.25,0-.49-.1-.66-.27-.17-.17-.27-.41-.27-.66s.1-.49,.27-.66c.18-.18,.41-.27,.66-.27h9.65c.25,0,.49,.1,.66,.27,.17,.18,.27,.41,.27,.66s-.1,.49-.27,.66c-.18,.18-.41,.27-.66,.27Zm-19.32,0h-9.67c-.25,0-.48-.1-.66-.27-.18-.17-.27-.41-.27-.66s.1-.49,.27-.66,.41-.27,.66-.27h9.67c.25,0,.49,.1,.66,.27,.18,.18,.27,.41,.27,.66s-.1,.49-.27,.66c-.17,.18-.41,.27-.66,.27Zm-19.34,0h-9.65c-.25,0-.49-.1-.66-.27-.18-.17-.27-.41-.27-.66s.1-.49,.27-.66c.18-.18,.41-.27,.66-.27h9.65c.25,0,.49,.1,.66,.27,.17,.18,.27,.41,.27,.66s-.1,.49-.27,.66c-.17,.18-.41,.27-.66,.27Zm-19.32,0h-9.67c-.25,0-.49-.1-.66-.27-.18-.17-.27-.41-.27-.66s.1-.49,.27-.66c.17-.18,.41-.27,.66-.27h9.7c.25,0,.49,.1,.66,.27,.18,.18,.27,.41,.27,.66s-.1,.49-.27,.66c-.18,.18-.41,.27-.66,.27h-.02Zm-19.32,0h-9.67c-.25,0-.49-.1-.66-.27-.18-.17-.27-.41-.27-.66s.1-.49,.27-.66c.17-.18,.41-.27,.66-.27h9.67c.25,0,.49,.1,.66,.27,.18,.18,.27,.41,.27,.66s-.1,.49-.27,.66c-.18,.18-.41,.27-.66,.27Zm-19.34,0h-9.65c-.25,0-.49-.1-.66-.27-.18-.17-.27-.41-.27-.66s.1-.49,.27-.66c.18-.18,.41-.27,.66-.27h9.65c.25,0,.49,.1,.66,.27,.18,.18,.27,.41,.27,.66s-.1,.49-.27,.66c-.18,.18-.41,.27-.66,.27Zm-16.35-3.06c-.25,0-.49-.1-.66-.27-.18-.18-.27-.41-.27-.66v-9.68c0-.25,.1-.49,.27-.66,.18-.18,.41-.27,.66-.27s.49,.1,.66,.27c.18,.17,.27,.41,.27,.66v9.68c.01,.12,0,.25-.03,.37-.04,.12-.09,.23-.17,.32-.08,.1-.17,.17-.28,.23-.11,.06-.23,.09-.35,.11l-.09-.09Zm0-19.37c-.12,0-.24-.02-.36-.06-.11-.04-.22-.11-.3-.2-.09-.09-.16-.19-.2-.3-.05-.11-.07-.23-.07-.35v-9.68c0-.25,.1-.49,.27-.66s.41-.27,.66-.27,.49,.1,.66,.27c.18,.18,.27,.41,.27,.66v9.68c0,.23-.09,.45-.24,.62-.16,.17-.37,.27-.6,.29h-.09Zm0-19.34c-.25,0-.49-.1-.66-.27-.18-.18-.27-.41-.27-.66v-9.66c0-.25,.1-.49,.27-.66,.18-.18,.41-.27,.66-.27s.49,.1,.66,.27c.18,.18,.27,.41,.27,.66v9.64c0,.24-.08,.47-.23,.65-.16,.18-.37,.29-.61,.31h-.09Zm0-19.34c-.25,0-.49-.1-.66-.27-.18-.18-.27-.41-.27-.66v-9.68c0-.25,.1-.49,.27-.66s.41-.27,.66-.27,.49,.1,.66,.27c.18,.18,.27,.41,.27,.66v9.68c0,.23-.08,.46-.24,.63-.16,.17-.37,.28-.6,.3h-.09Zm178.33-15.93c-.25,0-.49-.1-.66-.27-.17-.18-.27-.41-.27-.66v-9.66c0-.25,.1-.49,.27-.66,.17-.18,.41-.27,.66-.27,.12,0,.24,.02,.35,.07,.11,.05,.21,.12,.3,.2,.08,.09,.15,.19,.2,.3,.04,.11,.07,.24,.06,.36v9.66c0,.23-.07,.46-.23,.63-.15,.17-.36,.28-.59,.31h-.09Zm-178.23-3.44c-.12,0-.24-.02-.36-.07-.11-.05-.22-.12-.3-.2s-.16-.19-.2-.3c-.05-.11-.07-.24-.07-.36v-9.66c0-.25,.1-.49,.27-.66,.18-.18,.41-.27,.66-.27s.49,.1,.66,.27,.27,.41,.27,.66v9.66c0,.25-.1,.49-.27,.66-.18,.18-.41,.27-.66,.27Zm178.32-15.91c-.25,0-.48-.1-.66-.27-.18-.17-.27-.41-.27-.66v-9.68c0-.25,.1-.49,.27-.66,.18-.18,.41-.27,.66-.27,.12,0,.24,.02,.36,.07,.11,.05,.21,.12,.3,.2,.08,.09,.15,.19,.2,.3,.04,.11,.07,.23,.06,.36v9.68c0,.12-.02,.24-.06,.36-.04,.11-.11,.22-.2,.3-.09,.09-.19,.16-.3,.2-.11,.05-.23,.07-.36,.07Zm-178.32-3.44c-.12,0-.24-.02-.36-.07-.11-.05-.22-.12-.3-.2-.09-.09-.16-.19-.2-.3-.05-.11-.07-.24-.07-.36v-9.68c0-.25,.1-.49,.27-.66,.18-.18,.41-.27,.66-.27s.49,.1,.66,.27c.18,.18,.27,.41,.27,.66v9.68c0,.25-.1,.49-.27,.66-.18,.17-.41,.27-.66,.27Zm178.32-15.93c-.25,0-.48-.1-.66-.27-.18-.18-.27-.41-.27-.66v-9.66c0-.25,.1-.49,.27-.66,.18-.18,.41-.27,.66-.27,.12,0,.24,.02,.36,.07,.11,.05,.21,.12,.3,.2,.08,.09,.15,.19,.2,.3,.04,.11,.07,.24,.06,.36v9.66c0,.12-.02,.24-.06,.36-.04,.11-.11,.22-.2,.3-.09,.09-.19,.16-.3,.2s-.23,.07-.36,.07Zm-178.32-3.44c-.12,0-.24-.02-.36-.06-.11-.04-.22-.11-.3-.2-.09-.08-.16-.19-.2-.3-.05-.11-.07-.23-.07-.36v-9.68c0-.25,.1-.49,.27-.66,.18-.18,.41-.27,.66-.27s.49,.1,.66,.27c.18,.18,.27,.41,.27,.66v9.68c0,.12-.02,.24-.07,.36-.05,.11-.12,.21-.2,.3-.09,.09-.19,.15-.3,.2-.11,.04-.23,.07-.36,.06Zm178.32-15.91c-.25,0-.48-.1-.66-.27-.18-.17-.27-.41-.27-.66v-3.44h-4.37c-.12,0-.24-.02-.36-.07-.11-.05-.22-.12-.3-.2-.09-.09-.15-.19-.2-.3-.05-.11-.07-.24-.07-.36s.02-.25,.07-.36c.05-.11,.12-.22,.2-.3,.09-.09,.19-.16,.3-.2,.11-.05,.23-.07,.36-.07h5.3c.12,0,.24,.02,.36,.07,.11,.05,.21,.12,.3,.2,.08,.09,.15,.19,.2,.3,.04,.11,.07,.24,.06,.36v4.37c0,.12-.02,.24-.06,.36-.04,.11-.11,.22-.2,.3-.09,.09-.19,.16-.3,.2s-.23,.07-.36,.07Zm-178.32-3.53c-.12,0-.24-.02-.36-.07-.11-.05-.22-.12-.3-.2-.09-.09-.16-.19-.2-.3-.05-.11-.07-.24-.07-.36v-.94c0-.12,.02-.24,.07-.36,.05-.11,.12-.22,.2-.3,.09-.09,.19-.16,.3-.2,.11-.05,.24-.07,.36-.07h8.71c.25,0,.49,.1,.66,.27,.18,.17,.27,.41,.27,.66s-.1,.49-.27,.66c-.18,.17-.41,.27-.66,.27h-7.78c0,.25-.1,.49-.27,.66-.18,.18-.41,.27-.66,.27Zm163.35-.93h-9.65c-.25,0-.49-.1-.66-.27-.18-.18-.27-.41-.27-.66s.1-.49,.27-.66c.17-.18,.41-.27,.66-.27h9.65c.25,0,.49,.1,.66,.27,.17,.17,.27,.41,.27,.66s-.1,.49-.27,.66c-.18,.17-.41,.27-.66,.27Zm-19.32,0h-9.65c-.25,0-.49-.1-.66-.27-.17-.18-.27-.41-.27-.66s.1-.49,.27-.66c.18-.18,.41-.27,.66-.27h9.67c.25,0,.49,.1,.66,.27,.17,.17,.27,.41,.27,.66s-.1,.49-.27,.66c-.18,.17-.41,.27-.66,.27h-.02Zm-19.32,0h-9.67c-.25,0-.49-.1-.66-.27-.17-.18-.27-.41-.27-.66s.1-.49,.27-.66c.18-.18,.41-.27,.66-.27h9.67c.25,0,.48,.1,.66,.27,.17,.17,.27,.41,.27,.66s-.1,.49-.27,.66c-.18,.17-.41,.27-.66,.27Zm-19.34,0h-9.67c-.25,0-.49-.1-.66-.27-.17-.18-.27-.41-.27-.66s.1-.49,.27-.66c.17-.18,.41-.27,.66-.27h9.67c.25,0,.48,.1,.66,.27,.18,.17,.27,.41,.27,.66s-.1,.49-.27,.66c-.18,.17-.41,.27-.66,.27Zm-19.32,0h-9.67c-.25,0-.48-.1-.66-.27-.17-.18-.27-.41-.27-.66s.1-.49,.27-.66c.18-.18,.41-.27,.66-.27h9.67c.25,0,.49,.1,.66,.27,.17,.17,.27,.41,.27,.66s-.1,.49-.27,.66c-.18,.17-.41,.27-.66,.27Zm-19.34,0h-9.65c-.25,0-.49-.1-.66-.27-.18-.18-.27-.41-.27-.66s.1-.49,.27-.66c.18-.18,.41-.27,.66-.27h9.58c.25,0,.49,.1,.66,.27,.17,.17,.27,.41,.27,.66s-.1,.49-.27,.66c-.18,.17-.41,.27-.66,.27h.07Zm-19.32,0h-9.67c-.25,0-.49-.1-.66-.27-.18-.18-.27-.41-.27-.66s.1-.49,.27-.66c.18-.18,.41-.27,.66-.27h9.67c.25,0,.49,.1,.66,.27,.18,.17,.27,.41,.27,.66s-.1,.49-.27,.66c-.18,.17-.41,.27-.66,.27Zm-19.32,0h-9.67c-.25,0-.49-.1-.66-.27-.18-.18-.27-.41-.27-.66s.1-.49,.27-.66c.18-.18,.41-.27,.66-.27h9.67c.25,0,.49,.1,.66,.27,.18,.17,.27,.41,.27,.66s-.1,.49-.27,.66c-.18,.17-.41,.27-.66,.27Z"/><path d="M307.36,156.72c-.23,0-.46-.1-.63-.26-11.93-11-26.76-18.37-42.73-21.21-.98,2.78-4.67,12.58-9.74,17.29-.18,.17-.41,.27-.65,.27s-.48-.1-.65-.27c-.17-.18-.27-.42-.27-.67s.1-.49,.27-.67c5.42-5.05,9.35-17.1,9.48-17.24,.07-.2,.21-.37,.38-.48s.39-.17,.6-.15c16.67,2.81,32.16,10.42,44.57,21.92,.09,.09,.16,.19,.21,.3,.05,.11,.07,.23,.07,.36s-.02,.24-.07,.36c-.05,.11-.12,.21-.21,.3-.09,.07-.19,.12-.3,.15-.11,.03-.22,.04-.33,.02Z"/><path d="M279.79,178.31c-1.52-.02-3.01-.36-4.39-1s-2.61-1.54-3.62-2.68c-.35-.37-.59-.83-.7-1.33-.11-.5-.09-1.02,.07-1.5,.52-1.25,1.15-2.45,1.89-3.58,3.15-4.71,5.07-10.13,5.58-15.76,0-.12,.04-.24,.1-.35,.06-.11,.13-.2,.23-.28,.09-.08,.2-.14,.32-.17,.12-.04,.24-.05,.36-.04,.25,.02,.47,.14,.63,.33,.16,.19,.24,.43,.23,.68-.57,5.92-2.58,11.6-5.86,16.56-.68,1.02-1.26,2.11-1.73,3.25-.14,.35,.16,.84,.35,1.08,.9,.95,1.99,1.7,3.2,2.21,1.21,.5,2.51,.75,3.81,.72,.12,0,.24,0,.36,.04,.12,.04,.22,.1,.31,.18,.09,.08,.17,.18,.22,.29s.08,.23,.09,.35c.01,.12,0,.24-.04,.36-.04,.12-.1,.22-.18,.31-.08,.09-.18,.17-.29,.22-.11,.05-.23,.08-.35,.09l-.58,.02Z"/><path d="M280.49,307.71c-.25,0-.49-.1-.66-.27-.17-.18-.27-.41-.27-.66v-67.95c0-.25,.1-.49,.27-.66,.17-.18,.41-.27,.66-.27,.12,0,.24,.02,.35,.07,.11,.05,.21,.12,.3,.2,.09,.09,.15,.19,.2,.3,.04,.11,.07,.24,.06,.36v67.95c0,.12-.02,.24-.06,.36-.04,.11-.11,.22-.2,.3-.08,.09-.19,.16-.3,.2s-.23,.07-.35,.07Z"/><path d="M176.29,157.02c-.2,0-.4-.06-.56-.19-10.58-7.98-15.51-16.75-12.59-22.36,.69-1.29,1.69-2.38,2.92-3.18,1.23-.79,2.63-1.26,4.09-1.36,.12-.02,.24-.01,.36,.01,.12,.03,.23,.08,.33,.15,.1,.07,.18,.16,.24,.27,.06,.1,.1,.22,.12,.34,.02,.12,.02,.25-.01,.37-.03,.12-.08,.23-.15,.33-.07,.1-.16,.18-.27,.25-.1,.06-.22,.11-.34,.13-1.18,.04-2.34,.39-3.34,1.01-1.01,.62-1.84,1.5-2.4,2.54-2.45,4.68,2.34,12.72,12.05,20.02,.16,.11,.28,.27,.35,.46s.06,.39,0,.58c-.06,.19-.19,.35-.35,.46-.16,.11-.36,.17-.56,.16h.12Z"/><path d="M205.17,169.79c-6.87-1.11-13.48-3.41-19.55-6.81l-1.33-.73c-.11-.06-.2-.14-.28-.23-.08-.1-.13-.21-.16-.32-.03-.12-.04-.24-.03-.36,.02-.12,.06-.24,.12-.34,.06-.11,.13-.2,.23-.28,.09-.08,.2-.13,.32-.17s.24-.04,.36-.03c.12,.01,.24,.06,.34,.12l1.31,.68c5.87,3.29,12.28,5.54,18.92,6.62,.24,.04,.47,.16,.61,.36,.15,.2,.21,.44,.18,.69-.01,.12-.05,.24-.11,.35-.06,.11-.14,.2-.24,.27-.1,.08-.21,.13-.32,.16-.12,.03-.24,.03-.36,.01Z"/><path d="M221.52,163.24c-.13,0-.26-.03-.38-.08s-.22-.13-.31-.23c-.09-.1-.15-.21-.19-.34-.04-.12-.05-.26-.03-.38,.4-3.72-2.34-8.54-7.59-13.57-.09-.09-.16-.19-.21-.3-.05-.11-.07-.23-.07-.35s.03-.24,.07-.36c.05-.11,.12-.21,.21-.3,.17-.17,.41-.27,.65-.27s.48,.1,.65,.27c5.72,5.45,8.62,10.83,8.15,15.13-.04,.22-.16,.42-.33,.57-.18,.14-.4,.21-.62,.21Z"/><path d="M289.25,185.44c-.21,0-.41-.07-.57-.21-.16-.13-.27-.32-.32-.52-.21-.89-1.85-8.75,2.34-9.85,.62-.21,1.28-.25,1.92-.11,.64,.14,1.23,.44,1.7,.88,.68,.95,1.14,2.05,1.32,3.21,.19,1.16,.1,2.34-.25,3.46-.03,.12-.08,.23-.15,.33-.07,.1-.16,.19-.27,.25-.1,.07-.22,.11-.34,.13-.12,.02-.24,.02-.36-.01-.24-.06-.44-.21-.57-.42-.13-.21-.17-.46-.11-.7,.26-.81,.34-1.67,.24-2.52-.1-.85-.38-1.66-.82-2.39-.25-.22-.56-.36-.89-.42-.33-.05-.67-.01-.98,.11-2.01,.51-1.61,5.38-1.1,7.65,.03,.12,.03,.24,0,.36-.02,.12-.06,.23-.13,.34-.07,.1-.15,.19-.25,.26-.1,.07-.21,.12-.33,.14l-.09,.02Z"/><path d="M115.13,143.78c-.25,0-.49-.1-.66-.27-.18-.18-.27-.41-.27-.66V55.55c0-.25,.1-.49,.27-.66,.17-.18,.41-.27,.66-.27s.49,.1,.66,.27c.18,.18,.27,.41,.27,.66v87.29c0,.25-.1,.49-.27,.66-.18,.18-.41,.27-.66,.27Z"/><path d="M296.7,165.61h-.21l-7.34-1.87c-.17-.04-.33-.13-.45-.26-.12-.13-.21-.29-.25-.46-.03-.18-.01-.36,.06-.53,.07-.17,.19-.31,.34-.41l6.54-4.68c.1-.09,.21-.15,.34-.19,.12-.04,.26-.05,.39-.03,.13,.01,.25,.06,.37,.12s.21,.16,.28,.26c.08,.11,.13,.23,.15,.35,.03,.13,.02,.26,0,.39-.03,.13-.08,.25-.16,.35-.08,.1-.18,.19-.29,.26l-4.88,3.39,5.35,1.31c.24,.06,.44,.21,.57,.42,.13,.21,.17,.46,.11,.7-.02,.23-.13,.44-.29,.6s-.39,.25-.62,.26Z"/></svg>