<?xml version="1.0" encoding="UTF-8"?><svg id="Camada_1" xmlns="http://www.w3.org/2000/svg" viewBox="0 0 576 559"><defs><style>.cls-1,.cls-2{fill:#fff;}.cls-2,.cls-3,.cls-4{fill-rule:evenodd;}.cls-5,.cls-3{fill:blue;}</style></defs><path class="cls-2" d="M359.62,232.55l-3.07,7.9-4.82,5.27-3.94,3.07,9.2,7.46,10.51-17.99-7.88-5.7Z"/><path d="M91.18,122.5l-15.8,15.82,4.02,4.04,15.8-15.82-4.02-4.03Z"/><path d="M79.39,122.49l-4.03,4.03,15.8,15.82,4.03-4.03-15.8-15.82Z"/><path class="cls-4" d="M366.62,35.98h-13.58v-13.6h13.58v13.6Z"/><path class="cls-4" d="M135.79,35.98h-13.58v-13.6h13.58v13.6Z"/><path class="cls-4" d="M366.62,200.08h-13.58v-13.6h13.58v13.6Z"/><path class="cls-4" d="M135.79,200.08h-13.58v-13.6h13.58v13.6Z"/><path d="M360.05,195.69H128.78c-.88,0-1.75-.88-1.75-1.75V28.08c0-.88,.88-1.76,1.75-1.76h231.28c.88,0,1.75,.88,1.75,1.76V193.94c0,.88-.88,1.75-1.75,1.75Zm-229.52-3.51h227.77V29.84H130.53V192.18Z"/><path class="cls-5" d="M325.45,33.35V126.81c0,9.65-7.88,17.99-17.96,17.99H159c-9.64,0-17.96-7.9-17.96-17.99V33.35c0-9.65,7.88-17.99,17.96-17.99h148.49c10.07,0,17.96,7.9,17.96,17.99Z"/><path d="M307.93,146.11H159c-10.95,0-19.71-8.78-19.71-19.75V33.35c0-10.97,8.76-19.74,19.71-19.74h148.49c10.95,0,19.71,8.78,19.71,19.74V126.81c0,10.53-8.76,19.31-19.27,19.31ZM159,17.11c-8.76,0-16.21,7.02-16.21,16.23V126.81c0,8.78,7.01,16.23,16.21,16.23h148.49c8.76,0,16.21-7.02,16.21-16.23V33.35c0-8.78-7.01-16.23-16.21-16.23H159Z"/><path class="cls-5" d="M311,54.85v57.48c0,3.07-2.63,6.14-6.13,6.14h-44.68c-3.07,0-6.13-2.63-6.13-6.14V54.85c0-3.07,2.63-6.14,6.13-6.14h44.68c3.5,0,6.13,3.07,6.13,6.14Z"/><path d="M304.86,120.22h-44.68c-4.38,0-7.89-3.51-7.89-7.9V54.85c0-4.39,3.5-7.9,7.89-7.9h44.68c4.38,0,7.88,3.51,7.88,7.9v57.48c0,4.39-3.5,7.9-7.88,7.9Zm-44.68-69.33c-2.19,0-3.94,1.76-3.94,3.95v57.48c0,2.19,1.75,3.95,3.94,3.95h44.68c2.19,0,3.94-1.75,3.94-3.95V54.85c0-2.19-1.75-3.95-3.94-3.95h-44.68Z"/><path class="cls-4" d="M339.47,37.73H130.09V0h209.37V37.73Z"/><path class="cls-2" d="M195.8,26.77c0,2.63-2.19,4.39-4.38,4.39-2.63,0-4.38-2.19-4.38-4.39s2.19-4.39,4.38-4.39c2.63,0,4.38,1.76,4.38,4.39Z"/><path class="cls-2" d="M181.78,26.77c0,2.63-2.19,4.39-4.38,4.39-2.63,0-4.38-2.19-4.38-4.39s2.19-4.39,4.38-4.39,4.38,1.76,4.38,4.39Z"/><path class="cls-2" d="M166.45,26.77c0,2.63-2.19,4.39-4.38,4.39-2.63,0-4.38-2.19-4.38-4.39s2.19-4.39,4.38-4.39c2.63,0,4.38,1.76,4.38,4.39Z"/><path d="M236.97,82.05h-77.97c-.88,0-1.75-.88-1.75-1.76s.88-1.76,1.75-1.76h77.97c.88,0,1.75,.88,1.75,1.76s-.88,1.76-1.75,1.76Z"/><path d="M236.97,72.4h-24.97c-.88,0-1.75-.88-1.75-1.76s.88-1.76,1.75-1.76h24.97c.88,0,1.75,.88,1.75,1.76s-.88,1.76-1.75,1.76Z"/><path d="M184.41,72.4h-24.97c-.88,0-1.75-.88-1.75-1.76s.88-1.76,1.75-1.76h24.97c.88,0,1.75,.88,1.75,1.76s-.88,1.76-1.75,1.76Z"/><path d="M204.12,72.4h-10.51c-.88,0-1.75-.88-1.75-1.76s.88-1.76,1.75-1.76h10.51c.88,0,1.75,.88,1.75,1.76s-.44,1.76-1.75,1.76Z"/><path d="M236.97,62.74h-77.97c-.88,0-1.75-.88-1.75-1.76s.88-1.76,1.75-1.76h77.97c.88,0,1.75,.88,1.75,1.76s-.88,1.76-1.75,1.76Z"/><path d="M236.97,52.65h-16.64c-.88,0-1.75-.88-1.75-1.76s.88-1.76,1.75-1.76h16.64c.88,0,1.75,.88,1.75,1.76,0,1.32-.88,1.76-1.75,1.76Z"/><path d="M204.12,52.65h-45.12c-.88,0-1.75-.88-1.75-1.76s.88-1.76,1.75-1.76h45.12c.88,0,1.75,.88,1.75,1.76,0,1.32-.44,1.76-1.75,1.76Z"/><path class="cls-1" d="M208.5,231.67h148.49c9.64,0,17.96,7.9,17.96,17.99v93.46c0,9.65-7.89,17.99-17.96,17.99H208.5c-9.64,0-17.96-7.9-17.96-17.99v-93.46c0-9.65,7.88-17.99,17.96-17.99Z"/><path d="M356.99,362.87H208.5c-10.95,0-19.71-8.77-19.71-19.74v-93.46c0-10.97,8.76-19.74,19.71-19.74h148.49c10.95,0,19.71,8.78,19.71,19.74v93.46c-.44,10.97-9.2,19.74-19.71,19.74ZM208.5,233.87c-8.76,0-16.21,7.02-16.21,16.24v93.46c0,8.78,7.01,16.23,16.21,16.23h148.49c8.76,0,16.21-7.02,16.21-16.23v-93.9c0-8.77-7.01-16.23-16.21-16.23H208.5v.44Z"/><path class="cls-5" d="M211.13,265.46h44.68c3.07,0,6.13,2.63,6.13,6.14v57.48c0,3.07-2.63,6.14-6.13,6.14h-44.68c-3.07,0-6.13-2.63-6.13-6.14v-57.92c0-3.07,3.07-5.7,6.13-5.7Z"/><path d="M255.8,336.54h-44.68c-4.38,0-7.88-3.51-7.88-7.9v-57.48c0-4.39,3.5-7.9,7.88-7.9h44.68c4.38,0,7.89,3.51,7.89,7.9v57.48c0,4.39-3.5,7.9-7.89,7.9Zm-44.68-69.33c-2.19,0-3.94,1.76-3.94,3.95v57.48c0,2.19,1.75,3.95,3.94,3.95h44.68c2.19,0,3.94-1.76,3.94-3.95v-57.48c0-2.19-1.75-3.95-3.94-3.95h-44.68Z"/><path class="cls-4" d="M176.52,216.32h209.38v38.17H176.52v-38.17Z"/><path class="cls-2" d="M324.58,237.82c2.63,0,4.38,2.19,4.38,4.39s-2.19,4.39-4.38,4.39c-2.63,0-4.38-2.19-4.38-4.39s2.19-4.39,4.38-4.39Z"/><path class="cls-2" d="M339.03,237.82c2.63,0,4.38,2.19,4.38,4.39s-2.19,4.39-4.38,4.39c-2.63,0-4.38-2.19-4.38-4.39s1.75-4.39,4.38-4.39Z"/><path class="cls-2" d="M353.92,237.82c2.63,0,4.38,2.19,4.38,4.39s-2.19,4.39-4.38,4.39c-2.63,0-4.38-2.19-4.38-4.39s1.75-4.39,4.38-4.39Z"/><path d="M356.99,298.37h-77.97c-.88,0-1.75-.88-1.75-1.76s.88-1.76,1.75-1.76h77.97c.88,0,1.75,.88,1.75,1.76,0,1.32-.88,1.76-1.75,1.76Z"/><path d="M303.99,288.71h-24.97c-.88,0-1.75-.88-1.75-1.76s.88-1.76,1.75-1.76h24.97c.88,0,1.75,.88,1.75,1.76s-.44,1.76-1.75,1.76Z"/><path d="M356.99,288.71h-24.97c-.88,0-1.75-.88-1.75-1.76s.88-1.76,1.75-1.76h24.97c.88,0,1.75,.88,1.75,1.76s-.88,1.76-1.75,1.76Z"/><path d="M322.39,288.71h-10.51c-.88,0-1.75-.88-1.75-1.76s.88-1.76,1.75-1.76h10.51c.88,0,1.75,.88,1.75,1.76s-.88,1.76-1.75,1.76Z"/><path d="M356.99,279.06h-77.97c-.88,0-1.75-.88-1.75-1.76s.88-1.76,1.75-1.76h77.97c.88,0,1.75,.88,1.75,1.76s-.88,1.76-1.75,1.76Z"/><path d="M295.67,269.41h-16.64c-.88,0-1.75-.88-1.75-1.76s.88-1.76,1.75-1.76h16.64c.88,0,1.75,.88,1.75,1.76s-.88,1.76-1.75,1.76Z"/><path d="M356.99,269.41h-45.12c-.88,0-1.75-.88-1.75-1.76s.88-1.76,1.75-1.76h45.12c.88,0,1.75,.88,1.75,1.76s-.88,1.76-1.75,1.76Z"/><path class="cls-3" d="M117.39,307.21v32.91c0,3.07-2.63,6.14-6.13,6.14H6.13c-3.5,0-6.13-2.63-6.13-6.14v-32.91c0-3.07,2.63-6.14,6.13-6.14H111.7c3.07,0,5.69,2.63,5.69,6.14Z"/><path class="cls-3" d="M31.1,337.86s2.63,4.39-.88,10.09c-3.5,4.83-15.33,7.46-15.33,7.46,0,0,3.07-3.95,3.94-7.9,1.31-4.83,.44-8.34,.44-8.34l11.83-1.32Z"/><path class="cls-4" d="M155.5,262.83v18.87c0,3.07-2.63,6.14-6.13,6.14H44.24c-3.07,0-6.13-2.63-6.13-6.14v-18.87c0-3.07,2.63-6.14,6.13-6.14h105.56c3.07,.44,5.69,3.07,5.69,6.14Z"/><path class="cls-4" d="M124.4,275.99s-2.63,4.39,.88,10.09c3.07,5.27,14.89,7.9,14.89,7.9,0,0-3.07-3.95-3.94-7.9-1.31-4.83-.44-8.34-.44-8.34l-11.39-1.75Z"/><path class="cls-2" d="M500.66,426.05c13.58-6.58,22.78-26.77,24.09-28.52,1.31-2.19-.88-4.83-1.31-7.02s-.88-5.27-.88-5.27l15.33-25.45s11.39,2.19,25.84-2.63c14.46-4.83,10.08-23.69,10.08-23.69h-58.7l-12.26,23.26s2.19-31.59,1.31-53.97c-.88-22.38-19.27-35.98-19.27-35.98l7.89-22.38s5.69,4.83,9.2,6.58c3.5,1.75,5.26,3.07,16.21,.44,10.95-2.63,17.52-11.41,20.59-18.43,2.63-7.02-7.45-18.87-7.45-18.87,0,0,3.5-2.19,8.76-8.34,5.26-6.14,5.69-14.92,3.5-27.64-2.19-12.73-11.83-14.48-21.03-18.87-9.2-4.39-9.64-9.65-8.76-19.31,.44-9.65,3.5-14.92-7.01-30.71-10.07-15.8-28.03-13.16-40.3-11.41-11.83,2.19-16.64,13.16-16.64,13.16l1.75,7.9s-2.63,6.58-3.07,9.65c-.44,3.07-.88,6.14-.88,6.14,0,0-.88,5.7,.88,10.97,1.75,5.26,3.94,8.34,3.94,8.34,0,0-1.75,2.19-3.07,3.95-1.31,1.76-7.01,.44-17.08,6.58-10.07,6.14-7.45,15.36-7.45,15.36h-23.21v-55.72s4.82-11.41,5.69-14.92c.88-3.51,2.63-4.83,3.94-7.9,.88-3.07-1.75-1.32-3.5-1.32s-5.69,3.95-5.69,3.95c0,0-1.75-15.36-2.63-22.82-.88-7.46-4.38-7.46-9.64-6.14-5.26,.88-8.76,8.78-8.76,8.78,0,0-1.31-.88-2.63,0-1.31,.88-.88,10.53-1.75,22.82-.88,12.29,1.31,23.69,1.31,23.69,0,0-5.7,50.02-6.13,61.43-.44,11.85,9.2,17.55,13.14,18.87,3.5,1.32,17.96,2.19,17.96,2.19l-15.77,12.29-38.11-25.01s-7.01-10.09-10.95-15.8c-4.38-6.14-3.07-13.6-4.82-16.23-1.75-3.07-3.5,1.32-4.82,3.07-1.75,1.32-1.75,7.9-.88,10.53,.88,2.63-1.31,4.83-1.31,4.83,0,0-17.52,.44-22.78,0-4.82-.44-8.76,.88-10.51,2.19-1.75,1.32,1.75,5.26,1.75,5.26,0,0-2.63,1.32-3.5,2.63-1.31,1.76,1.31,8.34,4.82,14.04,3.51,5.7,20.59,4.83,32.85,6.14,12.27,1.32,19.71,15.8,36.79,33.35s28.91,8.78,28.91,8.78l39.42-23.26-.88,32.03s-6.57,10.09-9.2,22.38c-3.07,12.29-7.88,76.79-10.51,102.67-2.63,25.89,.88,34.66,9.2,45.19,7.88,10.53,28.03,29.4,30.22,31.59,2.19,2.19,8.76,1.32,8.76,1.32l28.03,31.15,2.63,10.09s-7.01,27.2-7.45,34.66c-.88,7.46,9.2,10.97,9.2,10.97,0,0,7.88-2.63,12.7-6.58,4.82-3.95,9.2-12.72,16.21-29.84,6.57-17.55,7.45-24.13,7.45-24.13l-42.93-46.07s1.31-2.19,1.75-3.95c.88-1.76,0-3.95,0-3.95l-10.51-12.73c-.44-.44,8.76,2.19,21.9-4.39Z"/><path class="cls-4" d="M534.83,339.61s-7.89,7.46-14.02,9.21c-6.13,2.19-10.95-2.19-10.95-2.19l-2.63,4.83s3.5,1.75,11.39,5.7c7.88,3.95,12.26,14.48,12.26,14.48l7.45-13.16,19.27-1.76s2.63-2.63,4.38-7.46c1.75-4.83,0-9.21,0-9.21l-27.16-.44Z"/><path class="cls-4" d="M510.3,474.75s-.44,6.58-7.89,15.36c-7.45,8.77-16.21,8.34-16.21,8.34l3.07,2.19,3.94,11.41-4.82,21.94s1.75-3.95,8.32-5.7c6.57-1.75,15.77,5.27,15.77,5.27l11.83-33.78s-.88-3.07-2.63-6.58c-1.31-3.51-2.19-7.9-2.19-7.9l-9.2-10.53Z"/><path class="cls-2" d="M501.97,426.49c-10.07,7.9-24.09,3.95-24.09,3.95,0,0,10.08,10.97,10.95,15.8,.88,4.83-10.08,13.16-15.77,16.67-5.7,3.51-13.14,7.9-17.52,7.46-3.94-.44-24.53-21.06-35.48-35.1-10.95-13.6-9.2-16.24-3.5-91.27,6.57-77.22,16.21-76.35,16.21-76.35l49.93-.88s15.33,14.92,19.71,26.33c4.38,11.41-.44,72.84-.44,72.84,0,0,10.08,8.34,14.89,12.73,4.82,4.39,8.32,12.29,8.32,17.55,0,4.39-13.14,22.38-23.22,30.28Z"/><path class="cls-4" d="M513.8,373.84c4.82,4.83,10.51,16.23,11.39,21.06,1.31,4.83-9.2,14.92-9.2,14.92,0,0-1.31-8.34-7.01-17.11-5.69-8.34-7.01-9.65-7.01-9.65l.88-16.23s6.57,2.19,10.95,7.02Z"/><path class="cls-4" d="M454.67,469.93c3.5,1.76,4.38,.44,17.96-6.14,13.58-6.58,16.21-17.11,16.21-19.75s-10.95-13.16-10.95-13.16c0,0-.88,6.14-14.45,16.24-13.58,10.09-24.97,6.58-24.97,6.58,0,0,12.7,14.48,16.21,16.23Z"/><path class="cls-3" d="M460.36,155.33l-7.45-3.51s-2.63,3.51-3.94,4.39c-1.31,1.32-7.01,2.63-16.21,6.58-9.2,3.95-8.32,15.36-8.32,15.36,0,0,40.3-2.19,41.17-3.07,.88-.88-1.75-19.31-1.75-19.31l-3.5-.44Z"/><path class="cls-3" d="M494.97,132.14c-1.31-4.83-8.76-1.32-8.76-1.32l-3.94,6.58s-4.38-6.58-9.64-14.48c-5.26-7.9-8.76-16.24-8.76-16.24l-10.51,7.02s-3.51-4.39-4.38-7.02,3.07-4.83,10.95-10.53c8.32-5.7,27.16-2.63,40.3,3.51,13.14,6.58,13.58,22.38,11.83,39.05-1.75,16.67,10.07,17.11,19.27,21.94,9.2,4.83,11.83,10.09,12.26,26.33,.44,15.8-10.95,23.69-10.95,23.69,0,0,2.63,4.83,6.57,14.92,3.94,10.09-11.83,20.62-25.4,23.69-14.02,3.07-21.46-8.34-21.46-8.34,0,0,4.38-12.72,3.94-34.66-.44-21.94-7.89-28.52-10.51-32.03-3.07-3.95-3.94-23.69-3.94-23.69,0,0,4.82-7.02,5.26-7.46,.88-.44,9.2-6.14,7.89-10.97Z"/><path class="cls-4" d="M423.13,213.25s-.44,5.7,.88,11.41c1.31,5.26,9.2,9.65,9.2,9.65l-.88,32.91,52.12,1.32s6.57-17.99,9.2-30.71c2.63-12.29,3.07-25.89,1.75-40.81s-9.2-19.31-18.83-20.62c-9.64-1.32-29.79,1.76-29.79,1.76,0,0,7.45,12.72,6.57,21.06-.44,8.34-7.89,13.6-7.89,13.6l-22.34,.44Z"/><path d="M494.97,407.18c-.88,0-1.75-.88-1.75-1.76s1.31-71.96,1.31-98.72c-.44-25.89-19.27-36.86-19.27-36.86-.88-.44-1.31-1.75-.88-2.63,.44-.88,1.75-1.32,2.63-.88,.88,.44,21.03,12.29,21.03,39.93,.44,26.77-1.31,98.29-1.31,99.16,0,1.32-.88,1.76-1.75,1.76Z"/><path d="M496.28,400.6c-.44,0-.88,0-.88-.44-.88-.44-.88-1.76-.44-2.63l16.64-23.26c.44-.88,1.75-.88,2.63-.44,.88,.44,.88,1.76,.44,2.63l-16.64,23.26c-.88,.44-1.31,.88-1.75,.88Z"/><path d="M481.83,457.64c-.44,0-.88,0-1.31-.44-.88-.88-21.02-23.25-26.28-35.1-5.7-11.85,0-59.67,.44-61.87,0-.88,.88-1.76,2.19-1.76,.88,0,1.75,.88,1.75,2.19-1.75,13.6-4.82,50.9-.88,59.67,5.26,10.97,25.84,33.79,25.84,34.22,.88,.88,.44,1.76,0,2.63-.88,.44-1.31,.44-1.75,.44Z"/><path class="cls-4" d="M378.45,211.05c-4.38-3.07-8.32-9.21-8.76-15.36-.44-2.63,0-5.26,.44-8.34,1.31-17.55,3.5-34.23,5.26-51.34,0-1.32,.44-2.63,.44-3.95,0-1.76-.88-3.95-1.31-5.27-1.32-6.14-.88-12.29,0-18.87,.44-3.95,1.31-7.9,1.75-12.29,.44-6.14-.44-12.29,4.82-13.16,0-1.32,1.31-2.63,2.19-3.51,2.19-2.63,6.13-7.02,11.39-6.14,5.69,1.32,6.13,6.58,7.01,13.16,.44,5.27,1.31,10.97,1.75,15.36,.88-.44,1.75-1.76,3.5-2.19,2.63-.88,6.57,0,7.01,2.19,.88,2.63-2.19,4.39-3.51,6.14-2.63,3.51-3.5,7.9-4.82,12.72-.88,2.19-1.75,5.26-1.75,7.46-.44,4.39,0,8.78,0,13.16,0,13.16,.44,26.33,.44,38.61,6.57-.44,13.14-.88,19.71-1.32-.44-8.34,3.5-12.29,7.88-15.36,4.82-3.51,11.39-4.39,16.64-6.58,1.75-.88,2.19-2.63,3.07-3.95-1.75-2.19-3.51-4.83-4.82-7.9-.88-2.63-.88-7.02-.44-9.65,.44-2.63,3.5-2.63,5.26-3.95,2.63-1.75,5.26-5.7,2.19-8.78-1.75-.44-3.94,0-4.38-2.19,0-1.32,.88-2.19,1.75-3.07-.88-.44-1.32-1.75-2.19-3.07-.44-.88-1.75-2.63-1.75-3.51,0-1.32,2.19-3.07,3.07-4.39,1.32-1.76,2.19-3.07,3.51-3.95,5.26-4.83,14.45-6.58,23.65-7.02,14.89-.44,25.4,6.14,31.1,15.36,3.94,6.14,6.13,14.48,5.69,25.01-.44,4.83-.88,10.53,0,14.48,1.75,8.77,10.51,10.53,17.08,13.6,3.94,1.75,5.69,3.95,8.32,7.46,4.38,6.14,6.57,15.36,4.82,25.01-1.31,7.9-5.26,12.73-10.07,17.11-.44,.44-1.75,.88-1.75,1.75,1.75,2.63,3.07,4.83,4.82,7.9,1.31,2.63,3.07,6.14,2.63,9.65,0,3.51-2.19,6.58-3.94,8.77-1.75,2.63-3.94,4.39-6.57,6.14-4.82,3.51-10.95,6.58-18.84,6.58-3.94,0-8.32,0-10.95-1.32-3.07-1.32-4.82-3.51-7.45-5.26-2.19,7.02-3.94,14.04-6.57,21.06,4.38,3.95,8.76,7.9,12.27,13.16,3.07,5.26,4.82,12.28,5.69,19.74,.88,7.9,.44,16.23,.44,24.57s-.44,16.67-.44,25.01c2.19-4.83,4.38-9.21,6.57-14.04,.44-1.32,1.31-3.95,2.63-4.39,.88-.44,3.07,0,3.94,0h48.62c2.63,0,7.88-.44,9.2,.44,1.31,.88,.44,5.7,0,7.46-.88,7.46-3.5,12.72-7.88,16.67-3.07,2.63-7.01,3.95-12.27,4.39-4.82,.44-10.51,.44-15.77,.44-5.26,8.34-10.51,17.11-15.77,25.45,1.75,3.07,3.94,8.77,1.75,12.72-.88,1.76-2.63,3.95-3.94,5.7-3.94,5.7-7.88,11.41-12.7,16.24-3.07,3.51-6.57,6.58-10.95,8.34-4.82,1.76-10.08,2.63-16.65,2.63,1.31,1.76,2.63,3.51,4.38,5.27,1.31,1.76,3.5,3.51,4.38,5.27,1.32,2.63,0,6.14-1.75,8.34,12.26,13.16,24.97,25.89,37.67,39.05,1.31,1.76,4.82,3.95,5.26,6.14,0,.88-.44,3.51-.88,5.27s-.88,3.51-1.31,5.27c-2.63,10.53-6.57,19.31-10.51,27.64-2.63,5.7-5.26,11.41-9.2,16.24-2.63,3.51-6.57,5.7-11.39,7.46-1.31,.44-3.5,1.76-4.82,1.76-.88,0-1.75-.88-2.63-1.32-2.19-1.76-4.82-3.51-6.13-5.7-2.19-3.51-1.31-9.21-.44-13.6,1.31-7.9,3.07-15.36,5.26-22.38,.44-1.32,.88-2.19,.88-3.07,0-1.32-.88-3.51-1.31-4.83-.44-1.76-.88-3.51-1.31-4.83-.44-1.32-2.19-2.63-3.5-3.95-7.45-7.9-14.02-15.8-21.46-23.69-.88-.88-2.63-3.51-3.94-3.51-.88,0-2.19,.44-3.07,.44-4.38,0-6.13-3.07-8.32-5.26-1.31-1.32-2.63-2.63-3.94-3.95-8.32-7.9-17.08-15.8-23.65-25.45-4.38-6.58-7.89-14.48-8.76-24.13-.44-5.27,0-10.09,.44-15.8,.44-5.27,.88-10.09,1.31-15.36,1.75-19.74,3.51-40.81,5.7-60.55,2.19-20.18,3.94-39.49,13.14-52.65,0-9.65,.44-19.31,.44-28.96-8.76,5.26-16.21,10.09-25.4,15.36-3.94,2.19-9.2,5.27-13.58,7.02-5.26,2.19-11.83,1.76-16.64-.44-4.82-2.19-7.88-5.27-11.39-8.78-8.76-8.77-16.21-17.99-24.09-26.76-1.75-1.76-3.5-3.95-5.26-5.27-3.5-2.19-9.64-1.75-14.89-2.63-5.26-.44-10.95-.88-15.77-1.76-5.26-.88-8.76-2.19-10.95-6.14-1.31-1.75-1.75-3.51-2.63-6.14-.44-1.76-1.75-5.26-.88-7.46,.44-.88,2.19-2.63,2.19-3.07,0,0-1.31-1.32-1.31-1.76-.44-.44-.88-1.32-.88-2.63,0-2.63,4.38-3.07,6.57-3.51,9.2-1.76,20.15,0,28.91-.44,0-3.07-1.75-7.02-.88-10.97,.44-3.07,3.07-6.14,4.82-7.46,.44-.44,1.31-.88,1.75-.88,4.38-.88,4.38,6.58,5.26,10.53,1.31,7.02,4.82,11.41,8.32,16.24,1.75,2.19,3.5,5.26,5.26,7.02,1.31,1.32,3.07,2.19,4.38,3.07,10.51,7.46,20.59,14.48,31.1,21.5,4.38-3.07,9.2-6.58,13.14-9.65-7.45-2.19-14.45-2.19-19.71-5.7Zm14.02-134.7c-1.31,0-2.19,.88-3.5,1.32,2.19,6.14,3.07,14.04,3.07,21.5-.44,.44-.88,.88-1.75,.88-2.63,0-2.19-7.02-2.63-9.21-.44-3.95-.88-7.46-1.75-10.09-.44-.44-.88,.88-1.31,1.32-.44,.44-.88,.88-1.31,1.32,1.31,2.63,1.75,6.58,2.19,10.97,.44,2.63,1.31,7.9-.88,7.9-2.63,0-2.19-5.7-2.63-7.9-.44-3.07-.88-6.14-1.31-8.78-.88,.88-1.31,1.76-1.31,3.07-.44,3.95,0,7.9-.44,11.41-.44,3.51-1.31,7.02-1.75,10.53-.44,3.95-.88,7.46-.44,10.97,0,1.75,.88,3.51,.88,4.83,.44,1.32,1.31,3.07,1.31,4.83,0,2.19-.44,5.27-.88,7.9-1.75,15.8-3.5,31.15-4.82,47.39,0,2.63-.44,5.7-.44,8.34,.44,5.26,3.51,10.53,7.89,13.16,4.82,3.07,12.7,2.63,21.02,2.63,14.46,0,29.79,0,43.8-.44,2.19-2.63,4.82-6.14,5.7-10.09,.88-4.39,.88-10.09-.88-14.04-1.31-3.07-3.5-4.83-4.82-7.46-14.45,.88-30.66,2.19-45.55,3.07-2.19,0-5.26,.44-5.26-1.76s3.07-1.75,4.82-2.19c0-14.48-.44-32.03-.44-47.83,0-2.19-.44-4.39,0-6.58,0-.88,.88-2.19,.88-3.07,.88-3.07,1.75-6.58,2.63-9.65,1.31-4.39,3.5-7.46,5.69-10.09-2.63-.44-3.5,1.32-4.82,2.63-.88,.88-1.75,2.63-2.63,3.07-2.63,0-2.19-4.39-2.19-6.58-.44-2.63-.44-5.7-.88-7.9-.44-5.27-.88-11.41-2.19-14.92,.44,4.39,.88,9.65,1.31,14.92,0,1.76,0,3.51-1.75,3.51-2.63,0-2.19-7.02-2.63-9.65,.88-1.76,.44-5.27,0-9.21Zm59.13,33.35c.88,1.32,1.31,2.63,2.19,3.95,.44,0,.44-.44,.88-.44,.88-.88,1.75-1.32,3.07-2.19,1.31-.88,3.07-1.76,4.38-2.63,.88-.44,1.31-1.75,2.19-1.75,1.31,0,2.19,1.75,2.63,3.07,4.82,9.21,10.07,18.87,15.33,27.21,1.31-.88,1.75-3.07,3.5-3.95,.88-.44,2.19-.44,3.5-.88,1.32-.44,2.63-.88,3.51-.88,2.63,0,6.13,3.51,5.26,7.02-.88,5.7-7.01,6.14-10.51,9.21-.44,.44-1.31,1.76-1.75,2.19-.44,.88-1.75,1.32-1.75,2.19-.44,1.32,.44,4.39,.44,5.7,.44,3.95,.88,7.46,1.31,11.41,.44,1.76,.44,3.95,.88,5.26,.88,2.19,3.07,3.07,4.38,4.83,2.63,3.95,3.94,8.34,5.26,13.6,2.19,9.65,3.94,22.38,2.19,33.35-.44,3.51-1.75,7.46-2.63,11.41-.44,1.32-.88,2.63-.88,3.51,0,1.32,2.63,2.63,3.5,3.51,1.75,1.32,3.07,2.63,4.82,3.07,7.45,2.19,16.21,.44,21.9-2.63,2.63-1.32,5.26-3.51,7.88-5.7,2.19-2.19,4.82-5.26,4.82-8.34,.44-3.95-1.75-7.46-3.07-10.09-.88-1.32-1.31-2.63-2.63-3.95-.88-1.32-2.19-3.07-2.19-4.39s2.63-3.07,3.94-4.39c4.82-4.39,7.45-7.9,8.76-16.24,1.31-10.97-2.19-19.74-7.45-25.01-2.63-2.63-7.45-3.95-10.95-5.7-3.94-1.76-7.01-3.95-9.64-7.46-2.19-3.51-2.63-8.34-2.63-14.04,0-5.26,1.31-10.53,.44-15.8-.44-3.51-1.75-7.46-3.5-10.53-3.94-9.22-13.58-16.24-25.41-17.11-7.45-.44-14.02,.88-19.27,2.63-6.57,3.07-9.64,6.58-12.7,10.97Zm3.07,8.34c2.63,.88,4.38,4.39,3.94,7.46-.44,4.83-5.26,7.9-8.32,9.22,.88,1.76,1.32,4.39-.88,4.83,.44,3.95,1.75,6.58,3.94,9.21,2.19,2.63,5.69,4.83,10.95,4.39,1.31,0,2.63-.44,3.5-.88,1.75-.44,5.26-2.19,5.26,.88,0,1.76-1.75,1.76-2.63,2.19-1.32,.44-2.63,.88-3.94,.88,.88,6.14,1.75,11.85,1.75,18.43,5.7,0,10.95,0,14.89,1.76-1.75-5.7-1.75-11.41-2.63-18.43,0-1.76-.88-4.39-.44-6.14,0-1.32,1.31-2.19,2.19-3.51,1.75-2.19,3.5-3.95,6.13-5.7,2.19-1.32,5.7-2.19,5.7-5.27s-3.5-3.07-5.26-1.76c1.75,.44,3.94,0,3.94,1.76,0,2.63-4.82,.88-7.45,.88-1.31,.88-1.31,3.51-3.5,3.07-1.31,0-2.63-3.07-3.5-4.39-3.07-4.83-6.13-10.53-8.32-14.48-.88,0-1.32-.88-2.19-.88-2.63-.44-5.69,.88-5.26-1.75,0-2.19,2.63-1.76,5.26-1.76,0-.44-.44-1.32-.44-1.75-.88-1.75-2.19-3.95-3.07-5.7-3.94,2.63-7.45,4.39-9.64,7.46Zm-.88,35.98c-1.31,1.32-1.75,3.07-3.51,4.39-1.75,1.32-4.38,1.76-6.57,2.63-4.82,1.32-9.2,2.63-12.27,6.14-2.63,2.63-4.82,4.83-4.38,10.53,12.7-.88,25.41-1.76,37.67-2.63,0-6.14-1.31-11.85-1.75-17.99-3.94-.44-6.57-1.76-9.2-3.07Zm-128.34,35.1c-10.51,0-22.78-1.32-31.54,.88,.44,1.75,3.07,1.75,5.26,1.75,4.38,0,8.76,.44,13.58,.44,2.19,0,5.26-.44,5.26,1.75,0,2.63-7.01,1.76-9.64,1.76h-5.69c-2.19,0-3.94-.44-5.26-.44-.88,0-1.32,.88-2.19,1.32-.88,.44-1.75,.88-1.75,1.75,6.13,.44,13.14,.44,19.71,.44,2.63,0,5.26-.44,5.26,1.75s-2.63,1.76-4.82,1.76c-6.13,0-13.58,0-19.27-.44,0,.88,.44,1.32,.44,2.19,6.13,.44,12.26,.88,18.83,1.32,2.19,0,4.38,0,4.38,2.19,0,2.63-3.51,1.76-6.13,1.32-5.26-.44-10.51-.44-15.33-.88-.44,.44,.44,1.32,.88,1.76,3.5,3.95,13.58,3.95,20.59,4.83,3.5,.44,7.01,.88,10.51,.88,3.5,.44,7.01,1.32,9.2,2.63,1.75,.88,3.07,3.07,4.38,4.39,8.76,9.21,16.64,19.31,25.4,28.08,1.31,1.32,3.07,3.07,4.38,4.39,3.5,2.63,8.32,5.26,14.45,4.83,4.38-.44,8.32-3.07,12.27-5.27,11.83-5.7,21.02-13.16,32.41-19.31-6.13-3.95-10.95-9.65-10.07-20.62h-12.27c-1.31,0-3.07-.44-3.94,0-.44,0-1.75,1.32-2.19,1.76-3.94,2.63-7.45,5.7-11.39,8.34-1.31,1.32-3.07,2.19-4.38,3.51-2.19,0-3.94,3.95-6.13,3.51-.88,0-1.31-.88-1.75-1.75,0-2.19,2.63-2.19,3.5-3.51-10.08-7.02-20.59-14.04-30.66-21.5-1.31-.88-3.07-1.75-4.38-3.07-.88-.88-1.75-2.19-2.63-3.51-2.63-3.51-5.26-7.02-7.45-10.53-1.75-2.63-3.07-4.83-3.94-7.9-.88-3.07-1.31-6.58-2.19-10.53-1.31,1.32-3.07,3.07-3.5,4.83-.88,3.07,.88,6.58,1.31,9.65,.44,3.95-1.31,8.34-.88,12.29,.44,1.32,1.31,2.63,1.75,3.95,.88,1.32,3.07,5.26,0,5.26-1.75,0-2.19-2.19-3.07-3.51-1.31-2.63-2.63-7.46-1.31-12.72Zm124.84-10.09c2.63,3.51,5.26,8.78,5.26,15.8,0,3.51-.44,6.58-1.31,9.21-.88,2.63-2.63,4.39-3.5,6.58h7.45c2.19,0,5.69-.44,5.69,1.75,0,2.63-5.69,1.76-8.32,1.76-9.64,0-21.02,.44-30.22,.44-.44,7.02,1.75,12.29,5.69,15.8,1.32,1.32,3.94,1.76,4.38,3.07,.88,1.76,0,5.7,0,8.34-.44,7.9-.44,16.24-.88,24.13h49.5c3.5-11.41,7.88-23.69,10.51-38.17,2.19-10.53,.44-23.26-1.75-32.91-.88-3.07-1.31-7.02-2.63-9.21-.44-.88-1.75-1.76-2.63-2.63-.88-.88-2.19-1.76-3.07-2.19-2.63-1.76-6.13-2.19-9.2-2.19-9.2-.88-16.65,.44-24.97,.44Zm-15.77,90.39c-9.2,13.16-10.95,32.03-13.14,51.77-2.63,24.13-4.82,49.58-6.57,74.59-.44,5.26-.88,10.53-.88,15.36,1.31,19.74,12.7,30.28,23.65,41.24,4.82,4.83,9.2,9.65,14.46,14.04,1.31,1.32,1.75,2.19,4.38,2.19,3.94,0,7.45-1.76,10.51-3.51,5.7-3.07,10.95-7.02,15.33-11.85,1.75-2.19,5.26-5.27,5.26-8.34,0-1.32-1.75-2.63-2.63-3.95-2.19-2.63-3.5-4.39-5.69-7.02-.88-.88-1.75-3.07-2.63-3.51-.88-.44-2.19-.44-3.07-.88-4.82-2.19-8.32-5.7-10.95-10.53-.88-1.76-2.19-3.51-2.63-5.7-.88-3.51-1.31-7.46-1.75-10.97-2.63-25.01-3.94-50.9-5.26-77.23,0-2.19,0-4.39-.44-6.14-.44-.88-1.31-2.19-2.19-3.07-.44-.88-2.19-1.76-1.75-3.51,0-.44,.88-.88,1.31-.88,1.75-.44,2.63,1.76,3.51,2.63,.88,1.32,2.63,2.19,2.63,3.51,.44,1.32,.44,4.39,.44,6.14,.88,22.38,2.19,43.44,3.94,65.38,.44,3.95,.44,7.9,.88,11.85,.44,3.95,.44,7.46,1.75,10.97,.88,3.07,3.07,6.58,4.82,8.78,2.19,2.63,4.82,4.39,7.88,5.7,6.57,2.63,16.65,1.32,22.78-1.32,6.57-2.63,10.08-7.9,14.02-13.16,2.63-3.51,5.69-7.46,8.32-11.85,.88-1.32,2.19-3.07,2.63-4.39,.44-3.51-1.31-7.02-2.63-9.21-3.07-6.58-7.45-11.41-13.14-15.36-.88-.88-1.75-1.76-3.5-2.19,0,2.19,0,5.27-.44,8.34,0,2.63,.44,6.58-1.75,6.58-2.63,0-1.75-4.39-1.75-6.58,.44-8.34,.44-16.23,.88-24.57,.44-11.41,.88-22.38,.88-33.35,0-5.7,.44-11.41,0-16.67-.88-10.53-3.5-18.87-8.76-25.01-2.63-3.07-6.13-5.7-9.2-8.34h-49.5Zm137.54,65.38h-56.94c-1.75,3.51-3.5,7.46-5.26,10.97,1.75,1.32,4.82,2.19,7.88,2.19,5.26-.44,8.76-3.07,11.83-6.14,.88-.88,1.75-2.63,3.07-3.07,1.75-.44,5.26,0,7.88,0h15.33c1.75,0,6.13-.44,7.01,.44,.88,.88,0,4.83,0,6.58-.44,4.39-1.31,7.46-3.5,10.09,8.76-2.63,12.27-10.09,12.7-21.06q.44,0,0,0Zm-63.07,14.04c-.44,.88-.88,1.32-.88,2.19,10.08,3.51,17.96,8.77,22.34,17.99,2.19-3.07,3.5-5.7,5.69-9.21,.88-1.32,1.31-2.19,2.19-2.63,1.31-.44,3.07,0,4.38,0,3.07,0,5.26,0,8.32-.44,1.31,0,3.07,0,3.94-.44,1.31-.44,3.5-4.39,3.94-5.27,1.31-2.63,.88-5.7,1.75-8.78h-19.27c-1.75,0-4.82-.44-6.13,0-.88,.44-2.63,2.63-3.5,3.07-3.07,3.07-7.89,5.7-13.58,5.7-3.5,0-6.57-.88-9.2-2.19Zm-3.51,7.46c9.2,3.95,16.64,9.65,21.02,18.87,.88-.88,1.32-2.19,.88-3.95-.44-2.19-2.19-3.95-3.51-5.7-3.94-4.39-11.39-9.65-17.08-10.97-.88,.44-.88,1.32-1.31,1.76Zm-1.31,8.78c7.45,4.39,13.14,10.09,17.52,17.55,3.5-2.63,1.31-7.46-.88-10.53-3.5-4.83-10.95-10.09-16.21-12.29-.88,1.32-.44,3.95-.44,5.27Zm-41.17,105.31c5.26,5.7,10.08,11.41,15.77,17.55,.88,.88,1.75,2.19,2.19,2.19,2.19,.88,5.69-1.76,7.45-2.63,4.38-3.07,7.01-6.14,10.08-10.53,.88-1.76,3.07-4.83,2.63-7.46-.44-.88-2.63-3.07-3.5-3.95-3.5-3.95-7.45-7.9-10.95-11.41-6.57,6.58-14.02,12.73-23.65,16.24Zm41.17,1.75c-1.31,4.83-4.38,8.78-7.45,12.29-3.5,3.95-7.45,7.46-13.14,9.21,.88,.88,1.31,2.63,2.63,2.63,2.19,.44,5.26-1.32,7.01-2.63,3.94-2.63,7.01-5.7,9.64-9.65,1.31-1.76,2.63-4.39,3.07-6.14,.44-.88,.44-2.19,.44-3.07-.44-.88-2.19-1.76-2.19-2.63Zm-14.45,27.64c-.44,0,.44,.44,.44,.88,.88,1.76,1.31,3.95,2.19,6.58,.44,1.76,1.31,3.95,1.75,5.26,0,1.32-.44,2.63-.88,4.39-1.31,3.95-2.63,8.34-3.5,12.29,2.19-1.76,4.38-2.63,8.76-2.63,2.63,0,4.82,.88,6.57,1.76,2.19,.88,3.51,2.63,5.26,3.07,3.5-10.97,7.45-21.5,10.95-32.03-2.19-3.07-3.5-6.14-4.38-10.53-.44-1.32-.44-3.07-.88-3.95-.44-.88-2.19-2.19-3.07-3.07-1.31-1.32-2.19-2.19-3.07-3.51-3.94,10.09-10.51,17.55-20.15,21.5Zm31.1-10.53c0,1.32,.88,3.51,1.75,5.27,.88,1.32,2.19,3.07,2.19,4.39s-.88,3.51-1.75,4.83c-3.5,9.65-6.57,18.43-10.07,28.52-.44,1.76-.88,3.95-2.63,3.95-.88,0-2.19-1.32-3.07-2.19-2.63-2.19-7.45-5.27-12.7-3.95-1.31,.44-2.63,.88-3.5,1.76-.88,.88-2.19,1.76-2.63,2.63-.44,1.32-.44,3.51-.88,5.7-.44,3.07-.88,6.58,0,8.78,1.32,3.07,4.38,4.39,6.13,5.7,3.94-1.76,8.76-3.07,11.83-6.14,3.07-3.07,5.26-7.46,7.45-11.41,6.57-11.85,12.26-25.89,15.33-40.81-2.63-2.19-5.26-4.39-7.45-7.02Z"/><path class="cls-4" d="M463.43,138.65c-2.63-.88-1.75,1.32-3.94,2.63-1.31,.44-3.5,.44-4.38,1.32-.44,.88,0,2.19,.44,2.63,1.31,.88,4.82-.44,5.69-.88,1.31-.88,5.69-4.83,2.19-5.7Z"/><path class="cls-4" d="M455.11,126.81v2.63c0,1.32-.88,2.19-2.19,2.19s-2.19-.88-2.19-2.19v-2.63c0-1.32,.88-2.19,2.19-2.19s2.19,.88,2.19,2.19Z"/><path class="cls-4" d="M469.56,128.56v3.07c0,1.32-.88,2.19-2.19,2.19s-2.19-.88-2.19-2.19v-2.63c0-1.32,.88-2.19,2.19-2.19,.88-.44,2.19,.44,2.19,1.76Z"/><path class="cls-1" d="M396.41,320.74v45.19c0,3.07-2.63,6.14-6.13,6.14h-76.65c-3.07,0-6.13-2.63-6.13-6.14v-45.19c0-3.07,2.63-6.14,6.13-6.14h76.65c3.5,0,6.13,2.63,6.13,6.14Z"/><path d="M390.72,373.84h-77.09c-4.38,0-7.88-3.51-7.88-7.9v-45.19c0-4.39,3.5-7.9,7.88-7.9h76.65c4.38,0,7.88,3.51,7.88,7.9v45.19c0,4.39-3.5,7.9-7.45,7.9Zm-77.09-57.48c-2.19,0-3.94,1.76-3.94,3.95v45.19c0,2.19,1.75,3.95,3.94,3.95h76.65c2.19,0,3.94-1.76,3.94-3.95v-44.76c0-2.19-1.75-3.95-3.94-3.95h-76.65v-.44Z"/><path class="cls-4" d="M309.68,372.52l42.49-42.56,42.49,42.56h-84.98Z"/><path class="cls-1" d="M399.48,314.6l-47.31,43-47.31-43,47.31-43,47.31,43Z"/><path d="M352.17,359.8c-.44,0-.88,0-1.31-.44l-47.31-43.44c-.44-.44-.44-.88-.44-1.32s0-.88,.44-1.32l47.31-43c.88-.44,1.75-.44,2.19,0l47.31,43c.44,.44,.44,.88,.44,1.32s0,.88-.44,1.32l-47.31,43c0,.44-.44,.88-.88,.88Zm-44.68-45.19l44.68,40.81,44.68-40.81-44.68-40.81-44.68,40.81Z"/><path d="M390.72,373.84h-77.09c-4.38,0-7.88-3.51-7.88-7.9v-45.19c0-4.39,3.5-7.9,7.88-7.9h76.65c4.38,0,7.88,3.51,7.88,7.9v45.19c0,4.39-3.5,7.9-7.45,7.9Zm-77.09-57.48c-2.19,0-3.94,1.76-3.94,3.95v45.19c0,2.19,1.75,3.95,3.94,3.95h76.65c2.19,0,3.94-1.76,3.94-3.95v-44.76c0-2.19-1.75-3.95-3.94-3.95h-76.65v-.44Z"/><path class="cls-4" d="M494.97,37.73c1.75,0,3.5,1.76,3.5,3.51s-1.75,3.51-3.5,3.51-3.5-1.76-3.5-3.51,1.31-3.51,3.5-3.51Z"/><path class="cls-4" d="M482.7,37.73c1.75,0,3.5,1.76,3.5,3.51s-1.75,3.51-3.5,3.51-3.5-1.76-3.5-3.51,1.75-3.51,3.5-3.51Z"/><path class="cls-4" d="M470.88,37.73c1.75,0,3.5,1.76,3.5,3.51s-1.75,3.51-3.5,3.51-3.51-1.76-3.51-3.51,1.31-3.51,3.51-3.51Z"/><path class="cls-4" d="M470.88,37.73c1.75,0,3.5,1.76,3.5,3.51s-1.75,3.51-3.5,3.51-3.51-1.76-3.51-3.51,1.31-3.51,3.51-3.51Z"/><path class="cls-4" d="M458.61,37.73c1.75,0,3.5,1.76,3.5,3.51s-1.75,3.51-3.5,3.51-3.5-1.76-3.5-3.51,1.75-3.51,3.5-3.51Z"/><path class="cls-4" d="M446.78,37.73c1.75,0,3.51,1.76,3.51,3.51s-1.75,3.51-3.51,3.51-3.5-1.76-3.5-3.51,1.31-3.51,3.5-3.51Z"/><path class="cls-4" d="M434.52,37.73c1.75,0,3.5,1.76,3.5,3.51s-1.75,3.51-3.5,3.51-3.5-1.76-3.5-3.51,1.75-3.51,3.5-3.51Z"/><path class="cls-4" d="M494.97,37.73c1.75,0,3.5,1.76,3.5,3.51s-1.75,3.51-3.5,3.51-3.5-1.76-3.5-3.51,1.31-3.51,3.5-3.51Z"/><path class="cls-4" d="M482.7,37.73c1.75,0,3.5,1.76,3.5,3.51s-1.75,3.51-3.5,3.51-3.5-1.76-3.5-3.51,1.75-3.51,3.5-3.51Z"/><path class="cls-4" d="M470.88,37.73c1.75,0,3.5,1.76,3.5,3.51s-1.75,3.51-3.5,3.51-3.51-1.76-3.51-3.51,1.31-3.51,3.51-3.51Z"/><path class="cls-4" d="M470.88,37.73c1.75,0,3.5,1.76,3.5,3.51s-1.75,3.51-3.5,3.51-3.51-1.76-3.51-3.51,1.31-3.51,3.51-3.51Z"/><path class="cls-4" d="M458.61,37.73c1.75,0,3.5,1.76,3.5,3.51s-1.75,3.51-3.5,3.51-3.5-1.76-3.5-3.51,1.75-3.51,3.5-3.51Z"/><path class="cls-4" d="M446.78,37.73c1.75,0,3.51,1.76,3.51,3.51s-1.75,3.51-3.51,3.51-3.5-1.76-3.5-3.51,1.31-3.51,3.5-3.51Z"/><path class="cls-4" d="M434.52,37.73c1.75,0,3.5,1.76,3.5,3.51s-1.75,3.51-3.5,3.51-3.5-1.76-3.5-3.51,1.75-3.51,3.5-3.51Z"/><path class="cls-4" d="M494.97,50.02c1.75,0,3.5,1.76,3.5,3.51s-1.75,3.51-3.5,3.51-3.5-1.76-3.5-3.51c0-2.19,1.31-3.51,3.5-3.51Z"/><path class="cls-4" d="M482.7,50.02c1.75,0,3.5,1.76,3.5,3.51s-1.75,3.51-3.5,3.51-3.5-1.76-3.5-3.51c0-2.19,1.75-3.51,3.5-3.51Z"/><path class="cls-4" d="M470.88,50.02c1.75,0,3.5,1.76,3.5,3.51s-1.75,3.51-3.5,3.51-3.51-1.76-3.51-3.51c0-2.19,1.31-3.51,3.51-3.51Z"/><path class="cls-4" d="M470.88,50.02c1.75,0,3.5,1.76,3.5,3.51s-1.75,3.51-3.5,3.51-3.51-1.76-3.51-3.51c0-2.19,1.31-3.51,3.51-3.51Z"/><path class="cls-4" d="M458.61,50.02c1.75,0,3.5,1.76,3.5,3.51s-1.75,3.51-3.5,3.51-3.5-1.76-3.5-3.51c0-2.19,1.75-3.51,3.5-3.51Z"/><path class="cls-4" d="M446.78,50.02c1.75,0,3.51,1.76,3.51,3.51s-1.75,3.51-3.51,3.51-3.5-1.76-3.5-3.51c0-2.19,1.31-3.51,3.5-3.51Z"/><path class="cls-4" d="M434.52,50.02c1.75,0,3.5,1.76,3.5,3.51s-1.75,3.51-3.5,3.51-3.5-1.76-3.5-3.51c0-2.19,1.75-3.51,3.5-3.51Z"/></svg>