<?xml version="1.0" encoding="UTF-8"?><svg id="Camada_1" xmlns="http://www.w3.org/2000/svg" viewBox="0 0 270 215"><defs><style>.cls-1,.cls-2,.cls-3{fill:#fff;}.cls-2,.cls-4,.cls-3,.cls-5,.cls-6,.cls-7,.cls-8{fill-rule:evenodd;}.cls-4{fill:#fff800;}.cls-9{fill:#ff645a;}.cls-3{stroke:#000;stroke-miterlimit:10;}.cls-10,.cls-7{fill:blue;}.cls-5{fill:#ea0329;}.cls-6{fill:#07ff00;}</style></defs><path class="cls-8" d="M9.49,150.97c-.76,0-1.53,.82-1.53,1.64s.76,1.64,1.53,1.64,1.53-.82,1.53-1.64c0-1.02-.76-1.64-1.53-1.64Z"/><path class="cls-8" d="M14.64,150.97c-.76,0-1.53,.82-1.53,1.64s.76,1.64,1.53,1.64,1.53-.82,1.53-1.64c0-1.02-.76-1.64-1.53-1.64Z"/><path class="cls-8" d="M19.79,150.97c-.76,0-1.53,.82-1.53,1.64s.76,1.64,1.53,1.64,1.53-.82,1.53-1.64c0-1.02-.57-1.64-1.53-1.64Z"/><path class="cls-8" d="M19.79,150.97c-.76,0-1.53,.82-1.53,1.64s.76,1.64,1.53,1.64,1.53-.82,1.53-1.64c0-1.02-.57-1.64-1.53-1.64Z"/><path class="cls-8" d="M25.13,150.97c-.76,0-1.53,.82-1.53,1.64s.76,1.64,1.53,1.64,1.53-.82,1.53-1.64c0-1.02-.76-1.64-1.53-1.64Z"/><path class="cls-8" d="M30.28,150.97c-.76,0-1.53,.82-1.53,1.64s.76,1.64,1.53,1.64,1.53-.82,1.53-1.64c0-1.02-.57-1.64-1.53-1.64Z"/><path class="cls-8" d="M35.62,150.97c-.76,0-1.53,.82-1.53,1.64s.76,1.64,1.53,1.64,1.53-.82,1.53-1.64c0-1.02-.76-1.64-1.53-1.64Z"/><path class="cls-8" d="M9.49,150.97c-.76,0-1.53,.82-1.53,1.64s.76,1.64,1.53,1.64,1.53-.82,1.53-1.64c0-1.02-.76-1.64-1.53-1.64Z"/><path class="cls-8" d="M14.64,150.97c-.76,0-1.53,.82-1.53,1.64s.76,1.64,1.53,1.64,1.53-.82,1.53-1.64c0-1.02-.76-1.64-1.53-1.64Z"/><path class="cls-8" d="M19.79,150.97c-.76,0-1.53,.82-1.53,1.64s.76,1.64,1.53,1.64,1.53-.82,1.53-1.64c0-1.02-.57-1.64-1.53-1.64Z"/><path class="cls-8" d="M19.79,150.97c-.76,0-1.53,.82-1.53,1.64s.76,1.64,1.53,1.64,1.53-.82,1.53-1.64c0-1.02-.57-1.64-1.53-1.64Z"/><path class="cls-8" d="M25.13,150.97c-.76,0-1.53,.82-1.53,1.64s.76,1.64,1.53,1.64,1.53-.82,1.53-1.64c0-1.02-.76-1.64-1.53-1.64Z"/><path class="cls-8" d="M30.28,150.97c-.76,0-1.53,.82-1.53,1.64s.76,1.64,1.53,1.64,1.53-.82,1.53-1.64c0-1.02-.57-1.64-1.53-1.64Z"/><path class="cls-8" d="M35.62,150.97c-.76,0-1.53,.82-1.53,1.64s.76,1.64,1.53,1.64,1.53-.82,1.53-1.64c0-1.02-.76-1.64-1.53-1.64Z"/><path class="cls-8" d="M9.49,156.5c-.76,0-1.53,.82-1.53,1.64s.76,1.64,1.53,1.64,1.53-.82,1.53-1.64-.76-1.64-1.53-1.64Z"/><path class="cls-8" d="M14.64,156.5c-.76,0-1.53,.82-1.53,1.64s.76,1.64,1.53,1.64,1.53-.82,1.53-1.64-.76-1.64-1.53-1.64Z"/><path class="cls-8" d="M19.79,156.5c-.76,0-1.53,.82-1.53,1.64s.76,1.64,1.53,1.64,1.53-.82,1.53-1.64-.57-1.64-1.53-1.64Z"/><path class="cls-8" d="M19.79,156.5c-.76,0-1.53,.82-1.53,1.64s.76,1.64,1.53,1.64,1.53-.82,1.53-1.64-.57-1.64-1.53-1.64Z"/><path class="cls-8" d="M25.13,156.5c-.76,0-1.53,.82-1.53,1.64s.76,1.64,1.53,1.64,1.53-.82,1.53-1.64-.76-1.64-1.53-1.64Z"/><path class="cls-8" d="M30.28,156.5c-.76,0-1.53,.82-1.53,1.64s.76,1.64,1.53,1.64,1.53-.82,1.53-1.64-.57-1.64-1.53-1.64Z"/><path class="cls-8" d="M35.62,156.5c-.76,0-1.53,.82-1.53,1.64s.76,1.64,1.53,1.64,1.53-.82,1.53-1.64-.76-1.64-1.53-1.64Z"/><path class="cls-2" d="M45.73,11.68h-.57c-1.14,0-2.1,1.02-2.1,2.25V85.83c0,1.23,.95,2.25,2.1,2.25h.57c1.14,0,2.1-1.02,2.1-2.25V13.72c0-1.02-.95-2.05-2.1-2.05Z"/><path d="M45.16,88.49h.57c1.53,0,2.67-1.23,2.67-2.87V13.93c0-1.64-1.14-2.87-2.67-2.87h-.57c-1.53,0-2.67,1.23-2.67,2.87V85.83c0,1.43,1.14,2.66,2.67,2.66Zm.57-76c.76,0,1.34,.61,1.34,1.43V85.83c0,.82-.57,1.43-1.34,1.43h-.57c-.76,0-1.34-.61-1.34-1.43V13.93c0-.82,.57-1.43,1.34-1.43h.57Z"/><path class="cls-8" d="M47.25,48.96l-4.01-.82-.38,35.64,.76,3.69,2.1,.2,1.53-1.02,.76-3.28-.76-34.41Z"/><path class="cls-7" d="M47.44,51.83c1.14,0,2.1-1.02,2.1-2.25v-4.1c0-1.23-.95-2.25-2.1-2.25h-3.81c-1.14,0-2.1,1.02-2.1,2.25v4.1c0,1.23,.95,2.25,2.1,2.25h3.81Z"/><path d="M43.63,44.04c-.76,0-1.33,.61-1.33,1.43v4.1c0,.82,.57,1.43,1.33,1.43h3.81c.76,0,1.34-.61,1.34-1.43v-4.1c0-.82-.57-1.43-1.34-1.43h-3.81Zm0-1.64h3.81c1.53,0,2.67,1.23,2.67,2.87v4.1c0,1.64-1.14,2.87-2.67,2.87h-3.81c-1.53,0-2.67-1.23-2.67-2.87v-4.1c-.19-1.43,1.14-2.87,2.67-2.87Z"/><path class="cls-2" d="M32,11.68h-.57c-1.14,0-2.1,1.02-2.1,2.25V85.83c0,1.23,.95,2.25,2.1,2.25h.57c1.14,0,2.1-1.02,2.1-2.25V13.72c0-1.02-.95-2.05-2.1-2.05Z"/><path d="M31.42,88.49h.57c1.53,0,2.67-1.23,2.67-2.87V13.93c0-1.64-1.14-2.87-2.67-2.87h-.57c-1.53,0-2.67,1.23-2.67,2.87V85.83c0,1.43,1.14,2.66,2.67,2.66Zm.57-76c.76,0,1.33,.61,1.33,1.43V85.83c0,.82-.57,1.43-1.33,1.43h-.57c-.76,0-1.33-.61-1.33-1.43V13.93c0-.82,.57-1.43,1.33-1.43h.57Z"/><path class="cls-8" d="M33.52,35.03l-4.01-.82-.38,49.57,.76,3.69,2.1,.2,1.53-1.02,.76-3.28-.76-48.34Z"/><path class="cls-7" d="M33.71,36.46c1.14,0,2.1-1.02,2.1-2.25v-4.1c0-1.23-.95-2.25-2.1-2.25h-3.81c-1.14,0-2.1,1.02-2.1,2.25v4.1c0,1.23,.95,2.25,2.1,2.25h3.81Z"/><path d="M29.9,28.68c-.76,0-1.34,.61-1.34,1.43v4.1c0,.82,.57,1.43,1.34,1.43h3.81c.76,0,1.34-.61,1.34-1.43v-4.1c0-.82-.57-1.43-1.34-1.43h-3.81Zm0-1.43h3.81c1.53,0,2.67,1.23,2.67,2.87v4.1c0,1.64-1.14,2.87-2.67,2.87h-3.81c-1.53,0-2.67-1.23-2.67-2.87v-4.1c-.19-1.43,1.14-2.87,2.67-2.87Z"/><path class="cls-2" d="M59.65,11.68h-.57c-1.14,0-2.1,1.02-2.1,2.25V85.83c0,1.23,.95,2.25,2.1,2.25h.57c1.14,0,2.1-1.02,2.1-2.25V13.72c-.19-1.02-1.14-2.05-2.1-2.05Z"/><path d="M58.89,88.49h.57c1.53,0,2.67-1.23,2.67-2.87V13.93c0-1.64-1.14-2.87-2.67-2.87h-.57c-1.53,0-2.67,1.23-2.67,2.87V85.83c0,1.43,1.14,2.66,2.67,2.66Zm.76-76c.76,0,1.34,.61,1.34,1.43V85.83c0,.82-.57,1.43-1.34,1.43h-.57c-.76,0-1.34-.61-1.34-1.43V13.93c0-.82,.57-1.43,1.34-1.43h.57Z"/><path class="cls-8" d="M60.99,69.24l-4.01-.82-.38,15.36,.76,3.69,2.1,.2,1.53-1.02,.76-3.28-.76-14.13Z"/><path class="cls-7" d="M61.18,72.11c1.14,0,2.1-1.02,2.1-2.25v-4.1c0-1.23-.95-2.25-2.1-2.25h-3.81c-1.14,0-2.1,1.02-2.1,2.25v4.1c0,1.23,.95,2.25,2.1,2.25h3.81Z"/><path d="M57.36,64.32c-.76,0-1.33,.61-1.33,1.43v4.1c0,.82,.57,1.43,1.33,1.43h3.81c.76,0,1.33-.61,1.33-1.43v-4.1c0-.82-.57-1.43-1.33-1.43h-3.81Zm0-1.43h3.81c1.53,0,2.67,1.23,2.67,2.87v4.1c0,1.64-1.14,2.87-2.67,2.87h-3.81c-1.53,0-2.67-1.23-2.67-2.87v-4.1c0-1.64,1.14-2.87,2.67-2.87Z"/><path class="cls-2" d="M123.73,147.9s-9.15-15.98-13.54-21.51c-4.39-5.74-5.72-7.38-7.25-9.01-1.53-1.64-4.96-4.1-4.96-4.1,0,0,2.86-2.66,3.81-3.69,.95-1.02,1.91-2.66,1.91-2.66,0,0,4.2,2.46,7.44,1.03,3.43-1.43,5.72-3.28,5.53-6.56-.19-3.28-1.91-6.56-1.91-6.56,0,0,3.62-1.64,4.01-4.92,.38-3.28,0-4.51-3.05-7.58-3.24-3.07-6.68-13.31-7.44-19.87-.57-6.56-.19-20.89-2.1-23.56-1.91-2.66-9.35-7.99-14.49-5.74-5.34,2.25-12.78,4.92-13.54,5.94-.76,1.23-2.1,2.25-1.14,3.69,.95,1.43,3.24,3.28,3.24,3.28,0,0,.95,3.89-.38,5.94-1.34,2.05-1.53,2.87-1.53,2.87,0,0,1.91,6.96,5.53,7.58,3.62,.61,4.2,.61,4.2,.61l1.34,4.92s-4.77,4.51-8.39,5.94-8.01,3.48-8.39,6.15c-.38,2.66,.19,5.33,.19,5.33l-4.01,3.89s-6.29-4.1-10.87-16.59c-3.24-8.81-4.58-17.82-7.25-22.74-2.86-5.33-4.77-4.3-4.77-2.66s2.1,4.92,2.1,4.92l.95,4.51s-6.48,.2-6.68,3.28c-.19,3.07-.19,7.17,1.14,7.99,1.34,.82,3.05,1.02,3.05,1.02,0,0-.38,5.12,1.34,5.53,1.72,.41,2.86,1.02,2.86,1.02,0,0,4.01,15.36,6.68,22.12,2.67,6.76,4.77,10.24,9.15,10.04,4.39-.21,9.92-4.71,9.92-4.71,0,0-.38,6.56,1.14,7.78,1.53,1.23,2.67,3.28,2.67,3.28,0,0-14.3,20.48-22.89,46.7-8.58,26.22-13.16,39.94-13.16,39.94l80.48,2.46-.95-55.31Z"/><path class="cls-8" d="M76.05,103.24s-.38,5.33,.76,6.76,3.24,3.07,3.24,3.07l17.16-.41s6.29-2.87,6.1-8.6c-.19-5.53,0-28.47-2.29-30.32-2.48-1.64-8.2-4.3-12.97-1.23-4.77,3.07-20.22,16.8-20.22,16.8l-2.67-3.69s-1.14,3.89-4.58,5.12c-3.43,1.23-5.53,.61-5.53,.61,0,0,2.48,11.27,5.53,13.52,3.05,2.25,6.48,2.66,9.54,1.43,2.86-1.02,5.91-3.07,5.91-3.07Z"/><path class="cls-8" d="M79.29,46.91c0,1.64,.19,3.28,0,4.71-.19,1.02-.76,2.25-1.53,2.66-.57,.41-1.53,.2-1.53,1.23,.19,1.64,1.91,.61,2.48,.2,.95-.61,1.91-2.05,2.29-3.69,.38-1.64-.38-4.1,.19-5.74,.38-1.02,1.14-1.64,1.53-2.25,.57,.82,.95,1.84,1.53,2.66-.76,.2-1.72,0-1.91,.82-.19,1.43,1.72,.82,2.86,.82,1.33,2.05,3.81,4.71,5.53,6.56,.57,.61,1.33,1.84,2.1,1.84,.38,0,.57-.41,.95-.41,.95-.2,2.67,.2,2.48-1.02,0-1.02-1.33-.61-2.29-.41,0-.61,.38-.61,.76-.82,.38-.41,.76-.82,.95-.82,.76,0,1.14,1.23,1.14,2.05s-.76,1.84-1.34,2.25c-1.14,.82-2.86,.2-2.48,2.05-.95,2.25-1.91,4.51-3.05,6.56-.57-1.02-.76-2.05-1.34-3.07,.76-.41,1.91-.41,1.91-1.64,0-1.64-2.1,0-3.05,.2-2.29,.41-4.2-.82-5.15-1.64,.57-.2,1.14-.61,1.72-1.02,.57-.41,1.33-.82,1.33-1.43,0-.41-.19-.61-.57-.82-.57-.2-1.14,.61-1.72,1.02-.57,.41-1.14,.82-1.91,.82-.57-.2-1.53-3.69-2.67-2.46-.57,.61,.38,2.25,.76,2.87,1.53,2.46,4.2,4.51,7.63,4.3,.76,1.23,1.14,2.87,1.72,4.3-3.62,3.89-10.68,5.12-14.88,9.01-1.33,1.23-2.67,2.87-2.67,5.33,0,1.23,.19,2.46,.38,3.48-.95,1.02-2.29,2.05-3.43,2.87-2.48-2.87-4.77-6.15-6.68-9.42-3.05-5.12-4.58-11.88-6.1-18.64-.57-2.25-.95-4.51-1.91-6.35-1.14-2.66-2.48-5.53-4.39-7.78-.57-.61-1.34-1.84-2.29-1.64-1.33,.2-1.53,2.46-1.33,3.89,.19,1.64,1.53,3.07,2.1,4.1,.38,.82,.38,1.84,.76,2.66-2.29,.82-4.58,.61-5.91,2.87-.95,1.64-.76,4.51-.38,6.96,.19,1.02,.38,2.25,.95,2.87,.76,.82,1.91,1.23,3.05,1.43,.38,1.64,.19,3.48,.95,4.51,.76,1.02,1.91,1.23,3.05,1.64,2.29,7.99,4.2,16.8,7.06,24.58,1.33,3.89,3.62,7.17,7.63,7.78,4.96,.82,8.2-1.64,11.06-3.89,.19,2.25,0,4.3,.57,5.94,.57,1.43,1.72,2.25,3.05,3.28-4.01,6.15-7.82,12.7-11.25,19.46-3.43,6.76-6.29,14.14-9.35,21.51-5.53,13.73-10.3,28.47-14.88,43.22-.38,1.02-1.53,3.48,.19,3.07,.57-.21,.95-1.64,1.34-2.66,4.58-14.75,9.15-29.5,14.69-43.22,5.91-14.75,12.21-28.88,20.6-40.76,4.77-.21,9.54-.41,14.49-.62,.76,0,1.53-.2,2.1,0,.76,.21,1.72,1.23,2.48,1.84,4.2,3.28,6.87,7.37,10.11,11.88,.57,.82,1.14,1.64,1.91,2.46,.57,.82,1.33,2.25,2.1,2.25,.38,0,.76-.21,.76-.61,.19-.61-.38-1.02-.57-1.64-2.1-2.87-4.2-5.94-6.29-8.81-2.48-3.28-5.15-6.35-8.58-8.6,1.72-1.64,3.62-3.07,4.77-5.33,1.72,.82,3.81,1.84,5.91,1.64,4.01-.41,7.06-3.69,7.63-7.99,.38-2.46-.38-4.51-1.72-6.15,1.91-1.43,4.2-3.48,3.81-7.58-.19-2.87-2.29-4.3-3.81-6.15-1.53-1.64-2.67-4.1-3.62-6.35-2.1-4.92-3.43-9.42-3.62-16.18,0-3.48,0-6.76-.19-10.04,0-1.43-.38-3.07-.57-4.51-.19-1.43-.38-2.87-.76-4.1-1.53-4.92-5.72-7.78-11.44-8.19-1.72-.2-3.43,.41-4.96,.82-3.05,.82-5.91,1.64-8.77,2.87-1.33,.61-2.86,1.23-3.81,2.05-1.34,1.23-2.48,4.1-1.72,6.15,.95,2.25,2.1,3.07,3.05,4.1Zm-1.14-4.3c-.19-1.23,.57-2.87,1.33-3.69s2.29-1.23,3.43-1.64c2.48-1.02,5.15-2.05,7.63-2.66,1.72-.41,3.62-1.02,5.72-.82,5.15,.41,8.96,3.07,10.11,8.19,.19,1.23,.38,2.66,.57,4.1,.57,4.1,.38,8.81,.57,13.52,.19,6.56,1.53,10.65,3.43,15.16,.95,2.25,1.91,4.3,3.05,6.15,.57,.82,1.34,1.64,2.1,2.46,.76,.82,1.72,1.64,2.1,2.46,.57,1.43,.38,3.69-.38,5.12-.38,.61-1.14,1.43-1.72,1.84-.57,.41-1.91,1.02-1.91,1.84,0,.61,.76,1.43,1.15,1.84,.38,.61,.95,1.64,.95,2.46,.38,3.48-1.53,6.14-3.62,7.58-2.67,1.64-5.91,.82-8.01-.61,.57-7.99,.19-16.8-.57-24.38-.19-2.66-.38-5.33-1.33-7.17-.57-1.23-1.91-2.05-3.24-2.46-2.86-1.02-7.25-1.23-9.92-.2-1.33,.61-2.48,1.43-3.62,2.25-2.29,1.64-4.39,3.48-6.29,5.33-1.72,1.64-3.62,3.28-5.34,4.92-.19,.2-.38,.61-.76,.41-.57-2.25,.19-4.1,.95-5.33,2.1-2.46,5.34-3.69,8.2-5.12,1.91-1.02,3.81-2.05,5.72-3.28,3.81-2.66,4.96-6.35,6.87-11.06,1.91-.41,3.81-2.25,3.43-4.92-.19-2.05-2.1-4.3-4.2-2.87-.95,.61-1.33,1.43-1.53,2.46-1.72-2.05-4.58-4.51-6.29-7.17-1.14-1.84-2.29-4.1-3.43-6.15-.38-.61-.76-1.84-1.53-1.84-1.53,0,0,2.66,.19,3.07-.95,.61-1.53,1.64-2.1,2.66-.76-.82-1.72-1.43-1.72-2.46Zm-28.99,9.42c-.19-.61-.76-1.02-.95-1.64-.57-1.02-1.14-2.05-.76-3.69,1.14,1.23,2.1,2.87,2.86,4.3,.76,1.43,1.72,3.28,2.29,4.92,1.14,3.48,1.91,7.58,2.86,11.47,.95,3.48,2.1,7.78,3.62,10.65,1.14,2.25,2.67,4.51,4.01,6.56,.38,.61,1.34,1.64,1.34,2.05,0,.61-.76,1.43-1.14,1.84-.57,.61-.95,1.02-1.72,1.43-1.34,.82-2.67,1.64-4.39,1.64-1.33,0-1.14-1.02-1.53-2.25-1.14-3.69-1.91-6.96-3.05-10.65-.38-1.02-.57-3.48-1.33-4.1-.76-.61-2.29-.41-2.86-1.43-.57-.82-.57-2.46-.57-3.89,0-1.02,0-3.48-.95-3.69-1.14-.2-.95,1.23-.76,2.25-1.91-.2-2.1-1.64-2.48-3.48,.76-.2,1.53-.61,2.67-.82,1.14-.2,3.43,0,3.43-1.23,0-1.02-1.14-.82-2.1-.61-1.14,.2-2.1,.2-3.05,.61-.38,.2-.95,.41-1.14,.41-.19-.41,.19-.61,.57-.82,1.53-.82,2.86-1.23,4.77-1.43,.76-.2,1.53-.2,1.53-1.02,0-1.02-1.33-.82-2.1-.61-1.72,.2-3.24,.82-4.39,1.43,.57-1.84,3.43-2.46,5.91-2.66,.95-.2,1.91,0,2.1-.82,.19-1.02-.76-1.02-1.72-1.02-.57-1.64-.57-2.66-.95-3.69Zm17.55,37.49c.38,.41,.76,1.23,1.33,1.23s1.14-.61,1.72-1.02c3.62-3.07,7.25-6.15,10.3-9.22,2.67-2.66,5.91-5.53,9.35-7.17,1.14-.61,3.05-1.02,4.77-.82,2.48,.41,5.91,.61,6.87,2.66,.76,1.84,.95,4.71,1.14,7.17,.57,6.35,.76,13.31,.57,20.07,0,1.43,0,2.87-.38,3.89-.38,1.23-1.53,2.25-2.29,3.28-.95,1.02-1.91,1.84-2.86,2.46-4.2,.2-9.73,.41-14.11,.61-.76,0-1.72,.2-2.1,0-.19,0-.57-.41-.95-.61-.95-.62-1.91-1.43-2.29-2.46-.57-1.64-.38-4.1-.38-6.35,4.77-3.69,9.35-7.37,14.11-11.27,.57-.41,1.72-1.23,1.72-2.05,0-.41-.38-.61-.76-.61-.76,0-1.91,1.43-2.67,2.05-5.34,4.3-10.68,8.6-16.21,12.7-.95,.62-1.91,1.43-2.86,2.05-2.48,1.23-6.29,1.02-8.39-.41-1.53-1.02-2.86-3.28-3.43-5.53-.76-2.25-1.53-4.51-2.1-6.96,4.2,0,7.06-2.25,8.96-5.12,.38,.41,.57,.82,.95,1.43Z"/><path class="cls-8" d="M84.06,49.78c-.38,.2-.57,.82-.19,1.43l.76,1.23c.19,.41,.76,.61,1.34,.2,.38-.2,.57-.82,.19-1.43l-.76-1.23c-.38-.41-.95-.41-1.33-.2Z"/><path class="cls-2" d="M235.49,113.07h-74.19c-3.62,0-6.68,3.28-6.68,7.17v26.01c0,3.89,3.05,7.17,6.68,7.17h74.19c3.62,0,6.68-3.07,6.68-7.17v-26.22c0-3.89-3.05-6.97-6.68-6.97Z"/><path d="M157.93,155.23h83.53c4.51,0,8.37-3.48,8.37-7.99v-26.02c0-4.3-3.65-7.99-8.37-7.99h-83.53c-4.51,0-8.37,3.48-8.37,7.99v26.02c0,4.51,3.87,7.99,8.37,7.99Zm83.53-40.15c3.65,0,6.44,2.87,6.44,6.15v26.02c0,3.48-3.01,6.15-6.44,6.15h-83.53c-3.65,0-6.44-2.87-6.44-6.15v-26.02c0-3.48,3.01-6.15,6.44-6.15h83.53Z"/><path d="M153.72,107.95h92.99c2.76,0,5,2.24,5,5v2.7c0,2.76-2.24,5-5,5h-92.99c-2.76,0-5-2.24-5-5v-2.7c0-2.76,2.24-5,5-5Z"/><path class="cls-7" d="M194.11,124.96h-31.66c-1.52,0-2.67,1.23-2.67,2.87v18.23c0,1.64,1.15,2.87,2.67,2.87h31.66c1.53,0,2.67-1.23,2.67-2.87v-18.23c0-1.43-1.14-2.87-2.67-2.87Z"/><path class="cls-6" d="M177.9,114.71c-.95,0-1.72,.82-1.72,1.84s.76,1.84,1.72,1.84,1.72-.82,1.72-1.84c.19-1.02-.57-1.84-1.72-1.84Z"/><path class="cls-4" d="M170.27,114.71c-.95,0-1.72,.82-1.72,1.84s.76,1.84,1.72,1.84,1.72-.82,1.72-1.84-.76-1.84-1.72-1.84Z"/><path class="cls-5" d="M162.07,114.71c-.95,0-1.72,.82-1.72,1.84s.76,1.84,1.72,1.84,1.72-.82,1.72-1.84-.76-1.84-1.72-1.84Z"/><path class="cls-10" d="M203.26,146.67h29.18c.38,0,.76-.41,.76-.82s-.38-.82-.76-.82h-29.18c-.38,0-.76,.41-.76,.82-.19,.61,.19,.82,.76,.82Z"/><path class="cls-10" d="M222.91,141.96h9.54c.38,0,.76-.41,.76-.82s-.38-.82-.76-.82h-9.54c-.38,0-.76,.41-.76,.82s.38,.82,.76,.82Z"/><path class="cls-10" d="M203.26,141.96h9.35c.38,0,.76-.41,.76-.82s-.38-.82-.76-.82h-9.35c-.38,0-.76,.41-.76,.82-.19,.41,.19,.82,.76,.82Z"/><path class="cls-10" d="M216.04,141.96h4.01c.38,0,.76-.41,.76-.82s-.38-.82-.76-.82h-4.01c-.38,0-.76,.41-.76,.82s.38,.82,.76,.82Z"/><path class="cls-10" d="M203.26,137.04h29.18c.38,0,.76-.41,.76-.82s-.38-.82-.76-.82h-29.18c-.38,0-.76,.41-.76,.82-.19,.41,.19,.82,.76,.82Z"/><path class="cls-10" d="M226.15,132.13h6.29c.38,0,.76-.41,.76-.82s-.38-.82-.76-.82h-6.29c-.38,0-.76,.41-.76,.82,0,.62,.19,.82,.76,.82Z"/><path class="cls-10" d="M203.26,132.13h16.97c.38,0,.76-.41,.76-.82s-.38-.82-.76-.82h-16.97c-.38,0-.76,.41-.76,.82-.19,.62,.19,.82,.76,.82Z"/><path class="cls-2" d="M126.02,149.74l-1.72-.82,1.72-2.87s5.34,2.05,8.01-1.43c2.67-3.48,2.67-6.35,2.67-6.35l.38-2.87,1.53-.82,.19-2.05,1.72,1.02,1.33-2.05,2.29,1.64,.57-2.87s2.86,1.02,3.62,0c.76-1.02,2.1-2.46,.38-3.07-1.72-.61-1.53-1.43-2.48-2.66-.95-1.23-2.67-5.74-5.34-6.76-2.67-1.02-6.29-1.23-6.29-1.23,0,0,1.72-1.84,1.15-2.46-.57-.61-1.91-1.64-3.82-.61-1.91,1.02-4.96,1.43-4.96,1.43,0,0,.76-2.05-.57-2.25s-5.72,3.69-5.72,3.69c0,0-2.48,.62-3.24,1.43-.76,.82-3.05,6.76-3.05,9.22,0,2.25,.38,5.12,.38,5.12,0,0-1.14,2.25,.19,3.89,1.33,1.64,2.67,2.66,2.67,2.66l.95,2.46s-1.91,7.99-6.87,8.19c-4.96,.21-14.69-1.43-23.27,5.74-8.39,7.17-23.65,16.39-27.46,21.1-3.81,4.51-7.25,9.63-6.48,13.32,.76,3.69,1.91,9.01,6.68,9.01,4.77-.21,7.25-.21,7.25-.21h94.41l12.97-39.54,12.21-1.02,10.49-8.4s.57-1.84-.38-2.05c-.76-.21-1.34-.41-1.34-.41,0,0,.38-2.05-1.34-2.25-1.72-.21-2.48-.21-3.24,.82-.76,1.03-4.77,4.71-4.77,4.71,0,0,2.67-7.58,1.72-8.4-.76-.82-2.29,0-3.05,1.23-.57,1.23-4.39,8.81-4.39,8.81,0,0-13.35-2.87-15.64,2.05-2.29,4.71-10.3,23.97-10.3,23.97,0,0-6.1-18.23-8.77-20.89-2.67-2.66-7.25-5.74-13.35-6.15-5.72-.61-7.63-1.02-7.63-1.02Z"/><path class="cls-8" d="M124.11,124.75l-3.43,11.68-1.91-1.02-.57-3.69s-1.72-1.23-2.48-.21c-.76,.82-1.14,1.43-1.14,1.43,0,0-.95-2.25-.38-5.53,.57-3.48,2.1-9.42,3.24-10.04,.95-.61,2.29-.61,2.29-.61,0,0,.76-1.02,2.67-2.25,1.91-1.23,2.48-2.25,3.05-2.05,.57,.41,.95,2.46,.95,2.46,0,0,3.62-1.23,5.53-1.43,1.91-.21,2.86,0,3.05,.2,.19,.61-.57,3.07-.57,3.07,0,0,6.29,0,7.63,2.87,1.53,2.87,3.05,6.35,4.58,6.76,1.52,.61,2.29,1.43,2.29,2.05s-1.33,2.05-2.1,2.46c-.76,.21-2.29,0-2.29,0,0,0-.19,1.84-.95,2.05-.57,.21-1.91-1.02-1.91-1.02,0,0-.76,1.43-1.34,1.43s-1.72-.82-1.72-.82l.19-4.92s-.76-1.43-1.33-1.23c-.57,.21-3.81,.82-7.63-.41-3.81-1.02-5.72-1.23-5.72-1.23Z"/><path class="cls-8" d="M117.44,140.32c-.38,1.23-.95,2.25-1.53,3.28-.95,2.05-1.53,4.3-4.2,4.51-3.05,.41-5.91-.21-8.77,0-2.67,.21-5.34,.61-7.44,1.43s-3.81,2.05-5.53,3.48c-1.72,1.23-3.43,2.46-5.34,3.69-7.06,4.92-14.11,9.83-20.98,15.36-1.72,1.43-3.24,2.66-4.77,4.51-1.34,1.64-2.67,3.48-3.81,5.33-1.14,2.05-2.1,4.3-1.91,7.38,.38,5.12,3.43,9.42,8.58,9.83,5.72,.41,10.11-2.05,12.97-4.71,1.14-1.02,2.29-2.25,3.43-3.48,.38-.41,.76-1.02,1.14-1.23,.76-.2,1.91,0,2.67,0,1.91,0,3.24-.2,4.58-1.02,.57-.41,1.14-.82,1.72-1.02,1.91-.41,2.86,1.23,4.77,.82,.76-.2,1.72-.82,1.72-1.64,.19-1.43-1.34-3.07-1.91-3.69-.57-.41-1.34-.61-1.91-.82-1.34-.41-2.67-.41-3.43-1.23,.95-1.43,.95-4.51,.38-6.35,.19-.41,.38-.61,.76-.82,.19-.2,.38-.61,.76-.82,.76,.41,1.14,1.23,1.53,2.05,.38,.82,.95,1.64,1.72,2.05,1.14,.41,2.29-.41,2.67-1.43s0-2.66-.19-3.48c-.19-1.23-.57-2.05-1.14-2.66-.95-1.64-2.1-3.07-4.01-3.48-1.91-.41-3.62,1.23-4.58,2.25-.95,.82-1.53,1.64-2.67,2.87-1.91-.2-3.05,.62-4.39,1.43-2.86,1.64-5.34,3.48-7.82,5.53-.95,.61-1.53,1.43-2.29,2.25-.57,1.03-1.14,1.64-2.1,2.25-1.14,.82-3.05,1.43-4.58,2.05-.57,.21-1.14,.41-1.14,1.02-.19,1.64,2.67,.41,3.43,.21,1.14-.41,2.67-1.02,3.43-1.64,1.34-1.02,2.1-2.66,3.24-3.69,1.53-1.64,3.43-2.46,5.15-3.89,2.29,1.23,4.01,2.66,4.01,6.35-.76,.21-1.91,.61-2.86,.41-.57,0-.76-.61-1.14-.82,.19-.41,.38-.61,.19-1.23-.57-1.84-4.01,1.64-1.72,2.05,.57,.62,1.14,1.64,2.29,1.64,.76,.21,1.91-.21,2.67-.21,2.29-.41,4.96-1.23,6.68-2.25,.76,.21,1.14,1.02,1.91,1.23,.57,.21,1.34,.21,1.91,.21,1.72,.41,2.67,1.02,3.24,2.66-.57,.41-1.34,0-1.91-.2-1.14-.41-2.48-.62-3.81-.21-.57,.21-1.53,1.02-2.29,1.23-1.91,.62-5.15,.41-7.44,.41-.95,0-1.72-.21-1.91,.61-.19,.82,.38,1.02,1.14,1.02-.76,1.03-1.72,1.84-2.67,2.87-2.67,2.66-6.1,5.12-11.25,5.12-2.67,0-4.58-.82-6.1-2.66-1.34-1.64-2.29-3.89-2.29-6.56,0-3.28,2.1-6.14,3.43-8.19,1.72-2.46,3.43-4.3,5.53-5.94,8.39-6.97,17.36-12.7,26.32-19.05,2.1-1.43,4.2-3.28,7.25-4.1,1.91-.62,4.77-1.02,7.25-1.02,.95,0,2.1-.21,2.67,0,.38,0,.95,.82,1.34,1.02,1.33,1.23,2.67,2.46,3.81,3.48,1.72,1.43,3.81,2.87,6.1,3.69,2.48,.82,6.1,1.03,8.39,.21,2.29-.82,4.58-3.48,4.01-7.17,7.25,.61,12.59,2.46,16.02,7.37,3.24,4.71,6.1,9.83,9.15,14.75-.76,1.64-1.91,4.1-2.86,6.14-.38,.62-1.34,2.66,0,2.66,.95,0,1.72-2.66,2.1-3.28,3.43-7.38,6.48-14.75,10.11-21.92,.76-1.43,1.34-3.48,2.67-4.1,1.72-1.02,4.58-.61,6.87-.41,1.72,.2,3.43,.2,5.34,.41,.57,0,1.34,.21,1.72,0,.57-.21,.76-1.64,1.14-2.25,.38-.82,.76-1.64,.95-2.46,1.14-2.46,1.72-4.71,3.43-5.94,.57,1.43,0,2.87-.57,4.3-.57,1.84-1.14,3.28-1.91,5.12-.19,.62-1.53,3.28,0,3.28,.95,0,.95-1.43,1.33-2.25,.38-.61,.95-1.23,1.53-2.05,.95-1.23,2.1-2.46,3.24-3.69,.95-1.02,1.72-2.05,3.43-1.64-.95,2.66-2.29,3.89-3.81,5.94-.95,1.23-2.1,2.66-3.24,4.1-.38,.41-.76,1.03-1.14,1.23-.38,.2-1.14,.2-1.91,.2-3.43,.21-6.1,.41-9.54,.61-.95,0-3.05,0-3.05,1.02s.76,1.02,1.72,1.02c-3.24,10.04-6.68,20.49-10.49,30.52-.57,1.43-.95,2.87-1.72,4.1-.95,1.84-3.05,4.1-5.34,4.3-1.53,.21-3.05-.41-4.2-1.03-1.14-.61-2.29-1.43-3.05-2.25-1.14-1.23-2.1-2.87-3.05-4.51-2.86-4.51-5.72-9.63-8.58-14.34,0-.82,1.91-2.25,1.34-3.28-.57-1.02-1.53,.21-1.91,.82-4.58,8.19-8.77,16.18-13.35,24.38-.38,.61-1.33,2.46,0,2.46,.76,0,1.33-1.84,1.91-2.66,3.82-6.96,7.25-13.32,11.06-20.07,2.67,4.71,5.53,9.42,8.39,13.93,1.72,2.87,3.43,5.12,6.29,6.76,1.53,.82,3.05,1.64,5.15,1.43,3.81-.2,6.48-3.89,7.82-7.17,4.39-10.86,7.82-22.74,11.63-33.59,2.1-.21,4.2-.21,6.68-.41,2.1-.21,4.58,0,6.29-.62,.95-.41,1.91-1.43,2.67-2.05,1.72-1.43,3.24-2.87,4.96-4.51,.76-.61,1.91-1.43,2.29-2.46,.57-1.64-.38-3.07-1.91-3.28,.38-2.25-2.48-2.66-4.01-2.05-.76,.41-1.53,1.23-2.1,2.05-.76,.82-1.34,1.64-1.91,2.25,.19-1.43,1.14-2.66,1.14-4.1s-.38-3.48-1.72-3.48c-1.14,0-2.29,1.02-2.86,2.05-.76,1.23-1.34,2.87-2.1,4.3-.57,1.43-1.53,3.07-1.91,4.51-2.67-.2-5.53-.41-8.39-.61-3.05-.21-5.53,0-7.06,1.84-.38,.61-.76,1.43-1.15,2.25-2.67,5.33-5.34,11.47-7.82,16.8-1.72-2.87-3.62-5.74-5.34-8.6-1.72-2.87-3.43-5.94-5.91-8.19-2.48-2.25-5.53-3.69-9.15-4.51-3.62-.61-7.63-1.23-11.63-1.84,.19-.82,.76-1.43,1.14-2.05,5.34,1.64,8.96-1.43,10.49-5.33,.38-.82,1.53-4.1,0-4.1-.76,0-.76,1.03-.95,1.84-.95,3.69-3.43,6.76-8.01,5.94-.76-.2-1.53-.41-2.1-.82-.57-.21-1.33-1.02-1.91-.82-.19,0-.57,.41-.57,.82,0,1.02,.95,1.02,1.72,1.64-.38,1.23-2.86,3.89-.95,5.33,.57,.41,1.91,.82,1.91-.62,1.33,.21,2.48,.41,3.81,.62,.38,2.66-.76,4.3-1.91,5.12-1.33,1.02-4.2,1.02-6.29,.82-4.96-.82-8.39-4.3-11.25-6.76,5.91,.62,6.87-4.3,8.58-8.19,.57,0,1.14-.21,1.14-.62,0-.61-.57-1.02-.95-1.64-.38-.61-.57-1.02-.95-1.43-.76-.82-2.1-1.43-2.67-2.46-.76-1.64-.19-3.89,2.29-3.48,.19,.21,.38,.61,.38,1.02-.76-.21-2.1-.82-2.1,.41,0,1.02,1.72,.82,2.48,1.43,.76,.82,.76,2.25,1.91,2.46,.95,.21,1.72-.62,1.91-1.23,.38-.82,.19-2.05,.38-2.87,.38-2.66,1.72-5.53,2.29-7.78,2.86,1.02,6.29,2.25,10.11,2.46,1.14,0,2.29-.21,3.43-.61,.57,1.84-.19,3.69-.19,5.53-.95-.21-1.91-.61-2.86-.61-2.86,.41-5.72,5.33-3.81,8.4-.38,.41-.57,.62-.57,1.23,.19,1.64,2.48,0,2.67-.61,0-.82-.95-1.64-.95-2.66-.19-2.25,1.34-4.1,2.67-4.51,.76-.2,1.53,0,2.29,.41,.57,.21,1.14,.61,1.72,.41,.57-.2,.57-.61,.57-1.43,.57,.82,2.1,.61,2.48-.41,1.15,1.23,3.05,.41,3.05-1.43,.76,.21,1.91,0,2.48-.2,1.15-.41,2.67-2.05,2.29-3.69-.38-1.43-2.29-1.84-3.24-2.66-.95-1.02-1.72-2.66-2.67-4.1-.76-1.23-1.72-2.66-3.05-3.69-1.33-1.02-3.43-1.23-5.53-1.43,.19-.82,.95-1.43,.76-2.46-.38-1.64-3.81-.82-5.53-.61-1.34,.2-2.67,.61-3.62,1.02,.19-1.43-.19-2.46-1.72-2.25-1.33,.2-3.24,1.43-4.2,2.05-.76,.61-1.14,1.43-1.72,2.05-2.67-.2-3.62,1.64-4.39,3.69-.38,1.02-.76,2.05-.95,3.07-.76,2.66-1.72,6.15-.95,8.6,.19,.41,.38,.82,.38,1.23s-.19,.82-.19,1.23c.38,3.48,3.43,4.1,4.77,6.35Zm8.58-24.17c.57,.2,1.33-.41,1.91-.61,1.91-.61,4.39-1.23,6.48-1.23,0,.82-1.53,1.84-1.53,2.66,0,1.02,1.53,.82,2.48,.82,1.72,0,3.43,.2,4.58,1.02,1.14,.82,2.1,2.46,3.05,3.89,.76,1.23,1.53,2.66,2.29,3.69,.76,.82,1.91,1.23,2.86,2.05-.38,.62-.57,1.23-1.34,1.43-.76,.41-1.72-.21-2.67,0-.76,0-.76,1.23-.95,2.05-.57-.2-.95-1.02-1.72-.82-.57,0-.76,.61-.95,1.23-.38-.21-.57-.61-.95-1.02,.38-1.43,.76-4.92-.95-5.53-1.14-.41-2.29,.41-3.43,.61-1.91,.2-4.2-.61-5.91-1.03-.76-.2-1.72-.61-2.67-.82-.76-.21-2.1-1.02-2.67-.82-.76,.2-.95,1.84-1.14,2.66-.76,2.25-1.33,3.89-1.72,5.94-.19,1.02-.38,2.25-.57,3.28-.19-.61-.57-1.02-.76-1.43-.19-1.03,0-1.84-.57-2.66-.57-1.02-2.1-1.23-3.24-.82-.38,.21-.76,.41-.95,.41-.38-1.02-.19-2.87,.19-4.1,.38-2.25,.95-4.1,1.53-5.94,.38-.82,.76-2.05,1.14-2.46,.57-.62,1.91-.21,2.67-.62,.57-.2,1.15-1.43,1.53-1.84,.95-1.02,2.29-1.43,3.43-2.05,.19,.61-.19,1.84,.57,2.05Zm69.61,32.57c.19-.41,.57-1.23,.95-1.43,.38,0,.95,.21,.95,.61s-.76,1.02-.95,1.23c-1.34,1.23-2.48,2.25-3.81,3.28,.76-1.02,1.91-2.25,2.86-3.69Zm-106.8,19.26c.95-.41,2.1,.41,2.67,1.02,1.14,1.02,2.1,2.66,2.29,4.92,0,.61,.19,1.84-.38,1.84-.38,0-.95-1.23-1.14-1.64-.38-.61-.76-1.23-1.14-1.84-.38-.41-1.14-1.03-1.91-.82-.95,.21-1.14,1.43-1.91,1.84-.57-.82-1.34-1.23-2.29-1.64,.95-1.23,2.29-3.07,3.81-3.69Zm-2.86,6.55c1.14,1.64,1.14,5.94-.76,6.56,.19-4.1-1.53-6.56-4.01-7.99,1.91-.41,3.81-.21,4.77,1.43Zm-6.29-.61c1.14,1.02,2.67,1.43,3.43,2.87,.57,1.23,.57,2.87,.57,4.71-.76,.2-1.33,.41-2.1,.61,0-3.69-1.72-5.74-4.01-7.17,.76-.21,1.33-.61,2.1-1.02Z"/><path class="cls-8" d="M127.36,131.3c-.95,0-3.62,.61-3.62,1.84,0,.2,.19,.82,.57,.82,.57,.21,.95-.21,1.33-.62,.38-.2,.95-.41,1.53-.41s1.14,.41,1.53,.61c.57,.41,2.1,1.02,1.91-.41,0-.62-.95-1.03-1.34-1.23-.76-.41-1.14-.61-1.91-.61Z"/><path class="cls-8" d="M125.64,139.09c-1.72-.41-.76,2.05-.38,2.87,.38,.62,1.33,1.23,1.91,1.23,.38,0,.76-.21,.76-1.02s-1.14-.82-1.53-1.43c0-.41,0-1.43-.76-1.64Z"/><path class="cls-8" d="M133.27,134.99c-.57,0-.95,.41-.95,1.02v1.23c0,.62,.38,1.03,.95,1.03s.95-.41,.95-1.03v-1.43c0-.41-.38-.82-.95-.82Z"/><path class="cls-8" d="M127.36,134.17c-.57,0-.95,.41-.95,1.02v1.43c0,.61,.38,1.02,.95,1.02s.95-.41,.95-1.02v-1.43c0-.61-.38-1.02-.95-1.02Z"/><path class="cls-2" d="M258.95,1.23h-115.96c-3.62,0-6.67,3.28-6.67,7.17V86.65c0,3.89,3.05,7.17,6.67,7.17h115.96c3.62,0,6.68-3.28,6.68-7.17V8.19c-.19-3.89-3.05-6.96-6.68-6.96Z"/><path d="M142.99,94.43h115.96c4.01,0,7.44-3.48,7.44-7.99V8.19c0-4.3-3.24-7.99-7.44-7.99h-115.96c-4,0-7.44,3.48-7.44,7.99V86.45c0,4.51,3.24,7.99,7.44,7.99ZM258.95,2.05c3.24,0,5.72,2.87,5.72,6.15V86.45c0,3.48-2.67,6.15-5.72,6.15h-115.96c-3.24,0-5.72-2.87-5.72-6.15V8.19c0-3.48,2.67-6.15,5.72-6.15h115.96Z"/><path class="cls-8" d="M268.68,0H134.79V6.68c0,2.76,2.24,5,5,5h123.88c2.76,0,5-2.24,5-5V0Z"/><path class="cls-10" d="M203.64,20.07h52.07c.38,0,.76-.41,.76-.82s-.38-.82-.76-.82h-52.07c-.38,0-.76,.41-.76,.82s.19,.82,.76,.82Z"/><path class="cls-9" d="M203.64,24.99h16.78c.38,0,.76-.41,.76-.82s-.38-.82-.76-.82h-16.78c-.38,0-.76,.41-.76,.82-.19,.41,.19,.82,.76,.82Z"/><path class="cls-10" d="M238.93,24.99h16.78c.38,0,.76-.41,.76-.82s-.38-.82-.76-.82h-16.78c-.38,0-.76,.41-.76,.82-.19,.41,.19,.82,.76,.82Z"/><path class="cls-10" d="M225.58,24.99h7.06c.38,0,.76-.41,.76-.82s-.38-.82-.76-.82h-7.06c-.38,0-.76,.41-.76,.82-.19,.41,.19,.82,.76,.82Z"/><path class="cls-10" d="M203.64,29.7h52.07c.38,0,.76-.41,.76-.82s-.38-.82-.76-.82h-52.07c-.38,0-.76,.41-.76,.82-.19,.41,.19,.82,.76,.82Z"/><path class="cls-9" d="M203.64,34.62h11.06c.38,0,.76-.41,.76-.82s-.38-.82-.76-.82h-11.06c-.38,0-.76,.41-.76,.82s.38,.82,.76,.82Z"/><path class="cls-10" d="M225.39,34.62h30.32c.38,0,.76-.41,.76-.82s-.38-.82-.76-.82h-30.13c-.38,0-.76,.41-.76,.82-.19,.41,.19,.82,.57,.82Z"/><path class="cls-10" d="M204.22,40.97h51.49c.38,0,.76-.41,.76-.82s-.38-.82-.76-.82h-51.49c-.38,0-.76,.41-.76,.82s.38,.82,.76,.82Z"/><path class="cls-9" d="M204.22,45.68h16.59c.38,0,.76-.41,.76-.82s-.38-.82-.76-.82h-16.59c-.38,0-.76,.41-.76,.82s.38,.82,.76,.82Z"/><path class="cls-10" d="M239.12,45.68h16.59c.38,0,.76-.41,.76-.82s-.38-.82-.76-.82h-16.59c-.38,0-.76,.41-.76,.82s.38,.82,.76,.82Z"/><path class="cls-10" d="M225.96,45.68h10.11c.38,0,.76-.41,.76-.82s-.38-.82-.76-.82h-10.11c-.38,0-.76,.41-.76,.82-.19,.41,.19,.82,.76,.82Z"/><path class="cls-10" d="M204.22,50.19h51.49c.38,0,.76-.41,.76-.82s-.38-.82-.76-.82h-51.49c-.38,0-.76,.41-.76,.82s.38,.82,.76,.82Z"/><path class="cls-9" d="M204.41,54.9h10.87c.38,0,.76-.41,.76-.82s-.38-.82-.76-.82h-11.06c-.38,0-.76,.41-.76,.82s.38,.82,.95,.82Z"/><path class="cls-10" d="M225.96,54.9h29.75c.38,0,.76-.41,.76-.82s-.38-.82-.76-.82h-29.94c-.38,0-.76,.41-.76,.82s.38,.82,.95,.82Z"/><path class="cls-9" d="M219.47,54.9h1.52c.38,0,.76-.41,.76-.82s-.38-.82-.76-.82h-1.52c-.38,0-.76,.41-.76,.82-.19,.41,.19,.82,.76,.82Z"/><path class="cls-6" d="M258.76,4.51c-.95,0-1.72,.82-1.72,1.84s.76,1.84,1.72,1.84,1.72-.82,1.72-1.84-.76-1.84-1.72-1.84Z"/><path class="cls-4" d="M251.13,4.51c-.95,0-1.72,.82-1.72,1.84s.76,1.84,1.72,1.84,1.72-.82,1.72-1.84-.76-1.84-1.72-1.84Z"/><path class="cls-5" d="M242.74,4.51c-.95,0-1.72,.82-1.72,1.84s.76,1.84,1.72,1.84,1.72-.82,1.72-1.84c.19-1.02-.76-1.84-1.72-1.84Z"/><path class="cls-7" d="M180.76,17.62h-32.23c-2.48,0-4.39,2.05-4.39,4.71v53.67c0,2.66,1.91,4.71,4.39,4.71h32.23c2.48,0,4.39-2.05,4.39-4.71V22.33c0-2.46-2.1-4.71-4.39-4.71Z"/><path class="cls-10" d="M245.22,90.13l-13.16-8.19v-16.39l13.16-8.19,13.16,8.19v16.39l-13.16,8.19Z"/><path class="cls-2" d="M159.59,84.6c1.14-3.28,2.86-5.74,6.68-8.19,3.81-2.46,24.03-14.13,24.03-14.13,0,0-1.34-6.15,.57-8.6,1.72-2.46,2.86-3.89,2.29-8.81-.57-4.92-1.14-8.6-1.14-8.6l-2.48,2.87s-1.15-4.92,2.29-10.24c3.24-5.33,8.77-10.45,13.92-10.86,5.15-.41,12.21,.2,15.64,7.58,3.43,7.37,3.62,19.87,5.53,22.33,2.1,2.46,12.4,5.53,14.3,8.81,1.91,3.28,2.1,6.56,2.1,6.56,0,0,9.73,11.68,13.16,16.8,3.43,5.12,6.87,10.86-.19,15.16-7.25,4.3-28.04,9.01-28.04,9.01,0,0,.19,2.25-1.91,3.48-1.91,1.23-3.43,2.87-3.43,2.87,0,0-1.72,7.58-5.34,7.37-3.62-.2-4.58-1.23-4.77-2.25-.38-1.02-.76-8.19-.76-8.19l-1.14,1.43s-.57,5.33-1.91,5.33-2.48-.82-2.29-3.07c.38-2.05,.57-5.33,3.43-8.19,3.05-2.66,19.83-10.86,19.83-10.86l-20.22,.41-3.62-4.51s-4.01,0-6.29-2.25c-3.62-3.69-1.91-7.99-1.91-7.99l-12.21,4.51s3.62,1.02,4.96,2.25c1.33,1.23,3.24,4.71,3.24,6.15,.19,1.43,.19,5.94-2.67,7.37-2.86,1.23-4.39,.41-5.34-1.02s-.95-2.46-.95-2.46l-2.1-2.87s.57,6.76-.19,6.96c-.76,.41-2.86-1.02-2.86-2.25-.19-1.23-.19-2.87-.19-2.87l-1.14-1.64s-12.59,1.84-14.49,.82c-2.48-.82-5.53-4.71-4.39-8.19Zm82.96,1.84l-6.29-6.15-1.34,9.22,7.63-3.07Z"/><path class="cls-8" d="M243.7,64.12s-4.2-5.74-9.73-6.15c-5.53-.41-12.4,.2-13.92-2.05-1.53-2.25-3.43-9.01-3.43-9.01l1.91-3.89s4-2.46,3.05-5.33c-.95-2.87-2.29-2.46-2.29-2.46l-1.72,1.23-.95,4.71-6.68-10.04-3.82,3.28-2.1-.82-3.05,2.87-2.86-1.64-1.91,2.25-.19,2.87h1.53s.57,10.24,4.77,11.88c4.2,1.64,6.29,.2,6.29,.2,0,0,3.05,5.94,.38,6.15-2.67,.2-6.48-.61-9.92,.82-3.43,1.43-8.58,4.1-8.58,4.1,0,0-1.33-4.92,.19-7.99,1.33-3.07,2.86-3.48,2.67-7.37-.19-4.1-.95-10.45-.95-10.45l-2.48,3.07s-1.14-6.56,1.53-10.45c2.67-3.89,13.35-14.75,21.74-11.68,7.63,2.87,9.54,8.19,11.06,16.18,1.52,7.99,1.14,14.54,6.87,16.8,6.29,2.46,8.2,3.89,10.49,7.17,2.29,3.28,2.1,5.74,2.1,5.74Z"/><path class="cls-8" d="M159.4,83.58c.76-2.46,2.67-4.51,4.58-5.94,3.82-2.87,8.39-5.33,12.59-7.78,4.39-2.66,8.77-4.92,12.97-7.58-.38-2.25-.95-4.3-.38-6.35,.38-1.84,1.72-3.07,2.48-4.51,1.91-3.28,.19-8.81,.19-12.91-.76,.41-1.34,2.46-2.48,2.25-1.14-.2-.76-4.1-.57-5.12,.38-5.74,3.43-8.6,6.1-11.68,1.72-2.05,4.2-3.69,6.68-4.92,1.91-.82,4.2-1.64,6.67-2.05,4.77-.61,7.82,1.02,10.3,3.28,1.91,1.84,3.43,3.89,4.58,6.55,1.15,2.66,1.72,5.94,2.29,9.01,.19,1.64,.57,3.28,.76,4.92,.38,3.07,.76,6.15,2.48,7.78,.76,.61,1.72,1.02,2.86,1.64,2.1,.82,4.01,1.84,5.91,2.87,1.91,1.23,3.62,2.25,4.77,4.1,.76,1.23,1.53,3.07,2.1,4.71,.19,.61,.19,1.23,.57,1.84,.19,.41,.76,1.02,1.33,1.64,1.34,1.64,2.67,3.28,3.82,4.71,3.62,4.3,6.87,8.19,10.11,12.91,1.53,2.25,2.67,6.15,.95,9.01-.57,1.02-1.72,2.05-2.86,2.87-1.14,.82-2.29,1.64-3.62,2.05-2.67,1.23-5.91,2.05-8.39,2.87-5.91,1.84-11.25,3.48-17.16,5.33-.38,3.07-2.48,4.3-4.77,5.33-.95,2.66-1.34,5.33-3.05,6.96-2.1,1.84-6.48,1.03-8.01-1.02-.95-1.23-.95-3.07-1.33-4.92-.38,1.43-1.14,3.69-2.48,3.69-1.15,.21-1.91-1.02-2.1-2.05-.38-1.84,.19-4.51,.57-5.94,.57-1.64,1.53-3.07,2.48-4.1,.95-1.02,2.1-1.84,3.05-2.66h.19v-.21c1.33-1.02,2.67-2.05,4-2.87,5.72-3.69,11.83-5.53,17.55-8.19-.19-1.43,.19-3.07,.38-4.51,.19-1.64,.19-3.07,.57-4.51-.76-.61-1.33-1.23-2.29-2.25-.57-.61-1.91-1.64-1.91-2.46,.19-1.64,1.72,0,2.29,.41,3.24,3.28,6.68,6.76,9.73,9.83,.76-.2,2.48-1.43,3.05-.61,1.15,1.23-1.52,1.84-2.29,2.05-7.06,2.66-14.11,5.33-20.6,8.4-3.81,1.64-7.25,3.89-10.3,6.35-1.33,1.02-3.24,2.46-4.2,4.3-.38,.82-.76,2.05-.95,3.28-.19,1.23-.57,2.87,.19,3.69,.57-.61,.76-1.43,.95-2.46,.19-.82,.19-2.25,.57-2.87,.38-.61,1.14-.82,1.34-1.43,.38-1.02,.19-3.07,1.33-3.07,1.34,0,.57,1.84,.38,2.87-.38,2.46-.19,5.94,.38,7.78,.19,.62,.38,1.02,.95,1.23-.19-1.43-.57-3.07-.38-4.92,0-1.23,.38-2.05,.57-3.07,.19-.61,.38-2.25,1.53-2.25,1.34,0,.38,2.05,.19,2.87-.19,.82-.57,1.64-.57,2.46-.19,1.84,.19,3.48,.38,4.92,0,.41,0,1.23,.57,1.02,.19-2.66,.38-6.15,1.33-8.4,.19-.61,.57-1.84,1.15-2.05,.57,0,.57,.21,.95,.62,0,.82-.38,1.43-.57,2.25-.76,2.05-.95,4.92-.95,7.58,1.53-.41,1.91-1.84,2.48-3.07,.19-.61,.57-1.23,.76-2.05,.19-.61,.38-1.64,.57-2.05,.38-.41,1.33-.82,1.91-1.02,.57-.41,1.53-.82,1.91-1.23,.57-.82,.57-2.46,1.15-3.07,.38-.41,1.33-.41,2.1-.61,5.15-1.43,10.11-3.07,14.88-4.71,4.01-1.23,8.58-2.46,12.01-4.71,.57-.61,1.91-1.64,2.48-2.66,.95-1.64,.57-4.3-.19-5.94-.57-1.23-1.53-2.46-2.29-3.48-4.2-5.53-8.77-11.06-13.16-16.18-1.72-2.05-3.81-4.1-6.48-5.33-2.48,2.25-5.34,4.3-8.77,5.53-3.43,1.23-7.44,2.25-11.63,2.46-7.06,.41-13.35-.82-17.55-3.48-1.53-.82-2.67-2.25-3.82-3.28-8.96,4.92-18.69,10.24-27.46,15.77-1.91,1.23-3.43,2.25-4.77,3.89-1.33,1.64-2.86,3.69-2.1,6.35,.57,2.05,2.1,4.1,4,4.71,1.91,.61,4.2,.41,6.29,.2,1.91,0,4.01-.2,5.91-.41-.57-.61-.76-2.05,.19-2.05,.57,0,1.14,1.23,1.53,1.84,.38,.61,.95,1.43,1.14,2.25,.57,1.64,.38,3.69,1.72,3.89,.38-2.05,0-5.12-.38-6.96-.19-1.02-.76-2.46,.38-2.46,.76,0,.76,1.02,1.14,1.84,.38,1.02,1.34,2.05,1.91,3.28,.76,1.64,.95,3.89,2.48,4.3,.19-3.07-.57-5.33-1.72-7.17-.38-.61-1.53-2.66,0-2.66,.76,0,1.14,1.23,1.52,1.84,1.15,2.25,2.1,4.92,1.91,8.4,.38-.2,.95-.2,1.14-.41,.76-3.69-.38-6.35-1.53-8.6-.38-.82-.95-2.25,.38-2.25,.76,0,1.14,1.23,1.34,1.84,1.14,2.25,2.1,4.51,1.72,7.78,.57-.61,.57-1.43,.76-2.46,.19-1.02,.38-2.05,.19-3.07-.19-1.02-.95-2.25-1.53-3.28-.57-1.02-1.14-2.05-2.1-2.66-.95-.61-2.48-.82-3.81-1.23-2.86-.61-5.34-1.02-8.39-1.43-1.14-.2-3.62-.2-3.62-1.43s1.53-.61,2.29-.61c2.29,.41,3.81,.41,5.91,.82,.95,.2,2.1,.61,2.86,.61,.38,0,.95-.41,1.53-.61,3.62-1.23,7.44-2.66,10.87-3.89,.19-1.23,.38-2.25,.76-3.28-.19-.41-.76-.82-1.33-1.23-.38-.41-1.15-.82-1.15-1.64,0-.41,.38-.61,.57-.61,.76-.2,1.33,.82,1.91,1.23,.57,.61,1.53,1.02,1.53,1.84,0,.41-.19,1.02-.38,1.64-.19,.61-.38,1.23-.38,1.64-.76,3.89-.19,7.37,2.29,9.22,.76,.41,1.91,.82,2.86,1.02,.76,.2,1.72,.2,2.67,.41,.57,.2,.95,1.02,1.34,1.64,.95,1.23,1.53,2.25,2.48,3.48,.19,.41,.95,.82,1.14,1.43h-1.91s0-.2-.19-.2c-.95-1.23-1.53-2.05-2.29-3.28-.38-.41-.95-1.43-1.34-1.64-.57-.2-1.14-.2-1.72-.41-.57-.2-1.15-.2-1.72-.41-3.43-1.23-5.53-4.1-5.34-9.01-3.05,1.02-6.1,2.05-9.15,3.28,2.48,.61,4.01,2.05,5.15,4.1,.57,1.02,1.53,2.66,1.72,3.89,.19,.82,0,2.46-.19,3.69-.19,1.02-.38,2.05-.76,2.87-1.33,2.66-5.91,4.1-8.2,1.43-.76-1.02-1.14-2.25-1.72-3.69-.19,1.84,.38,4.51-1.14,4.92-1.14,.41-2.1-.41-2.67-1.02-1.14-1.23-.76-3.89-1.91-5.12-3.05,.41-6.1,.61-9.35,.61-3.62,.2-5.91-.82-7.63-2.66-1.34-1.84-2.67-4.71-1.53-7.78Zm82.2,2.87c-1.53-1.64-3.05-3.28-4.77-4.92-.38,2.25-.57,4.71-.95,6.96,2.1-.61,3.81-1.23,5.72-2.05Zm.19-25.4c-.95-3.89-3.62-5.33-6.87-7.17-1.33-.82-3.05-1.64-4.77-2.25-1.72-.82-3.05-1.43-4.01-2.87-.95-1.43-1.34-3.48-1.53-5.53-.76-4.3-1.14-8.4-2.1-12.29-.38-1.84-1.14-3.48-2.1-4.92-1.91-3.07-4.01-5.53-7.44-6.56-3.81-1.23-8.2,.41-11.25,1.84-1.53,.82-3.05,1.64-4.39,2.66-1.34,1.02-2.29,2.25-3.43,3.69-2.1,2.66-4.2,5.33-4.01,10.24,.19,0,.38-.41,.57-.61,.38-.61,1.15-2.05,2.1-2.05s1.34,1.23,1.91,1.64c.57-.41,.95-.82,1.53-1.23,.38-.41,.95-1.02,1.53-1.23,.95-.2,1.72,1.02,2.67,1.43,.57-.41,.95-1.02,1.53-1.64,.38-.41,.95-1.43,1.53-1.64,1.14-.2,1.52,1.23,2.48,1.64,.57-.61,.95-1.23,1.72-1.84,.38-.41,1.15-1.64,1.91-1.64s1.53,1.23,1.91,1.84c.57,.82,1.14,1.43,1.53,2.05,.95,1.64,1.91,3.48,2.67,4.51,.19-1.02,.38-2.46,.57-3.89,.19-1.23,.19-3.28,1.34-3.28s.57,1.64,.57,2.66c1.91-.82,4.01,1.43,4.01,3.28,.19,1.23-.38,2.25-.76,3.07-.57,1.23-1.91,2.05-2.67,3.07-.57,1.02-.95,2.05-1.53,3.07,.57,2.05,1.33,4.1,2.1,6.35,.38,1.02,.76,2.05,1.53,2.46,1.34,.82,3.43,.82,5.53,1.02,2.1,0,4.2,.2,5.91,.41,4.58,.2,7.25,1.64,9.73,3.69Zm-50.73,.41c3.62-1.84,7.44-4.3,12.59-4.3,1.72,0,4.01,.41,5.34-.2-.19-1.43-.76-2.66-.95-3.89-3.05,0-6.1-.61-8.01-2.87-.95-1.02-1.91-2.87-2.29-5.12-.19-1.02-.57-2.87,.57-2.87s.95,2.87,1.34,3.69c.38,1.23,1.14,2.46,1.91,3.07,1.33,1.43,3.81,2.25,6.29,2.05,1.72-.2,3.05-1.02,4.2-2.25,.38-.41,.76-1.02,1.14-1.02s.76,.2,.76,.82c0,.82-1.14,1.84-1.53,2.25-.76,.61-1.72,1.02-2.48,1.43,.19,.82,.38,1.43,.57,2.25,.19,.82,.57,1.64,.38,2.46-.19,1.02-1.34,1.64-2.48,1.84-1.91,.2-4.2-.2-6.29,0-2.1,.2-3.81,.82-5.15,1.43,3.81,4.51,11.25,6.56,19.64,5.94,7.63-.61,14.68-2.87,18.69-6.96-2.48-.82-5.53-1.02-8.58-1.02-3.05-.2-6.29-.41-7.63-2.46-.76-1.23-1.14-2.87-1.72-4.51-.19-.61-.38-1.43-.76-2.46-.19-.82-.57-1.64-.57-2.46,0-.61,.57-1.23,.95-2.05,.38-.61,.57-1.23,.95-1.84,.76-1.23,1.91-1.84,2.48-2.87,.95-1.43,.57-3.48-.95-4.1-.57,.2-1.53,.41-1.53,1.43,.38,.2,.76-.61,1.34-.41,.19,0,.38,.2,.57,.61,.19,1.23-1.72,1.23-2.1,2.05-.38,1.02,0,2.66-1.14,2.66-.57,0-.95-.82-1.34-1.64-.38-.82-.76-1.43-1.14-1.84-1.34-2.05-2.67-4.71-4.2-6.15-.57,.41-.95,1.23-1.53,1.84-.38,.41-1.14,1.43-1.72,1.64-.95,0-1.53-1.43-2.48-1.64-.38,.41-.95,1.02-1.53,1.64-.38,.41-.95,1.43-1.53,1.64-.95,.2-1.72-1.23-2.67-1.43-.76,.41-1.53,1.02-1.14,2.46,2.48-1.64,4.58,.2,5.91,2.05,1.14,1.64,1.91,4.1,1.34,6.15,.57,.41,1.33,.2,1.33,1.02,0,1.64-2.86,.41-3.05-.41-.19-.61,.38-1.23,.38-2.05,.19-1.43-.57-2.87-1.15-3.69-.57-.82-1.33-2.05-2.48-2.05-1.34,0-1.91,1.43-2.86,1.23-.76-.2-.76-1.23-.76-2.46-.19-.2-.38,0-.76,0-.57,0-.95-1.02-1.52-1.23,.19,2.25,.57,4.51,.76,6.76,.19,2.25,.38,4.92-.38,6.76-.76,2.05-2.86,3.48-3.05,5.94-.57,2.46-.19,3.69,0,5.12Z"/><path class="cls-8" d="M209.18,36.67c-1.14-.2-1.91,.41-2.86,1.02-.57,.41-1.53,.82-1.53,1.64,0,.2,.19,.82,.57,.82,.57,.2,1.15-.61,1.72-.82,.38-.41,1.14-.82,1.72-.82,1.15,0,1.72,1.23,2.67,1.02,.19,0,.57-.41,.57-.82,0-.82-.95-1.02-1.14-1.23-.57-.61-.95-.82-1.72-.82Z"/><path class="cls-8" d="M210.51,45.07c-.95-.2-.95,1.02-1.53,1.84-.38,.41-1.33,.82-1.53,1.23-.19,1.43,1.15,1.02,1.91,.61,.38-.2,.76-.61,.95-.82,.19-.41,1.72-2.66,.19-2.87Z"/><path d="M248.08,98.73c.19,0,.38,0,.38-.2,.76-.61,1.14-1.43,1.34-2.46,.19-1.84-.38-4.3-1.91-6.15-2.29-3.07-5.34-4.51-7.25-3.07-.38,.2-.57,.82-.19,1.23,.19,.41,.76,.61,1.14,.2,1.14-.61,3.43,.2,5.15,2.66,1.14,1.64,1.72,3.48,1.53,4.92,0,.61-.38,1.02-.57,1.23-.38,.2-.38,.82-.19,1.23,0,.2,.38,.41,.57,.41Z"/><path class="cls-2" d="M166.07,92.79c-1.72-1.43-1.72-5.53,1.33-9.01,2.86-3.28,6.29-3.07,8.2-2.66l-9.54,11.68Z"/><path d="M166.07,93.61c.19,0,.57-.2,.76-.41,.19-.41,.19-1.02-.19-1.23-.38-.41-.76-1.02-.76-1.84-.19-1.43,.38-3.69,2.29-5.74,1.91-2.05,4.39-2.87,7.44-2.46,.38,0,.95-.2,.95-.82,0-.41-.19-1.02-.76-1.02-3.62-.61-6.68,.41-8.96,2.87-1.91,2.05-2.86,4.92-2.67,7.17,.19,1.43,.57,2.46,1.53,3.07,0,.41,.19,.41,.38,.41Z"/><path class="cls-8" d="M207.65,40.15c-.38,.2-.57,.82-.19,1.43l.76,1.23c.19,.41,.76,.61,1.34,.2,.38-.2,.57-.82,.19-1.43l-.76-1.23c-.38-.41-.95-.61-1.33-.2Z"/><path class="cls-8" d="M200.59,41.17c-.38,.41-.57,.82-.19,1.43l.76,1.02c.38,.41,.76,.61,1.34,.2,.38-.41,.57-.82,.19-1.43l-.76-1.02c-.38-.41-.95-.41-1.34-.2Z"/><path class="cls-2" d="M121.82,178.21H55.07c-1.14,0-2.1,1.02-2.1,2.25v.61c0,1.23,.95,2.25,2.1,2.25H121.82c1.15,0,2.1-1.02,2.1-2.25v-.82c0-1.23-.95-2.05-2.1-2.05Z"/><path d="M55.07,183.95H121.82c1.53,0,2.67-1.23,2.67-2.87v-.82c0-1.64-1.14-2.87-2.67-2.87H55.07c-1.53,0-2.67,1.23-2.67,2.87v.61c-.19,1.64,1.14,3.07,2.67,3.07Zm66.75-5.12c.76,0,1.34,.61,1.34,1.43v.61c0,.82-.57,1.43-1.34,1.43H55.07c-.76,0-1.33-.61-1.33-1.43v-.61c0-.82,.57-1.43,1.33-1.43H121.82Z"/><path class="cls-8" d="M54.31,178.42l35.09-.2v5.12l-35.09,.21-.95-2.66,.95-2.46Z"/><path d="M218.9,179.03l-5.91,11.47h11.82l-5.91-11.47Z"/><path class="cls-8" d="M243.7,200.75H28.75c-.76,0-1.53,.62-1.53,1.64v1.64c0,.82,.57,1.64,1.53,1.64H243.7c.76,0,1.53-.61,1.53-1.64v-1.64c0-1.02-.76-1.64-1.53-1.64Z"/><path class="cls-7" d="M92.26,184.15c1.14,0,1.91-1.02,1.91-2.05v-4.1c0-1.23-.95-2.05-1.91-2.05h-3.81c-1.14,0-1.91,1.02-1.91,2.05v4.1c0,1.23,.95,2.05,1.91,2.05h3.81Z"/><path d="M88.45,176.78c-.57,0-1.14,.62-1.14,1.23v4.1c0,.61,.57,1.23,1.14,1.23h3.81c.57,0,1.14-.61,1.14-1.23v-4.1c0-.61-.57-1.23-1.14-1.23h-3.81Zm0-1.64h3.81c1.53,0,2.67,1.23,2.67,2.87v4.1c0,1.64-1.14,2.87-2.67,2.87h-3.81c-1.53,0-2.67-1.23-2.67-2.87v-4.1c-.19-1.64,1.14-2.87,2.67-2.87Z"/><path class="cls-2" d="M166.64,194.81h-60.46c-.38,0-.57,.2-.57,.61v1.64c0,1.64,1.14,2.87,2.67,2.87h56.07c1.52,0,2.67-1.23,2.67-2.87v-1.64c0-.41-.19-.61-.38-.61Z"/><path d="M108.28,200.95h56.07c1.91,0,3.62-1.64,3.62-3.89v-1.64c0-.82-.57-1.43-1.34-1.43h-60.46c-.76,0-1.33,.61-1.33,1.43v1.64c-.19,2.05,1.53,3.89,3.43,3.89Zm57.98-5.33v1.43c0,1.23-.95,2.05-1.91,2.05h-56.07c-1.14,0-1.91-1.02-1.91-2.05v-1.43h59.89Z"/><path class="cls-2" d="M135.18,161.62h40.05c1.72,0,4,2.66,3.43,4.3l-7.25,26.43c-.38,1.64-2.29,3.07-4.01,3.07h-40.05c-1.72,0-4.01-2.66-3.43-4.3l7.25-26.22c.57-1.84,2.29-3.28,4.01-3.28Z"/><path d="M127.36,196.24h40.05c2.1,0,4.2-1.64,4.77-3.69l7.25-26.22c.19-1.02,0-2.25-.76-3.28s-2.1-2.25-3.43-2.25h-40.05c-2.1,0-4.2,1.64-4.77,3.69l-7.25,26.22c-.19,1.02,0,2.25,.76,3.28,.76,1.23,2.1,2.25,3.43,2.25Zm47.87-33.6c.57,0,1.52,.62,2.1,1.43,.38,.62,.57,1.23,.57,1.64l-7.25,26.22c-.38,1.43-1.72,2.46-3.05,2.46h-40.05c-.57,0-1.53-.61-2.1-1.43-.38-.61-.57-1.23-.57-1.64l7.25-26.22c.38-1.43,1.72-2.46,3.05-2.46h40.05Z"/><path class="cls-7" d="M155.2,175.55c-2.29,0-4.58,2.05-5.34,4.71-.76,2.66,.38,4.71,2.67,4.71s4.58-2.05,5.34-4.71c.76-2.46-.38-4.71-2.67-4.71Z"/><path class="cls-1" d="M152.53,186c2.67,0,5.34-2.25,6.1-5.33,.38-1.64,.19-3.28-.57-4.3s-1.72-1.64-3.05-1.64c-2.67,0-5.34,2.25-6.1,5.33-.38,1.64-.19,3.28,.57,4.3,.76,1.02,1.72,1.43,3.05,1.64Zm2.67-9.63c.76,0,1.33,.21,1.72,.82,.38,.61,.57,1.64,.19,2.87-.57,2.25-2.67,4.1-4.58,4.1-.76,0-1.34-.21-1.72-.82-.38-.62-.57-1.64-.19-2.87,.57-2.25,2.67-4.1,4.58-4.1Z"/><path class="cls-8" d="M196.4,177.4l-5.53,5.94,5.53,5.94,5.53-5.94-5.53-5.94Z"/><path class="cls-8" d="M123.54,35.64l-5.53,5.94,1.33,1.43,5.53-5.94-1.33-1.43Z"/><path class="cls-8" d="M119.15,35.64l-1.33,1.43,5.72,5.94,1.33-1.43-5.72-5.94Z"/><path class="cls-3" d="M265.02,205.52H5.46c-2.28,0-4.15,1.94-4.15,4.31s1.87,4.31,4.15,4.31H265.02c2.28,0,4.15-1.94,4.15-4.31s-1.87-4.31-4.15-4.31Z"/><path d="M5.46,215H265.02c2.7,0,4.98-2.37,4.98-5.17s-2.28-5.17-4.98-5.17H5.46c-2.7,0-4.98,2.37-4.98,5.17s2.28,5.17,4.98,5.17Zm259.57-8.62c1.87,0,3.32,1.51,3.32,3.45s-1.45,3.45-3.32,3.45H5.46c-1.87,0-3.32-1.51-3.32-3.45s1.45-3.45,3.32-3.45H265.02Z"/></svg>