<?xml version="1.0" encoding="UTF-8"?><svg id="Camada_1" xmlns="http://www.w3.org/2000/svg" viewBox="0 0 262 224"><defs><style>.cls-1,.cls-2{fill:#fff;}.cls-2,.cls-3,.cls-4{fill-rule:evenodd;}.cls-5{fill:#ff645a;}.cls-6,.cls-3{fill:blue;}.cls-7{fill:#ba9bc9;}</style></defs><path d="M133.25,115.13H39.33c-8.02,0-14.48-6.46-14.48-14.49V46.21c0-8.03,6.46-14.49,14.48-14.49h93.92c8.02,0,14.48,6.46,14.48,14.49v54.43c0,8.03-6.46,14.49-14.48,14.49ZM39.33,33.29c-7.24,0-12.91,5.87-12.91,12.92v54.43c0,7.25,5.87,12.92,12.91,12.92h93.92c7.24,0,12.91-5.87,12.91-12.92V46.21c0-7.24-5.87-12.92-12.91-12.92H39.33Z"/><path class="cls-4" d="M34.05,173.29c.98,0,1.96,.78,1.96,1.96s-.78,1.96-1.96,1.96c-.98,0-1.96-.78-1.96-1.96s.78-1.96,1.96-1.96Z"/><path class="cls-4" d="M27.59,173.29c.98,0,1.96,.78,1.96,1.96s-.78,1.96-1.96,1.96c-.98,0-1.96-.78-1.96-1.96s.98-1.96,1.96-1.96Z"/><path class="cls-4" d="M21.13,173.29c.98,0,1.96,.78,1.96,1.96s-.78,1.96-1.96,1.96c-.98,0-1.96-.78-1.96-1.96s.98-1.96,1.96-1.96Z"/><path class="cls-4" d="M21.13,173.29c.98,0,1.96,.78,1.96,1.96s-.78,1.96-1.96,1.96c-.98,0-1.96-.78-1.96-1.96s.98-1.96,1.96-1.96Z"/><path class="cls-4" d="M14.68,173.29c.98,0,1.96,.78,1.96,1.96s-.78,1.96-1.96,1.96c-.98,0-1.96-.78-1.96-1.96s.98-1.96,1.96-1.96Z"/><path class="cls-4" d="M8.22,173.29c.98,0,1.96,.78,1.96,1.96s-.78,1.96-1.96,1.96c-.98,0-1.96-.78-1.96-1.96s.98-1.96,1.96-1.96Z"/><path class="cls-4" d="M1.96,173.29c.98,0,1.96,.78,1.96,1.96s-.78,1.96-1.96,1.96c-.98,0-1.96-.78-1.96-1.96s.78-1.96,1.96-1.96Z"/><path class="cls-4" d="M34.05,173.29c.98,0,1.96,.78,1.96,1.96s-.78,1.96-1.96,1.96c-.98,0-1.96-.78-1.96-1.96s.78-1.96,1.96-1.96Z"/><path class="cls-4" d="M27.59,173.29c.98,0,1.96,.78,1.96,1.96s-.78,1.96-1.96,1.96c-.98,0-1.96-.78-1.96-1.96s.98-1.96,1.96-1.96Z"/><path class="cls-4" d="M21.13,173.29c.98,0,1.96,.78,1.96,1.96s-.78,1.96-1.96,1.96c-.98,0-1.96-.78-1.96-1.96s.98-1.96,1.96-1.96Z"/><path class="cls-4" d="M21.13,173.29c.98,0,1.96,.78,1.96,1.96s-.78,1.96-1.96,1.96c-.98,0-1.96-.78-1.96-1.96s.98-1.96,1.96-1.96Z"/><path class="cls-4" d="M14.68,173.29c.98,0,1.96,.78,1.96,1.96s-.78,1.96-1.96,1.96c-.98,0-1.96-.78-1.96-1.96s.98-1.96,1.96-1.96Z"/><path class="cls-4" d="M8.22,173.29c.98,0,1.96,.78,1.96,1.96s-.78,1.96-1.96,1.96c-.98,0-1.96-.78-1.96-1.96s.98-1.96,1.96-1.96Z"/><path class="cls-4" d="M1.96,173.29c.98,0,1.96,.78,1.96,1.96s-.78,1.96-1.96,1.96c-.98,0-1.96-.78-1.96-1.96s.78-1.96,1.96-1.96Z"/><path class="cls-4" d="M34.05,179.75c.98,0,1.96,.78,1.96,1.96,0,.98-.78,1.96-1.96,1.96-.98,0-1.96-.78-1.96-1.96s.78-1.96,1.96-1.96Z"/><path class="cls-4" d="M27.59,179.75c.98,0,1.96,.78,1.96,1.96,0,.98-.78,1.96-1.96,1.96-.98,0-1.96-.78-1.96-1.96s.98-1.96,1.96-1.96Z"/><path class="cls-4" d="M21.13,179.75c.98,0,1.96,.78,1.96,1.96,0,.98-.78,1.96-1.96,1.96-.98,0-1.96-.78-1.96-1.96s.98-1.96,1.96-1.96Z"/><path class="cls-4" d="M21.13,179.75c.98,0,1.96,.78,1.96,1.96,0,.98-.78,1.96-1.96,1.96-.98,0-1.96-.78-1.96-1.96s.98-1.96,1.96-1.96Z"/><path class="cls-4" d="M14.68,179.75c.98,0,1.96,.78,1.96,1.96,0,.98-.78,1.96-1.96,1.96-.98,0-1.96-.78-1.96-1.96,.2-1.17,.98-1.96,1.96-1.96Z"/><path class="cls-4" d="M8.22,179.75c.98,0,1.96,.78,1.96,1.96,0,.98-.78,1.96-1.96,1.96-.98,0-1.96-.78-1.96-1.96,.2-1.17,.98-1.96,1.96-1.96Z"/><path class="cls-4" d="M1.96,179.75c.98,0,1.96,.78,1.96,1.96,0,.98-.78,1.96-1.96,1.96-.98,0-1.96-.78-1.96-1.96s.78-1.96,1.96-1.96Z"/><path class="cls-2" d="M57.72,20.17h93.92c7.63,0,13.7,6.07,13.7,13.71v54.43c0,7.64-6.07,13.71-13.7,13.71H57.72c-7.63,0-13.7-6.07-13.7-13.71V33.87c0-7.64,6.07-13.71,13.7-13.71Z"/><path d="M151.64,102.8H57.72c-8.02,0-14.48-6.46-14.48-14.49V33.87c0-8.03,6.46-14.49,14.48-14.49h93.92c8.02,0,14.48,6.46,14.48,14.49v54.43c0,8.03-6.65,14.49-14.48,14.49ZM57.72,20.95c-7.24,0-12.91,5.87-12.91,12.92v54.43c0,7.24,5.87,12.92,12.91,12.92h93.92c7.24,0,12.91-5.87,12.91-12.92V33.87c0-7.24-5.87-12.92-12.91-12.92H57.72Z"/><path class="cls-2" d="M117.6,.78h102.92c3.72,0,6.65,2.94,6.65,6.66V203.83c0,3.72-2.94,6.66-6.65,6.66H117.6c-3.72,0-6.65-2.94-6.65-6.66V7.44c0-3.72,2.93-6.66,6.65-6.66Z"/><path d="M220.52,211.27H117.6c-4.11,0-7.44-3.33-7.44-7.44V7.44C110.16,3.33,113.49,0,117.6,0h102.92C224.63,0,227.95,3.33,227.95,7.44V203.83c0,4.11-3.33,7.44-7.44,7.44ZM117.6,1.57c-3.13,0-5.68,2.55-5.68,5.68V203.64c0,3.13,2.54,5.68,5.68,5.68h102.92c3.13,0,5.67-2.55,5.67-5.68V7.44c0-3.13-2.54-5.68-5.67-5.68H117.6v-.2Z"/><path class="cls-2" d="M123.47,7.05h91.38c3.72,0,6.65,2.94,6.65,6.66V189.93c0,3.72-2.93,6.66-6.65,6.66H123.47c-3.72,0-6.65-2.94-6.65-6.66V13.51c0-3.52,2.93-6.46,6.65-6.46Z"/><path d="M214.84,197.37H123.47c-4.11,0-7.44-3.33-7.44-7.44V13.51c0-4.11,3.33-7.44,7.44-7.44h91.38c4.11,0,7.44,3.33,7.44,7.44V189.93c-.2,4.11-3.52,7.44-7.44,7.44ZM123.47,7.83c-3.13,0-5.68,2.55-5.68,5.68V189.93c0,3.13,2.54,5.68,5.68,5.68h91.38c3.13,0,5.67-2.55,5.67-5.68V13.51c0-3.13-2.54-5.68-5.67-5.68H123.47Z"/><path class="cls-3" d="M128.55,12.14h79.64c3.72,0,6.65,2.94,6.65,6.66V50.91c0,3.72-2.93,6.66-6.65,6.66h-79.64c-3.72,0-6.65-2.94-6.65-6.66V18.8c0-3.72,2.93-6.66,6.65-6.66Z"/><path d="M206.82,91.05h-12.72c-4.11,0-7.43-3.33-7.43-7.44v-12.73c0-4.11,3.33-7.44,7.43-7.44h12.72c4.11,0,7.43,3.33,7.43,7.44v12.73c-.2,4.11-3.52,7.44-7.43,7.44Zm-12.92-26.04c-3.13,0-5.87,2.55-5.87,5.87v12.73c0,3.13,2.54,5.87,5.87,5.87h12.72c3.13,0,5.87-2.55,5.87-5.87v-12.73c0-3.13-2.54-5.87-5.87-5.87h-12.72Z"/><path d="M174.34,91.05h-12.72c-4.11,0-7.43-3.33-7.43-7.44v-12.73c0-4.11,3.33-7.44,7.43-7.44h12.72c4.11,0,7.43,3.33,7.43,7.44v12.73c-.2,4.11-3.33,7.44-7.43,7.44Zm-12.92-26.04c-3.13,0-5.87,2.55-5.87,5.87v12.73c0,3.13,2.54,5.87,5.87,5.87h12.72c3.13,0,5.87-2.55,5.87-5.87v-12.73c0-3.13-2.54-5.87-5.87-5.87h-12.72Z"/><path d="M140.29,91.05h-12.72c-4.11,0-7.44-3.33-7.44-7.44v-12.73c0-4.11,3.33-7.44,7.44-7.44h12.72c4.11,0,7.44,3.33,7.44,7.44v12.73c-.2,4.11-3.52,7.44-7.44,7.44Zm-12.91-26.04c-3.13,0-5.87,2.55-5.87,5.87v12.73c0,3.13,2.54,5.87,5.87,5.87h12.72c3.13,0,5.87-2.55,5.87-5.87v-12.73c0-3.13-2.54-5.87-5.87-5.87h-12.72Z"/><path class="cls-3" d="M193.91,132.36h12.72c3.72,0,6.65,2.94,6.65,6.66v12.73c0,3.72-2.94,6.66-6.65,6.66h-12.72c-3.72,0-6.65-2.94-6.65-6.66v-12.73c0-3.72,2.93-6.66,6.65-6.66Z"/><path class="cls-3" d="M161.43,132.36h12.72c3.72,0,6.65,2.94,6.65,6.66v12.73c0,3.72-2.93,6.66-6.65,6.66h-12.72c-3.72,0-6.65-2.94-6.65-6.66v-12.73c0-3.72,2.93-6.66,6.65-6.66Z"/><path class="cls-3" d="M127.38,132.36h12.72c3.72,0,6.65,2.94,6.65,6.66v12.73c0,3.72-2.94,6.66-6.65,6.66h-12.72c-3.72,0-6.65-2.94-6.65-6.66v-12.73c0-3.72,2.94-6.66,6.65-6.66Z"/><path class="cls-3" d="M193.91,164.08h12.72c3.72,0,6.65,2.94,6.65,6.66v12.73c0,3.72-2.94,6.66-6.65,6.66h-12.72c-3.72,0-6.65-2.94-6.65-6.66v-12.73c0-3.72,2.93-6.66,6.65-6.66Z"/><path class="cls-3" d="M161.43,164.08h12.72c3.72,0,6.65,2.94,6.65,6.66v12.73c0,3.72-2.93,6.66-6.65,6.66h-12.72c-3.72,0-6.65-2.94-6.65-6.66v-12.73c0-3.72,2.93-6.66,6.65-6.66Z"/><path class="cls-3" d="M127.38,164.08h12.72c3.72,0,6.65,2.94,6.65,6.66v12.73c0,3.72-2.94,6.66-6.65,6.66h-12.72c-3.72,0-6.65-2.94-6.65-6.66v-12.73c0-3.72,2.94-6.66,6.65-6.66Z"/><path d="M210.34,123.36H123.66c-2.94,0-5.09-2.35-5.09-5.09,0-2.94,2.35-5.09,5.09-5.09h86.68c2.94,0,5.09,2.35,5.09,5.09,.2,2.94-2.15,5.09-5.09,5.09Zm-86.68-8.81c-1.96,0-3.72,1.57-3.72,3.72,0,1.96,1.57,3.72,3.72,3.72h86.68c1.96,0,3.72-1.57,3.72-3.72,0-1.96-1.57-3.72-3.72-3.72H123.66Z"/><path class="cls-4" d="M165.54,113.96h45c2.35,0,4.3,1.96,4.3,4.31s-1.96,4.31-4.3,4.31h-45c-2.35,0-4.3-1.96-4.3-4.31-.2-2.35,1.76-4.31,4.3-4.31Z"/><path class="cls-3" d="M161.23,113.76c2.54,0,4.7,2.15,4.7,4.7s-2.15,4.7-4.7,4.7-4.7-2.15-4.7-4.7,2.15-4.7,4.7-4.7Z"/><path d="M210.34,110.24H123.66c-2.94,0-5.09-2.35-5.09-5.09s2.35-5.09,5.09-5.09h86.68c2.94,0,5.09,2.35,5.09,5.09s-2.15,5.09-5.09,5.09Zm-86.68-8.81c-1.96,0-3.72,1.57-3.72,3.72,0,1.96,1.57,3.72,3.72,3.72h86.68c1.96,0,3.72-1.57,3.72-3.72,0-1.96-1.57-3.72-3.72-3.72H123.66Z"/><path class="cls-4" d="M184.91,100.64h25.63c2.35,0,4.3,1.96,4.3,4.31s-1.96,4.31-4.3,4.31h-25.63c-2.35,0-4.3-1.96-4.3-4.31-.2-2.35,1.76-4.31,4.3-4.31Z"/><path class="cls-3" d="M182.56,100.45c2.54,0,4.7,2.15,4.7,4.7s-2.15,4.7-4.7,4.7-4.7-2.15-4.7-4.7c0-2.74,2.15-4.7,4.7-4.7Z"/><path class="cls-2" d="M157.32,95.36c1.96-1.57,5.09-5.87,5.68-7.24,.78-1.37,1.96-3.52,1.57-5.09-.59-1.57-5.09,3.13-5.67,3.52-.39,.39-2.35-1.17-2.35-1.17,0,0,2.74-9.99,3.33-11.55,.59-1.57-.2-2.94-.98-2.94-.78-.2-6.07,10.18-6.07,10.18,0,0,.78-9.2,.98-10.18,0-.98-3.72-.59-6.26,1.17-2.54,1.76-3.72,7.44-3.72,11.36s-.19,10.57-.19,10.57l-10.76,24.67s-7.24-12.53-11.94-19.58c-4.7-7.05-14.67-7.05-14.67-7.05l1.96-5.87s1.76-.2,4.3-.78c2.54-.78,5.87-6.85,5.87-6.85,0,0,1.96-1.76,2.15-2.74,.19-.98-1.37-1.17-1.37-1.17,0,0,.59-.59,0-4.11-.59-3.52-2.35-7.83-2.35-7.83,0,0,.59-4.5,.2-5.29-.39-.78-2.35-2.55-5.28-5.29-2.93-2.55-13.31,.59-17.61,1.96-4.11,1.57-4.11,9.59-4.11,9.59,0,0-3.13,3.33-3.52,7.83-.59,4.5,2.74,8.81,6.07,11.16,3.33,2.35,5.48,2.35,5.48,2.35l1.37,.78-4.3,8.22s-10.76,7.25-16.04,11.36c-5.28,4.11-5.28,13.9-5.28,13.9,0,0-1.96,88.5-2.15,99.08v.98l54.79-1.37-15.85-51.1v-9.4s1.76,.78,2.54,.98c.78,.19,4.11-.39,6.85-1.57,2.74-1.18,23.48-12.92,23.48-12.92,0,0,0,.2,3.13-.78,3.13-.98,4.7-5.68,4.7-5.68l1.76,.19s0,.98,1.17,1.57c1.17,.59,2.54,0,4.7-3.72,2.15-3.72,0-7.44,0-7.44,0,0,1.96-3.33,2.35-4.11,.39-.78-.2-.78-1.57-1.18-1.17-.39-4.11,1.57-4.11,1.57,0,0-.2,.19-.98-.39-.78-.59-2.74-1.37-2.74-1.37,0,0,1.57-2.94,2.15-3.92,.59-.98,4.31-2.94,4.31-3.52,.19-.59-2.15-1.37-4.5-.98-2.35,.39-7.24,8.61-7.24,8.61l6.85-24.28c.39-.39,1.96-1.57,3.91-3.13Zm-39.72,45.82l-3.91-6.66,2.15-11.94,13.11,14.69-11.35,3.92Z"/><path class="cls-4" d="M98.42,76.56s2.54,3.33,3.13,2.15c.59-1.17,1.56-2.35,.78-4.11-.78-1.76-4.7-8.03-2.15-9.79,2.54-1.76,5.48-2.15,8.22-2.74,2.54-.59,4.11,.2,4.7-1.57,.59-1.76-.19-3.33,.78-2.15,.78,.98,2.54,3.52,2.54,3.52,0,0,2.35-2.35,.59-4.5-1.76-2.15-2.35-2.94-3.33-3.92-.98-.98-2.35-3.92-5.67-3.13-3.52,.78-14.87,2.55-16.24,6.07-1.17,3.52-1.17,6.85-1.17,6.85,0,0-5.48,5.29-3.52,9.79,1.96,4.5,5.67,9.79,7.83,10.77,2.15,.98,4.7,1.57,4.7,1.57l-.39-2.15-.98-1.17s-3.13-.39-3.91-2.35c-.78-2.15-.39-3.13,.78-3.13,.78-.2,3.33,0,3.33,0Z"/><path class="cls-4" d="M95.29,164.67l14.68-3.13,.39,4.7,17.61,52.67-55.96-3.13,23.28-51.1Z"/><path class="cls-3" d="M113.88,134.52l3.91,6.27,3.33-.39s-3.72,2.54-1.76,8.03c1.96,5.29,4.5,6.66,4.5,6.66,0,0-5.09,3.52-7.83,3.13-2.74-.39-4.7-2.15-4.7-2.15l.2,4.31-36,7.83s-3.91-42.88-1.57-53.26c2.54-10.38,5.28-9.4,7.24-11.36s5.87-4.7,5.87-4.7c0,0,5.48,3.53,10.37,4.31,5.09,.78,11.15-1.76,12.13-4.9,.98-3.13,1.57-5.09,1.57-5.09,0,0,6.26-.78,10.17,5.48,3.72,6.27,12.13,20.56,12.13,20.56l2.93-5.68s2.74,2.74,6.26,4.5,5.48,1.76,5.48,1.76l-.59,2.55-9,12.73-8.61,2.35-13.89-16.05-2.15,13.12Z"/><path class="cls-4" d="M118.77,65.4c.59-.59,1.76-.59,1.76,.39,0,.78-.78,.78-1.17,1.37,.59,1.96,.78,4.11,.78,6.66,.59,.39,1.57,.39,1.57,1.17,.19,1.57-1.76,.59-2.54,.2-1.76-.78-3.33-2.15-3.52-4.31-.2-2.15,.59-3.52,1.76-4.5-.98-2.55-1.96-5.09-3.72-7.05-.39,1.37-.78,2.35-1.96,2.94-1.76,.78-4.31,.98-6.65,1.57-.98,.2-2.15,.59-3.13,.98-.98,.39-1.96,1.17-2.15,1.96,0,.78,.39,1.76,.59,2.35,.2,.78,.59,1.57,.78,2.15,.59,1.57,1.37,2.94,1.76,4.31,.19,1.37-.78,3.72-1.96,3.92-.59,0-.78-.2-1.17-.39-.39,0-1.37,.2-1.96,.39-.59,0-1.57,.39-1.57-.59,0-1.17,1.76-.59,2.54-.98-.78-.2-1.96-.59-2.93-.39-.59,.2-.98,.98-.98,1.57s1.17,1.76,1.76,1.96c.59,.2,1.37-.2,1.96,.2,.39,.2,.78,.98,.98,1.37,.39,.59,.78,.98,.78,1.57,0,.78-.78,1.96-.98,2.55-.78,1.76-1.37,3.13-2.35,5.09-.39,.78-.59,1.76-1.17,2.55-.39,.39-1.17,.78-1.76,1.17-1.76,1.17-3.72,2.15-5.48,3.33,2.93,1.57,6.46,3.33,10.57,3.52,2.15,0,4.11-.59,5.67-1.37,2.54-1.37,4.31-3.52,4.31-7.44-.78-.2-1.76-.2-2.54-.39-.59,.78-.39,2.74-1.76,2.74-.39,0-.59-.39-.78-.59-.2-.59,.39-1.57,.78-2.35,.78-2.15,1.96-4.9,2.74-6.66-.78-.2-1.76-.39-2.93-.59-.59-.2-2.15-.39-2.15-1.17,0-1.57,2.15-.39,2.93-.2,2.35,.59,5.09,1.17,7.63,0,2.15-.98,3.52-2.55,4.31-4.7,.2-.59,.78-2.55,1.76-1.57,.59,.59-.59,2.94-.78,3.52-.78,1.37-1.37,1.96-2.15,2.55-1.56,1.37-3.72,2.55-6.85,2.35-.78,1.57-1.37,3.33-1.96,5.09,3.91,.78,7.63,.98,10.18,2.55,2.74,1.57,4.7,3.92,6.26,6.66,3.13,5.29,6.07,11.16,9,16.64,3.33-6.07,6.26-13.32,9-20.17,.39-.98,.98-1.96,1.17-2.94,.2-.98,0-2.35,0-3.33,0-3.13-.2-6.85,.2-10.18,.2-1.96,.98-3.92,1.57-5.48,.59-1.76,1.37-3.33,2.74-4.31,.98-.59,3.13-1.17,4.5-1.37,.98,0,2.15,.2,2.35,.78,.2,.39,0,1.17-.2,1.76-.2,1.76-.39,3.72-.59,5.48,1.17-1.57,2.35-3.72,3.72-5.68,.39-.59,.98-1.37,1.57-1.57,1.17-.2,2.15,.98,2.15,1.96s-.59,2.15-.98,3.13c-.98,2.35-1.76,4.7-2.35,7.64-.2,.59-.39,1.37-.2,1.76,.2,.39,.59,.59,.98,.78,1.37-.78,2.93-2.74,4.5-3.72,.78-.39,2.35-.78,2.74,.2,.39,.78-.2,2.15-.39,2.94-.78,2.55-2.54,4.7-3.91,6.66-2.15,2.94-4.5,5.09-7.24,6.85-1.76,6.66-3.52,13.12-5.28,19.58,.98-.98,1.76-2.55,2.93-3.72,1.57-1.37,4.7-2.54,6.85-1.17,.39,.19,.98,.98,.78,1.57,0,.78-1.37,1.57-2.15,1.96-.78,.59-1.76,1.18-2.35,1.76-.98,.98-1.17,2.35-1.96,3.53,1.17,.2,1.96,.59,2.93,1.18,.98-.59,1.76-1.76,3.33-1.57,1.17,0,2.93,.78,2.93,2.35-.2,.78-.98,1.18-1.57,1.76-.59,.78-.59,1.76-1.17,2.35,.39,1.57,.98,3.13,.98,5.09,0,2.74-1.96,4.5-3.72,5.87-.59,.39-1.37,.98-1.96,1.18-1.37,0-1.96-.98-2.35-1.96-1.57,2.74-2.74,5.68-6.26,6.26-.59,0-1.17,0-1.96,.2-.59,.2-1.37,.59-1.96,.98-4.7,2.55-9.2,5.09-13.7,7.44-2.54,1.37-5.28,2.94-8.02,4.11-2.54,1.17-5.67,3.52-9,1.17-.2,2.15,0,4.31-.2,6.46,0,.78-.19,1.37,0,2.15,.2,.98,.59,1.96,.98,2.94,2.35,7.05,4.7,13.71,7.04,20.75-.59,0-1.17,.59-1.57,.59-2.35-7.05-4.7-13.9-7.04-20.95-.39-.98-.78-1.96-.98-2.94-.2-1.57,.2-3.13,.2-4.5-3.13,.59-6.65,1.37-9.98,2.15-.78,.2-2.94,.98-2.94-.2s1.76-1.18,2.74-1.37c3.33-.78,7.04-1.57,10.18-2.35v-3.53c-3.72-2.54-6.85-5.48-9.78-9.01-.39-.59-.98-1.18-.98-1.57s.39-.78,.78-.78c.59,0,1.17,.78,1.76,1.57,2.54,3.13,4.89,5.29,8.22,7.83,1.37,.98,2.93,2.35,4.89,2.35,1.37,0,2.35-.59,3.33-1.18,.98-.59,1.76-.98,2.94-1.57-.2-.39-.59-.78-.98-1.17-1.17-1.18-1.96-2.55-2.35-4.31-.59-2.54-.59-5.48,.78-7.24-.59,.2-1.17,.39-1.96,.59-.78,.2-2.35,.98-2.54-.2,0-.98,1.37-.98,2.15-1.37-3.91-6.85-8.02-13.9-12.33-20.75-2.15-3.33-4.3-6.85-7.24-9.4-2.15-1.96-4.7-3.52-7.83-4.7-.78-.39-2.54-.59-2.54-1.57,0-1.37,1.76-.39,2.74-.2,6.07,2.15,10.37,5.68,13.5,10.57,3.72,5.68,7.04,11.55,10.57,17.23,.78-6.07,1.76-12.73,2.74-18.99,.19-.98,.19-2.35,1.17-1.96,.78,.2,.39,1.57,.39,2.35-.39,2.54-.78,5.48-1.17,7.83,4.5,5.09,9,9.99,13.7,15.08,1.96-.59,3.72-1.18,5.67-1.96,.59-.2,1.37-.39,1.96-.59,.39-.2,.78-.98,1.17-1.57,1.76-2.55,3.52-5.09,5.28-7.64,1.17-1.57,2.35-2.74,2.54-4.7-4.5-.98-8.02-2.74-10.57-5.48-.78,1.57-1.57,3.13-2.35,4.5,.2,.39,.59,1.18,.98,1.76,.39,.59,1.17,2.55-.2,2.35-.59,0-.98-1.18-1.37-1.96-2.74-4.89-5.48-10.18-8.22-14.88-1.56-2.94-3.13-5.68-5.09-8.03-2.15-2.35-4.89-3.92-8.81-4.31,0,3.33-1.17,5.09-2.74,6.85-1.57,1.57-3.72,2.74-6.26,3.33-6.07,.98-10.96-1.96-14.87-3.92-3.33,1.96-6.26,3.92-8.61,7.05-1.57,2.15-2.54,5.09-3.52,8.22-.2,1.18-.39,2.74-1.17,2.74s-.98-.78-.59-1.96c.59-2.35,1.17-4.7,2.15-6.66,2.35-5.48,7.24-8.42,11.94-11.55,1.76-1.17,3.52-2.15,5.48-3.33,.59-.39,1.37-.59,1.76-1.17,.39-.39,.59-1.37,.98-1.96,.98-1.96,1.96-4.11,2.74-5.87-2.94-.59-4.89-1.37-6.46-3.13-1.57-1.76-2.93-3.52-4.11-5.48-.59-.98-1.37-2.15-1.57-3.33-.39-1.37-.2-2.94,.2-4.31,.59-1.76,1.37-3.52,2.35-4.9,.2-.39,.78-.98,.98-1.37,.2-.59,0-1.57,.2-2.15,.2-1.96,.59-3.92,1.57-5.29,1.57-2.15,4.5-2.74,7.24-3.52,2.94-.78,5.87-1.76,9.2-1.96,2.74-.2,4.3,.78,5.67,2.35,.59,.78,1.17,1.57,1.96,2.15,1.17,1.17,2.74,1.76,2.93,3.92,.2,1.57-.39,2.74-.59,4.11,.2,0,.78,.78,.98,1.76Zm-3.72-8.81c-.59-.39-.98-.98-1.57-1.37-1.76-1.96-2.54-3.72-5.87-3.52-3.13,.2-5.48,.98-8.22,1.76-2.35,.59-5.28,1.17-6.85,3.13-.78,1.17-.98,3.13-1.17,4.9,0,.59,0,1.37-.2,1.96-.2,.59-.78,1.17-1.17,1.76-.39,.59-.78,1.17-1.17,1.76-.59,1.17-1.37,2.74-1.57,4.31-.2,2.15,.78,3.13,1.57,4.31,.59,.78,.98,1.57,1.57,2.35,.98,1.37,2.15,3.33,3.72,4.31,1.17,.78,2.35,.98,3.91,1.37,0-.2-.2-.59-.39-.78-.59,0-1.37,0-1.76-.2-1.37-.59-2.74-1.96-2.74-3.33,0-1.96,1.57-3.72,3.91-3.33,0-.59,.2-.98,.78-.98,.78,0,.98,.78,1.57,1.37,.59,.59,.98,1.17,1.57,1.37,1.17-1.17,.39-2.55-.2-3.72-.59-1.76-1.17-2.74-1.76-4.5-.39-1.17-.78-2.55-.2-3.72,.98-1.96,3.33-2.55,5.67-3.33,1.17-.39,2.35-.59,3.52-.78,.98-.2,2.93-.39,3.52-.98,.78-.59,.59-2.94,1.96-3.33,1.76-.39,2.35,2.35,3.33,2.74,.2-1.96-.78-2.55-1.76-3.52Zm2.93,15.86c.2,.2,.39,.39,.59,.39-.2-1.57-.2-3.33-.59-4.7-1.17,1.17-.78,3.33,0,4.31Zm32.68-.78c-.2,2.94-.39,6.07-.59,9.01,0,.98,0,2.35-.98,2.35s-.78-1.17-.78-2.15c.19-2.94,.39-5.87,.59-8.62-.78,.2-1.17,.78-1.57,1.37-.19,2.55-.59,5.68-.59,8.81,0,.98,.2,2.35-.78,2.35-1.57,0-.59-4.11-.78-5.09-.59,3.33-.59,7.24-.59,10.97,0,1.37,.2,2.74,0,3.92,0,.78-.59,1.76-.98,2.55-2.15,5.29-4.5,10.97-6.65,16.06,2.35,2.94,5.67,4.89,10.18,5.68,1.56-6.07,3.33-12.34,4.89-18.4,.2-.78,.39-1.96,.78-2.55,.2-.39,1.17-.98,1.76-1.37,1.96-1.37,3.52-2.94,4.89-4.7,1.96-2.55,3.91-4.7,4.7-8.22-1.57,.78-2.54,1.96-3.91,3.13-.39,.39-.98,.98-1.37,.98-.98,0-2.54-.98-2.74-1.76-.39-1.17,.2-2.74,.59-3.92,.2-1.17,.59-2.15,.78-3.33,.59-1.57,1.17-3.13,1.57-4.5,.2-.39,.59-.98,.2-1.57-.39,.2-.59,.78-.98,1.17-1.37,2.15-2.74,4.31-4.11,6.66-.39,.78-.98,2.55-1.96,2.35-.98,0-.78-1.57-.59-2.35,.2-.98,.2-1.96,.39-2.94,.2-1.96,.59-4.11,.59-5.87-.59-.59-1.37-.2-1.96,0Zm8.22,59.13c-1.17-.78-1.57-1.96-2.93-2.74-.78-.39-1.96-.59-3.33-.78-.98-.2-2.54-.2-2.54-1.18s1.17-.78,1.96-.59c2.15,.2,4.5,.78,5.68,1.57-.98-1.76-2.54-3.72-4.89-3.92-.98,0-2.35,.39-2.93,0-.98-.59,.2-1.96,1.17-1.57,1.17-1.37,1.57-3.13,2.74-4.5,.78-.98,2.35-1.76,3.33-2.55,.2,0,.39-.19,.39-.39-.59-.2-.98-.39-1.57-.2-2.54,.2-3.91,2.15-5.09,3.92-3.72,4.89-7.24,9.99-10.57,15.08-.59,.78-1.17,2.15-1.76,2.54-.59,.39-1.37,.39-2.15,.78-5.09,1.57-10.17,3.33-15.26,4.9-.78,1.18-1.96,2.35-2.15,4.31-.39,3.92,1.57,7.05,3.72,8.62,6.07-3.13,12.52-6.66,18.59-9.99,.59-.39,1.96-1.18,2.74-1.37h1.17c3.33-.2,4.5-2.94,5.67-5.48-.98,.2-1.37-.2-1.57-.59-.2-1.17,1.57-1.18,2.35-1.18,.98-.2,2.54-.39,2.74,.39,.2,.78-.98,2.15,0,2.35,.59,.2,1.37-.78,1.76-1.18,.59-.39,1.17-.78,1.37-1.57-.59-.98-.78-1.76-1.76-2.35-.78-.39-1.76-.59-2.54-.78-.78-.2-2.35-.39-2.35-1.18-.2-1.57,2.54-.59,3.33-.39,.78,.2,1.96,.59,2.54,.98,.59,.39,1.17,1.18,1.57,1.76l.19,.2c.78-.98,.59-1.96,.39-2.94Zm-1.37-6.85c.39,.59,.98,1.18,1.37,1.76,.39-.98,.98-1.76,1.76-2.54-1.17-.59-2.54,.2-3.13,.78Zm-41.29,0c-.2,1.57-.39,3.13-.78,4.9-.19,1.96-.39,4.11-.98,5.68,1.17,1.96,2.35,4.11,3.72,6.07,3.33-.98,6.65-2.15,10.17-3.33-.78-1.18-1.96-2.35-2.94-3.33-3.13-3.52-6.06-6.85-9.2-9.99q0-.2,0,0Z"/><path class="cls-4" d="M109.97,68.53c.78,0,2.74-.39,2.74,.78s-1.76,.78-2.54,.78c-1.57,.2-2.15,.78-2.74,1.96-.2,.39-.39,1.57-1.37,1.57-1.57,0-.39-1.96,0-2.74,.98-1.37,1.76-2.15,3.91-2.35Z"/><path class="cls-4" d="M111.14,78.91c.78-.2,1.17,.59,2.15,.98,1.17,.39,2.74,0,2.74,1.17,0,1.37-2.74,.59-3.52,.2-.78-.39-1.96-.98-1.96-1.57s.39-.78,.59-.78Z"/><path class="cls-4" d="M130.32,222.82c-.59,0-1.17-.2-1.76-.2-1.37-4.11-2.74-8.22-4.31-12.33,.39-.2,1.17-.2,1.57-.59,1.37,4.31,2.93,8.81,4.5,13.12Z"/><path class="cls-4" d="M110.94,72.06c.59-.2,1.37,.2,1.57,.98l.39,1.57c.19,.59-.2,1.37-.98,1.57-.59,.2-1.37-.2-1.56-.98l-.39-1.57c-.2-.59,.19-1.37,.98-1.57Z"/><path class="cls-4" d="M192.15,174.46h-44.02c-1.57,0-3.13,1.37-3.52,2.94l-7.43,28.78c-.2,.78,0,1.57,.19,2.15,.59,1.37,2.54,2.54,3.91,2.54h43.24c1.57,0,3.13-1.37,3.52-2.94l7.44-28.78c.39-1.76-1.76-4.7-3.33-4.7Z"/><path d="M184.51,211.66h-43.05c-1.37,0-3.72-1.37-4.5-2.94-.39-.59-.59-1.57-.39-2.54l7.43-28.78c.59-1.96,2.35-3.53,4.31-3.53h43.83c1.37,0,2.54,1.37,3.13,1.76,.98,1.37,1.37,2.74,1.17,3.72l-7.43,28.78c-.59,1.96-2.54,3.52-4.5,3.52Zm-36.39-36.42c-1.17,0-2.35,.98-2.74,2.35l-7.44,28.78c-.19,.59,0,.98,.2,1.37,.59,1.18,2.35,2.15,3.13,2.15h43.24c1.17,0,2.35-.98,2.74-2.35l7.43-28.78c.2-.59-.2-1.57-.78-2.35-.59-.78-1.37-1.18-1.57-1.18h-44.22Z"/><path class="cls-2" d="M187.45,177.4h-37.37c-1.57,0-3.13,1.37-3.52,2.94l-5.68,21.93c-.39,1.57,.39,2.94,1.96,2.94h37.37c1.57,0,3.13-1.37,3.52-2.94l5.67-21.93c.59-1.76-.39-2.94-1.96-2.94Z"/><path d="M180.41,205.99h-37.37c-.98,0-1.76-.39-2.35-.98-.59-.78-.78-1.76-.59-2.94l5.67-21.93c.59-1.96,2.35-3.52,4.31-3.52h37.37c.98,0,1.76,.39,2.35,.98,.59,.78,.78,1.76,.59,2.94l-5.67,21.93c-.59,1.96-2.35,3.52-4.3,3.52Zm-30.33-27.8c-1.17,0-2.35,.98-2.74,2.35l-5.67,21.93c-.2,.59,0,1.17,.2,1.57,.19,.2,.59,.39,.98,.39h37.37c1.17,0,2.35-.98,2.74-2.35l5.87-21.93c.2-.59,0-1.18-.2-1.57-.19-.2-.59-.39-.98-.39h-37.57Z"/><path class="cls-4" d="M117.99,208.14h66.72c.59,0,1.17,.59,1.17,1.18v3.13c0,1.57-1.17,2.74-2.74,2.74h-63.4c-1.57,0-2.74-1.17-2.74-2.74v-3.13c0-.59,.39-1.18,.98-1.18Z"/><path d="M183.15,216.17h-63.4c-1.96,0-3.52-1.57-3.52-3.52v-3.13c0-.98,.78-1.96,1.96-1.96h66.72c.98,0,1.96,.78,1.96,1.96v3.13c0,1.76-1.76,3.52-3.72,3.52Zm-65.16-7.05c-.2,0-.2,.2-.2,.2v3.13c0,.98,.78,1.96,1.96,1.96h63.59c.98,0,1.96-.78,1.96-1.96v-3.13c0-.2-.2-.2-.2-.2H117.99Z"/><path class="cls-3" d="M176.69,180.73l9.2-.2c.98,0,1.37,.98,1.17,2.15l-3.33,12.92c-.39,1.18-1.37,2.15-2.15,2.15l-9.2,.2c-.98,0-1.37-.98-1.17-2.15l3.33-13.12c.2-.98,1.17-1.96,2.15-1.96Z"/><path class="cls-6" d="M146.36,197.76c-.39,0-.59-.39-.78-.59,0-.39,.39-.78,.59-.78l21.33-.2c.39,0,.78,.39,.78,.59,0,.39-.39,.78-.59,.78l-21.33,.19Z"/><path class="cls-5" d="M147.73,192.67c-.39,0-.59-.39-.78-.59,0-.39,.39-.78,.59-.78h6.85c.39,0,.78,.39,.78,.59,0,.39-.39,.78-.59,.78h-6.85Z"/><path class="cls-6" d="M162.21,192.48c-.39,0-.59-.39-.78-.59,0-.39,.39-.78,.59-.78h6.85c.39,0,.78,.39,.78,.59,0,.39-.39,.78-.59,.78h-6.85Z"/><path class="cls-6" d="M156.73,192.48c-.39,0-.59-.39-.78-.59,0-.39,.39-.78,.59-.78h2.93c.39,0,.78,.39,.78,.59,0,.39-.39,.78-.59,.78h-2.93Z"/><path class="cls-6" d="M149.1,187.58c-.39,0-.59-.39-.78-.59,0-.39,.39-.78,.59-.78l21.52-.2c.39,0,.78,.39,.78,.59,0,.39-.39,.78-.59,.78l-21.52,.2Z"/><path class="cls-5" d="M150.47,182.29c-.39,0-.59-.39-.78-.59,0-.39,.39-.78,.59-.78h4.5c.39,0,.78,.39,.78,.59,0,.39-.39,.78-.59,.78h-4.5Z"/><path class="cls-6" d="M159.47,182.29c-.39,0-.59-.39-.78-.59,0-.39,.39-.78,.59-.78h12.33c.39,0,.78,.39,.78,.59,0,.39-.39,.78-.59,.78h-12.33Z"/><path class="cls-6" d="M145.58,202.07c-.39,0-.59-.39-.78-.59,0-.39,.39-.78,.59-.78l32.09-.2c.39,0,.78,.39,.78,.59,0,.39-.39,.78-.59,.78l-32.09,.2Z"/><path class="cls-2" d="M157.12,181.9c.39-.98-1.76-1.17-3.52-1.37-1.96-.2-4.7,.39-8.22,3.13-3.52,2.55-12.72,11.36-12.72,11.36l-7.43,1.96,1.57-.39s2.74-1.37,4.31-3.52c1.56-2.15,2.35-7.64,2.35-7.64,0,0,4.11-3.92,4.89-4.7,.59-.98-1.37-2.54-1.37-2.54,0,0,4.11-.59,4.89-.78,.78-.19,.39-1.17,.39-2.54-.2-1.37-3.13-1.37-3.13-1.37,0,0-3.13-1.96-7.43-1.96s-4.7,4.5-6.65,8.22-4.5,10.77-4.5,10.77l-10.57,2.35c-2.54-6.66-6.26-16.06-8.81-21.93-5.09-11.75-11.15-9.4-11.15-9.4,0,0-1.37-1.17-2.35-2.74-1.17-1.57,3.13-10.18,3.13-10.18,0,0,1.57,.39,4.89-.2,3.33-.59,5.28-7.24,5.28-7.24,0,0,1.57-2.74,1.37-4.11-.2-.98-.39-.39-2.35-1.18-1.76-.98-1.57-5.09-1.57-5.09,0,0,2.35-2.54,2.54-4.7,.2-1.96-8.02-5.68-12.91-7.05-4.89-1.37-10.57,1.37-10.57,1.37,0,0-4.5-2.94-7.04-5.09-2.54-2.15-6.26-.39-10.57,1.96-4.3,2.35-2.15,10.77-.59,12.73,1.57,1.96,9,1.76,9,1.76,0,0-.2,2.15-.2,5.68s1.57,7.44,1.57,7.44c0,0-2.94,5.09-4.89,7.44-1.76,2.35-6.85,2.94-9.59,5.48-2.74,2.55-.2,10.18-.2,10.18,0,0-5.09,1.76-6.07,5.29-.98,3.52-1.37,6.85,2.54,9.99,3.91,3.13,9.2,2.54,9.2,2.54,0,0-.39,2.74-2.94,7.25-2.54,4.5-1.17,8.22-1.17,8.22l-11.15,16.84,43.63,.2-4.5-12.92,3.91-4.89s1.37,.39,3.13,.39c1.96,0,2.74-.59,2.74-.59,0,0,8.22,13.71,11.54,15.08,3.33,1.37,8.41,.39,12.72-1.76,4.31-2.15,17.42-9.99,17.42-9.99,0,0,.59,.59,3.91,.2,3.13-.39,9.2-6.85,9.2-6.85,0,0,3.52,3.33,5.09,3.52,1.57,0,.78-2.55,.78-2.55,0,0,1.76-1.76,1.96-2.74,.2-.98-.78-4.5-2.74-7.24-1.96-2.55-6.46-1.18-6.46-1.18l2.54-2.54c.2-.2,6.46-1.57,6.85-2.35Z"/><path class="cls-4" d="M80.81,138.82s4.11-2.15,6.26-4.31c2.15-2.15,6.26-8.61,6.26-8.61,0,0,1.57,.78,2.54,2.15,.98,1.37,2.54,3.33,2.54,3.33,0,0,3.72-4.5,2.15-6.46-1.57-1.96-6.26-6.85-13.5-7.44-7.24-.59-10.96,1.76-10.96,1.76,0,0-3.33-5.09-9.78-3.92-6.26,1.17-8.61,.98-8.81,6.07-.2,4.89,0,8.62,2.54,9.01,2.54,.39,7.83,.78,7.83,.78,0,0,.59,6.46,.78,8.22,.39,1.96,.39,4.7,.39,4.7,0,0-3.72,7.24-7.24,8.62-3.52,1.37-7.24,2.74-7.83,5.48-.39,2.54,.39,8.81,.39,8.81,0,0-3.13,.98-4.7,3.33-1.57,2.54-2.74,10.57,1.76,12.92,4.5,2.15,8.81,1.96,8.81,1.96l18.78-33.29,1.96-6.66s-2.15,.19-3.91-1.96c-1.76-1.96-.98-3.52,.39-3.92,2.15-.2,3.33-.59,3.33-.59Z"/><path class="cls-2" d="M80.62,152.14l8.61,1.18s-2.74,4.11-1.57,5.48c1.37,1.37,1.96,1.96,1.96,1.96,0,0,7.24,.2,10.57,8.62,3.33,8.22,10.37,23.69,10.37,23.69l7.83-1.96s1.96,.39,2.74,2.15c.78,1.76,1.17,3.33,1.17,3.33h6.07s2.54,1.57,2.74,4.31c.19,2.74-.59,6.07-.59,6.07,0,0-11.54,6.27-14.09,7.44-2.54,1.37-5.87,2.54-10.37,.59-4.5-1.96-11.35-14.88-11.35-14.88,0,0-1.96,.98-3.33,.98-1.17,0-2.35-.39-2.35-.39l-4.3,4.7,4.89,13.9-45.2-.2,12.13-18.01s-3.33-3.13,1.96-11.16c5.87-8.61,22.11-37.79,22.11-37.79Z"/><path class="cls-4" d="M156.73,181.32c-.78-.39-2.15-.59-3.13-.59-3.91-.2-5.87,1.76-8.22,3.52-3.72,2.94-6.85,5.87-10.37,9.2-.78,.59-1.37,1.57-1.96,1.96-.59,.39-1.57,.39-2.35,.59-5.48,1.37-11.15,2.94-16.83,4.31,0,.59-.2,1.18-.78,1.18-.78,0-.98-.98-1.37-1.96-3.91-9.99-7.83-19.97-12.13-29.57-.78-1.57-1.37-3.13-2.15-4.31-.78-1.18-2.15-1.96-3.33-2.74-1.37-.78-2.93-1.37-4.5-1.57-1.17,0-2.15,.2-3.33,.39-.98,.2-2.15,.98-2.74,.78-.2,0-.59-.39-.59-.78,0-.98,1.37-1.17,2.15-1.37,.98-.39,1.57-.59,2.74-.59-.2-.39-.78-.98-.98-1.57-.2-1.57,.98-3.33,1.17-4.5-2.35-.39-4.89-.59-7.24-.98-4.5,7.44-8.81,15.08-13.11,22.71-3.33,5.87-6.46,11.55-9,17.82-.78,1.57-1.17,3.13-1.17,5.68,0,.59,.2,1.37,.2,2.15-.2,.59-.98,1.57-1.37,2.35-2.74,4.31-5.67,8.62-8.61,13.12-.39,.59-.98,1.96-1.57,1.96-.39,0-.78-.39-.78-.59-.2-.59,.78-1.57,1.17-2.35,2.74-4.31,5.28-8.22,8.22-12.53,.39-.59,1.17-1.76,1.37-2.15,.2-.78-.2-1.57-.2-2.35,0-5.29,2.74-8.22,4.3-12.34-2.74,0-5.09-.2-7.04-1.18-1.76-.78-3.13-2.35-3.91-4.11-.98-1.96-1.57-4.5-.98-6.85,.78-3.72,2.54-6.46,6.65-6.85-.98-3.13-1.96-8.22,0-10.57,1.96-2.35,6.26-2.74,8.81-4.5,1.37-.98,2.15-2.15,3.13-3.72,.59-.98,1.37-1.96,1.96-3.13,.2-.39,.59-.78,.59-1.18s-.2-.98-.2-1.37c-.59-3.33-.98-6.85-1.17-10.57-3.52-.2-6.26-.59-8.22-1.96-1.96-1.37-2.74-4.31-2.54-7.64,.2-3.13,1.57-5.09,3.72-6.46,2.15-1.37,4.89-2.15,8.22-1.96,1.76,.2,3.33,.98,4.7,1.96,1.37,.78,2.74,1.76,3.91,2.74,1.96-.78,4.5-1.76,7.24-1.76,5.48,0,10.17,1.96,13.5,4.31,1.57,1.17,3.72,2.74,3.52,5.48-.2,.98-.59,1.76-.98,2.55-.39,.78-.78,1.57-1.57,1.96,.39,.78,.39,1.18,.78,2.15,.2,.59,.78,1.57,1.17,1.76,.78,.2,1.96-.59,1.96,.59,0,1.37-2.54,.98-3.33,.59-.98-.78-1.57-2.55-2.15-4.11-.78-2.15-1.96-3.92-3.91-4.7-.39,.39-.59,.78-.78,1.17,.78,0,2.54-.2,2.54,.78,.2,1.37-2.15,.78-2.74,.98-.78,.19-1.57,.98-1.96,1.57-.59,.78-1.17,1.57-1.76,2.35-1.76,1.96-4.5,3.52-6.85,4.89,.2,.2,.59,.59,.39,.98-.39,1.37-2.74-.2-4.11,0-.59,.2-.98,.98-.78,1.76,.2,.78,.78,1.76,1.57,1.96,.39,.2,1.57,.39,2.35,.39,.98,0,1.76,0,1.96,.78,0,.59-.39,.59-.59,.98-.2,.39-.2,.78-.39,1.17-.39,1.18-.59,2.54-.98,3.72,2.35,.39,4.89,.59,7.24,.98,.59-1.18,.98-2.35,1.57-3.52-.59-.59-3.33-.78-3.33-1.96,0-1.57,1.76-.39,2.74-.2,1.96,.78,4.89,1.37,7.04,.2,1.76-.98,2.74-2.74,3.33-5.09,.19-.98,.59-2.35,1.57-1.57,.78,.59-.2,3.33-.39,3.92-.59,1.57-1.17,2.15-1.96,2.94-1.57,1.76-3.91,2.55-7.24,1.96-.98,1.96-1.96,4.11-2.74,6.46-.2,.59-.78,1.76-.59,2.35,.2,.78,1.76,1.96,2.54,2.15,.78,.39,1.57,.39,2.35,.78,1.96,.78,4.11,1.96,5.48,3.72,1.37,1.76,2.35,4.31,3.33,6.46,2.94,6.66,5.87,13.71,8.61,20.76,2.94-1.17,6.65-1.76,9.78-2.74,1.96-4.31,3.91-9.79,6.07-14.1,.59-1.37,1.57-3.33,2.54-4.11,1.96-1.57,6.46-.98,8.61,.19,.39,.2,.78,.39,1.17,.78,1.37,.2,2.74,.59,3.72,1.57,1.17,1.37,.59,4.31-.98,4.7-.78,.2-1.57,0-2.54,.39,.2,.39,.59,.78,.59,1.57,0,1.18-1.76,2.15-2.54,2.94-1.17,.98-2.15,1.76-3.13,2.35-.59,3.52-.98,7.05-3.13,9.2,.39-.2,.98-.2,1.57-.39,.39-.19,.98-.78,1.37-1.17,2.93-2.94,6.07-5.68,9.39-8.42,1.76-1.37,3.72-3.33,5.87-4.31,1.17-.59,2.74-.78,4.3-.78,1.96,0,5.09,.2,5.28,2.15,0,.98-.98,1.96-1.76,2.35-1.57,.78-3.72,.39-5.28,.98-.59,.2-.98,.78-1.57,1.17,2.15-.19,4.3-.19,5.48,.98,.78,.78,1.37,2.15,1.76,3.33,.39,1.37,.98,2.94,.78,4.31-.2,1.57-.98,2.74-1.76,3.72,0,1.37-.59,2.54-1.57,2.54-.78,0-1.96-.98-2.54-1.57l-.98-.98c-.19-.2-.78-.98-.98-.98s-.78,.78-1.17,1.18c-1.96,1.96-3.72,3.33-6.26,4.7-1.37,.78-2.54,1.37-4.7,1.18-.39,0-.98-.2-1.17-.2-.39,0-1.17,.59-1.57,.78-5.28,3.13-10.57,6.27-16.24,9.2-2.15,.98-4.5,2.15-7.04,2.35-3.72,.2-7.44-.78-9.39-2.55-.78-.78-1.57-1.96-2.35-3.13-2.15-3.33-3.91-6.46-6.07-9.79-.98,.39-2.15,.59-3.52,.39-.59,0-1.17-.39-1.57-.2-.39,0-.78,.59-1.17,.98-.98,1.17-1.96,2.15-2.94,3.33,1.57,4.5,3.13,8.81,4.7,13.31,.2,.78,.39,1.57-.59,1.57-.78,0-.98-.78-1.17-1.57-1.37-4.11-2.74-7.83-4.3-11.75-.2-.59-.59-1.57-.59-1.96,0-.59,.78-1.18,1.17-1.57,.98-.98,1.76-1.76,2.54-2.74,.39-.39,.98-1.17,1.37-1.37,.78-.2,1.57,.2,2.35,.2s1.57,.2,2.35-.2c-2.74-4.7-5.48-9.4-8.22-14.1-1.17-.2-2.94,.39-2.94-.78,0-.98,.98-.98,1.76-.78,.59,0,1.57-.2,1.96,0,.59,.2,.78,1.17,1.17,1.76,4.11,6.85,7.83,13.31,11.94,19.97,.78,1.18,1.37,2.35,2.35,3.52,.78,1.18,1.57,2.55,2.35,3.52,1.76,1.76,5.87,2.74,9.39,1.96,3.13-.59,5.67-2.15,8.22-3.53,4.3-2.35,8.81-4.9,13.11-7.44,.59-.39,1.37-.98,1.96-.98,.78-.2,2.15,.2,3.13,.2,.98-.2,2.15-.98,3.13-1.57,2.35-1.37,4.11-2.94,6.07-5.09,.39-.39,.78-.98,1.17-.98,.98,0,1.76,1.37,2.35,1.96,.78,.78,1.37,1.18,2.15,1.96,.59-1.37-.59-2.54-1.37-3.33-.59-.78-1.76-2.35-2.74-2.55-.98-.2-2.35,.2-3.13,.59-.98,.39-2.15,1.17-2.74,.78-.2-.2-.39-.59-.39-.59,0-.78,1.76-1.37,2.54-1.76,1.37-.59,3.13-.98,4.5-.39,1.96,.78,3.13,2.94,4.3,4.7,.2-.59,.78-.98,.78-1.57,0-.39-.39-.98-.59-1.37-.59-.98-1.37-2.55-2.35-3.13-1.17-.59-3.13-.2-4.5,0-1.76,.2-4.3,.98-4.3-.39,0-1.17,2.93-1.37,4.11-1.37,2.54-.39,5.09-.39,6.26,1.17h.2c-.59-1.37-.98-2.35-2.54-2.54-1.37-.2-3.13,0-4.7,.2-.98,.2-3.52,1.18-3.52-.2,0-.98,1.37-.78,2.15-1.17,.59-.2,1.57-1.18,2.15-1.57,.59-.59,1.17-1.18,1.96-1.57,1.76-.59,4.89,.2,5.87-1.57ZM67.11,115.92c-4.89,.39-9,2.15-8.81,7.44,0,1.57,.39,4.11,1.57,5.29,1.57,1.57,4.89,1.57,7.83,1.96,.59-5.68,4.11-8.42,8.02-10.77-2.15-1.76-5.09-4.11-8.61-3.92Zm32.87,10.57c0-1.57-1.57-2.74-2.54-3.33-1.17-.98-2.35-1.76-3.72-2.35-2.54-1.17-6.26-2.15-9.98-1.96-3.13,.2-5.67,1.37-8.02,2.55-3.13,1.96-6.26,4.5-6.65,9.01-.39,4.11,.2,8.22,.98,11.94,.2,.78,.39,1.57,.39,2.35,0,.39-.39,.78-.59,1.17-1.37,2.55-3.13,5.48-5.28,7.25-1.17,.98-2.94,1.76-4.7,2.35-1.76,.59-3.72,1.37-4.5,2.55-.78,1.37-.59,3.92-.2,5.48,.2,.59,.39,1.57,.59,2.35,.2,.78,.78,1.76,.59,2.35-.2,.59-1.57,.59-2.35,.78-.98,.2-1.76,.59-2.35,.78-.78,.39-1.37,1.96-1.76,2.74-1.76,4.11,.39,9.01,3.13,10.57,1.96,1.18,4.7,1.18,7.44,1.37,2.93-5.68,6.07-11.36,9.2-16.84,2.35-4.11,4.7-8.42,7.04-12.34,.78-1.37,1.76-2.74,2.35-4.11v-.2c.59-1.57,.78-3.52,1.37-5.09-2.93,0-5.87-2.54-4.89-5.48,.2-.59,.59-.98,.78-1.57-.78-1.76-.98-4.31-.78-6.85,0-.98,0-1.96,.98-1.96,.78,0,.78,.98,.59,1.57-.39,2.55,0,4.9,.78,6.66h1.17c2.93-1.76,6.26-3.13,8.61-6.27,1.57-1.96,3.13-4.5,4.5-6.66,.39-.78,.98-1.96,1.76-1.96,1.37,0,.2,1.96,0,2.35,1.76,.59,2.74,2.15,3.72,3.72,1.17-.59,2.35-1.37,2.35-2.94Zm31.7,45.23c-1.76,.2-2.15,1.18-2.93,2.35-2.54,4.31-4.31,9.01-6.26,13.9-.39,.78-.59,1.96-.98,2.35-.59,.39-1.76,.59-2.54,.78-.98,.2-1.76,.59-2.54,.78-1.96,.59-3.33,.98-5.28,1.37,.59,1.96,1.37,3.72,2.15,5.48,4.11-.98,8.02-2.15,11.94-3.13,.59-.2,1.17-.2,1.76-.39,.39-.2,.78-.59,.98-.78,.98-.78,2.15-1.96,2.74-2.94,.78-1.57,.98-3.33,1.17-5.29,0-.59,.2-1.37,.39-1.96,.2-.39,.98-.78,1.37-1.18,1.57-1.18,2.93-2.35,4.11-3.52-.2-.39-.59-.98-1.17-.98-.39,0-1.37,.39-1.96,.59-1.37,.39-2.35,.98-3.72,1.37-.78,.39-2.54,1.17-2.54-.2,0-.59,.59-.78,.98-.98,.39-1.17,.59-1.96,.98-3.13,.2-.78,.59-2.54,1.37-2.94,.39-.2,.98,0,1.57,0,1.57,.2,3.33,.59,4.7,0-1.37-1.18-4.11-1.76-6.26-1.57Zm8.02,1.96c-.59,2.35-4.7,1.76-7.04,1.37-.39,1.18-.98,2.35-1.17,3.53,1.37-.39,2.93-1.37,4.7-1.57,.98-.2,1.57-.2,2.54-.39,1.37-.2,2.35-.2,2.74-1.18-.2-1.17-.98-1.57-1.76-1.76Z"/><path class="cls-4" d="M94.51,141.18c.2,.78,.59,1.37,1.17,1.96,.39,.2,.78,.59,.78,.98s-.39,.78-.59,.78c-.98,.2-1.76-1.18-2.35-1.76-.59-.78-.98-2.15-.78-3.13,0-.78,.39-1.76,1.37-1.57,.78,.2,1.37,1.57,1.76,1.96,.98,.78,2.74,.98,2.74,1.76,.2,1.76-2.15,.39-2.54,.2-.59-.39-.98-.78-1.57-1.18Z"/><path class="cls-4" d="M79.25,141.57c.78-.2,3.13-.2,2.94,.78,0,.59-.59,.59-1.37,.59-.98,0-2.15,.2-2.15-.59s.2-.78,.59-.78Z"/><path d="M128.75,208.34c-.39,0-.78-.2-.78-.59-.2-.39,.2-.98,.59-.98,1.17-.39,2.15-2.74,1.76-5.68-.2-1.76-1.17-3.33-2.15-4.11-.39-.2-.78-.39-1.17-.2-.39,.2-.98-.2-.98-.59-.19-.39,.2-.98,.59-.98,.78-.2,1.57,0,2.35,.39,1.37,.98,2.35,2.94,2.74,5.09,.59,3.72-.78,7.05-2.93,7.44,.2,.2,0,.2,0,.2Z"/><path d="M122.1,197.96c-.39,0-.78-.39-.78-.78,0-.59-.19-1.18-.19-1.76-.39-1.76-1.37-3.33-2.54-3.92-.39-.2-.78-.2-1.17-.2-.39,.2-.98,0-.98-.59-.2-.39,0-.98,.59-.98,.78-.2,1.56-.2,2.54,.2,1.57,.78,2.74,2.55,3.33,4.9,.19,.78,.19,1.37,.39,2.15-.39,.59-.78,.98-1.17,.98Z"/><path class="cls-4" d="M93.33,132.36c.59-.2,1.37,.2,1.57,.98l.39,1.57c.2,.59-.2,1.37-.98,1.57-.59,.2-1.37-.2-1.57-.98l-.39-1.57c-.2-.78,.2-1.37,.98-1.57Z"/><path class="cls-2" d="M12.33,215.38h244.98c2.15,0,3.91,1.76,3.91,3.92s-1.76,3.92-3.91,3.92H12.33c-2.15,0-3.91-1.76-3.91-3.92s1.76-3.92,3.91-3.92Z"/><path d="M257.3,224H12.33c-2.54,0-4.7-2.15-4.7-4.7s2.15-4.7,4.7-4.7h244.98c2.54,0,4.7,2.15,4.7,4.7s-2.15,4.7-4.7,4.7Zm-244.98-7.83c-1.76,0-3.13,1.37-3.13,3.13s1.37,3.13,3.13,3.13h244.98c1.76,0,3.13-1.37,3.13-3.13s-1.37-3.13-3.13-3.13H12.33Z"/><path class="cls-3" d="M34.44,129.04l7.63,7.64-1.76,1.76-7.63-7.64,1.76-1.76Z"/><path class="cls-3" d="M40.31,129.04l1.76,1.76-7.63,7.64-1.76-1.76,7.63-7.64Z"/><path class="cls-1" d="M50.68,41.51h-11.74v15.47h11.74v-15.47Z"/><path d="M32.29,69.31c-.78,0-1.37-.39-1.76-1.17-.2-.2-2.74-6.85,0-12.53,1.17-2.55,3.33-4.31,6.07-5.68-.2-1.57-.2-3.52,.78-5.48,1.96-4.31,5.67-5.09,9.98-5.87,1.37-.2,2.94-.59,4.5-.98,3.72-.98,3.13-6.07,3.13-6.27,0-.39,0-.98,.39-1.37,.39-.39,.78-.59,1.17-.78h.2c.98,0,1.76,.59,1.96,1.57,.39,2.94-.2,9.01-5.87,10.57-1.57,.39-3.13,.78-4.5,.98-3.91,.78-6.07,1.17-7.24,3.72-.39,.78-.39,1.76-.39,2.55,.78-.2,1.57-.2,2.15-.2,2.74,0,4.3,1.17,5.09,2.15,1.37,1.57,1.96,3.72,1.17,5.68-.59,1.76-1.96,2.74-3.72,2.94h-.78c-1.96,0-3.91-1.17-5.28-3.13-.59-.78-.98-1.57-1.37-2.55-1.76,.98-2.94,2.15-3.72,3.52-2.15,4.11,0,9.4,0,9.4,.39,.98,0,2.15-.98,2.55-.39,.39-.78,.39-.98,.39Zm9-16.84c.2,.59,.59,1.17,.98,1.57,.39,.39,1.37,1.57,2.35,1.57h.2c.39,0,.59-.2,.78-.59,.2-.59,0-1.37-.39-1.76-.39-.39-.98-.78-2.35-.78-.59-.2-1.17-.2-1.57,0Z"/><path class="cls-1" d="M56.74,30.15c.59,0,.98,.39,1.17,.98,.39,2.74-.2,8.42-5.28,9.79-1.76,.39-3.33,.78-4.7,.98-3.91,.78-6.46,1.17-7.63,4.11-.59,1.37-.59,2.74-.39,3.92h.2c.98-.2,1.96-.39,2.74-.39,2.35,0,3.91,.98,4.5,1.76,1.17,1.37,1.57,3.33,.98,4.9-.59,1.37-1.76,2.35-3.13,2.55h-.59c-1.76,0-3.33-.98-4.7-2.74-.59-.98-1.17-1.96-1.57-3.13-2.15,.98-3.91,2.35-4.7,4.31-2.15,4.5,0,9.99,0,10.18,.2,.59,0,1.17-.59,1.37h-.39c-.39,0-.78-.2-.98-.78-.2-.2-2.54-6.46,0-11.94,1.17-2.55,3.33-4.31,6.26-5.48-.2-1.57-.39-3.52,.59-5.48,1.76-3.92,5.09-4.7,9.39-5.48,1.37-.2,2.93-.59,4.5-.98,4.5-1.17,3.72-7.05,3.72-7.24-.78-.59-.2-1.17,.59-1.17q-.2,0,0,0Zm-12.33,26.24h.39c.59,0,1.17-.39,1.37-.98,.39-.78,0-1.96-.59-2.55-.39-.59-1.37-1.17-2.93-1.17-.59,0-1.37,.2-2.15,.39h-.2c.39,.98,.78,1.76,1.37,2.55,.39,.59,1.57,1.76,2.74,1.76Zm12.33-27.8h-.39c-.78,.2-1.37,.39-1.76,.98-.39,.59-.59,1.17-.59,1.96,0,.2,.59,4.7-2.54,5.48-1.57,.39-2.94,.59-4.3,.98-4.3,.78-8.41,1.57-10.57,6.27-.78,1.76-.98,3.72-.78,5.29-2.54,1.37-4.5,3.33-5.87,5.68-2.94,6.07-.2,12.92-.2,13.12,.39,.98,1.37,1.57,2.54,1.57,.39,0,.59,0,.98-.2,1.37-.59,1.96-2.15,1.37-3.52,0,0-1.96-5.09,0-8.81,.59-1.17,1.37-2.15,2.74-2.94,.39,.78,.78,1.37,1.17,1.96,1.57,2.15,3.72,3.33,5.87,3.33h.78c2.15-.2,3.72-1.57,4.5-3.52,.78-2.15,.2-4.7-1.37-6.46-.98-.98-2.74-2.35-5.67-2.35-.39,0-.98,0-1.37,.2,0-.39,.2-.98,.39-1.37,.98-2.15,2.35-2.55,6.65-3.33,1.37-.2,3.13-.59,4.7-.98,6.07-1.57,6.85-8.22,6.46-11.36-.39-.98-1.57-1.96-2.74-1.96Zm-14.28,24.48s.2,0,0,0c1.17,0,1.76,.39,1.96,.59,.39,.39,.39,.78,.39,.98h-.2c-.59,0-1.17-.39-1.76-1.17-.2,0-.2-.2-.39-.39Z"/><path class="cls-7" d="M73.96,47.97l-5.09-1.37,3.72-3.72,1.37,5.09Zm-4.89-1.37l4.89,1.37-1.37-4.9-3.52,3.52Z"/><path class="cls-6" d="M73.96,48.56l-5.28-1.37c-.2,0-.39-.2-.59-.59,0-.2,0-.59,.2-.78l3.72-3.72c.2-.2,.39-.2,.78-.2,.2,0,.39,.2,.59,.59l1.37,5.09c0,.2,0,.59-.2,.78-.2,.2-.39,.2-.59,.2Zm-3.52-2.35l2.54,.59-.59-2.55-1.96,1.96Z"/><path class="cls-3" d="M37.76,8.42c3.13,0,5.67,2.55,5.67,5.68s-2.54,5.68-5.67,5.68-5.67-2.55-5.67-5.68c.2-3.33,2.54-5.68,5.67-5.68Z"/></svg>