<?xml version="1.0" encoding="UTF-8"?><svg id="Camada_1" xmlns="http://www.w3.org/2000/svg" xmlns:xlink="http://www.w3.org/1999/xlink" viewBox="0 0 250 241"><defs><style>.cls-1,.cls-2{fill:#fff;}.cls-2,.cls-3,.cls-4,.cls-5,.cls-6{fill-rule:evenodd;}.cls-7,.cls-3{fill:blue;}.cls-8,.cls-4{fill:#ba9bc9;}.cls-9{clip-path:url(#clippath);}.cls-10{fill:none;}.cls-11,.cls-5{fill:#ddcee5;}</style><clipPath id="clippath"><rect class="cls-10" x="2" y="3" width="250" height="241"/></clipPath></defs><g class="cls-9"><g><path class="cls-2" d="M31.84,88.13s-5.63-13.98,8.35-17.94c8.35-2.3,9.6,6.47,5.01,7.09-4.59,.63-8.35-7.93-6.26-12.94,2.3-5.01,7.3-4.38,13.98-6.05,5.84-1.46,4.8-8.97,4.8-8.97l-25.88,38.81Z"/><path d="M31.84,88.97c-.21,0-.63-.21-.83-.42-.21-.21-2.71-6.89,0-12.31,1.25-2.71,3.55-4.59,6.68-5.84-.42-2.09-.42-4.17,.42-6.05,1.88-4.17,5.22-4.8,9.6-5.43,1.46-.21,3.13-.63,4.8-1.04,5.01-1.46,4.17-7.93,4.17-8.14,0-.42,.21-.83,.63-.83s.83,.21,.83,.63c.42,2.71-.21,8.55-5.22,9.81-1.67,.42-3.34,.83-4.8,1.04-4.17,.83-7.1,1.25-8.56,4.59-.63,1.46-.63,3.13-.42,4.8,.21,0,.42-.21,.63-.21,4.17-1.04,6.47,.42,7.3,1.46,1.25,1.25,1.67,3.13,1.04,4.8-.42,1.25-1.67,2.3-3.13,2.5-1.88,.21-3.76-.63-5.22-2.71-.83-1.04-1.46-2.3-1.88-3.55-2.71,1.04-4.59,2.71-5.63,5.01-2.5,5.01,0,11.06,0,11.06,.21,.42,0,.83-.42,1.04,.21-.42,.21-.21,0-.21Zm7.93-17.74c.42,1.25,1.04,2.3,1.67,3.13,.63,.83,2.09,2.3,3.76,2.09,.83-.21,1.46-.63,1.88-1.46,.42-1.04,0-2.3-.83-3.13-.63-.83-2.3-1.88-5.84-1.04,0,.21-.21,.21-.63,.42Z"/><path class="cls-8" d="M68.15,63.93l-5.43-1.46,3.96-3.96,1.46,5.43Zm-5.22-1.46l5.22,1.46-1.46-5.43-3.76,3.96Z"/><path class="cls-7" d="M68.15,64.76s-.21,0,0,0l-5.63-1.46c-.21,0-.42-.21-.63-.63,0-.21,0-.63,.21-.83l3.96-3.96c.21-.21,.42-.21,.83-.21,.21,0,.42,.21,.63,.63l1.46,5.43c0,.21,0,.63-.21,.83-.21,0-.42,.21-.63,.21Zm-3.76-2.71l2.71,.63-.63-2.71-2.09,2.09Z"/><path d="M199.41,87.51c-.21,0-.42,0-.63-.21-.21-.42-.21-.83,0-1.04,.21-.21,3.76-3.55,2.71-10.22-.63-3.76-1.88-6.47-3.34-8.56-.21,.42-.42,.83-.63,1.25-2.29,4.38-6.26,6.89-10.22,7.09-2.5,0-4.8-1.04-6.05-2.71-.84-1.25-.84-2.71-.21-4.17,.83-2.3,3.13-4.38,5.63-5.22,3.96-1.25,7.51-1.04,10.02,.63,.21,.21,.42,.21,.63,.42,.63-4.17-1.25-7.72-3.97-9.81-5.43-4.8-13.36-4.17-13.77-4.17s-.63-.21-.83-.42c-.21-.42,0-.83,.42-1.04,.42-.21,9.18-.63,15.23,4.38,2.92,2.5,5.63,7.09,4.17,12.31,2.09,2.09,3.34,5.43,4.17,10.02,1.46,7.51-2.92,11.48-3.13,11.68,0-.21-.21-.21-.21-.21Zm-7.93-23.16c-1.25,0-2.92,.21-4.59,.83-1.88,.63-3.96,2.5-4.59,4.17-.21,.83-.42,1.88,.21,2.92,.83,1.25,2.5,2.09,4.59,2.09,3.55,0,6.89-2.5,8.97-6.26,.42-.63,.63-1.25,.84-1.67-.42-.21-.63-.63-1.04-.83-1.25-1.04-2.71-1.25-4.38-1.25Z"/><path d="M59.8,212.07l9.39,27.13h-18.78l9.39-27.13Z"/><path class="cls-3" d="M41.86,29.92c3.34,0,6.05,2.71,6.05,6.05s-2.71,6.05-6.05,6.05-6.05-2.71-6.05-6.05,2.71-6.05,6.05-6.05Z"/><path class="cls-3" d="M158.51,38.68c1.88,0,3.55,1.46,3.55,3.55,0,1.88-1.46,3.55-3.55,3.55-1.88,0-3.55-1.46-3.55-3.55s1.67-3.55,3.55-3.55Z"/><path class="cls-7" d="M166.65,30.75c-.42,0-.83-.42-.83-.83,0,0,.21-4.59-2.71-7.93-.63-.83-1.67-1.25-2.71-1.46,.21,1.46-.21,3.13-.84,5.01-1.25,3.13-3.34,3.76-4.38,3.96-1.67,.21-3.55-.83-4.38-2.3-.83-1.46-.83-2.92,.21-4.17,1.46-2.3,4.59-3.96,7.51-4.17-.21-.42-.42-.63-.63-1.04-2.92-4.17-11.27-3.96-11.27-3.96-.42,0-.83-.42-.83-.83s.42-.83,.83-.83,9.18-.21,12.73,4.59c.42,.63,.83,1.25,1.04,2.09,1.67,.21,3.34,1.04,4.17,2.09,3.13,3.76,3.13,8.76,3.13,8.97-.21,.42-.63,.83-1.04,.83Zm-7.72-10.22c-2.71,0-5.42,1.46-6.68,3.34-.63,1.04-.42,1.88,0,2.5,.63,1.04,1.88,1.67,2.92,1.67,1.25,0,2.29-1.04,2.92-2.92,.63-1.88,.83-3.34,.83-4.59Z"/><path class="cls-2" d="M32.26,175.56s6.68-1.67,7.3-10.01c.63-9.18-7.3-25.04-10.64-25.25-2.92-.21-10.02,14.82-7.93,25.25,1.67,7.93,7.93,10.43,7.93,10.43l3.34-.42Z"/><path d="M28.92,176.81h-.21c-.21-.21-6.89-2.92-8.56-11.06-1.67-8.56,2.71-20.45,6.26-24.62,.83-1.04,1.67-1.46,2.5-1.46s1.67,.63,2.92,1.88c3.76,4.38,9.18,16.48,8.56,24.2-.63,8.76-7.93,10.64-7.93,10.85-.42,.21-.83-.21-1.04-.63-.21-.42,.21-.83,.63-1.04,.21,0,6.26-1.67,6.68-9.39,.42-7.3-4.59-18.99-8.35-23.16-1.04-1.25-1.67-1.25-1.67-1.25-.21,0-.63,.21-1.25,1.04-3.13,3.55-7.51,15.02-5.84,23.37,1.46,7.3,7.51,9.81,7.51,9.81,.42,.21,.63,.63,.42,1.04,0,.21-.21,.42-.63,.42Z"/><path d="M33.51,227.93c-.42,0-.83-.21-.83-.63s-3.13-32.13-3.34-52.16c0-10.43-.83-21.7-1.04-22.33-.21-.42,.21-.84,.63-1.04,.42-.21,.83,.21,1.04,.63,.21,.63,1.04,12.73,1.04,22.74,.21,20.03,3.34,51.75,3.34,51.96,0,.42-.42,.83-.83,.83Z"/><path class="cls-2" d="M41.02,206.23s6.89-.63,8.76-8.76c2.09-8.97,1.46-25.46-1.25-27.96-1.67-1.46-19.41,10.02-19.82,24.62-.21,7.93,8.97,12.1,8.97,12.1h3.34Z"/><path d="M41.02,207.07c-.42,0-.83-.21-.83-.63s.21-.84,.63-.84c.21,0,6.47-.83,8.14-8.14,2.09-8.97,1.46-25.04-1.04-27.12-.42,0-2.71,.83-6.26,3.55-2.92,2.09-12.1,10.22-12.31,20.45-.21,7.1,8.56,11.06,8.56,11.06,.42,.21,.63,.63,.42,1.04-.21,.42-.63,.63-1.04,.42-.42-.21-9.81-4.38-9.6-12.73,.42-12.52,13.15-22.74,18.36-24.83,1.46-.63,2.3-.63,2.92-.21,3.34,2.92,3.34,20.24,1.46,28.59-1.88,8.56-9.39,9.39-9.39,9.39Z"/><path d="M35.39,236.07c-.42,0-.83-.42-.83-.84,0-.21-.42-11.27,2.5-31.3,1.25-9.18,3.76-17.32,7.3-24.62,.21-.42,.63-.63,1.04-.42,.42,.21,.63,.63,.42,1.04-3.55,7.3-5.84,15.23-7.1,24.2-2.92,19.82-2.5,30.88-2.5,30.88,0,.83-.42,1.04-.83,1.04Z"/><path class="cls-2" d="M26.62,206.65s11.06-4.38,3.76-19.82c-6.68-14.61-18.36-21.7-19.62-21.28-1.25,.42-7.51,26.29-2.3,35.47,6.05,10.22,14.82,6.88,14.82,6.88l3.34-1.25Z"/><path d="M19.95,209.15c-3.34,0-8.35-1.25-12.1-7.72-4.59-7.93-.83-28.38,1.46-34.64,.42-1.46,.83-1.88,1.25-1.88,2.09-.84,13.98,7.3,20.66,21.7,2.71,5.84,3.13,10.85,1.67,14.82-1.88,4.38-5.84,5.84-5.84,6.05-.42,.21-.83,0-1.04-.42-.21-.42,0-.83,.42-1.04,0,0,3.34-1.46,5.01-5.22,1.46-3.55,.83-8.14-1.46-13.56-6.26-13.77-16.49-20.24-18.57-20.87-1.67,2.92-6.68,26.08-1.88,34.22,5.63,9.6,13.77,6.47,13.77,6.47,.42-.21,.83,0,1.04,.42,.21,.42,0,.83-.42,1.04-.21,0-1.67,.63-3.96,.63Z"/><path d="M30.8,235.45c-.42,0-.63-.21-.83-.63,0-.21-3.76-18.57-6.05-27.75-2.3-9.18-7.3-23.37-7.3-23.58-.21-.42,0-.83,.42-1.04,.42-.21,.83,0,1.04,.42,0,.21,5.01,14.4,7.3,23.58,2.3,9.18,6.05,27.54,6.26,27.75,0,.63-.21,1.04-.83,1.25,.21,0,0,0,0,0Z"/><path class="cls-2" d="M22.24,223.76h22.95c.83,0,1.67,.63,1.67,1.67l-2.5,16.28c0,.83-.63,1.67-1.25,1.67H24.75c-.63,0-1.25-.63-1.25-1.67l-2.71-16.28c-.21-1.04,.63-1.67,1.46-1.67Z"/><path d="M42.9,244H24.54c-1.04,0-2.09-1.04-2.09-2.29l-2.71-16.28c0-1.46,1.04-2.5,2.3-2.5h22.95c1.25,0,2.3,1.04,2.3,2.29l-2.5,16.48c.21,1.25-.63,2.29-1.88,2.29Zm-20.66-19.4c-.42,0-.83,.42-.83,.83l2.71,16.28c0,.63,.21,.83,.42,.83h18.36c.21,0,.42-.42,.42-.83l2.5-16.48c0-.21-.42-.63-.83-.63H22.24Z"/><path class="cls-2" d="M20.36,219.8h26.5c.83,0,1.46,.63,1.46,1.67l1.67,4.38c0,.84-.63,1.67-1.67,1.67H18.9c-.83,0-1.67-.63-1.67-1.67l1.67-4.38c0-.83,.63-1.67,1.46-1.67Z"/><path d="M48.33,228.14H18.9c-1.25,0-2.3-1.04-2.3-2.29v-.21l1.67-4.17c0-1.25,1.04-2.29,2.3-2.29h26.5c1.25,0,2.09,1.04,2.3,2.29l1.67,4.17v.21c-.21,1.25-1.25,2.29-2.71,2.29Zm-30.26-2.29c0,.42,.42,.63,.83,.63h29.63c.42,0,.63-.21,.83-.63l-1.67-4.17v-.21c0-.42-.21-.83-.63-.83H20.36c-.42,0-.63,.42-.63,.83v.21l-1.67,4.17Z"/><path class="cls-3" d="M180.63,92.93h62.6c4.38,0,7.93,3.55,7.93,7.93v126.24c0,4.38-3.55,7.93-7.93,7.93h-62.6c-4.38,0-7.93-3.55-7.93-7.93V100.86c0-4.38,3.55-7.93,7.93-7.93Z"/><path d="M243.24,235.65h-62.6c-4.8,0-8.76-3.97-8.76-8.76V100.86c0-4.8,3.96-8.76,8.76-8.76h62.6c4.8,0,8.76,3.96,8.76,8.76v126.24c0,4.59-3.96,8.56-8.76,8.56Zm-62.6-141.89c-3.96,0-7.1,3.13-7.1,7.09v126.24c0,3.96,3.13,7.09,7.1,7.09h62.6c3.96,0,7.1-3.13,7.1-7.09V100.86c0-3.96-3.13-7.09-7.1-7.09h-62.6Z"/><path class="cls-2" d="M184.18,97.31h54.88c4.38,0,7.93,3.55,7.93,7.93v112.05c0,4.38-3.55,7.93-7.93,7.93h-54.88c-4.38,0-7.93-3.55-7.93-7.93V105.24c.21-4.38,3.76-7.93,7.93-7.93Z"/><path d="M239.27,225.85h-55.09c-4.8,0-8.76-3.96-8.76-8.76V105.24c0-4.8,3.96-8.76,8.76-8.76h54.88c4.8,0,8.76,3.96,8.76,8.76v112.05c0,4.59-3.76,8.55-8.56,8.55Zm-55.09-127.7c-3.96,0-7.1,3.13-7.1,7.09v112.05c0,3.96,3.13,7.09,7.1,7.09h54.88c3.96,0,7.1-3.13,7.1-7.09V105.24c0-3.96-3.13-7.09-7.1-7.09h-54.88Z"/><path class="cls-3" d="M185.22,103.57h9.39c2.29,0,4.17,1.88,4.17,4.17v9.39c0,2.29-1.88,4.17-4.17,4.17h-9.39c-2.29,0-4.17-1.88-4.17-4.17v-9.39c-.21-2.3,1.67-4.17,4.17-4.17Z"/><path class="cls-3" d="M206.3,103.57h9.39c2.29,0,4.17,1.88,4.17,4.17v9.39c0,2.29-1.88,4.17-4.17,4.17h-9.39c-2.3,0-4.17-1.88-4.17-4.17v-9.39c0-2.3,1.88-4.17,4.17-4.17Z"/><path class="cls-11" d="M236.35,121.52h-9.39c-2.29,0-4.17-1.88-4.17-4.17v-9.39c0-2.29,1.88-4.17,4.17-4.17h9.39c2.29,0,4.17,1.88,4.17,4.17v9.39c.21,2.29-1.67,4.17-4.17,4.17Zm-9.39-17.94c-2.29,0-4.17,1.88-4.17,4.17v9.39c0,2.29,1.88,4.17,4.17,4.17h9.39c2.29,0,4.17-1.88,4.17-4.17v-9.39c0-2.3-1.88-4.17-4.17-4.17h-9.39Z"/><path class="cls-5" d="M185.22,124.65h9.39c2.29,0,4.17,1.88,4.17,4.17v9.39c0,2.3-1.88,4.17-4.17,4.17h-9.39c-2.29,0-4.17-1.88-4.17-4.17v-9.39c-.21-2.29,1.67-4.17,4.17-4.17Z"/><path class="cls-5" d="M206.3,124.65h9.39c2.29,0,4.17,1.88,4.17,4.17v9.39c0,2.3-1.88,4.17-4.17,4.17h-9.39c-2.3,0-4.17-1.88-4.17-4.17v-9.39c0-2.29,1.88-4.17,4.17-4.17Z"/><path class="cls-5" d="M226.96,124.65h9.39c2.29,0,4.17,1.88,4.17,4.17v9.39c0,2.3-1.88,4.17-4.17,4.17h-9.39c-2.29,0-4.17-1.88-4.17-4.17v-9.39c0-2.29,1.88-4.17,4.17-4.17Z"/><path class="cls-3" d="M185.22,124.86h9.39c2.29,0,4.17,1.88,4.17,4.17v9.39c0,2.29-1.88,4.17-4.17,4.17h-9.39c-2.29,0-4.17-1.88-4.17-4.17v-9.39c-.21-2.29,1.67-4.17,4.17-4.17Z"/><path class="cls-3" d="M206.3,124.86h9.39c2.29,0,4.17,1.88,4.17,4.17v9.39c0,2.29-1.88,4.17-4.17,4.17h-9.39c-2.3,0-4.17-1.88-4.17-4.17v-9.39c0-2.29,1.88-4.17,4.17-4.17Z"/><path class="cls-3" d="M226.96,124.86h9.39c2.29,0,4.17,1.88,4.17,4.17v9.39c0,2.29-1.88,4.17-4.17,4.17h-9.39c-2.29,0-4.17-1.88-4.17-4.17v-9.39c0-2.29,1.88-4.17,4.17-4.17Z"/><path class="cls-4" d="M185.22,145.93h9.39c2.29,0,4.17,1.88,4.17,4.17v9.39c0,2.29-1.88,4.17-4.17,4.17h-9.39c-2.29,0-4.17-1.88-4.17-4.17v-9.39c-.21-2.29,1.67-4.17,4.17-4.17Z"/><path class="cls-5" d="M206.3,145.93h9.39c2.29,0,4.17,1.88,4.17,4.17v9.39c0,2.29-1.88,4.17-4.17,4.17h-9.39c-2.3,0-4.17-1.88-4.17-4.17v-9.39c0-2.29,1.88-4.17,4.17-4.17Z"/><path class="cls-4" d="M226.96,145.93h9.39c2.29,0,4.17,1.88,4.17,4.17v9.39c0,2.29-1.88,4.17-4.17,4.17h-9.39c-2.29,0-4.17-1.88-4.17-4.17v-9.39c0-2.29,1.88-4.17,4.17-4.17Z"/><path class="cls-3" d="M185.22,145.93h9.39c2.29,0,4.17,1.88,4.17,4.17v9.39c0,2.29-1.88,4.17-4.17,4.17h-9.39c-2.29,0-4.17-1.88-4.17-4.17v-9.39c-.21-2.29,1.67-4.17,4.17-4.17Z"/><path class="cls-3" d="M206.3,145.93h9.39c2.29,0,4.17,1.88,4.17,4.17v9.39c0,2.29-1.88,4.17-4.17,4.17h-9.39c-2.3,0-4.17-1.88-4.17-4.17v-9.39c0-2.29,1.88-4.17,4.17-4.17Z"/><path class="cls-3" d="M226.96,145.93h9.39c2.29,0,4.17,1.88,4.17,4.17v9.39c0,2.29-1.88,4.17-4.17,4.17h-9.39c-2.29,0-4.17-1.88-4.17-4.17v-9.39c0-2.29,1.88-4.17,4.17-4.17Z"/><path class="cls-2" d="M185.22,167.21h9.39c2.29,0,4.17,1.88,4.17,4.17v9.39c0,2.3-1.88,4.17-4.17,4.17h-9.39c-2.29,0-4.17-1.88-4.17-4.17v-9.39c-.21-2.29,1.67-4.17,4.17-4.17Z"/><path class="cls-5" d="M206.3,167.21h9.39c2.29,0,4.17,1.88,4.17,4.17v9.39c0,2.3-1.88,4.17-4.17,4.17h-9.39c-2.3,0-4.17-1.88-4.17-4.17v-9.39c0-2.29,1.88-4.17,4.17-4.17Z"/><path class="cls-4" d="M226.96,167.21h9.39c2.29,0,4.17,1.88,4.17,4.17v9.39c0,2.3-1.88,4.17-4.17,4.17h-9.39c-2.29,0-4.17-1.88-4.17-4.17v-9.39c0-2.29,1.88-4.17,4.17-4.17Z"/><path class="cls-2" d="M185.22,167.21h9.39c2.29,0,4.17,1.88,4.17,4.17v9.39c0,2.3-1.88,4.17-4.17,4.17h-9.39c-2.29,0-4.17-1.88-4.17-4.17v-9.39c-.21-2.29,1.67-4.17,4.17-4.17Z"/><path class="cls-3" d="M206.3,167.21h9.39c2.29,0,4.17,1.88,4.17,4.17v9.39c0,2.3-1.88,4.17-4.17,4.17h-9.39c-2.3,0-4.17-1.88-4.17-4.17v-9.39c0-2.29,1.88-4.17,4.17-4.17Z"/><path class="cls-3" d="M226.96,167.21h9.39c2.29,0,4.17,1.88,4.17,4.17v9.39c0,2.3-1.88,4.17-4.17,4.17h-9.39c-2.29,0-4.17-1.88-4.17-4.17v-9.39c0-2.29,1.88-4.17,4.17-4.17Z"/><path class="cls-2" d="M185.22,188.29h9.39c2.29,0,4.17,1.88,4.17,4.17v9.39c0,2.3-1.88,4.17-4.17,4.17h-9.39c-2.29,0-4.17-1.88-4.17-4.17v-9.39c-.21-2.3,1.67-4.17,4.17-4.17Z"/><path class="cls-3" d="M206.3,188.29h9.39c2.29,0,4.17,1.88,4.17,4.17v9.39c0,2.3-1.88,4.17-4.17,4.17h-9.39c-2.3,0-4.17-1.88-4.17-4.17v-9.39c0-2.3,1.88-4.17,4.17-4.17Z"/><path class="cls-3" d="M226.96,188.29h9.39c2.29,0,4.17,1.88,4.17,4.17v9.39c0,2.3-1.88,4.17-4.17,4.17h-9.39c-2.29,0-4.17-1.88-4.17-4.17v-9.39c0-2.3,1.88-4.17,4.17-4.17Z"/><path class="cls-2" d="M68.15,167.01h126.46c4.38,0,7.93,3.55,7.93,7.93v59.05c0,4.38-3.55,7.93-7.93,7.93H68.15c-4.38,0-7.93-3.55-7.93-7.93v-59.05c0-4.38,3.55-7.93,7.93-7.93Z"/><path d="M194.61,242.54H68.15c-4.8,0-8.76-3.96-8.76-8.76v-58.84c0-4.8,3.97-8.76,8.76-8.76h126.46c4.8,0,8.76,3.96,8.76,8.76v59.05c-.21,4.8-3.96,8.56-8.76,8.56Zm-126.46-74.7c-3.96,0-7.1,3.13-7.1,7.09v59.05c0,3.97,3.13,7.1,7.1,7.1h126.46c3.96,0,7.09-3.13,7.09-7.1v-59.05c0-3.96-3.13-7.09-7.09-7.09H68.15Z"/><path class="cls-6" d="M50,164.29H210.26v15.23H50v-15.23Z"/><path class="cls-2" d="M178.13,170.76c1.04,0,2.09,.83,2.09,2.09,0,1.04-.84,2.09-2.09,2.09-1.04,0-2.09-.83-2.09-2.09,.21-1.25,1.04-2.09,2.09-2.09Z"/><path class="cls-2" d="M185.85,170.76c1.04,0,2.09,.83,2.09,2.09,0,1.04-.83,2.09-2.09,2.09s-2.09-.83-2.09-2.09,.83-2.09,2.09-2.09Z"/><path class="cls-2" d="M192.94,170.76c1.04,0,2.09,.83,2.09,2.09,0,1.04-.83,2.09-2.09,2.09-1.04,0-2.09-.83-2.09-2.09s.83-2.09,2.09-2.09Z"/><path class="cls-3" d="M149.96,184.95h39.65c2.92,0,5.22,2.29,5.22,5.22v18.15c0,2.92-2.29,5.22-5.22,5.22h-39.65c-2.92,0-5.22-2.29-5.22-5.22v-18.15c0-2.71,2.29-5.22,5.22-5.22Z"/><path class="cls-6" d="M178.75,216.67c5.43,0,9.81,4.38,9.81,9.81s-4.38,9.81-9.81,9.81-9.81-4.38-9.81-9.81,4.38-9.81,9.81-9.81Z"/><path class="cls-7" d="M169.15,236.49l-11.69-9.81,14.4-5.22-2.71,15.02Z"/><path class="cls-7" d="M138.9,190.58H67.94c-.42,0-.83-.42-.83-.84s.42-.83,.83-.83h70.95c.42,0,.83,.42,.83,.83s-.42,.84-.83,.84Z"/><path class="cls-7" d="M104.67,198.72h-36.73c-.42,0-.83-.42-.83-.83s.42-.83,.83-.83h36.73c.42,0,.83,.42,.83,.83s-.42,.83-.83,.83Z"/><path class="cls-7" d="M138.9,198.72h-28.8c-.42,0-.83-.42-.83-.83s.42-.83,.83-.83h29.01c.42,0,.84,.42,.84,.83s-.63,.83-1.04,.83Z"/><path class="cls-7" d="M138.9,206.65H67.94c-.42,0-.83-.42-.83-.83s.42-.83,.83-.83h70.95c.42,0,.83,.42,.83,.83,0,.63-.42,.83-.83,.83Z"/><path class="cls-7" d="M138.9,215.21H67.94c-.42,0-.83-.42-.83-.83s.42-.84,.83-.84h70.95c.42,0,.83,.42,.83,.84s-.42,.83-.83,.83Z"/><path class="cls-7" d="M138.9,223.13h-13.98c-.42,0-.83-.42-.83-.83s.42-.84,.83-.84h13.98c.42,0,.83,.42,.83,.84s-.42,.83-.83,.83Z"/><path class="cls-7" d="M138.9,231.27H67.94c-.42,0-.83-.42-.83-.84s.42-.83,.83-.83h70.95c.42,0,.83,.42,.83,.83s-.42,.84-.83,.84Z"/><path class="cls-7" d="M115.94,223.13h-48.21c-.42,0-.83-.42-.83-.83s.42-.84,.83-.84h48.21c.42,0,.83,.42,.83,.84s-.21,.83-.83,.83Z"/><path class="cls-1" d="M169.78,192.88l6.68,11.68h-13.35l6.68-11.68Z"/><path class="cls-2" d="M87.56,217.5l-.83,9.39s1.04,3.55,.83,7.09c-.21,3.55-.83,8.56-.83,8.56l-37.98-.21s.42-6.68,5.22-8.76c4.8-2.09,11.89-3.96,11.89-3.96l2.3-4.38,1.46-10.22s-1.04-1.46-.83-2.92c0-1.46,.42-7.3,1.46-8.14,1.04-.83,1.25-1.67,1.25-1.67l3.97-28.38s-.83,6.05-2.92,6.68c-2.09,.42-2.92,.63-2.92,.63l-10.43,20.66s-16.69-1.88-22.33-5.01c-5.43-3.13-10.23-8.14-9.81-11.06,.42-3.13,1.67-4.8,3.76-5.01,2.09-.21,12.94,1.67,12.94,1.67l6.89-2.71,4.17-6.05s-1.04-3.13,.63-6.68c1.67-3.55,4.8-6.89,4.8-6.89,0,0,12.94-26.29,15.44-30.26,2.5-3.96,6.47-5.01,9.18-5.84,2.5-.83,13.56-36.1,13.56-36.1,0,0,4.17-9.18,8.14-11.89,3.96-2.5,4.8-3.34,4.8-3.34,0,0-5.01-1.04-5.01-4.59,0-3.76,1.88-6.68,1.88-6.68,0,0-.83-3.34-.21-4.38,.63-1.25,.63-1.67,.63-1.67l-2.09-3.96,.63-2.5s-3.34,.42-5.01-.83c-1.67-1.25-2.3-1.88-1.67-2.5,.63-.63,4.8-2.5,4.8-2.5,0,0-2.09-3.55-1.04-3.76,1.25-.21,6.26-.21,9.18-1.67,2.71-1.46,3.55-2.71,6.68-2.09,3.13,.63,11.48,1.25,13.56,7.72,2.09,6.47,2.3,8.97,.42,12.31-1.88,3.34-4.59,5.63-4.59,5.63l-.21,3.55s1.04,5.43,4.17,5.63c3.13,.21,12.31-1.46,16.7,0,4.17,1.46,9.6,1.46,14.19,14.61,4.59,13.15,12.1,30.05,11.48,33.18-.63,3.34-2.09,5.84-4.17,7.3-3.55,2.29-7.51,1.46-7.51,1.46,0,0,3.76,12.94,4.17,20.24,.63,7.09,.21,16.07-9.81,22.12-10.23,6.05-30.89-3.13-30.89-3.13l-26.29,.84-10.43,38.6s1.67,.83,1.04,6.68c-.83,6.89-4.38,5.22-4.38,5.22Z"/><path class="cls-6" d="M118.44,52.24c.63,0,1.04,.42,1.04,1.04v1.25c0,.63-.42,1.04-1.04,1.04s-1.04-.42-1.04-1.04v-1.25c0-.63,.42-1.04,1.04-1.04Z"/><path class="cls-6" d="M118.65,130.07l21.08,5.84,27.34,1.46-1.46-9.39s10.64-2.5,9.6-10.22c-1.04-7.93-12.1-37.98-14.61-41.11-2.71-3.13-7.1-6.47-11.9-6.68-4.8-.21-10.23,.21-10.23,.21,0,0-1.25,7.93-9.6,9.39-8.35,1.46-9.6,1.25-10.43-1.04-.83-2.5,.83-6.47,.83-6.47,0,0-5.43,.63-7.1,1.46-1.88,.83-7.93,3.96-11.48,11.06-3.55,7.09-3.55,7.3-3.55,7.3l9.81,26.08,3.13-4.38s-1.25-.83-.21-5.01c1.04-3.96,4.38-8.35,4.38-8.35l-1.25-.63s-4.17,3.34-5.84,3.13c-1.46-.42-.63-2.5,1.88-4.8,2.3-2.3,3.76-2.92,6.47-1.46,2.71,1.46,12.73,8.35,12.73,8.35l29.21,5.84s3.97,1.88,4.38,7.93c.63,6.05-1.25,8.56-1.25,8.56l-29.63-9.81s-2.92,1.67-6.05,0c-3.13-1.67-5.01-3.55-5.01-3.55l-4.38,2.5,1.46,6.05,1.67,7.72Z"/><path class="cls-2" d="M111.56,100.03l37.56-1.88,8.35,18.78-42.15-.21-3.76-16.69Z"/><path class="cls-2" d="M145.78,92.1l17.95-8.56,5.84,13.56-18.36,7.09-5.43-12.1Z"/><path class="cls-2" d="M97.37,90.22l13.77,6.26,2.92,12.73-8.76,3.96-12.1-12.52,4.17-10.43Z"/><path class="cls-6" d="M110.93,52.87c.63,0,1.04,.42,1.04,1.04v1.25c0,.63-.42,1.04-1.04,1.04s-1.04-.42-1.04-1.04v-1.25c0-.42,.42-1.04,1.04-1.04Z"/><path class="cls-3" d="M125.96,59.13s.42,9.6-5.64,11.89c-6.05,2.3-7.51,1.88-9.81,1.04-2.29-.83-4.8-1.88-4.59-5.01,.21-3.13-.83-5.63,3.34-6.68,4.17-1.04,8.76-1.88,9.81-1.46,1.04,.42,3.34,1.88,3.34,1.88,0,0,0-4.59,.84-7.09,.83-2.5,1.25-4.38,.63-6.05-.63-1.67-.83-3.34-1.67-3.13-.83,.21-5.22,1.67-7.51,1.67s-5.43-1.25-5.43-1.25l-1.46,3.34s-1.46,1.04-3.34,.21c-2.09-.83-3.76-2.5-3.55-3.13,.21-.83,5.22-3.34,5.22-3.34,0,0-1.25-1.67-.84-2.5,.63-.83,6.05-.83,7.72-2.09,1.67-1.25,4.8-2.5,6.47-2.71,1.67,0,3.97,1.46,3.97,1.46,0,0,3.13,.21,3.96,.63,2.09,.83,6.47,2.92,7.72,8.14,1.25,5.22,.63,7.72,.21,9.81-.63,2.09-5.22,7.72-5.22,7.72l-4.17-3.34Z"/><path class="cls-6" d="M68.36,223.97l18.16,.42-.42,2.92,.63,3.76s-2.09,1.46-3.55,3.76c-1.46,2.29-3.13,4.59-3.13,4.59h-16.49s.21-3.55-1.46-5.01c-1.67-1.67-2.92-2.5-2.92-2.5l7.1-2.5,1.46-2.92,.63-2.5Z"/><path class="cls-6" d="M37.48,181.4s1.88,1.46,2.3,5.01c.42,3.55,.63,7.3,.63,7.3l15.23,3.96s1.67-1.67,3.76-2.5c1.88-.83,4.17-1.25,4.17-1.25l3.76-7.51s-4.59,.83-8.56-1.46c-4.17-2.29-5.63-3.76-6.05-4.59-.63-.83-1.04-2.09-1.04-2.09l-1.25,1.67-6.47,2.71-6.47-1.25Z"/><path class="cls-3" d="M58.97,164.08l14.61-31.72s3.76-10.64,15.65-8.55c11.89,2.09,53.63,12.94,53.63,12.94l24.21,.63s3.13,14.19,2.29,18.15c-.83,3.96-8.14,16.07-17.74,15.65-9.6-.21-22.12-5.01-22.12-5.01l-27.96,.84-10.02,38.18-19.82-2.5,3.96-31.09s-3.34,1.46-8.97-.83c-5.63-2.5-7.72-6.68-7.72-6.68Z"/><path class="cls-6" d="M118.03,72.9c-2.71,.83-5.22,.83-7.51,1.88-2.09,1.04-3.76,2.5-5.22,3.96-3.13,3.13-4.59,7.51-6.47,12.1-3.13,7.72-6.26,15.44-9.18,23.16-.42,1.04-.83,3.13-1.88,2.92-1.25-.21,0-2.29,.21-2.92,2.92-7.09,5.43-14.19,8.35-21.28,1.67-4.17,3.13-8.14,5.22-11.68,2.09-3.55,5.22-6.05,8.97-7.93-1.88-.83-2.92-1.25-3.96-2.5-1.46-1.88-1.25-6.26,0-8.14,.21-.21,.42-.42,.63-.83,.21-.21,.63-.63,.63-.83,0-.42-.21-1.04-.42-1.67,0-.83,.21-1.67,.42-2.5,.21-.63,1.04-2.5,1.88-1.25,.63,.83-.63,2.09-.63,3.13,0,.63,.21,.83,.21,1.46,.42,0,1.04-.21,1.67-.42,.21-.21-.21-.42-.42-.63-.83-1.25,1.04-2.09,1.46-2.92,.83-1.67-.42-3.76-1.46-4.17-.63-.21-1.46-.21-2.5-.21-.83,0-2.09,.21-2.3-.42-.21-.63,.21-1.04,.42-1.67-2.09,0-3.13-.63-4.38-1.67-.63-.63-1.88-1.46-1.88-2.5s1.25-1.67,2.09-2.09c1.04-.42,1.88-.83,2.92-1.25-.42-.83-1.25-2.71-.21-3.55,.63-.63,2.5-.63,3.76-.83,2.71-.42,4.59-1.25,6.68-2.09,1.04-.42,2.09-1.04,3.13-1.25,2.5-.63,5.01,.83,7.1,1.46,2.29,.63,4.59,1.25,6.26,2.5,3.13,2.09,5.22,7.09,5.22,12.31s-2.71,9.18-6.05,11.48c-.21,.63,0,1.67-.42,2.3,.63,1.67,1.04,3.55,2.5,4.38,1.25,.63,3.55,.63,5.22,.42,1.88,0,3.96-.21,5.43-.42,1.88-.21,3.76-.21,5.43,0,4.8,.83,8.97,2.92,11.48,6.05,1.67,2.09,2.92,4.8,3.96,7.51,3.34,8.14,6.68,16.48,9.6,25.25,.42,1.25,1.04,2.71,1.46,4.38,.42,1.46,1.04,3.13,1.25,4.59,.21,3.34-1.25,6.05-2.92,7.72-1.67,1.88-4.17,2.92-7.3,3.34,1.25,6.47,2.5,12.94,3.34,19.61,.21,1.67,.42,3.55,.63,5.22,0,1.88-.42,3.55-.84,5.01-.84,3.13-2.3,5.22-4.17,7.3-3.55,3.76-8.56,7.09-16.28,6.68-6.26-.21-11.27-2.09-16.28-3.76-.63-.21-1.46-.63-2.09-.83-1.04-.21-2.29,0-3.55,0-3.55,.21-7.3,0-10.64,0-4.8,.21-9.39,0-14.19,.21-3.13,11.27-6.05,23.79-9.18,35.47-.21,.83-.63,1.88-.63,2.29s.63,.83,.83,1.46c.63,1.46,0,3.34-.21,5.01-.21,1.25-.21,2.71-.63,3.76-.42,1.67-2.09,2.71-4.17,2.3-.21,2.09-.42,4.17-.63,6.26-.21,2.3,0,4.38,.42,6.26,.42,1.88,.63,3.76,.42,6.26,0,.84-.21,1.88-.42,3.13,0,.83-.21,2.5-.83,2.92-1.04,.42-3.34,0-4.8,.21-5.01,.21-9.6,.21-14.61,.21s-9.81,.21-14.82,.21c-1.46,0-4.38,.42-4.59-.42-.21-.83,.63-2.5,.83-3.13,1.04-3.13,2.3-5.84,5.01-7.1,2.09-1.04,4.17-1.04,6.26-1.88,2.09-.84,3.96-1.46,5.84-2.3,.42-1.04,1.04-2.09,1.46-3.13,.21-.83,.21-1.67,.42-2.71,.21-2.09,.63-4.17,1.04-6.68,0-.42,.21-1.04,.21-1.25,0-.42-.63-1.04-.83-1.46-.42-1.25,0-3.13,.42-4.59,.42-2.5,.42-5.01,2.3-6.05,1.04-7.72,2.3-15.65,3.34-23.16-.21,0-.42,.21-.63,.63-.63,.63-1.46,1.25-2.92,1.25-3.13,6.05-6.05,12.31-9.18,18.57-.42,.84-1.04,2.29-1.67,2.5-.63,.21-2.3-.21-3.34-.21-3.55-.42-6.47-1.04-9.39-1.67-3.96-1.04-7.93-2.09-11.27-3.55-3.13-1.46-6.26-4.17-8.14-6.89-1.04-1.46-1.88-3.34-1.04-5.63,.42-1.67,1.67-3.55,3.13-4.17,1.04-.42,2.5-.42,3.76-.21,3.34,.21,5.84,.83,8.97,1.46,.42,.21,1.25,.42,1.67,.42s1.04-.42,1.46-.63c1.04-.42,1.88-.83,2.92-1.25,.42-.21,1.04-.42,1.46-.63,.42-.21,.63-1.04,1.04-1.46,1.04-1.67,2.09-3.13,3.13-4.59-1.04-2.09,0-4.8,.83-7.1,1.04-2.5,1.88-5.01,4.59-5.84,4.59-9.18,8.76-19.2,13.77-27.96,2.5-4.59,5.01-8.76,11.48-9.39,6.89-.63,12.52,1.25,18.16,2.5,.63-1.04,1.25-2.09,1.67-3.34,1.67-3.34,3.34-6.47,5.01-9.81-.21-.63-.42-.83-.63-1.46-.63-2.29,.21-4.38,1.04-6.26,.83-2.09,1.67-3.55,2.92-4.59-.42,0-.83,.42-1.04,.63-.42,.21-.63,.63-1.04,.83-.63,.42-1.46,1.25-2.09,1.46-1.25,.42-2.92-.21-3.13-1.25-.21-1.25,1.25-2.5,1.88-3.13,.83-.83,1.46-1.67,2.29-2.71-.21-.63-.42-1.04-.42-1.67-.21-.42-.21-1.04-.42-1.67-.42-.63-1.88-1.25-1.67-2.3,0-.21,.21-.63,.63-.63,.63,0,1.04,.63,1.46,.83,.42,.42,.83,.63,1.04,1.04,.42,1.04,.42,2.09,.83,3.13,.83-.42,1.67-1.04,2.92-.83,1.46,.21,2.92,1.25,4.17,2.09,3.13,1.88,6.05,4.17,9.18,6.26,.63,.42,1.25,1.04,1.88,1.25,.83,.21,1.88,.42,2.92,.63,6.89,1.25,13.98,2.5,20.87,3.76-1.88-4.17-4.38-9.18-6.68-13.56-.21-.63-1.46-2.3-.21-2.5,.83,0,1.04,1.04,1.46,1.67,2.3,5.01,5.01,9.81,7.3,14.81,1.04,.21,2.29,.42,3.76,.63,1.04,.21,3.13,.21,3.13,1.25,0,.83-.83,.83-1.67,.63,1.04,1.46,1.88,3.55,2.29,6.05,.63,2.92,.63,6.89-.63,8.97,3.96,1.04,7.93-.42,10.02-2.3,1.25-1.04,2.09-2.5,2.5-4.17,.21-.83,.42-1.88,.42-2.92,0-.83-.42-1.67-.63-2.5-1.88-6.68-4.59-13.15-6.89-19.41-1.04-3.13-2.29-6.26-3.55-9.6-1.25-3.13-2.51-6.26-4.38-8.76-1.67-2.5-4.59-4.17-7.93-5.22-1.67-.42-3.55-.83-5.63-.83s-3.96,.21-6.05,.42c-1.88,3.76-4.8,7.51-9.39,9.18-2.3,.83-5.63,1.04-8.35,.63-1.46-.21-2.5-.42-3.34-1.46-.63-.83-1.25-1.88-1.25-3.34-1.04-.42-.63-1.04-.21-2.09Zm11.89-12.31c2.5-1.88,4.8-5.22,4.8-9.39,.21-3.13-.63-6.05-1.88-8.56-.63-1.04-1.25-2.09-2.29-2.92-1.88-1.46-4.8-2.09-7.51-2.92-1.25-.42-2.92-1.04-4.38-.83-1.04,.21-2.09,.83-3.13,1.25-1.04,.42-2.09,.83-3.13,1.25-2.09,.83-4.38,1.25-7.1,1.46-.21,1.46,1.25,1.88,1.25,2.92,0,.83-1.88,1.04-2.5,1.46-1.04,.42-1.88,.83-2.71,1.25,1.25,1.46,2.5,2.92,5.43,2.5,.21-.83,1.04-1.46,1.25-2.3,.21-.42,0-.83,.42-1.04,.63-.42,1.25,0,1.67,0,1.88,.42,3.76,.63,5.63,.21,2.09-.21,3.55-.42,5.22-1.04,.63-.21,1.04-.63,1.67-.42,1.25,.21,1.67,2.5,2.09,3.96,.42,1.67,.42,3.55,0,5.01-.42,1.46-.83,2.92-1.04,4.8,0,.63-.21,1.88-.21,2.71,0,1.04,0,2.09-.83,2.09-.63,0-1.25-.83-1.88-1.04-.63-.42-1.25-.83-1.88-1.04-1.88-.42-3.76,.21-5.63,.42-.63,0-1.46,.21-2.09,.42-.63,.21-1.67,.21-2.09,.63-.42,.21-1.04,1.04-1.25,1.46-.63,1.25-1.04,4.38-.21,6.05,.21,.42,.63,.83,.83,1.04,1.67,1.46,4.38,2.09,7.1,1.67,2.5-.42,4.8-1.25,6.47-2.5,2.09-1.88,2.92-4.8,3.34-7.93,.21-2.09,.42-5.22,.63-7.72,0-.42-.21-.63,0-1.46,.21-1.04,1.88-.83,1.46,.63,2.09-.83,4.17,.42,4.8,1.88,1.04,2.3-.83,4.59-2.09,5.63-.21,.21-.84,.21-.84,.63,0,.21,.42,0,.63-.21Zm-7.72-5.43c.21-1.46,.84-2.92,1.04-4.17,.21-2.09-.63-3.96-1.25-5.63-3.34,1.04-8.56,2.3-12.73,1.04-.63,1.25-1.46,2.5-1.88,3.96,.83,0,1.46-.21,2.09,0,2.5,.21,4.38,2.5,3.96,5.22,0,1.04-.63,1.88-1.04,2.3-.21,.21-.63,.63-.63,.63,0,.21,.63,.42,.83,.63,1.46-.21,3.34-.63,5.01-.63s2.92,.83,3.96,1.46c.21-1.67,.21-3.34,.63-4.8Zm8.56,14.4c-1.67-1.67-2.29-4.17-2.92-6.89-.21-.83-.63-2.09-.42-2.71,.21-.42,.83-.63,1.25-1.04,1.04-.63,2.09-1.67,1.88-3.34-.21-1.46-2.51-2.09-3.55-1.04v1.04c.63-.21,2.71-1.67,2.71-.21,0,.63-.83,.83-1.25,1.04-.63,.21-1.04,.63-1.67,.83-.21,5.43-1.04,10.22-4.17,12.94,.21,.42,.83,1.04,1.04,1.88,0,.83-.42,2.09-1.25,2.09-.42,0-.83-.21-.83-.83,0-.42,.42-.63,.42-1.25,0-.42-.42-.63-.63-1.04-.63,.42-1.25,.63-1.88,1.04-.21,1.46-.83,2.09-1.04,3.55,0,1.04,.42,2.3,1.25,2.71,.63,.42,1.88,.42,2.71,.63,3.34,.21,6.47-.21,8.35-1.46,3.13-1.67,5.22-3.96,6.47-6.89-2.5,.42-5.22,.42-6.47-1.04Zm30.47,52.79c.42-4.17-.83-8.56-2.71-10.64-1.25-1.25-3.13-1.25-5.22-1.67-5.64-1.04-11.48-2.09-17.11-3.13-2.3-.42-4.59-1.04-6.89-1.25h-.83c-.42,0-1.25-.84-1.88-1.25-3.76-2.71-7.3-5.43-11.27-7.72-.63-.42-1.88-1.04-2.5-.83-1.46,.42-2.3,1.67-3.34,2.92-.83,1.04-1.88,1.88-2.3,2.92,1.25,.42,1.88-.63,2.92-1.25,.42-.21,.83-.63,1.25-1.04,.42-.42,.83-.83,1.25-.83,.83,0,1.04,.63,1.46,.83,.42-.42,2.3-1.46,2.3,0,0,.63-1.46,1.46-2.09,1.88-1.67,1.25-2.29,2.71-3.13,4.8-.63,1.46-1.04,2.92-.83,4.8,.83-1.46,1.46-3.13,2.71-4.8,.42-.63,1.04-1.25,1.88-1.88,.42-.42,1.46-1.67,2.09-1.67,.42,0,.63,.42,.63,.83,0,.63-1.46,1.67-1.88,2.09-.63,.63-1.46,1.46-1.88,2.09-1.25,1.67-1.88,3.34-2.71,5.22,.42,.63,.83,1.04,1.25,1.46,.83-1.67,1.46-3.34,2.92-4.8,.63-.63,1.25-1.04,2.09-1.88,.42-.42,1.46-1.46,2.29-1.46,.42,0,.63,.42,.63,.83s-.42,.83-.83,1.04c-1.25,.83-2.29,1.67-3.13,2.5-1.04,1.25-1.67,2.71-2.5,4.17,0,.21-.21,.42-.21,.63,.83,.42,1.46-.21,2.09-.63,1.25-.84,2.3-1.88,3.34-2.92,.63-.42,1.04-1.46,1.88-1.25,.42,0,.63,.42,.63,.83,0,1.04-1.46,1.25-1.67,2.09,1.88,1.04,3.34,2.5,5.43,3.13,.83,.21,1.67,.21,2.5,.21s1.67-.21,2.71-.21c.42,0,1.04,.42,1.67,.63,8.97,3.13,17.95,6.47,27.13,9.18,1.67-1.46,1.67-2.71,1.88-3.97Zm-44.87-6.47c1.04,4.8,2.5,9.18,3.55,13.98,6.05,1.46,12.31,3.34,18.36,4.8,.83,.21,1.88,.63,2.71,.63,2.09,.21,4.17,.21,6.26,.21,6.47,.21,12.52,.63,18.99,.63-.42-2.92-1.04-5.42-1.46-8.35h-1.46c-2.92-.42-5.63-1.46-8.35-2.29-7.51-2.3-14.61-5.01-21.91-7.51-.63-.21-1.46-.63-2.09-.63s-1.25,.21-1.67,.21c-2.29,0-3.55-.21-5.01-.83-1.67-.83-3.13-1.88-4.8-2.92-1.25,.63-2.09,1.46-3.13,2.09Zm-5.63-2.09c-2.09,3.97-4.17,8.14-6.26,12.1,4.59,1.04,9.18,2.5,13.77,3.34-1.04-4.17-2.29-8.56-3.34-12.94-2.3,.21-2.92-1.46-4.17-2.5Zm36.1,23.37c-.83,0-2.09-.21-2.71-.21-.42,.21-.42,.42-1.04,.63-.42,0-1.04-.21-1.67-.42-1.88-.42-3.55-.84-5.22-1.46-11.69-3.13-22.96-6.26-34.85-9.18-4.8-1.04-9.6-2.5-15.44-2.3-2.71,.21-4.8,.83-6.47,2.09-1.46,1.25-2.5,2.92-3.55,4.59-1.04,1.67-2.09,3.34-2.92,5.22-3.76,7.3-7.3,14.82-10.85,22.33-.83,1.88-1.88,3.76-2.5,5.84,1.67,2.09,3.97,3.55,6.68,4.8,2.3,1.04,5.84,2.5,9.18,1.67,.42-2.09,.63-4.38,1.04-6.47,.42-2.09,.63-4.38,1.46-6.26,1.46-3.55,4.17-5.84,7.93-7.3-.83-.42-2.71-.42-2.5-1.67,0-.63,.83-.63,1.46-.42,1.67,.63,3.34,1.25,4.8,1.88,15.23,5.43,30.26,11.06,45.49,16.28,2.29,.83,4.38,1.46,6.89,2.09,2.5,.42,5.01,.84,7.93,1.04,5.63,.21,9.81-2.09,12.73-4.8,3.13-2.92,5.43-6.05,5.84-11.89,0-1.25-.21-2.71-.42-4.17-.42-3.97-1.04-7.51-1.88-11.48-6.26,0-12.94-.21-19.41-.42Zm-53.84,16.69c-1.67-.63-3.13-1.25-4.8-1.67h-.21c-2.3,.63-4.17,1.25-5.63,2.5s-2.71,2.71-3.34,4.8c-.63,2.09-1.04,4.38-1.46,6.89-1.88,11.89-3.55,24.21-5.22,35.89,6.05,.83,12.31,1.67,18.36,2.5,3.13-11.89,6.05-24.41,9.18-36.51,.21-.83,.42-1.88,.83-2.09,.63-.21,2.09,0,3.13,0,7.51,0,14.82-.21,22.12-.21-11.06-4.17-22.12-8.35-32.97-12.1Zm-37.56,15.65c-.21,.63-.42,1.67-.21,2.29,.21,.84,1.46,2.09,2.5,2.92,1.04,.83,2.09,1.67,3.13,2.09,2.5,1.46,5.01,2.5,7.93,2.71,.83,0,1.88,0,2.5-.21,1.25-.42,2.09-2.29,2.71-3.34,.21-.42,.63-.83,.63-1.25,.21-.63,0-1.25,.42-2.09-2.3,.42-4.59,0-6.47-.63-4.59-1.46-8.76-4.17-10.85-7.72-.83,1.46-1.88,3.34-2.3,5.22Zm-.42,5.01c-.42,.63-.83,1.25-1.25,1.88-.63,1.04-1.46,1.67-1.04,2.92,.21,.84,1.25,1.88,2.09,2.5,2.5,2.29,7.72,5.01,11.89,3.34,.63-1.25,1.25-2.5,1.88-3.96-5.84-.84-10.02-3.34-13.56-6.68Zm1.88,10.64c-2.09-1.25-4.17-2.92-5.22-5.01-.42,.63-1.25,.83-2.09,1.04-1.25,.42-2.3,.84-3.34,1.46-.63,.21-1.25,.63-1.67,.63-.83,0-1.67-.21-2.5-.42-.83-.21-1.67-.42-2.5-.63,1.67,2.5,2.71,6.26,2.09,10.64,3.96,1.04,8.35,2.29,12.31,3.34,.63,.21,1.46,.63,1.88,.42,.21,0,.63-.42,.83-.63,2.09-1.67,4.17-2.71,6.89-3.55,.83-1.88,1.88-3.55,2.5-5.43-3.97,.63-6.89-.42-9.18-1.88Zm.42,12.1c-.42,.42-1.04,1.04-1.46,1.04-.63,0-1.46-.21-2.09-.42-3.55-.83-6.68-1.88-10.23-2.71-1.04-.21-3.55-.63-3.76-1.46-.21-.42,0-1.04,0-1.67s0-1.25,.21-1.88c0-2.71-.42-4.38-1.46-6.05-.21-.42-1.04-2.09-1.46-2.29-.21-.21-.83-.21-1.25-.21-1.25-.21-3.13-.42-4.38-.42-1.25,.21-2.09,1.04-2.71,2.09-.42,.83-.83,2.09-.83,3.13,.21,1.67,1.46,2.92,2.5,3.96s1.88,1.88,2.92,2.71c2.3,1.67,4.8,2.71,7.51,3.55,6.05,1.88,11.48,3.13,18.57,3.76,1.04-2.09,2.09-3.96,2.92-6.05-2.09,.83-3.55,1.88-5.01,2.92Zm13.36,7.51c-.42,.83-.42,2.5-.63,3.96-.21,1.46-.63,3.13-.21,4.17,.42,1.04,1.46,1.04,2.92,1.25,4.8,.63,9.39,1.25,14.4,1.88,.83,.21,1.88,.42,2.5,.21,1.25-.21,1.25-1.46,1.46-2.92,.21-1.46,.42-2.71,.63-3.96,.21-.84,.21-1.46,.21-2.09-.42-1.04-1.46-1.04-2.92-1.25-2.5-.42-4.8-.63-7.1-1.04-2.5-.42-4.59-.63-7.1-1.04-.83-.21-1.88-.42-2.5-.21-.83,.21-1.46,.63-1.67,1.04Zm-1.25,17.94h16.49c.21-1.67,.21-3.34,.42-5.01-5.22-.63-10.64-1.46-15.86-2.09-.42,2.09-.63,4.59-1.04,7.1Zm-.21,1.88c0,1.46-.63,2.09-1.04,3.13-.21,.63-.42,1.46-.83,1.88-.21,.21-1.04,.42-1.46,.63-1.46,.63-2.92,1.25-4.38,1.67,1.67,1.67,2.71,4.38,3.76,6.89,5.01,0,10.02-.21,15.03-.21,1.25-2.5,2.92-4.38,4.59-6.26,.42-.42,1.46-1.46,1.67-2.09,0-.42-.21-.84-.21-1.25-.21-1.46-.21-2.71-.21-4.38-5.84-.21-11.27-.21-16.9,0q0-.21,0,0Zm17.32,7.51c-1.46,1.67-3.13,3.55-4.38,5.84-.42,.63-.83,1.88-1.46,1.88-.42,.21-1.25,0-2.09,0h-2.09c-2.92,0-5.22,.21-8.35,.21-.83,0-3.34,.42-4.17,0-.42-.21-.42-.83-.63-1.25-.83-1.88-1.46-3.96-2.71-5.22-.42-.42-.63-.84-1.04-1.04-2.5,.63-5.01,1.04-6.68,2.71-1.46,1.67-2.09,4.17-2.92,6.68,12.1-.21,24-.21,36.1-.42,.63-2.92,1.04-6.47,.42-9.39Z"/><path class="cls-6" d="M117.61,48.9h1.46c.83,.21,2.3,.83,2.3,1.67,0,.42-.21,.63-.63,.83-.83,0-1.46-.83-2.3-.83s-1.46,.21-1.88,.42c-.63,.21-2.3,1.04-2.3-.21,0-.83,1.46-1.25,2.3-1.46,.42-.42,.83-.42,1.04-.42Z"/><path class="cls-6" d="M116.98,60.59c.42-.21,1.04,0,1.04,.63,0,.83-1.04,1.67-1.88,2.09-.63,.21-3.55,.63-2.92-.83,.21-.63,1.88-.21,2.5-.63,.83-.63,.63-1.04,1.25-1.25Z"/><path class="cls-6" d="M129.92,49.11c2.92,0,5.43,2.92,5.43,6.47s-2.29,6.47-5.22,6.47-5.43-2.92-5.43-6.47,2.3-6.47,5.22-6.47Z"/><path class="cls-6" d="M116.57,35.34c-.63,.21,7.51-1.25,10.85,7.51,2.09,5.22,.83,8.14,.83,8.14l2.09-.21s0-5.01-1.04-9.6c-1.25-5.22-7.3-6.26-7.3-6.26l-5.43,.42Z"/><path class="cls-2" d="M62.93,121.52h66.78c1.46,0,2.71,1.25,2.71,2.71v3.13c0,1.46-1.25,2.71-2.71,2.71H62.93c-1.46,0-2.71-1.25-2.71-2.71v-3.13c0-1.46,1.25-2.71,2.71-2.71Z"/><path d="M129.71,130.7H62.93c-1.88,0-3.34-1.46-3.34-3.34v-3.13c0-1.88,1.46-3.34,3.34-3.34h66.78c1.88,0,3.34,1.46,3.34,3.34v3.13c0,1.88-1.46,3.34-3.34,3.34Zm-66.78-8.35c-1.04,0-1.88,.83-1.88,1.88v3.13c0,1.04,.83,1.88,1.88,1.88h66.78c1.04,0,1.88-.83,1.88-1.88v-3.13c0-1.04-.84-1.88-1.88-1.88H62.93Z"/><path class="cls-2" d="M46.66,90.01h52.8c1.46,0,2.92,1.04,3.55,2.3l11.48,29.63c.42,1.25-1.46,3.96-2.92,3.96H58.55c-1.46,0-2.92-1.04-3.55-2.3l-11.27-29.63c-.42-1.25,1.46-3.96,2.92-3.96Z"/><path d="M111.56,126.53H58.55c-1.88,0-3.55-1.25-4.17-2.71l-11.48-29.63c-.42-1.04,.42-2.5,.63-2.92,.63-1.04,1.88-2.09,2.92-2.09h52.8c1.88,0,3.55,1.25,4.17,2.71l11.48,29.63c.42,1.04-.42,2.5-.63,2.92-.42,1.04-1.67,2.09-2.71,2.09ZM46.66,90.64c-.42,0-1.04,.42-1.67,1.46-.42,.83-.63,1.25-.63,1.46l11.48,29.63c.42,.84,1.67,1.67,2.71,1.67h52.8c.42,0,1.04-.42,1.67-1.46,.42-.63,.63-1.25,.63-1.46l-11.48-29.63c-.42-.83-1.67-1.67-2.71-1.67H46.66Z"/><path class="cls-6" d="M76.29,106.49c2.3,0,4.8,1.88,5.63,4.17,.63,2.29-.63,4.17-2.92,4.17s-4.8-1.88-5.63-4.17c-.83-2.3,.42-4.17,2.92-4.17Z"/><path class="cls-3" d="M71.28,137.79s5.43-14.4,14.61-13.98c9.18,.21,35.89,7.51,35.89,7.51l-11.69,4.17-38.81,2.5v-.21Z"/><path class="cls-6" d="M102.79,125.48c-5.43-1.25-11.27-3.13-18.16-2.5-6.47,.63-8.97,4.8-11.48,9.39-2.71,4.8-5.22,10.02-7.72,15.23h1.88c1.88-3.76,3.55-7.3,5.43-11.06,.83-1.88,1.88-3.55,2.92-5.22,1.04-1.88,2.09-3.34,3.55-4.59,1.67-1.25,3.76-1.88,6.47-2.09,5.63-.21,10.64,1.04,15.44,2.29,5.01,1.25,18.57,4.8,23.37,6.05l1.46-1.25c-3.76-.84-17.74-4.59-21.5-5.63-.83-.42-1.04-.42-1.67-.63Z"/><path class="cls-6" d="M112.81,95.85c.63-.21,1.88,.42,2.5,.83,4.17,2.3,7.72,5.01,11.27,7.72,.63,.42,1.25,1.25,1.88,1.25h.83c2.09,.21,4.59,.83,6.89,1.25,2.09,.42,4.38,.83,6.47,1.25v-1.67c-3.55-.63-7.3-1.25-10.85-1.88-1.04-.21-2.09-.21-2.92-.63-.63-.21-1.25-.83-1.88-1.25-3.13-2.3-6.05-4.38-9.18-6.26-1.25-.83-2.71-1.88-4.17-2.09-1.25-.21-2.09,.42-2.92,.83-.42-.83-.42-2.09-.83-3.13,0-.21-.21-.42-.42-.63h-2.3c.42,.42,1.25,.83,1.46,1.46,.21,.63,.21,1.25,.42,1.67,.21,.63,.21,1.04,.42,1.67-.83,.83-1.46,1.67-2.3,2.71-.63,.63-1.88,1.88-1.88,3.13,.21,1.04,1.88,1.67,3.13,1.25,.63-.21,1.46-1.04,2.09-1.46,.42-.21,.63-.63,1.04-.83,.42-.21,.63-.63,1.04-.63-1.25,1.04-2.09,2.71-2.92,4.59-.63,1.67-1.67,3.96-1.04,6.26,.21,.63,.42,.83,.63,1.46,.42,.63,.63,1.04,1.04,1.46,1.25,1.04,1.88,2.71,4.17,2.71,0,.42,.21,.63,.21,1.04v-.21c.42-.42,.83-.63,1.25-.83,0-.21-.21-.42-.21-.83,1.04-.63,1.88-1.46,2.92-2.09,1.67,1.25,3.13,2.09,4.8,2.92,1.46,.63,2.71,1.04,5.01,.83,.63,0,1.04-.21,1.67-.21s1.25,.42,2.09,.63c3.34,1.25,6.47,2.29,9.81,3.55v-1.88c-3.34-1.25-6.68-2.29-9.81-3.55-.63-.21-1.25-.63-1.67-.63-.84-.21-1.88,.21-2.71,.21s-1.67,0-2.5-.21c-2.09-.63-3.55-2.09-5.43-3.13,.42-.83,1.67-1.04,1.67-2.09,0-.42-.21-.83-.63-.83-.63,0-1.25,.83-1.88,1.25-1.04,1.04-2.09,2.09-3.34,2.92-.63,.42-1.46,1.04-2.09,.63,0-.21,0-.42,.21-.63,.63-1.46,1.46-2.92,2.5-4.17,.83-.83,1.88-1.67,3.13-2.5,.42-.21,.83-.63,.83-1.04s-.21-.63-.63-.84c-.83-.21-1.88,1.04-2.29,1.46-.83,.63-1.46,1.25-2.09,1.88-1.46,1.46-2.09,3.13-2.92,4.8-.63-.42-.83-.83-1.25-1.46,.83-1.67,1.46-3.55,2.71-5.22,.42-.63,1.25-1.25,1.88-2.09,.42-.42,1.88-1.46,1.88-2.09,0-.21-.42-.63-.63-.83-.83,0-1.67,1.25-2.09,1.67l-1.88,1.88c-1.25,1.67-1.88,3.34-2.71,4.8-.42-1.88,.21-3.13,.83-4.8,.83-2.09,1.46-3.34,3.13-4.8,.63-.42,1.88-1.25,2.09-1.88,0-1.46-1.88-.42-2.3,0-.63-.21-.83-.83-1.46-.83-.42,0-.83,.63-1.25,.83-.42,.42-.83,.63-1.25,1.04-.83,.63-1.67,1.67-2.92,1.25,.42-.83,1.46-1.88,2.3-2.92,1.04-.42,1.88-1.67,3.34-2.09Z"/></g></g></svg>