<?xml version="1.0" encoding="UTF-8"?><svg id="Camada_1" xmlns="http://www.w3.org/2000/svg" xmlns:xlink="http://www.w3.org/1999/xlink" viewBox="0 0 1440 1162"><defs><style>.cls-1{fill:#262626;}.cls-2{fill:blue;}.cls-3{clip-path:url(#clippath);}.cls-4{fill:none;}</style><clipPath id="clippath"><rect class="cls-4" y="0" width="1440" height="320"/></clipPath></defs><g class="cls-3"><g><path class="cls-2" d="M0,256l48-26.7c48-26.3,144-80.3,240-74.6,96,5.3,192,69.3,288,64,96-5.7,192-79.7,288-90.7s192,43,288,69.3c96,26.7,192,26.7,240,26.7h48v96H0v-64Z"/><path class="cls-1" d="M0,239H48c48,0,144,0,240-26.7,96-26.3,192-80.3,288-80,96-.3,192,53.7,288,85.4,96,32.3,192,42.3,288,16,96-26.7,192-90.7,240-122.7l48-32V367H0V239Z"/></g></g><rect class="cls-1" y="317" width="1440" height="539"/><path class="cls-2" d="M0,1133l40-10.7c40-10.3,120-32.3,200-74.6,80-42.7,160-106.7,240-122.7s160,16,240,64,160,112,240,101.3c80-10.3,160-96.3,240-112,80-16.3,160,37.7,200,64l40,26.7v-224H0v288Z"/><path class="cls-1" d="M1440,1066l-40-26.7c-40-26.3-120-80.3-200-112-80-32.3-160-42.3-240-21.3s-160,75-240,122.7c-80,48.3-160,90.3-240,101.3s-160-11-240-26.7c-80-16.3-160-26.3-200-32l-40-5.3v-224H1440v224Z"/></svg>