<?xml version="1.0" encoding="UTF-8"?><svg id="Camada_1" xmlns="http://www.w3.org/2000/svg" viewBox="0 0 624 617"><defs><style>.cls-1{fill:lime;}.cls-1,.cls-2,.cls-3,.cls-4,.cls-5,.cls-6,.cls-7{fill-rule:evenodd;}.cls-8,.cls-2{fill:#fff;}.cls-3,.cls-9{fill:#cbb3d6;}.cls-10,.cls-5{fill:blue;}.cls-4{fill:red;}.cls-11{fill:#838bc5;}.cls-12{fill:#1a1a1a;}.cls-6{fill:#ff0;}</style></defs><path class="cls-5" d="M28.9,378.21c-55.32,112.23,38.93,178.86,125.49,199.35,86.05,20.5,407.72,23.57,459.46-203.45,26.64-116.84-1.54-320.81-117.3-330.55-115.25-9.74-148.03,182.44-228.45,215.24-79.91,33.31-197.72,35.36-239.2,119.41Z"/><path class="cls-12" d="M14.55,376.67c-1.54-.51-2.56-2.56-2.05-4.1,.51-1.54,2.56-2.56,4.61-1.54,2.05,1.02,2.56,2.56,1.54,4.1-1.02,1.54-2.56,2.05-4.1,1.54Z"/><path class="cls-12" d="M9.43,390.51c-1.54-.51-2.56-2.56-2.05-4.1,.51-1.54,2.56-2.56,4.1-2.05,1.54,.51,2.56,2.56,2.05,4.1-.51,1.54-2.05,2.56-4.1,2.05Z"/><path class="cls-12" d="M5.85,404.35c-1.54-.51-3.07-2.05-2.56-4.1,.51-2.05,2.05-3.08,4.1-2.56,1.54,.51,3.07,2.05,2.56,4.1-.51,1.54-2.05,3.08-4.1,2.56Z"/><path class="cls-12" d="M3.8,418.7c-2.05,0-3.07-1.54-3.07-3.59s2.05-3.08,3.59-3.08c2.05,.51,3.07,2.05,3.07,3.59,0,2.05-1.54,3.08-3.59,3.08Z"/><path class="cls-12" d="M3.8,433.05c-2.05,0-3.59-1.54-3.07-3.08,0-2.05,1.54-3.59,3.07-3.08,2.05,0,3.07,1.54,3.07,3.08s-1.54,3.08-3.07,3.08Z"/><path class="cls-12" d="M4.82,447.39c-1.54,.51-3.59-1.03-3.59-2.56,0-2.05,1.02-3.59,3.07-4.1,2.05,0,3.59,1.02,3.59,2.56,0,2.05-1.02,3.59-3.07,4.1Z"/><path class="cls-12" d="M8.41,461.23c-1.54,.51-3.59-.51-4.1-2.05-.51-2.05,.51-3.59,2.56-4.1,1.54-.51,3.59,.51,4.1,2.05,0,2.05-1.02,3.59-2.56,4.1Z"/><path class="cls-12" d="M13.53,474.56c-1.54,.51-3.59,0-4.61-1.54-.51-1.54,0-3.59,2.05-4.1,1.54-.51,3.59,0,4.1,1.54,.51,1.54,0,3.59-1.54,4.1Z"/><path class="cls-12" d="M20.19,487.37c-1.54,1.02-3.59,.51-4.61-1.03-1.02-1.54-.51-3.59,1.02-4.61,1.54-1.02,3.59-.51,4.61,1.03,1.02,1.54,.51,3.59-1.02,4.61Z"/><path class="cls-12" d="M28.9,499.15c-1.54,1.02-3.59,1.02-4.61-.51-1.54-1.54-1.02-3.59,.51-4.61,1.54-1.02,3.59-.51,4.61,.51,1.02,1.54,.51,3.59-.51,4.61Z"/><path class="cls-12" d="M38.12,509.92c-1.54,1.02-3.59,1.02-4.61,0-1.54-1.54-1.02-3.59,0-4.61,1.54-1.02,3.59-1.02,4.61,0,1.54,1.54,1.54,3.59,0,4.61Z"/><path class="cls-12" d="M48.87,520.17c-1.02,1.54-3.07,1.54-4.61,.51-1.54-1.03-1.54-3.59,0-4.61,1.02-1.54,3.07-1.54,4.61,0,1.02,.51,1.02,2.56,0,4.1Z"/><path class="cls-12" d="M60.14,528.88c-1.02,1.54-3.07,1.54-4.61,.51-1.54-1.02-1.54-3.08-.51-4.61,1.02-1.54,3.07-1.54,4.61-.51,1.54,1.03,1.54,3.08,.51,4.61Z"/><path class="cls-12" d="M71.92,537.08c-1.02,1.54-3.07,2.05-4.61,1.03-1.54-1.03-2.05-3.08-1.02-4.61,1.02-1.54,3.07-2.05,4.61-1.03,1.54,1.03,2.05,3.08,1.02,4.61Z"/><path class="cls-12" d="M84.73,544.25c-1.02,1.54-3.07,2.05-4.61,1.54-1.54-1.02-2.05-3.07-1.02-4.61,1.02-1.54,3.07-2.05,4.61-1.02,1.02,.51,1.54,2.56,1.02,4.1Z"/><path class="cls-12" d="M97.53,550.4c-.51,1.54-2.56,2.56-4.61,1.54-1.54-1.03-2.56-2.56-1.54-4.61,1.02-1.54,2.56-2.56,4.61-1.54,1.54,1.03,2.05,3.08,1.54,4.61Z"/><path class="cls-12" d="M110.85,556.04c-.51,1.54-2.56,2.56-4.1,2.05-1.54-.51-2.56-2.56-2.05-4.1s2.56-2.56,4.1-1.54c1.54,0,2.56,2.05,2.05,3.59Z"/><path class="cls-12" d="M124.17,561.16c-.51,1.54-2.56,2.56-4.1,2.05-1.54-.51-2.56-2.56-2.05-4.1,.51-1.54,2.56-2.56,4.1-2.05,1.54,.51,2.56,2.05,2.05,4.1Z"/><path class="cls-12" d="M138,565.27c-.51,1.54-2.05,2.56-4.1,2.05-1.54-.51-2.56-2.56-2.05-4.1,.51-1.54,2.56-2.56,4.1-2.05,1.54,.51,2.56,2.56,2.05,4.1Z"/><path class="cls-12" d="M151.83,568.85c-.51,1.54-2.05,3.08-4.1,2.56-2.05-.51-3.07-2.05-2.56-4.1,.51-1.54,2.05-3.08,4.1-2.56,2.05,.51,3.07,2.05,2.56,4.1Z"/><path class="cls-12" d="M166.17,571.41c-.51,2.05-2.05,3.08-3.59,2.56-2.05-.51-3.07-2.05-2.56-3.59,.51-1.54,2.05-3.07,3.59-2.56,1.54,0,3.07,1.54,2.56,3.59Z"/><path class="cls-12" d="M180.51,572.95c0,2.05-2.05,3.07-3.59,3.07-2.05,0-3.07-2.05-3.07-3.59,0-2.05,2.05-3.08,3.59-3.08,2.05,.51,3.07,2.05,3.07,3.59Z"/><path class="cls-12" d="M194.85,574.49c0,2.05-1.54,3.08-3.59,3.08s-3.07-1.54-3.07-3.59c0-1.54,1.54-3.08,3.59-3.08s3.07,1.54,3.07,3.59Z"/><path class="cls-12" d="M209.2,575.51c0,2.05-1.54,3.08-3.59,3.08s-3.07-1.54-3.07-3.59,1.54-3.08,3.59-3.08,3.07,1.54,3.07,3.59Z"/><path class="cls-12" d="M223.54,576.03c0,2.05-1.54,3.08-3.59,3.08s-3.07-1.54-3.07-3.59,1.54-3.07,3.59-3.07c1.54,.51,3.07,1.54,3.07,3.59Z"/><path class="cls-12" d="M237.88,576.03c0,2.05-1.54,3.08-3.07,3.08-2.05,0-3.07-1.54-3.07-3.08,0-2.05,1.54-3.07,3.07-3.07s3.07,1.54,3.07,3.07Z"/><path class="cls-12" d="M252.22,576.03c0,2.05-1.54,3.07-3.07,3.59-2.05,0-3.07-1.54-3.07-3.08,0-2.05,1.54-3.08,3.07-3.08,1.54-.51,3.07,1.03,3.07,2.56Z"/><path class="cls-12" d="M267.08,576.03c0,2.05-1.54,3.59-3.07,3.59-2.05,0-3.59-1.54-3.59-3.08,0-2.05,1.54-3.08,3.07-3.59,1.54-.51,3.07,1.02,3.58,3.07Z"/><path class="cls-12" d="M281.42,575c0,2.05-1.02,3.59-3.07,3.59s-3.58-1.54-3.58-3.08c0-2.05,1.54-3.59,3.07-3.59s3.07,1.54,3.58,3.08Z"/><path class="cls-12" d="M295.76,573.98c0,2.05-1.02,3.59-3.07,3.59s-3.59-1.03-3.59-3.08,1.02-3.59,3.07-3.59c1.54,0,3.07,1.54,3.59,3.08Z"/><path class="cls-12" d="M310.1,572.44c0,2.05-1.02,3.59-3.07,3.59s-3.58-1.02-3.58-3.07,1.02-3.59,3.07-3.59c1.54,0,3.07,1.54,3.58,3.08Z"/><path class="cls-12" d="M324.45,570.9c0,1.54-1.02,3.59-3.07,3.59s-3.58-1.03-3.58-2.56c0-2.05,1.02-3.59,3.07-3.59,1.54-.51,3.07,.51,3.59,2.56Z"/><path class="cls-12" d="M338.27,568.85c.51,1.54-1.02,3.59-2.56,3.59-2.05,0-3.59-1.03-3.59-2.56-.51-1.54,1.02-3.59,2.56-3.59,2.05-.51,3.58,1.03,3.58,2.56Z"/><path class="cls-12" d="M352.62,566.29c.51,1.54-1.02,3.59-2.56,3.59s-3.58-1.03-3.58-2.56c-.51-1.54,1.02-3.59,2.56-3.59s3.58,1.03,3.58,2.56Z"/><path class="cls-12" d="M366.96,563.73c.51,1.54-1.03,3.59-2.56,4.1-1.54,.51-3.58-1.03-4.1-2.56-.51-1.54,1.02-3.59,2.56-4.1,2.05-.51,3.59,.51,4.1,2.56Z"/><path class="cls-12" d="M380.79,560.65c.51,1.54-.51,3.59-2.56,4.1-1.54,.51-3.58-.51-4.1-2.56-.51-1.54,.51-3.59,2.56-4.1,2.05-.51,3.59,.51,4.1,2.56Z"/><path class="cls-12" d="M395.13,557.07c.51,1.54-.51,3.59-2.56,4.1-1.54,.51-3.59-.51-4.1-2.56-.51-1.54,.51-3.59,2.56-4.1,1.54-.51,3.59,.51,4.1,2.56Z"/><path class="cls-12" d="M408.96,552.97c.51,1.54-.51,3.59-2.05,4.1-1.54,.51-3.59-.51-4.1-2.05-.51-1.54,.51-3.59,2.05-4.1,1.54-.51,3.59,.51,4.1,2.05Z"/><path class="cls-12" d="M422.28,548.35c.51,1.54-.51,3.59-2.05,4.1-1.54,.51-3.59-.51-4.1-2.05-.51-1.54,.51-3.59,2.05-4.1,2.05-.51,3.59,.51,4.1,2.05Z"/><path class="cls-12" d="M436.11,543.74c.51,1.54,0,3.59-2.05,4.1-1.54,.51-3.59,0-4.1-2.05-.51-1.54,0-3.59,2.05-4.1,1.54-.51,3.58,0,4.1,2.05Z"/><path class="cls-12" d="M449.42,538.1c.51,1.54,0,3.59-1.54,4.1-1.54,.51-3.58,0-4.1-2.05-.51-1.54,0-3.59,1.54-4.1,1.54,0,3.59,.51,4.1,2.05Z"/><path class="cls-12" d="M462.74,532.47c1.02,1.54,0,3.59-1.54,4.1-1.54,.51-3.58,0-4.61-1.54-.51-1.54,0-3.59,1.54-4.1,1.54-1.03,3.58,0,4.61,1.54Z"/><path class="cls-12" d="M475.55,525.8c1.02,1.54,0,3.59-1.54,4.61-1.54,1.02-3.58,0-4.61-1.54-1.02-1.54,0-3.59,1.54-4.61,1.54-.51,3.59,0,4.61,1.54Z"/><path class="cls-12" d="M488.35,519.14c1.02,1.54,.51,3.59-1.02,4.61-1.54,1.02-3.59,.51-4.61-1.03-1.02-1.54-.51-3.59,1.02-4.61,1.54-1.03,3.59-.51,4.61,1.03Z"/><path class="cls-12" d="M500.65,511.45c1.02,1.54,.51,3.59-1.02,4.61-1.54,1.02-3.59,.51-4.61-1.03-1.02-1.54-.51-3.59,1.02-4.61,1.54-1.02,3.59-.51,4.61,1.03Z"/><path class="cls-12" d="M512.43,503.77c1.03,1.54,.51,3.59-1.02,4.61-1.54,1.02-3.59,.51-4.61-1.02-1.02-1.54-.51-3.59,1.02-4.61,1.54-1.02,3.59-.51,4.61,1.02Z"/><path class="cls-12" d="M523.7,494.54c1.02,1.54,1.02,3.59-.51,4.61-1.54,1.02-3.59,1.02-4.61-.51-1.02-1.54-1.02-3.59,.51-4.61s3.59-.51,4.61,.51Z"/><path class="cls-12" d="M534.97,485.32c1.02,1.54,1.02,3.59-.51,4.61-1.54,1.02-3.59,1.02-4.61-.51-1.03-1.54-1.03-3.59,.51-4.61,1.02-1.02,3.07-.51,4.61,.51Z"/><path class="cls-12" d="M545.21,475.58c1.54,1.02,1.54,3.59,0,4.61-1.02,1.54-3.07,1.54-4.61,0-1.02-1.54-1.02-3.59,0-4.61,1.54-1.54,3.59-1.54,4.61,0Z"/><path class="cls-12" d="M555.45,465.33c1.54,1.02,1.54,3.59,0,4.61-1.02,1.54-3.59,1.54-4.61,0-1.54-1.02-1.54-3.08,0-4.61,1.02-1.02,3.07-1.54,4.61,0Z"/><path class="cls-12" d="M564.67,454.06c1.54,1.02,1.54,3.08,.51,4.61-1.02,1.54-3.07,1.54-4.61,.51-1.54-1.02-1.54-3.08-.51-4.61,1.03-1.54,3.07-1.54,4.61-.51Z"/><path class="cls-12" d="M572.87,442.27c1.54,1.02,2.05,3.07,1.02,4.61-1.02,1.54-3.07,2.05-4.61,1.03-1.54-1.03-2.05-3.08-1.02-4.61,1.02-1.54,3.07-2.05,4.61-1.02Z"/><path class="cls-12" d="M580.55,429.97c1.54,1.02,2.05,3.08,1.02,4.61-1.02,1.54-3.07,2.05-4.61,1.02-1.54-1.02-2.05-3.07-1.02-4.61,1.02-1.02,3.07-1.54,4.61-1.02Z"/><path class="cls-12" d="M587.72,417.67c1.54,1.02,2.05,3.07,1.54,4.61-1.03,1.54-3.07,2.05-4.61,1.54-1.54-1.02-2.05-3.08-1.03-4.61,.51-1.54,2.56-2.56,4.1-1.54Z"/><path class="cls-12" d="M593.87,404.86c1.54,.51,2.56,2.56,1.54,4.1-1.02,1.54-2.56,2.56-4.61,1.54-1.54-1.02-2.56-2.56-1.54-4.1,1.03-1.54,3.07-2.56,4.61-1.54Z"/><path class="cls-12" d="M598.99,391.02c1.54,.51,2.56,2.56,2.05,4.1-.51,1.54-2.56,2.56-4.1,2.05-1.54-.51-2.56-2.56-2.05-4.1,.51-1.54,2.56-2.56,4.1-2.05Z"/><path class="cls-12" d="M604.11,377.7c1.54,.51,2.56,2.56,2.05,4.1-.51,1.54-2.56,2.56-4.1,2.05-1.54-.51-2.56-2.56-2.05-4.1,.51-1.54,2.05-2.56,4.1-2.05Z"/><path class="cls-12" d="M607.7,363.86c1.54,.51,2.56,2.05,2.56,4.1-.51,1.54-2.05,3.08-4.1,2.56-1.54-.51-2.56-2.05-2.56-4.1,.51-2.05,2.05-3.07,4.1-2.56Z"/><path class="cls-12" d="M610.77,349.51c1.54,.51,3.07,2.05,2.56,4.1-.51,2.05-2.05,3.08-4.1,2.56-1.54-.51-3.07-2.05-2.56-4.1,.51-1.54,2.56-2.56,4.1-2.56Z"/><path class="cls-12" d="M613.33,335.16c2.05,.51,3.07,2.05,2.56,3.59-.51,2.05-2.05,3.08-3.59,2.56-1.54-.51-3.07-2.05-2.56-3.59,0-1.54,1.54-2.56,3.59-2.56Z"/><path class="cls-12" d="M614.87,321.33c1.54,0,3.07,2.05,3.07,3.59,0,2.05-2.05,3.08-3.59,3.08s-3.07-2.05-2.56-3.59c0-2.05,1.54-3.59,3.07-3.07Z"/><path class="cls-12" d="M616.41,306.98c2.05,0,3.07,1.54,3.07,3.59s-2.05,3.07-3.58,3.07c-2.05,0-3.07-1.54-3.07-3.59,.51-2.05,2.05-3.59,3.59-3.07Z"/><path class="cls-12" d="M617.43,292.11c2.05,0,3.07,1.54,3.07,3.59s-1.54,3.07-3.59,3.07-3.07-1.54-3.07-3.59c0-1.54,1.54-3.07,3.59-3.07Z"/><path class="cls-12" d="M617.94,277.76c2.05,0,3.07,1.54,3.07,3.59s-1.54,3.07-3.59,3.07-3.07-1.54-3.07-3.59c.51-1.54,1.54-3.07,3.59-3.07Z"/><path class="cls-12" d="M617.94,263.41c2.05,0,3.07,1.54,3.07,3.08,0,2.05-1.54,3.07-3.07,3.07-2.05,0-3.07-1.54-3.07-3.07s1.54-3.08,3.07-3.08Z"/><path class="cls-12" d="M617.94,249.07c2.05,0,3.07,1.54,3.59,3.07,0,2.05-1.54,3.59-3.07,3.59-2.05,0-3.07-1.54-3.59-3.08-.51-2.05,1.03-3.59,3.07-3.59Z"/><path class="cls-12" d="M616.92,234.72c2.05,0,3.59,1.02,3.59,3.07s-1.03,3.59-3.07,3.59-3.59-1.54-3.59-3.08c0-2.05,1.54-3.59,3.07-3.59Z"/><path class="cls-12" d="M615.9,220.37c2.05,0,3.58,1.03,3.58,3.07s-1.02,3.59-3.07,3.59-3.59-1.02-3.59-3.07,1.03-3.59,3.07-3.59Z"/><path class="cls-12" d="M614.36,206.02c2.05,0,3.59,1.02,3.59,3.07s-1.02,3.59-3.07,3.59-3.59-1.02-3.59-3.07c0-1.54,1.02-3.59,3.07-3.59Z"/><path class="cls-12" d="M612.31,191.67c1.54-.51,3.59,1.02,3.59,2.56,.51,2.05-1.03,3.59-2.56,3.59s-3.59-1.02-3.59-2.56c-.51-1.54,1.03-3.08,2.56-3.59Z"/><path class="cls-12" d="M609.75,177.32c1.54-.51,3.59,1.03,3.59,2.56s-1.02,3.59-2.56,3.59c-1.54,.51-3.59-1.02-3.59-2.56s1.02-3.07,2.56-3.59Z"/><path class="cls-12" d="M607.19,163.48c1.54-.51,3.59,.51,4.1,2.56,.51,1.54-.51,3.59-2.56,4.1-1.54,.51-3.59-.51-4.1-2.56-.51-2.05,.51-3.59,2.56-4.1Z"/><path class="cls-12" d="M603.6,149.13c1.54-.51,3.59,.51,4.1,2.56,.51,1.54-.51,3.59-2.56,4.1-1.54,.51-3.59-.51-4.1-2.56-.51-1.54,1.02-3.59,2.56-4.1Z"/><path class="cls-12" d="M599.5,135.29c1.54-.51,3.58,.51,4.1,2.05,.51,1.54-.51,3.59-2.05,4.1-1.54,.51-3.59-.51-4.1-2.05-.51-1.54,.51-3.59,2.05-4.1Z"/><path class="cls-12" d="M594.89,121.97c1.54-.51,3.59,0,4.1,2.05,.51,1.54-.51,3.59-2.05,4.1-1.54,.51-3.59-.51-4.1-2.05-.51-1.54,.51-3.59,2.05-4.1Z"/><path class="cls-12" d="M589.77,108.64c1.54-.51,3.59,0,4.1,1.54,.51,1.54,0,3.59-2.05,4.1-1.54,.51-3.59,0-4.1-2.05-.51-1.03,0-3.08,2.05-3.59Z"/><path class="cls-12" d="M583.62,95.32c1.54-1.02,3.59,0,4.61,1.54,1.03,1.54,0,3.59-1.54,4.61-1.54,.51-3.59,0-4.61-1.54-.51-2.05,0-3.59,1.54-4.61Z"/><path class="cls-12" d="M576.97,82.51c1.54-1.03,3.59-.51,4.61,1.02,1.03,1.54,.51,3.59-1.02,4.61-1.54,1.03-3.59,.51-4.61-1.02-1.02-1.54-.51-3.59,1.02-4.61Z"/><path class="cls-12" d="M569.28,70.72c1.54-1.02,3.59-.51,4.61,1.03,1.02,1.54,.51,3.59-1.02,4.61-1.54,1.02-3.59,.51-4.61-1.03-1.02-1.54-.51-3.59,1.02-4.61Z"/><path class="cls-12" d="M560.06,58.94c1.54-1.02,3.59-1.02,4.61,.51,1.03,1.54,1.03,3.59-.51,4.61-1.54,1.03-3.59,1.03-4.61-.51-1.02-1.02-.51-3.07,.51-4.61Z"/><path class="cls-12" d="M550.33,48.69c1.03-1.54,3.07-1.54,4.61,0,1.54,1.54,1.54,3.59,0,4.61-1.54,1.02-3.58,1.02-4.61,0-1.02-1.02-1.02-3.59,0-4.61Z"/><path class="cls-12" d="M539.57,39.46c1.03-1.54,3.07-1.54,4.61-.51,1.54,1.03,1.54,3.07,.51,4.61-1.03,1.54-3.07,1.54-4.61,.51-1.54-1.02-2.05-3.07-.51-4.61Z"/><path class="cls-12" d="M527.28,31.77c1.03-1.54,3.07-2.05,4.61-1.54,1.54,1.02,2.05,3.07,1.03,4.61-1.03,1.54-3.07,2.05-4.61,1.02-1.54-.51-2.05-2.56-1.03-4.1Z"/><path class="cls-12" d="M513.96,26.14c.51-1.54,2.56-2.56,4.1-2.05,1.54,.51,2.56,2.56,2.05,4.1-.51,1.54-2.56,2.56-4.1,2.05-2.05-.51-2.56-2.56-2.05-4.1Z"/><path class="cls-12" d="M500.13,22.55c.51-1.54,2.05-3.07,4.1-2.56,2.05,.51,3.07,2.05,2.56,4.1-.51,1.54-2.05,2.56-4.1,2.56-2.05-1.02-3.07-2.56-2.56-4.1Z"/><path class="cls-12" d="M485.79,21.01c0-2.05,1.54-3.07,3.59-3.07s3.07,1.54,3.07,3.59c0,1.54-1.54,3.07-3.59,3.07-2.05-.51-3.07-2.05-3.07-3.59Z"/><path class="cls-12" d="M471.45,21.52c0-1.54,1.02-3.59,3.07-3.59s3.59,1.02,3.59,3.07-1.02,3.59-3.07,3.59-3.59-1.54-3.59-3.07Z"/><path class="cls-12" d="M457.11,24.6c-.51-1.54,.51-3.59,2.56-4.1,2.05-.51,3.58,1.02,4.1,2.56,.51,1.54-.51,3.59-2.56,3.59-1.54,.51-3.59-.51-4.1-2.05Z"/><path class="cls-12" d="M443.79,29.21c-1.02-1.54,0-3.59,1.54-4.1,1.54-.51,3.58,0,4.1,1.54,.51,1.54,0,3.59-1.54,4.1-1.54,1.02-3.58,.51-4.1-1.54Z"/><path class="cls-12" d="M430.98,36.39c-1.02-1.54-.51-3.59,1.02-4.61,1.54-1.02,3.59-.51,4.61,1.02,1.03,1.54,.51,3.59-1.02,4.61-1.54,1.03-3.59,.51-4.61-1.02Z"/><path class="cls-12" d="M419.72,45.1c-1.03-1.54-1.03-3.59,.51-4.61,1.54-1.03,3.58-1.03,4.61,.51,1.02,1.54,1.02,3.59-.51,4.61-1.54,1.02-3.59,.51-4.61-.51Z"/><path class="cls-12" d="M408.96,54.32c-1.02-1.54-1.02-3.59,0-4.61,1.54-1.03,3.59-1.03,4.61,0,1.02,1.54,1.02,3.59,0,4.61-1.54,1.54-3.59,1.54-4.61,0Z"/><path class="cls-12" d="M398.72,65.08c-1.54-1.03-1.54-3.07,0-4.61,1.02-1.54,3.07-1.54,4.61,0,1.54,1.02,1.54,3.07,0,4.61-1.02,1.02-3.07,1.02-4.61,0Z"/><path class="cls-12" d="M389.5,75.85c-1.54-1.03-1.54-3.07-.51-4.61,1.02-1.54,3.07-1.54,4.61-.51,1.54,1.02,1.54,3.07,.51,4.61-1.02,1.54-3.07,2.05-4.61,.51Z"/><path class="cls-12" d="M380.79,87.63c-1.54-1.02-2.05-3.07-.51-4.61,1.02-1.54,3.07-1.54,4.61-.51,1.54,1.02,1.54,3.07,.51,4.61-1.02,1.02-3.07,1.54-4.61,.51Z"/><path class="cls-12" d="M372.59,99.42c-1.54-1.03-2.05-3.07-1.02-4.61,1.02-1.54,3.07-2.05,4.61-1.03,1.54,1.03,2.05,3.07,1.02,4.61-1.02,1.54-3.07,2.05-4.61,1.03Z"/><path class="cls-12" d="M364.91,111.72c-1.54-1.03-2.05-3.07-1.02-4.61,1.02-1.54,3.07-2.05,4.61-1.03,1.54,1.03,2.05,3.07,1.02,4.61-1.02,1.54-3.07,2.05-4.61,1.03Z"/><path class="cls-12" d="M357.23,123.51c-1.54-1.03-2.05-3.08-1.02-4.61,1.02-1.54,3.07-2.05,4.61-1.02,1.54,1.02,2.05,3.07,1.02,4.61-1.02,1.54-3.07,2.05-4.61,1.03Z"/><path class="cls-12" d="M349.54,135.81c-1.54-1.03-2.05-3.08-1.02-4.61,1.02-1.54,3.07-2.05,4.61-1.02,1.54,1.02,2.05,3.07,1.03,4.61-1.03,1.54-3.07,2.05-4.61,1.03Z"/><path class="cls-12" d="M342.37,148.62c-1.54-1.03-2.05-3.07-1.03-4.61,1.03-1.54,3.07-2.05,4.61-1.02,1.54,1.02,2.05,3.07,1.02,4.61-1.02,1.03-3.07,1.54-4.61,1.03Z"/><path class="cls-12" d="M334.69,160.92c-1.54-1.02-2.05-3.07-1.02-4.61,1.02-1.54,3.07-2.05,4.61-1.02,1.54,1.02,2.05,3.07,1.02,4.61-1.02,1.54-3.07,1.54-4.61,1.02Z"/><path class="cls-12" d="M327.01,172.71c-1.54-1.02-2.05-3.07-1.02-4.61,1.02-1.54,3.07-2.05,4.61-1.03,1.54,1.03,2.05,3.08,1.02,4.61-1.02,1.54-3.07,2.05-4.61,1.02Z"/><path class="cls-12" d="M319.32,185.01c-1.54-1.03-2.05-3.08-1.02-4.61,1.02-1.54,3.07-2.05,4.61-1.03,1.54,1.03,2.05,3.07,1.02,4.61-1.02,1.54-3.07,2.05-4.61,1.03Z"/><path class="cls-12" d="M311.13,196.79c-1.54-1.03-1.54-3.08-.51-4.61,1.02-1.54,3.07-1.54,4.61-.51,1.54,1.02,2.05,3.07,.51,4.61-1.54,1.02-3.59,1.54-4.61,.51Z"/><path class="cls-12" d="M301.91,208.07c-1.54-1.02-1.54-3.07-.51-4.61,1.02-1.54,3.07-1.54,4.61-.51,1.54,1.02,1.54,3.07,.51,4.61-1.02,1.54-3.07,1.54-4.61,.51Z"/><path class="cls-12" d="M292.17,218.83c-1.54-1.02-1.54-3.07,0-4.61,1.02-1.02,3.07-1.54,4.61,0,1.54,1.02,1.54,3.59,0,4.61-1.02,1.03-3.07,1.54-4.61,0Z"/><path class="cls-12" d="M281.93,228.57c-1.02-1.02-1.02-3.07,.51-4.61,1.54-1.02,3.59-1.02,4.61,.51,1.02,1.54,1.02,3.59-.51,4.61-1.54,1.02-3.59,1.02-4.61-.51Z"/><path class="cls-12" d="M270.15,236.76c-1.02-1.54-.51-3.59,1.02-4.61,1.54-1.02,3.59-.51,4.61,1.02,1.02,1.54,.51,3.59-1.02,4.61-1.54,1.03-3.59,.51-4.61-1.02Z"/><path class="cls-12" d="M257.34,243.43c-.51-1.54,0-3.59,2.05-4.1,1.54-.51,3.59,0,4.1,1.54,.51,1.54,0,3.59-1.54,4.61-2.05,0-4.1-.51-4.61-2.05Z"/><path class="cls-12" d="M243.51,248.04c-.51-1.54,.51-3.59,2.05-4.1,1.54-.51,3.59,0,4.1,2.05,.51,1.54,0,3.59-2.05,4.1-1.54,1.03-3.59,0-4.1-2.05Z"/><path class="cls-12" d="M229.68,252.65c-.51-1.54,.51-3.59,2.05-4.1,1.54-.51,3.59,.51,4.1,2.05,.51,1.54-.51,3.59-2.05,4.1-1.54,.51-3.07,0-4.1-2.05Z"/><path class="cls-12" d="M215.85,256.75c-.51-1.54,.51-3.59,2.05-4.1,1.54-.51,3.58,.51,4.1,2.05,.51,1.54-.51,3.59-2.05,4.1-1.54,1.02-3.59,0-4.1-2.05Z"/><path class="cls-12" d="M202.02,260.85c-.51-1.54,.51-3.59,2.05-4.1,1.54-.51,3.58,.51,4.1,2.05,.51,1.54-.51,3.59-2.05,4.1-1.54,.51-3.59-.51-4.1-2.05Z"/><path class="cls-12" d="M188.2,264.44c-.51-1.54,.51-3.59,2.56-4.1,1.54-.51,3.59,.51,4.1,2.05,.51,1.54-.51,3.59-2.56,4.1-1.54,1.02-3.59,0-4.1-2.05Z"/><path class="cls-12" d="M174.37,268.54c-.51-1.54,.51-3.59,2.05-4.1,1.54-.51,3.59,.51,4.1,2.05,.51,1.54-.51,3.59-2.56,4.1-1.02,.51-3.07-.51-3.59-2.05Z"/><path class="cls-12" d="M160.54,272.13c-.51-1.54,.51-3.59,2.05-4.1,1.54-.51,3.59,.51,4.1,2.05,.51,1.54-.51,3.59-2.05,4.1-2.05,1.02-3.58,0-4.1-2.05Z"/><path class="cls-12" d="M146.71,276.23c-.51-1.54,.51-3.59,2.05-4.1,1.54-.51,3.58,.51,4.1,2.05,.51,1.54-.51,3.59-2.05,4.1-1.54,.51-3.59-.51-4.1-2.05Z"/><path class="cls-12" d="M132.88,280.33c-.51-1.54,.51-3.59,2.05-4.1,1.54-.51,3.58,.51,4.1,2.05,.51,1.54-.51,3.59-2.05,4.1-1.54,1.02-3.59,0-4.1-2.05Z"/><path class="cls-12" d="M119.56,285.45c-.51-1.54,.51-3.59,2.05-4.1,1.54-.51,3.59,.51,4.1,2.05,.51,1.54-.51,3.59-2.05,4.1-2.05,.51-3.58-.51-4.1-2.05Z"/><path class="cls-12" d="M105.73,290.58c-.51-1.54,0-3.59,2.05-4.1,1.54-.51,3.59,0,4.1,2.05,.51,1.54,0,3.59-2.05,4.1-1.54,.51-3.07-.51-4.1-2.05Z"/><path class="cls-12" d="M92.92,296.21c-1.02-1.54,0-3.59,1.54-4.1,1.54-.51,3.59,0,4.61,1.54,.51,1.54,0,3.59-1.54,4.1-2.05,1.02-4.1,0-4.61-1.54Z"/><path class="cls-12" d="M80.12,302.88c-1.02-1.54-.51-3.59,1.54-4.61,1.54-1.02,3.59-.51,4.61,1.54,1.02,1.54,0,3.59-1.54,4.61-2.05,.51-4.1,0-4.61-1.54Z"/><path class="cls-12" d="M67.82,310.56c-1.02-1.54-.51-3.59,1.02-4.61,1.54-1.03,3.59-.51,4.61,1.02,1.02,1.54,.51,3.59-1.02,4.61-2.05,1.02-3.59,.51-4.61-1.02Z"/><path class="cls-12" d="M56.04,318.76c-1.02-1.54-1.02-3.59,.51-4.61,1.54-1.02,3.59-1.02,4.61,.51,1.02,1.54,1.02,3.59-.51,4.61-1.54,1.54-3.59,1.02-4.61-.51Z"/><path class="cls-12" d="M45.29,328.5c-1.02-1.02-1.02-3.59,0-4.61,1.54-1.02,3.59-1.02,4.61,0,1.02,1.54,1.02,3.59,0,4.61-1.54,1.54-3.59,1.54-4.61,0Z"/><path class="cls-12" d="M35.56,339.26c-1.54-1.02-1.54-3.07-.51-4.61,1.02-1.54,3.59-1.54,4.61-.51,1.54,1.02,1.54,3.08,.51,4.61-1.02,1.54-3.07,1.54-4.61,.51Z"/><path class="cls-12" d="M27.36,351.05c-1.54-1.02-2.05-3.08-1.02-4.61,1.02-1.54,3.07-2.05,4.61-1.02,1.54,1.02,2.05,3.07,1.02,4.61-1.54,1.54-3.07,2.05-4.61,1.02Z"/><path class="cls-12" d="M20.19,363.35c-1.54-1.02-2.05-2.56-1.54-4.61,1.02-1.54,3.07-2.05,4.61-1.54,1.54,1.54,2.05,3.59,1.02,5.12-.51,1.54-2.56,2.05-4.1,1.02Z"/><path class="cls-11" d="M437.13,180.9l-38.93-10.25,28.68-28.7,10.24,38.95Z"/><path class="cls-9" d="M394.11,280.84l-4.61,16.91-12.29-12.3,16.9-4.61Z"/><path class="cls-8" d="M129.8,11.79H468.38c4.1,0,7.17,3.07,7.17,7.17V595.5c0,4.1-3.07,7.18-7.17,7.18H129.8c-4.1,0-7.17-3.08-7.17-7.18V18.96c0-4.1,3.07-7.17,7.17-7.17Z"/><path d="M468.38,604.73H129.8c-5.12,0-9.22-4.1-9.22-9.23V18.96c0-5.12,4.1-9.22,9.22-9.22H468.38c5.12,0,9.22,4.1,9.22,9.22V595.5c0,5.12-4.1,9.23-9.22,9.23ZM129.8,13.84c-2.56,0-5.12,2.05-5.12,5.12V595.5c0,2.56,2.05,5.12,5.12,5.12H468.38c2.56,0,5.12-2.05,5.12-5.12V18.96c0-2.56-2.05-5.12-5.12-5.12H129.8Z"/><path class="cls-7" d="M465.82,592.94h19.46v19.47h-19.46v-19.47Z"/><path class="cls-7" d="M112.9,592.94h19.46v19.47h-19.46v-19.47Z"/><path class="cls-7" d="M465.82,0h19.46V19.47h-19.46V0Z"/><path class="cls-7" d="M112.9,0h19.46V19.47h-19.46V0Z"/><path class="cls-7" d="M297.3,512.48h154.18c4.1,0,7.17,3.08,7.17,7.17v53.81c0,4.1-3.07,7.17-7.17,7.17h-154.18c-4.1,0-7.17-3.07-7.17-7.17v-53.81c0-4.1,3.07-7.17,7.17-7.17Z"/><path class="cls-7" d="M430.98,565.78s-1.02,4.61,.51,12.3c1.54,6.15,5.63,11.79,5.63,11.79,0,0-16.9-4.1-21.51-11.79-5.12-8.71-1.54-15.38-1.54-15.38l16.9,3.07Z"/><path class="cls-5" d="M246.59,448.42h125.49c4.1,0,7.17,3.07,7.17,7.17v39.46c0,4.1-3.07,7.18-7.17,7.18h-125.49c-4.1,0-7.17-3.08-7.17-7.18v-39.46c0-4.1,3.07-7.17,7.17-7.17Z"/><path class="cls-5" d="M262.47,490.44s1.02,3.59-.51,9.74c-1.02,4.61-4.61,9.22-4.61,9.22,0,0,14.34-3.07,17.93-9.22,4.1-6.66,1.02-11.79,1.02-11.79l-13.83,2.05Z"/><path class="cls-5" d="M386.93,38.44h51.73c5.12,0,9.73,4.1,9.73,9.74,0,5.12-4.1,9.74-9.73,9.74h-51.73c-5.12,0-9.73-4.1-9.73-9.74s4.1-9.74,9.73-9.74Z"/><path class="cls-5" d="M167.71,38.44h184.4c5.12,0,9.73,4.1,9.73,9.74,0,5.12-4.1,9.74-9.73,9.74H167.71c-5.12,0-9.73-4.1-9.73-9.74,.51-5.64,4.61-9.74,9.73-9.74Z"/><path class="cls-8" d="M106.75,82h246.89c6.15,0,11.27,5.12,11.27,11.27v219.34c0,6.15-5.12,11.27-11.27,11.27H106.75c-6.15,0-11.27-5.12-11.27-11.27V93.78c0-6.66,4.61-11.79,11.27-11.79Z"/><path class="cls-8" d="M106.75,82h246.89c6.15,0,11.27,5.12,11.27,11.27v219.34c0,6.15-5.12,11.27-11.27,11.27H106.75c-6.15,0-11.27-5.12-11.27-11.27V93.78c0-6.66,4.61-11.79,11.27-11.79Z"/><path d="M353.64,324.4H106.75c-6.15,0-11.27-5.12-11.27-11.27V93.78c0-6.15,5.12-11.27,11.27-11.27h246.89c6.15,0,11.27,5.12,11.27,11.27v219.34c0,6.15-5.12,11.27-11.27,11.27ZM106.75,82.51c-6.15,0-11.27,5.12-11.27,11.27v219.34c0,6.15,5.12,11.27,11.27,11.27h246.89c6.15,0,11.27-5.12,11.27-11.27V93.78c0-6.15-5.12-11.27-11.27-11.27H106.75Z"/><path d="M353.64,326.45H106.75c-7.17,0-13.32-6.15-13.32-13.32V93.78c0-7.17,6.15-13.32,13.32-13.32h246.89c7.17,0,13.32,6.15,13.32,13.32v219.34c0,7.17-6.15,13.32-13.32,13.32ZM106.75,84.56c-5.12,0-9.22,4.1-9.22,9.22v219.34c0,5.12,4.1,9.22,9.22,9.22h246.89c5.12,0,9.22-4.1,9.22-9.22V93.78c0-5.12-4.1-9.22-9.22-9.22H106.75Z"/><path class="cls-10" d="M348.01,129.66H213.29c-1.03,0-2.05-1.02-2.05-2.05s1.02-2.05,2.05-2.05h134.71c1.02,0,2.05,1.03,2.05,2.05s-1.02,2.05-2.05,2.05Z"/><path class="cls-10" d="M348.01,141.96H213.29c-1.03,0-2.05-1.02-2.05-2.05s1.02-2.05,2.05-2.05h134.71c1.02,0,2.05,1.03,2.05,2.05s-1.02,2.05-2.05,2.05Z"/><path class="cls-10" d="M348.01,153.74H213.29c-1.03,0-2.05-1.03-2.05-2.05s1.02-2.05,2.05-2.05h134.71c1.02,0,2.05,1.03,2.05,2.05s-1.02,2.05-2.05,2.05Z"/><path class="cls-10" d="M348.01,166.04H213.29c-1.03,0-2.05-1.02-2.05-2.05s1.02-2.05,2.05-2.05h134.71c1.02,0,2.05,1.03,2.05,2.05s-1.02,2.05-2.05,2.05Z"/><path class="cls-10" d="M348.01,186.54H213.29c-1.03,0-2.05-1.03-2.05-2.05s1.02-2.05,2.05-2.05h134.71c1.02,0,2.05,1.02,2.05,2.05s-1.02,2.05-2.05,2.05Z"/><path class="cls-10" d="M348.01,198.84H213.29c-1.03,0-2.05-1.02-2.05-2.05s1.02-2.05,2.05-2.05h134.71c1.02,0,2.05,1.02,2.05,2.05s-1.02,2.05-2.05,2.05Z"/><path class="cls-10" d="M348.01,210.63H213.29c-1.03,0-2.05-1.02-2.05-2.05s1.02-2.05,2.05-2.05h134.71c1.02,0,2.05,1.02,2.05,2.05s-1.02,2.05-2.05,2.05Z"/><path class="cls-10" d="M348.01,222.93H213.29c-1.03,0-2.05-1.02-2.05-2.05s1.02-2.05,2.05-2.05h134.71c1.02,0,2.05,1.02,2.05,2.05,0,1.54-1.02,2.05-2.05,2.05Z"/><path class="cls-5" d="M116.49,120.43h75.3c4.1,0,7.17,3.07,7.17,7.17v91.22c0,4.1-3.07,7.17-7.17,7.17H116.49c-4.1,0-7.17-3.08-7.17-7.17V127.1c0-3.59,3.58-6.66,7.17-6.66Z"/><path class="cls-7" d="M91.85,74.82H368.55c5.06,0,9.17,4.11,9.17,9.17v17.77c0,6.05-5.75,10.44-11.58,8.85l-9.77-2.67c-.79-.21-1.6-.32-2.41-.32H91.85c-5.06,0-9.17-4.11-9.17-9.17v-14.46c0-5.06,4.11-9.17,9.17-9.17Z"/><path class="cls-4" d="M112.9,90.2c3.07,0,5.12,2.56,5.12,5.12,0,3.07-2.56,5.12-5.12,5.12s-5.12-2.56-5.12-5.12c-.51-2.56,2.05-5.12,5.12-5.12Z"/><path class="cls-6" d="M131.34,90.2c3.07,0,5.12,2.56,5.12,5.12,0,3.07-2.56,5.12-5.12,5.12-3.07,0-5.12-2.56-5.12-5.12s2.05-5.12,5.12-5.12Z"/><path class="cls-1" d="M150.29,90.2c3.07,0,5.12,2.56,5.12,5.12,0,3.07-2.56,5.12-5.12,5.12-3.07,0-5.12-2.56-5.12-5.12s2.05-5.12,5.12-5.12Z"/><path class="cls-8" d="M108.29,336.7h419.5c6.15,0,11.27,5.12,11.27,11.27v79.95c0,6.15-5.12,11.27-11.27,11.27H108.29c-6.15,0-11.27-5.12-11.27-11.27v-79.95c0-6.15,4.61-11.27,11.27-11.27Z"/><path d="M527.28,441.24H108.29c-7.17,0-13.32-6.15-13.32-13.32v-79.95c0-7.17,6.15-13.33,13.32-13.33h419.5c7.17,0,13.32,6.15,13.32,13.33v79.95c-.51,7.17-6.15,13.32-13.83,13.32ZM108.29,339.26c-5.12,0-9.22,4.1-9.22,9.23v79.95c0,5.12,4.1,9.22,9.22,9.22h419.5c5.12,0,9.22-4.1,9.22-9.22v-80.46c0-5.12-4.1-9.23-9.22-9.23H108.29v.51Z"/><path class="cls-7" d="M98.76,330.55h437.54c4.92,0,8.91,3.99,8.91,8.91v14.46c0,4.92-3.99,8.91-8.91,8.91H98.76c-4.92,0-8.91-3.99-8.91-8.91v-14.46c0-4.92,3.99-8.91,8.91-8.91Z"/><path d="M527.28,441.24H108.29c-7.17,0-13.32-6.15-13.32-13.32v-79.95c0-7.17,6.15-13.33,13.32-13.33h419.5c7.17,0,13.32,6.15,13.32,13.33v79.95c-.51,7.17-6.15,13.32-13.83,13.32ZM108.29,339.26c-5.12,0-9.22,4.1-9.22,9.23v79.95c0,5.12,4.1,9.22,9.22,9.22h419.5c5.12,0,9.22-4.1,9.22-9.22v-80.46c0-5.12-4.1-9.23-9.22-9.23H108.29v.51Z"/><path class="cls-4" d="M112.39,345.92c3.07,0,5.12,2.56,5.12,5.12,0,3.07-2.56,5.12-5.12,5.12-3.07,0-5.12-2.56-5.12-5.12-.51-3.08,2.05-5.12,5.12-5.12Z"/><path class="cls-6" d="M130.83,345.92c3.07,0,5.12,2.56,5.12,5.12,0,3.07-2.56,5.12-5.12,5.12-3.07,0-5.12-2.56-5.12-5.12,0-3.08,2.05-5.12,5.12-5.12Z"/><path class="cls-1" d="M149.78,345.92c3.07,0,5.12,2.56,5.12,5.12,0,3.07-2.56,5.12-5.12,5.12-3.07,0-5.12-2.56-5.12-5.12-.51-3.08,2.05-5.12,5.12-5.12Z"/><path d="M150.29,423.82h-34.32c-5.12,0-9.73-4.1-9.73-9.74v-32.29c0-5.12,4.1-9.74,9.73-9.74h34.32c5.12,0,9.73,4.1,9.73,9.74v32.29c0,5.12-4.1,9.74-9.73,9.74Zm-34.32-46.64c-2.56,0-4.61,2.05-4.61,4.61v32.29c0,2.56,2.05,4.61,4.61,4.61h34.32c2.56,0,4.61-2.05,4.61-4.61v-32.29c0-2.56-2.05-4.61-4.61-4.61h-34.32Z"/><path d="M218.93,423.82h-34.32c-5.12,0-9.73-4.1-9.73-9.74v-32.29c0-5.12,4.1-9.74,9.73-9.74h34.32c5.12,0,9.73,4.1,9.73,9.74v32.29c0,5.12-4.61,9.74-9.73,9.74Zm-34.32-46.64c-2.56,0-4.61,2.05-4.61,4.61v32.29c0,2.56,2.05,4.61,4.61,4.61h34.32c2.56,0,4.61-2.05,4.61-4.61v-32.29c0-2.56-2.05-4.61-4.61-4.61h-34.32Z"/><path d="M290.64,423.82h-34.32c-5.12,0-9.73-4.1-9.73-9.74v-32.29c0-5.12,4.1-9.74,9.73-9.74h34.32c5.12,0,9.73,4.1,9.73,9.74v32.29c0,5.12-4.61,9.74-9.73,9.74Zm-34.32-46.64c-2.56,0-4.61,2.05-4.61,4.61v32.29c0,2.56,2.05,4.61,4.61,4.61h34.32c2.56,0,4.61-2.05,4.61-4.61v-32.29c0-2.56-2.05-4.61-4.61-4.61h-34.32Z"/><path d="M362.86,423.82h-34.32c-5.12,0-9.73-4.1-9.73-9.74v-32.29c0-5.12,4.1-9.74,9.73-9.74h34.32c5.12,0,9.73,4.1,9.73,9.74v32.29c0,5.12-4.1,9.74-9.73,9.74Zm-34.32-46.64c-2.56,0-4.61,2.05-4.61,4.61v32.29c0,2.56,2.05,4.61,4.61,4.61h34.32c2.56,0,4.61-2.05,4.61-4.61v-32.29c0-2.56-2.05-4.61-4.61-4.61h-34.32Z"/><path class="cls-3" d="M397.18,374.62h34.32c4.1,0,7.17,3.07,7.17,7.17v32.29c0,4.1-3.07,7.17-7.17,7.17h-34.32c-4.1,0-7.17-3.07-7.17-7.17v-32.29c0-4.1,3.07-7.17,7.17-7.17Z"/><path class="cls-3" d="M468.89,374.62h34.32c4.1,0,7.17,3.07,7.17,7.17v32.29c0,4.1-3.07,7.17-7.17,7.17h-34.32c-4.1,0-7.17-3.07-7.17-7.17v-32.29c0-4.1,3.07-7.17,7.17-7.17Z"/><path class="cls-8" d="M307.03,230.62l-19.98-74.31c-1.02-3.59-5.12-6.15-8.71-5.12l-119.35,31.77h-1.02c-3.58,1.02-8.71,6.15-7.68,12.81l19.98,74.31c1.03,3.59,5.12,6.15,8.71,5.12l119.35-31.77c2.56-.51,4.61-2.56,5.12-5.12,2.56-1.02,4.1-4.1,3.59-7.69Z"/><path d="M176.93,278.28c-4.1,0-7.68-2.56-8.71-6.66l-19.98-74.31c-1.54-8.2,4.61-14.35,9.22-15.37h.51l119.86-32.29c2.56-.51,4.61-.51,7.17,1.03,2.05,1.02,3.58,3.07,4.1,5.64l19.98,74.31c1.02,4.1-.51,8.2-4.1,10.25-1.02,2.56-3.59,5.12-6.15,5.64l-119.35,31.77h-2.56Zm102.96-125.04h-1.54l-119.35,31.77h-1.02c-2.56,.51-7.17,5.12-6.15,10.76l19.98,74.31c.51,2.56,3.59,4.1,6.15,3.59l119.35-31.77c1.54-.51,3.07-2.05,3.58-3.59,0-.51,.51-1.02,1.03-1.54,2.05-1.02,3.07-3.59,2.56-5.64l-19.98-74.31c-.51-1.02-1.02-2.56-2.56-3.07,0,0-1.02-.51-2.05-.51Z"/><path class="cls-11" d="M274.25,160.92l-104.49,28.19c-3.59,1.03-6.15,5.12-5.12,8.71l14.85,55.86c1.02,3.59,5.12,6.15,8.71,5.12l104.49-28.19c3.58-1.02,6.15-5.12,5.12-8.71l-14.85-55.86c-1.02-3.59-5.12-6.15-8.71-5.12Z"/><path class="cls-5" d="M274.25,160.92l-104.49,28.19c-3.59,1.03-6.15,5.12-5.12,8.71l14.85,55.86c1.02,3.59,5.12,6.15,8.71,5.12l104.49-28.19c3.58-1.02,6.15-5.12,5.12-8.71l-14.85-55.86c-1.02-3.59-5.12-6.15-8.71-5.12Z"/><path d="M186.66,260.85c-1.54,0-3.07-.51-4.61-1.02-2.05-1.02-3.59-3.07-4.1-5.64l-14.85-55.86c-.51-2.56-.51-4.61,1.02-7.17,1.02-2.05,3.07-3.59,5.63-4.1l103.98-28.19c5.12-1.54,9.73,1.54,11.27,6.66l14.85,55.86c1.54,5.12-1.54,9.74-6.66,11.27l-104.49,28.19h-2.05Zm88.1-97.88l-104.49,28.19c-1.03,.51-2.56,1.02-3.07,2.05-.51,1.02-1.02,2.56-.51,3.59l14.85,55.86c.51,1.03,1.03,2.56,2.05,3.08,1.02,.51,2.56,1.03,3.59,.51l104.49-28.19c2.56-.51,4.1-3.59,3.59-6.15l-14.34-55.35c-.51-2.56-3.59-4.1-6.15-3.59Z"/><path class="cls-2" d="M270.15,171.17l-28.17,7.69c-3.59,1.03-6.15,5.12-5.12,8.71l9.73,35.87c1.02,3.59,5.12,6.15,8.71,5.12l28.17-7.69c3.58-1.03,6.15-5.12,5.12-8.71l-9.73-35.87c-1.54-4.1-5.12-6.15-8.71-5.12Z"/><path class="cls-8" d="M177.95,207.55c-1.03,0-2.05-.51-2.05-1.54-.51-1.02,.51-2.05,1.54-2.56l51.73-13.84c1.03-.51,2.05,.51,2.56,1.54,.51,1.02-.51,2.05-1.54,2.56l-51.73,13.84h-.51Z"/><path class="cls-8" d="M181.02,218.32c-1.02,0-2.05-.51-2.05-1.54-.51-1.03,.51-2.05,1.54-2.56l18.44-4.61c1.02-.51,2.05,.51,2.56,1.54,.51,1.02-.51,2.05-1.54,2.56l-18.44,4.61h-.51Z"/><path class="cls-8" d="M207.15,211.14c-1.03,0-2.05-.51-2.05-1.54-.51-1.03,.51-2.05,1.54-2.56l25.61-6.66c1.03-.51,2.05,.51,2.56,1.54,.51,1.02-.51,2.05-1.54,2.56l-25.61,6.66h-.51Z"/><path class="cls-8" d="M183.59,229.08c-1.02,0-2.05-.51-2.05-1.54-.51-1.02,.51-2.05,1.54-2.56l51.73-13.84c1.02-.51,2.05,.51,2.56,1.54,.51,1.02-.51,2.05-1.54,2.56l-51.73,13.84h-.51Z"/><path class="cls-8" d="M186.66,240.35c-1.02,0-2.05-.51-2.05-1.54-.51-1.03,.51-2.05,1.54-2.56l51.73-13.84c1.02-.51,2.05,.51,2.56,1.54,.51,1.02-.51,2.05-1.54,2.56l-51.73,13.84h-.51Z"/><path class="cls-8" d="M356.71,251.12c0-.51-.51-.51-1.02-.51l-43.03-12.3c-2.05-.51-7.17-.51-10.76,.51l-119.35,31.77c-2.05,.51-3.58,1.03-3.58,1.54-2.05,2.05,1.02,8.71,3.07,9.22l43.03,12.3c2.05,.51,7.17,.51,10.76-.51l119.35-31.77c3.07-1.02,3.07-8.2,1.54-10.25Z"/><path d="M228.15,296.73c-1.54,0-2.56,0-3.59-.51l-43.03-12.3c-2.56-.51-4.1-4.1-4.61-6.15-1.02-2.56-.51-5.12,.51-6.15,0-.51,1.02-1.54,4.61-2.56l119.35-32.29c3.59-1.02,9.22-1.54,11.78-.51l43.03,12.3c1.03,.51,2.05,1.02,2.05,1.54,1.54,2.05,1.54,6.15,1.02,8.71s-2.05,4.1-4.1,4.61l-119.35,31.77c-2.05,1.03-5.12,1.54-7.68,1.54Zm81.44-56.89c-2.05,0-4.61,.51-7.17,1.03l-118.83,31.77c-1.54,.51-2.56,1.02-2.56,1.02v1.54c.51,2.05,1.54,3.59,2.05,4.1l42.51,12.3c1.54,.51,6.15,.51,9.73-.51l119.35-31.77c.51,0,.51-.51,1.02-1.54,.51-2.05,.51-4.61,0-5.13l-43.03-12.81h-3.07Z"/><path class="cls-5" d="M200.49,270.59l100.91-27.67c3.07-1.02,7.17-1.02,8.71-.51l31.76,9.23c1.54,.51,.51,1.54-3.07,2.56l-100.91,27.16c-3.07,1.02-7.17,1.02-8.71,.51l-31.76-9.22c-1.54-.51-.51-1.54,3.07-2.05Z"/><path class="cls-2" d="M617.94,587.3c-3.59-14.35-14.34-60.99-18.44-65.6-3.59-4.61-11.78-4.61-14.85-4.1-3.07,.51-11.78,5.12-11.78,5.12l-7.68-4.1s0-6.66-2.56-8.71c-2.56-2.56-12.29-7.69-18.44-14.35-6.15-6.66-15.37-17.94-15.37-17.94,0,0,3.07-7.18-1.54-24.09-4.61-17.42-16.9-53.81-16.9-53.81,0,0,.51-37.92,1.02-48.17,.51-10.25,0-31.77-2.56-47.66s-5.12-36.39-5.12-36.39c0,0,12.81-61.5,9.22-72.26-3.07-10.76-10.76-19.99-18.95-24.09-8.2-4.1-8.71-4.61-10.76-12.3-2.05-7.69-2.56-14.35-2.56-14.35l2.05-7.18,13.32-7.69s10.24-2.56,10.24-7.17c.51-9.74-4.61-15.89-4.61-15.89,0,0,2.56-7.18,0-12.81-2.56-5.64-1.54-8.2-5.12-7.69-3.59,.51-9.22-.51-9.22-.51,0,0-10.24-13.84-17.93-11.27-7.68,3.07-8.2,5.12-8.2,5.12,0,0-8.71-7.17-12.8-2.05-3.59,5.12-2.56,11.79-2.56,11.79,0,0-3.07,3.07-1.54,5.64,1.54,2.56,3.07,3.07,3.07,3.07,0,0,0,3.59-4.1,9.74-3.59,6.15-3.59,9.74-6.15,9.74-3.07,0-4.61,0-3.59,3.07,.51,3.07,3.07,5.12,3.07,5.12,0,0,0,10.25,6.15,13.84,6.15,3.07,15.88,1.54,17.42,8.71,1.54,7.18,0,14.35,0,14.35,0,0-17.93-1.02-27.15,1.54-9.22,2.56-15.88,8.71-15.88,8.71l-7.17-3.59-11.27-39.97-1.54-18.45s1.02-8.71,0-14.35c-1.02-6.15-2.05-11.27-3.58-10.25-1.02,1.02-2.05,10.25-2.05,10.25,0,0-2.56-11.27-5.64-14.86-3.07-3.07-6.66-6.15-8.2-4.1-1.54,2.05,0,14.86,0,14.86,0,0-2.05-3.59-6.15-7.17-4.1-3.59-8.2-8.2-10.24-6.15-2.05,2.05-1.54,5.12,1.54,8.2,3.07,3.07,6.15,5.12,6.15,5.12,0,0,4.1,16.4,.51,17.94-4.1,2.05-7.17,2.56-8.71,0-1.54-2.56-2.56-7.69-5.64-8.2-3.07-.51-7.68,2.05-4.61,8.2,3.07,6.15,7.17,11.28,12.81,16.4,5.63,5.12,9.73,5.64,9.73,5.64,0,0,6.66,36.39,8.19,46.12,1.54,9.22,1.54,11.79,3.07,13.84,2.05,2.05,7.17,7.69,7.17,7.69l-33.29,39.46-32.27-3.59-24.59-10.76s-9.22-8.2-12.29-6.66c-3.07,1.03-7.17,6.15-9.22,15.37-2.05,9.22-4.1,21.52-2.05,25.11,2.05,3.59,8.2,8.2,8.71,4.1,.51-4.1-1.02-7.18-1.02-7.18l3.07-4.61s15.88,8.71,21.51,8.71,8.71-1.54,8.71-1.54c0,0,33.81,15.38,48.15,12.81,14.34-2.56,50.71-38.95,50.71-38.95l6.15,61.5-60.44,167.07s-.51,30.75,21.51,35.87c21.51,5.12,27.66-2.56,35.34-6.66,7.68-4.1,44.05-28.19,44.05-28.19,0,0,16.39,45.1,36.37,65.08,19.98,19.99,42.51,32.29,47.12,33.31,5.12,.51,10.76-5.12,10.76-5.12l8.2,10.25s5.64,23.06,12.81,33.31c6.66,10.25,24.59,19.99,31.24,16.4,7.17-4.61,10.76-12.81,7.17-27.67Zm-174.15-170.14l14.34-31.26,1.54,24.09-15.88,7.17Z"/><path class="cls-5" d="M510.89,401.78c4.61,6.66,11.27,31.77,15.37,43.05,4.1,11.27,5.63,30.24,2.56,31.26-3.07,1.03-9.22-1.54-15.88-19.47-6.66-17.94-11.27-33.82-13.32-44.07-2.05-10.25-7.17-17.94-.51-17.94,6.15-.51,7.17,.51,11.78,7.17Z"/><path class="cls-5" d="M601.55,524.27c2.05,4.1,13.83,50.73,15.88,60.47,1.54,9.74,3.07,19.99-2.56,21.52-5.63,1.54-13.83,2.05-20.49-26.65-6.66-29.21-11.78-47.15-7.17-57.4,3.07-7.17,12.29-2.05,14.34,2.05Z"/><path class="cls-7" d="M513.45,333.62s-7.68-5.12-31.25-10.25c-23.05-5.12-43.03-7.69-49.17-6.15-5.63,1.02-18.44,3.07-18.44,3.07l7.68-24.09-6.66-63.55s-33.81,30.24-39.95,34.85c-6.15,4.61-13.83,6.66-25.1,3.59-11.27-3.07-17.93-7.69-17.93-7.69,0,0-3.59-6.66-1.03-13.84,3.07-7.17,7.17-11.27,7.17-11.27l21,1.54,33.81-40.49s-8.71-1.54-10.24-11.79c-1.54-10.25-6.66-33.82-6.66-33.82,0,0,4.61-5.64,14.34-6.66,9.73-1.02,13.32,2.56,13.32,2.56l8.71,21.01,4.1,3.07s6.66-9.22,17.42-8.71c10.76,.51,27.66-.51,27.66-.51l2.05-2.56s8.2,0,11.78,.51c3.59,.51,8.2,1.03,8.2,1.03,0,0,3.59,5.12,9.73,8.2,6.15,3.07,17.93,10.25,19.46,24.6,1.54,14.35-9.73,74.31-9.73,74.31,0,0,2.56,23.57,5.63,35.87,3.07,11.27,4.1,27.16,4.1,27.16Z"/><path class="cls-7" d="M499.11,470.97s-1.02-5.64,0-9.74c1.02-4.1,3.07-9.22,3.07-9.22l-12.81-41.51s-6.15,.51-8.2-1.02c-2.05-1.54-5.12-6.15-5.12-6.15l-16.39,8.2s-3.07,10.25,.51,20.5c3.07,10.76,5.12,13.84,5.12,13.84l3.59,.51,13.83,4.61,16.39,19.99Z"/><path class="cls-7" d="M577.99,547.33l6.66,41.51s-5.63,0-8.2-2.05c-2.05-2.05-7.68-19.47-7.68-19.47l-8.71-14.35-4.61-2.05s-2.05-15.37,1.03-23.06c3.07-7.69,7.17-11.79,7.17-11.79l15.37,3.08s-8.2,1.03-9.22,10.25c-2.56,10.25,8.2,17.94,8.2,17.94Z"/><path class="cls-7" d="M458.64,126.07l8.2,8.71-2.05,7.18,16.9,1.02,.51-7.17,10.76-5.12,6.15-3.59,8.2-2.56s1.54-5.64,.51-9.74c-1.54-4.1-4.1-9.22-4.1-9.22,0,0,5.63-12.3-3.59-17.42s-10.76-1.54-10.76-1.54c0,0-5.63-11.79-13.83-11.79s-10.76,6.15-10.76,6.15c0,0-11.78-8.71-16.39-2.05-4.61,6.66-1.02,10.25-1.02,10.25,0,0-3.59,5.12-1.02,7.17,2.05,2.05,7.17,1.54,7.17,1.54,0,0,0,23.06,3.07,22.04,3.07-1.54,3.07-9.22,3.07-9.22,0,0,7.68-2.05,8.2,3.07,0,4.61-9.22,12.3-9.22,12.3Z"/><path class="cls-2" d="M563.65,516.58l-7.17-2.05s-8.2,4.1-10.24,14.35c-2.05,10.25-1.54,20.5-1.54,20.5l10.24,1.03-4.61,8.71s-25.1-12.3-43.03-27.67c-28.17-24.09-42-72.77-42-72.77,0,0-45.59,29.21-54.81,34.34s-17.93,5.64-29.71,1.54c-11.27-4.1-21-22.55-17.93-36.9,3.07-14.35,50.71-137.86,50.71-137.86,0,0,16.39-7.17,34.83-3.59,7.68,1.54,25.61,3.07,37.9,5.64,16.9,3.59,27.15,8.71,27.15,8.71l-3.59,67.13s-8.2-10.76-27.66,0c-19.46,10.76-23.05,11.79-23.05,11.79l-.51-28.19-15.88,35.87,9.73-4.1s-6.66,7.69-2.56,21.01c3.59,13.32,8.2,15.37,8.2,15.37l8.71-2.56,14.34,3.59s19.98,25.62,30.73,29.21c10.76,3.59,18.44,.51,18.44,.51,0,0,7.17,12.81,17.93,19.99,10.76,7.18,13.83,8.71,15.37,10.76,.51,2.05,0,5.64,0,5.64Z"/><path class="cls-7" d="M471.45,72.77h2.56c7.68,1.54,12.81,5.64,15.88,11.27,4.1,0,8.19,0,10.76,2.05,2.05,1.54,3.07,4.1,3.59,6.66,1.54,4.1,3.58,8.71,1.02,13.32,2.56,4.61,6.15,13.32,2.05,19.47-1.02,1.54-2.05,2.05-3.58,2.56-1.54,.51-2.56,.51-4.61,1.54-1.02,.51-2.05,1.54-3.59,2.56-3.58,2.56-7.68,4.61-11.78,6.15-2.05,4.1-1.02,8.71-.51,14.35,.51,4.1,1.02,8.2,2.56,11.27,7.68,4.61,15.88,8.2,21.51,14.86,5.63,6.66,7.68,16.4,7.68,28.19,0,5.64-1.02,10.76-1.54,16.4-2.05,12.81-4.1,25.62-6.66,38.44-.51,2.56-1.54,5.12-1.54,7.69s.51,5.12,1.02,7.69c1.02,7.69,2.05,15.89,3.58,23.06,2.05,10.25,4.1,19.99,4.61,30.75,.51,11.27-.51,23.06-1.02,34.34-.51,8.2-.51,16.91-1.03,25.11,0,2.56-1.02,6.15-.51,8.2,0,1.02,1.54,2.56,2.05,3.59,2.05,4.1,3.59,9.23,5.12,13.32,5.12,15.38,9.22,31.26,12.29,48.17,1.02,5.12,2.05,11.27-.51,15.37,7.17,8.71,15.37,17.42,25.1,24.6,4.1,3.08,9.22,5.64,10.76,11.79,2.56,.51,4.61,.51,7.17,1.02,1.02,0,1.54,.51,2.56,.51s2.05-.51,3.07-1.03c3.59-1.02,7.17-1.02,11.27,0,4.1,1.03,8.71,2.56,11.27,6.15,1.54,2.05,2.05,5.64,3.07,8.71,6.15,20.5,11.27,44.07,14.34,66.62v.51c-1.02,9.23-4.1,16.4-12.29,17.94-4.61,1.03-8.71-.51-12.8-1.54-11.27-4.1-17.42-12.3-21.51-23.57-3.07-7.69-5.12-15.37-7.17-22.55v-.51c-1.03-2.05-2.56-4.1-4.1-5.64-1.54-2.05-3.07-3.59-4.1-5.64-1.54,1.54-2.56,2.56-4.1,3.59-4.61,2.56-8.71,0-12.8-2.05-8.2-3.59-15.37-8.2-21.51-12.81-26.64-18.96-44.56-49.71-55.83-82-14.86,9.74-29.71,20.5-45.59,29.72-5.63,3.07-11.27,6.15-18.95,6.66-17.42,1.02-28.17-5.12-33.81-16.4-2.56-6.15-5.12-13.33-4.1-21.01,.51-3.59,1.02-7.18,2.05-10.76,1.03-3.07,1.54-6.66,3.07-9.74,4.1-12.3,8.71-24.6,13.32-37.41,13.32-35.36,26.64-70.72,39.44-106.08,.51-1.54,1.54-3.59,1.54-4.61,0-2.05-.51-4.61-.51-7.17-2.05-16.91-4.1-33.82-5.63-50.22-2.05,1.02-3.07,2.56-4.61,4.1-5.12,4.61-9.73,8.71-14.34,13.32-6.66,5.64-12.8,12.3-20.49,16.91-4.61,2.56-8.71,4.1-14.34,4.1-5.12,0-10.24-1.54-15.37-3.07-6.66-2.05-13.32-5.12-19.98-8.2-2.05-1.02-4.1-2.05-6.66-3.08-1.02-.51-3.59,1.03-4.61,1.03h-4.1c-3.58,0-5.63-.51-8.71-2.05-2.56-1.02-4.61-2.05-6.66-3.59-2.05-1.03-4.1-3.08-6.15-3.59-.51,1.02-.51,1.54-1.02,2.56,.51,2.56,2.56,4.1,2.05,7.18-.51,2.56-5.12,4.1-7.68,3.07-4.61-1.54-6.66-8.71-6.15-14.35,0-1.54,1.02-3.08,1.54-5.12,.51-1.54,.51-3.59,.51-5.12,.51-3.59,1.54-6.66,2.05-10.25,.51-2.05,.51-3.59,1.03-5.12,1.54-3.59,4.1-7.18,7.17-8.2,3.07-1.54,6.66,.51,8.71,2.05,2.56,1.54,4.61,3.07,6.66,4.1,3.59,1.54,7.68,3.08,11.78,5.12,2.05,1.03,3.59,2.05,5.63,2.56,2.05,1.02,4.1,2.05,6.15,2.56,2.56,.51,5.12,1.03,7.68,1.03,8.2,1.02,15.88,1.54,24.08,3.07,10.24-11.79,20.49-24.09,30.73-35.87-3.58-3.59-7.68-6.66-9.22-12.3-1.54-5.64-2.56-11.79-3.59-17.94-2.05-12.3-4.1-25.11-5.63-36.9-8.71-3.07-16.39-10.25-21-18.45-1.54-3.07-3.59-8.2-2.05-12.3,2.05-5.13,9.73-3.08,11.78,1.02,.51,1.03,.51,3.07,1.54,4.1,1.02,1.03,3.58,2.05,5.12,1.54,3.59-.51,2.56-6.15,2.05-9.74-.51-2.56-.51-5.13-1.02-6.66-.51-.51-1.54-1.54-2.05-2.05-2.05-2.05-5.63-4.1-6.15-7.17-2.05-5.12,1.54-9.74,6.66-7.17,3.07,1.54,6.66,4.61,9.22,7.17,0,0,.51,1.54,1.02,.51,0-.51-.51-2.05-.51-3.07,0-3.59,1.02-5.64,4.61-5.12,5.12,.51,9.22,6.15,11.27,10.25,1.02-.51,1.54-2.05,3.59-2.05,3.58,0,5.12,7.17,5.63,11.27,.51,3.07,.51,5.64,.51,8.2s-1.02,5.12-1.02,7.69,.51,5.64,1.02,8.71c.51,3.07,0,6.15,.51,8.71,.51,3.07,2.05,6.66,3.07,10.25,3.07,10.25,6.15,21.01,9.22,30.75,1.02,1.02,2.56,1.02,3.58,2.05,8.71-9.74,27.15-10.25,44.56-10.76-.51-5.12,0-10.76-2.56-13.32-2.05-2.56-6.66-2.05-10.76-3.07-5.63-1.03-9.73-6.66-11.27-11.79-.51-2.56-1.54-8.71,1.54-8.71,1.54,0,2.05,1.54,2.05,3.59,.51,5.12,2.05,9.74,5.63,11.79,2.56,1.02,5.63,1.02,8.2,1.54,2.56,.51,5.12,1.02,6.66,3.07,3.07,3.07,3.58,8.71,4.1,15.38,5.63-.51,11.27,0,15.88,1.54-1.02-4.61-1.54-9.22-2.05-14.35h-8.71c-2.56,0-5.64,0-7.17-2.05-1.54-2.56,.51-5.64,.51-7.69,0-1.54-2.05-3.07-3.59-4.61-1.02-1.03-3.58-3.07-3.58-4.61-.51-3.08,3.07-4.1,5.12-6.15,.51-.51,1.54-1.54,2.05-2.56,1.54-2.05,2.05-4.1,0-5.64-.51-.51-2.05-1.02-2.05,.51,0,1.03,.51,.51,1.54,1.03,2.05,1.54-.51,4.1-3.07,3.07-1.02,2.05-1.54,4.61-4.1,4.61-4.1-.51-4.61-13.32-4.61-13.32,0,0,0-3.07-.51-4.61-.51,0-1.02,.51-1.02,1.02-1.54,1.54-3.07,3.07-4.1,5.12-1.54,3.07-2.56,6.15-4.1,8.2-1.54,1.54-8.71,4.61-8.2,0,0-2.56,3.59-1.54,5.12-3.07,2.05-4.61,5.12-9.74,8.2-13.32,.51-.51,1.02-.51,1.02-1.54-3.07-.51-4.61-3.07-3.58-6.15,.51-1.02,1.02-2.05,1.02-2.56,0-1.02-1.02-2.05-1.02-3.59-.51-5.12,2.56-9.74,6.15-11.27,4.1-2.05,9.22-1.54,13.83,1.54,1.54-4.1,3.59-6.66,7.17-7.17Zm9.22,63.04c.51-1.03,3.07-1.54,4.61-2.05,3.58-1.54,5.63-3.07,8.2-5.12,1.02-1.03,2.56-2.05,3.59-3.08,2.56-1.03,4.61-.51,6.15-2.05,1.02-1.54,1.54-3.59,1.54-5.64,0-3.08-1.02-5.12-2.05-7.18-.51-2.05-1.54-3.07-1.54-4.1,0-2.05,1.54-3.59,1.03-5.64,0-2.05-1.02-4.61-2.05-6.66-1.54-4.1-3.07-5.64-7.68-6.15-1.54,0-3.59,.51-5.12,0-1.54-.51-2.05-2.56-3.07-3.59-1.02-1.03-2.05-3.07-3.07-3.59-2.05-1.54-5.63-3.59-8.2-3.59-2.56-.51-4.1,1.02-5.64,2.56-1.02,1.02-2.05,2.56-3.58,2.56-1.02,0-3.07-1.03-4.1-1.54-3.07-1.54-8.2-2.56-10.76,.51-1.02,1.03-2.05,4.1-1.54,6.15,0,1.54,1.54,1.54,1.54,3.07,0,2.05-1.54,2.56-2.05,4.61,2.05,1.03,5.63,0,7.17,1.54,1.02,1.54,.51,5.64,.51,8.71s.51,6.15,1.02,8.2c1.54-2.56,2.05-6.15,5.12-6.66,2.56-.51,5.12,1.54,6.15,3.07,1.02,1.54,2.05,3.08,1.54,5.12-.51,4.61-5.12,8.2-8.71,10.25,3.07,3.59,8.71,7.69,5.63,14.86,3.59,1.02,8.2,.51,12.81,.51,1.54-1.54,1.54-4.1,2.56-5.12Zm-95.27-32.29c-3.59,.51-2.05-3.59-2.05-6.15v-5.64c0-5.12-.51-11.27-4.61-12.3h-.51c0,2.56,.51,5.12,1.02,8.71,.51,3.07,2.56,9.74-1.02,9.74-2.05,0-2.56-3.59-3.07-5.12-2.56-6.66-7.68-10.25-13.32-13.32-.51,3.07,2.05,4.61,3.59,6.15,1.54,1.54,4.1,3.07,5.12,4.61,1.02,2.05,1.02,5.12,1.54,7.69,.51,2.56,1.03,5.64,1.03,8.2-.51,3.59-3.07,6.66-6.66,7.18-4.61,.51-10.24-2.56-10.24-7.69-1.02-1.03-2.05-1.54-4.1-1.54-1.02,5.64,1.54,9.23,3.58,12.3,3.07,4.61,6.66,8.2,11.78,11.27,2.05,1.03,6.66,2.05,7.68,4.1,.51,1.02,.51,2.56,.51,4.1,.51,4.61,1.54,8.71,2.05,13.32,5.12-4.1,14.34-7.17,23.05-5.12-1.02-4.61-3.59-9.74-4.61-15.37-.51-3.08-.51-6.15-1.02-9.23-.51-3.07-1.02-6.66-1.02-9.22s1.02-5.12,1.02-7.69c.51-5.13-.51-9.74-2.05-13.32,0,3.07,0,6.66-.51,9.74,0,2.56,.51,5.12-2.05,5.12-4.1,0-1.02-9.74-3.07-11.79,.51,3.59,1.54,11.27-2.05,11.27Zm22.02,62.52c-1.02-3.59-2.05-6.66-3.07-10.76-.51-1.54-1.02-4.1-1.54-5.12-1.54-2.05-5.63-2.56-8.71-2.05-6.66,.51-12.29,2.56-15.37,6.66,1.54,8.2,2.56,17.94,4.1,26.14,.51,3.07,1.02,6.15,2.05,8.2,1.54,3.59,5.12,6.15,7.68,9.22,5.12-6.15,10.76-12.3,15.88-18.45,1.54-2.05,3.58-4.1,5.12-6.15-4.61-1.02-5.12-4.1-6.15-7.69Zm98.35,132.73c-1.02-7.17-2.56-14.86-3.58-22.04-.51-2.56-1.03-5.64-1.03-7.69,.51-3.59,1.54-8.2,2.05-11.79,2.05-11.79,4.61-24.6,6.15-36.39,1.02-8.2,2.05-17.42,.51-26.14-1.54-8.2-4.61-13.84-10.24-17.94-5.12-4.1-10.76-5.64-15.88-9.22-1.02-.51-1.54-2.05-2.56-2.56-1.54-1.03-4.1-1.54-6.15-2.05-2.56-.51-7.17-1.03-10.25-.51-1.02,.51-1.02,1.54-2.05,1.54-1.54,.51-3.58,0-5.63,.51-13.32,.51-27.66,1.03-35.34,7.17-1.54,1.03-3.07,3.08-4.61,4.61-4.1,4.61-8.2,9.74-12.29,14.35-15.37,17.42-29.71,34.85-45.08,52.79-1.54,1.54-3.07,4.1-4.61,4.1-1.02,0-1.54-1.02-1.54-1.54,0-2.05,2.56-3.08,2.05-4.1-3.07-.51-5.12-.51-7.68-1.02-2.05-.51-5.63-1.03-7.68-1.03-3.07,.51-5.12,6.66-6.15,9.23-1.02,3.07-2.05,10.76,0,13.32,.51,.51,2.56,1.02,3.59,1.54,3.58,1.54,7.17,3.07,10.76,4.1,5.12,1.54,10.24,3.59,16.9,2.05,9.73-2.05,17.42-10.25,23.56-15.89,12.29-11.27,23.56-22.04,36.37-33.31,2.05-1.54,3.58-4.61,5.63-4.61,.51,0,2.05,.51,2.05,2.05s-2.05,3.08-3.07,4.1c-4.1,3.59-7.68,7.17-11.27,10.25,2.05,16.91,4.1,35.87,6.15,53.81,.51,2.56,1.02,5.64,.51,7.69,0,1.54-1.03,4.1-2.05,5.64-2.05,5.64-4.61,11.79-6.66,16.91,15.37-5.12,33.81-1.54,49.17,1.02,16.39,2.05,31.76,5.12,44.56,10.76-.51-10.76-3.07-19.99-4.61-29.72Zm-180.81-62.01c-2.05-.51-4.1-1.54-6.15-2.56-4.1-2.05-8.2-4.1-11.78-5.64-2.05-1.02-4.61-1.54-6.15-2.56-3.58-2.05-6.15-5.64-10.76-6.15-1.02,0-2.05,1.54-3.07,2.05-.51,1.02-1.54,1.54-1.54,2.05,3.07-1.03,12.81-1.54,12.81,2.05,0,3.07-3.59,1.54-6.15,1.54-4.1-.51-8.2,.51-8.71,3.07,2.05-1.03,12.81-3.07,11.78,1.02-.51,3.07-7.17,1.02-9.73,2.05-2.05,.51-4.1,2.05-4.1,4.1,.51,0,1.54-1.02,2.56-1.02,2.56-1.02,10.24-2.56,10.24,1.02,0,3.08-5.64,1.54-8.71,2.56-4.1,1.54-6.15,6.66-6.15,11.79,0,3.59,2.05,8.2,5.64,7.17,0-2.05-2.05-3.07-2.05-5.64,0-2.05,1.02-3.07,2.05-4.61,1.02-1.54,1.54-3.07,3.07-3.59,1.54,0,3.59,1.54,4.61,2.56,1.54,1.03,3.07,2.05,4.61,2.56,4.61,2.56,8.71,6.15,15.37,4.61-.51-.51-1.54-1.03-1.02-2.05,0-3.59,4.1-1.02,6.15-.51,4.1,1.54,9.22,3.59,12.29,5.13-1.03-9.23,1.54-16.4,5.12-21.52-4.1,1.02-7.17,1.54-10.24,.51Zm129.08,83.53c-7.17-1.03-14.34-2.05-21-2.05s-12.29,2.05-18.44,3.59c-13.83,37.92-28.68,75.85-42,113.77-2.05,5.64-3.59,11.27-5.12,16.91-1.54,6.15-2.56,12.3-1.02,19.47,2.56,12.3,9.22,20.5,22.02,22.55,6.15,1.02,14.34,1.02,19.98-1.54,5.12-2.05,9.73-5.12,14.34-7.69,13.83-8.71,27.15-17.94,39.95-26.65-1.54-.51-3.07-2.05-4.1-3.08-7.17-7.69-12.81-21.52-10.24-36.39-18.95,9.74-39.95,19.99-58.9,29.72-2.05,1.02-5.12,2.56-5.12-.51,0-2.05,4.61-3.59,6.15-4.61,2.56-1.54,5.12-2.56,7.17-3.59,14.34-7.69,29.2-14.86,43.03-22.04,9.73-21.52,19.46-44.07,29.2-65.6,1.02-2.05,2.56-8.71,5.12-8.2,2.56,.51,1.54,3.08,1.02,4.61-4.61,10.25-8.71,19.47-12.8,29.21-.51,1.54-2.05,3.59-2.05,5.12-.51,1.54,0,4.1,.51,6.15,0,6.15,0,12.81,.51,18.45,7.68-4.1,16.9-8.2,25.61-12.3,3.07-1.54,5.63-3.08,9.22-3.59,4.1-.51,7.68,1.03,10.24,2.56,.51,.51,1.54,1.02,2.05,1.02,1.02-20.5,2.56-40.49,2.56-61.5-16.9-8.2-37.39-11.27-57.88-13.84Zm-8.2,94.3c3.59-2.05,7.68-3.59,10.76-5.64-.51-5.64-.51-11.79-.51-17.42-3.07,7.69-6.66,15.37-10.25,23.06Zm39.95-6.66c1.54,.51,3.59,.51,4.61,1.02,.51,.51,1.54,3.07,2.05,4.61,3.59,10.76,6.66,21.01,9.73,31.77,.51,2.05,1.54,4.1,1.54,5.12,0,1.54-1.02,3.59-1.54,5.12-.51,2.05-1.54,3.59-1.54,5.64,0,3.08,1.54,5.12,1.54,7.69,2.56,2.05,4.1,4.61,7.17,6.15,3.59,2.05,15.88,4.61,18.44,0,1.02-2.05,.51-7.17,0-10.25-3.59-19.99-8.71-37.92-14.34-54.83-1.03-3.08-2.05-6.15-3.07-8.2-2.05-3.59-8.71-8.71-14.85-7.17-6.15,1.54-10.76,5.12-16.9,7.69,1.54,4.1,3.59,5.12,7.17,5.64Zm-11.27-2.56c-4.1,2.05-8.2,4.1-12.29,6.15-1.54,5.64-1.54,12.81,0,18.45,1.02,5.64,3.07,11.27,6.66,13.84,2.56-.51,5.12,1.02,7.68,1.54,2.05,.51,4.1,1.02,5.64,2.05,1.02,.51,2.56,2.56,3.58,4.1,3.59,4.1,6.66,8.2,10.24,11.79,0,0,.51,1.02,1.02,.51,0-3.59,.51-5.64,1.02-8.2,.51-1.54,1.54-3.59,1.54-4.61s-1.03-3.07-1.54-4.61c-3.58-11.27-7.17-22.55-10.24-33.31-6.66-1.03-10.76-3.59-13.32-7.69Zm-17.42,8.71c-1.54,1.02-3.07,1.54-4.1,2.56-1.54,1.54-2.05,4.61-2.05,7.18-.51,9.23,3.59,19.47,7.17,24.6,2.05-1.02,4.1-1.54,6.15-2.56-5.63-6.66-8.71-19.47-7.17-31.77Zm74.27,71.23c-1.02-1.02-2.05-2.56-3.07-3.07-6.66,2.56-15.37,1.02-19.98-1.54-2.56-1.54-5.12-4.1-7.68-6.66-6.15-6.15-11.27-12.3-16.9-18.96-1.02-1.54-2.05-3.07-3.59-3.59-1.54-1.02-3.59-1.02-5.12-1.54-.51,5.12-3.59,8.71-7.68,10.76,14.34,41.51,36.88,75.33,75.3,93.27-2.05-8.2-1.02-17.42,1.02-25.11,2.56-8.71,6.66-16.91,12.81-21.01-9.73-6.66-17.93-14.86-25.1-22.55Zm22.02,30.24c-5.12,7.69-8.2,17.42-8.2,30.24,3.07,.51,5.12,2.05,7.68,2.56-2.56-11.28,0-24.09,5.63-30.24-2.05-.51-4.1-1.03-5.12-2.56Zm37.39,91.73c4.1,2.56,10.24,5.12,15.37,4.61,6.66-.51,9.73-7.18,9.73-14.35,0-3.08-1.03-6.66-1.54-9.74-3.59-18.96-7.17-37.41-12.8-55.35-1.02-3.08-1.54-6.66-3.07-8.2-2.56-3.59-10.24-5.64-15.88-5.12-2.56,0-5.12,1.54-7.17,3.08-2.05,1.03-4.1,2.56-4.61,5.12-1.03,3.08,0,7.17,1.02,9.74,1.03,2.05,2.56,3.59,3.59,5.12,1.02,1.54,3.07,3.59,3.59,5.12,1.02,3.07,1.54,7.69,2.05,10.76,1.54,8.2,2.56,13.84,4.61,22.04,.51,2.56,2.56,9.23,1.02,10.76-2.56,1.54-7.17-1.03-8.71-1.54,2.56,7.69,6.66,13.32,12.8,17.94Zm-32.78-56.89c2.56,1.03,3.59,2.56,4.61,4.61,1.02,1.02,1.54,2.56,2.56,3.59,1.54,2.05,4.1,4.61,5.12,7.17,1.02,2.05,1.54,5.12,2.56,7.69,.51,2.56,1.02,5.12,2.05,7.17,.51,1.03,1.54,2.05,3.07,3.08,1.54,1.54,3.07,3.08,5.12,3.08-2.56-12.81-5.12-25.11-7.68-37.92-3.59-4.1-8.71-11.27-8.71-18.96,0-3.08,1.02-5.64,2.05-7.17,.51-.51,1.54-1.03,1.02-1.03-2.05-1.02-4.61-1.02-7.17-1.54-6.15,4.61-8.2,20.5-4.61,30.24Z"/><path class="cls-7" d="M449.94,123.51c1.02,0,2.56,0,2.56,2.05s-5.12,6.66-7.68,6.66c-1.02,0-2.05-1.02-2.05-2.05,0-1.54,2.05-2.05,3.07-3.07,1.54-1.54,2.56-3.59,4.1-3.59Z"/><path class="cls-7" d="M448.91,108.64c-1.02,0-2.05,.51-2.56,1.54l-.51,3.08c0,1.02,.51,2.05,1.54,2.56,1.02,0,2.05-.51,2.56-1.54l.51-3.07c.51-1.03,0-2.05-1.54-2.56Z"/><path class="cls-5" d="M207.66,512.48c3.59,1.03,9.73-2.56,15.88-7.69,6.15-5.12,4.61-10.76,5.12-15.37,.51-4.61,7.68-28.19,4.1-34.85-3.59-6.66-20.49-25.62-31.76-21.52-11.27,3.59-13.32,21.52-10.24,26.65,3.07,5.64,12.81,11.79,10.76,17.94-1.54,5.64-10.76,8.71-10.24,16.91,.51,8.2,13.32,16.91,16.39,17.94Z"/><path class="cls-7" d="M189.73,457.13v-3.59c.51-5.64,1.54-9.23,3.07-13.32,1.54-3.59,3.59-7.69,7.17-9.23,5.12-2.56,11.27,1.02,14.85,3.59,3.07,2.05,5.63,4.1,8.71,6.66,5.64,4.61,11.78,10.25,12.29,18.45,.51,5.12-1.02,9.22-2.05,13.32-1.03,3.59-3.07,8.2-3.59,12.3-.51,4.1,1.02,7.17,1.02,11.27,0,5.64-3.58,8.71-7.17,11.27-1.02,1.02-7.17,6.15-7.68,2.05-.51-1.54,1.54-2.56,2.05-3.07,3.07-2.05,6.66-4.61,8.2-8.2,1.02-3.08-.51-7.69-.51-11.27s1.02-6.15,1.54-8.71c1.02-2.56,1.54-5.12,2.56-8.2,.51-2.56,2.05-6.15,1.54-9.23-.51-7.69-6.66-12.81-11.27-16.4-2.56-2.05-4.61-4.1-7.68-6.15-2.05-1.54-6.15-4.1-10.24-3.59-3.59,.51-5.63,5.64-7.17,9.22-1.54,4.1-3.07,9.23-2.05,13.84,.51,3.59,3.59,6.15,5.63,8.71,2.05,2.56,4.61,5.64,5.12,8.71,.51,5.12-3.07,8.2-5.12,10.76-1.54,1.54-3.59,3.59-4.61,5.12-1.02,4.1,.51,8.2,2.05,10.76,2.56,3.59,7.68,4.61,11.27,7.17-1.03-3.07-2.05-4.61-2.56-7.69-1.02-10.25,6.15-17.42,8.2-24.6,1.54-5.12,1.54-11.79-.51-16.4-1.02-2.05-2.56-3.59-4.61-6.15-1.02-1.54-5.12-3.59-4.61-5.64,0-1.02,.51-1.54,1.54-1.54,2.05-.51,5.12,3.59,6.66,4.61,2.05,2.05,3.59,4.61,5.12,6.66,2.56,5.12,3.07,13.32,1.03,18.96-2.05,6.15-6.66,11.79-7.68,19.47-1.54,9.22,4.61,13.32,7.68,19.47,2.05,4.61,2.05,10.25-.51,14.35-3.59,7.69-9.73,11.28-12.29,18.96-2.05,6.15-2.56,13.33-3.07,21.01,0,3.59-.51,5.64-2.56,5.64s-2.05-2.56-2.05-6.15c.51-7.69,1.54-15.89,3.07-21.52,1.54-4.61,3.07-7.69,5.63-10.76,2.56-3.08,5.12-5.64,7.17-9.23,2.56-5.64,0-12.3-3.07-15.89-1.02,0-1.54,1.03-2.56,.51-1.03,0-2.56-1.54-4.1-2.05-6.66-3.59-13.83-7.69-13.83-17.42,0-5.64,2.56-7.69,5.63-10.76,1.54-1.54,4.1-4.61,4.1-7.18,0-2.05-1.54-3.59-2.56-5.12-2.56-3.59-6.66-7.69-7.17-13.84Z"/><path class="cls-5" d="M168.73,505.3c-3.07,0-23.05,.51-26.12-7.69-3.07-8.2,9.73-22.04,5.12-28.19s-10.24-9.22-10.24-17.42c0-8.71,1.02-17.42,6.66-19.47,5.12-1.54,17.93,1.54,19.98,7.69,2.56,6.15,0,15.89,4.61,22.04,4.61,6.15,12.29,8.71,11.78,17.42,0,8.71-4.61,18.45-6.15,20.5-1.02,2.05-2.05,5.12-5.63,5.12Z"/><path class="cls-7" d="M165.15,502.23c-3.07-2.56-6.66-6.15-7.17-11.79-.51-3.59,.51-7.69,1.02-11.27,.51-3.59,2.05-7.69,1.54-10.76-.51-2.56-2.56-4.1-4.1-5.12-1.54-1.54-3.59-3.08-4.1-5.12-1.02-2.05-2.56-12.3,1.03-12.3,3.07,0,1.54,7.18,2.56,10.25,.51,2.05,3.07,3.59,4.61,5.12,1.54,1.54,3.59,4.1,4.1,7.18,.51,3.59-.51,7.69-1.54,11.27-1.02,4.61-2.05,10.76-.51,14.35,3.07,7.17,14.34,7.69,15.37,17.42,.51,6.15-2.05,10.76-3.59,15.89-1.54,4.61-3.59,9.74-4.1,15.37-1.03,7.69-1.03,19.47-1.03,26.65,0,2.56,.51,7.69-2.05,7.69s-2.05-3.08-2.05-6.66c0-9.22,0-18.45,1.02-26.65,.51-5.12,2.05-10.25,3.59-14.86,1.54-4.61,4.1-8.71,4.61-13.84,.51-4.1-1.02-6.66-3.59-8.71-1.02,.51-3.07,.51-4.61,.51-6.66,0-15.88-.51-20.49-3.59-2.05-1.54-4.1-3.59-4.1-7.18-.51-7.17,5.12-13.32,5.63-20.5,.51-8.71-7.68-12.3-10.76-18.96-3.07-7.17,.51-18.45,4.1-22.55,2.05-2.56,4.61-3.59,8.2-3.59,4.1,0,8.19,2.05,11.27,3.59,3.07,2.05,6.15,4.61,7.68,7.17,3.07,5.12,1.02,13.32,3.59,18.96,2.56,5.64,8.71,9.23,11.78,14.35,4.1,7.69-1.02,17.42-4.61,23.06-1.02,1.54-2.05,4.1-4.1,3.59-3.07-.51-1.02-3.59,0-5.64,.51-1.02,2.05-3.07,2.56-4.61,1.54-3.07,3.58-7.69,3.07-11.79-.51-3.08-3.07-5.64-5.12-7.69-4.1-4.61-8.2-8.2-9.22-15.89-.51-4.61,0-9.23-2.05-12.81-1.54-2.56-4.1-4.61-6.66-6.15-2.56-1.54-6.66-3.59-9.73-2.56-4.61,1.54-7.17,10.25-7.17,15.89,0,7.69,6.66,10.76,9.73,16.4,1.02,2.05,2.05,5.12,2.05,8.71-.51,3.59-2.05,7.69-3.07,10.76-1.03,2.56-3.59,7.18-2.56,10.76,1.02,2.56,5.12,3.59,8.2,4.1,3.07,1.54,7.17,1.54,10.76,1.54Z"/><path class="cls-5" d="M189.73,368.98c8.71,0,19.46,7.18,19.46,13.84s-6.15,18.45-1.54,27.16c4.1,8.71,17.41,19.99,13.83,32.8-3.58,12.81-14.85,14.86-13.83,23.57,1.02,8.71,8.19,15.37,6.15,21.01-2.05,5.64-8.2,20.5-18.44,20.5s-20.49-7.18-27.15-14.35c-6.66-7.17-17.41-21.01-7.17-30.75,10.24-9.74,22.54-24.09,14.34-34.34-8.19-10.25-23.05-28.7-11.27-39.97,11.78-12.3,17.42-19.99,25.61-19.47Z"/><path class="cls-7" d="M196.39,509.4c1.54,6.15,4.61,12.81,4.1,19.99-.51,7.17-3.07,12.81-6.15,17.94-2.56,5.12-4.61,10.76-5.63,18.45-.51,3.59-1.02,7.69-1.02,11.27,0,2.56,.51,9.74-2.56,9.74-2.56,0-2.05-3.59-2.05-7.17,.51-8.71,1.02-17.42,3.07-24.09,1.54-4.61,3.59-8.71,5.63-12.81,2.05-4.1,4.1-8.2,4.1-14.35,0-5.12-2.05-10.76-3.07-15.37-3.07-9.74-6.15-18.45-8.71-28.19-1.54-4.61-3.07-10.25-3.07-15.37,.51-7.69,5.63-14.35,9.22-19.47,3.07-4.1,6.66-8.71,6.66-15.89,0-1.54-.51-3.08-1.02-4.61-2.05-4.61-5.63-8.71-8.2-12.81-1.54-2.05-2.56-4.61-3.07-7.69-1.02-3.08-2.05-6.66-1.54-10.25,.51-2.05,1.02-4.1,2.56-6.15,.51-1.02,2.56-4.61,4.61-3.59,2.05,1.03,0,3.59-.51,5.12-2.05,3.59-3.07,7.17-1.54,12.81,.51,2.05,1.54,4.1,2.05,6.15,3.07,6.15,8.71,10.76,10.24,17.42,1.54,6.15-.51,13.33-3.07,16.91-3.59,6.66-11.78,13.32-12.81,22.04-.51,3.59,1.03,6.66,1.54,9.74,2.05,8.71,5.64,17.94,7.68,26.65,3.07-1.54,6.66-4.1,9.73-7.17,2.56-2.56,6.66-6.15,7.17-10.25,0-4.1-2.05-7.18-3.58-9.74-1.02-3.59-3.59-7.17-3.07-12.3,1.02-7.69,9.73-9.74,12.8-15.37,2.56-4.61,3.59-13.84,1.02-19.99-1.54-3.59-4.1-6.66-6.15-9.23-4.61-6.15-8.2-12.81-6.66-23.57,.51-2.05,1.02-4.61,1.02-6.66,.51-2.05,1.02-4.61,.51-7.17-.51-3.08-2.05-5.12-3.59-7.17-2.05-2.56-5.12-5.12-8.71-5.64-5.12-.51-9.73,1.54-13.32,3.08-7.17,3.59-12.29,9.22-15.88,16.91-2.05,3.59-3.59,9.23-2.56,13.84,.51,3.08,2.05,5.12,3.59,7.69,1.54,2.05,3.07,4.61,4.61,6.66,3.07,4.1,6.66,9.74,7.17,15.38,.51,7.69-2.56,12.81-6.15,17.42-3.07,4.61-7.68,8.71-9.73,13.32-2.56,5.12-2.56,14.86,0,19.48,2.05,3.59,7.68,8.2,11.27,10.76,1.54,1.03,3.58,2.56,5.63,4.61,1.54,1.03,5.63,3.08,4.61,5.12-1.02,3.08-6.15-1.02-7.17-2.05-2.56-2.05-4.61-3.59-6.66-5.12-4.1-3.08-9.22-7.17-11.78-11.79-3.07-5.64-3.07-15.37-.51-21.52,2.05-4.61,6.15-9.23,9.22-13.32,3.07-4.1,6.66-9.74,6.66-15.37,0-6.15-4.1-10.76-7.17-15.37-3.59-4.61-8.2-9.74-8.71-15.89-.51-5.64,1.02-10.76,3.07-14.35,5.12-11.27,15.88-21.52,29.2-23.06,5.12-.51,10.24,1.54,13.32,4.1,3.07,3.08,7.17,7.69,7.17,13.32,.51,7.17-3.07,12.81-2.56,21.01,1.03,10.25,9.73,15.37,12.81,23.57,3.07,8.2,1.54,18.96-2.56,24.6-1.54,2.05-4.1,4.1-6.15,6.15-2.05,1.54-5.12,4.1-5.12,7.17-.51,3.07,2.05,6.66,3.59,9.23,2.05,3.59,5.12,8.71,3.59,14.35-1.02,4.61-5.12,8.2-8.2,10.76-2.05,2.56-5.12,4.61-9.22,7.17Z"/><path class="cls-8" d="M162.59,547.33h59.42c5.12,0,9.22,3.08,9.22,7.17l-8.71,38.44c0,4.1-3.07,7.17-7.17,7.17h-45.59c-4.1,0-7.17-3.07-7.17-7.17l-9.22-38.44c0-4.1,4.1-7.17,9.22-7.17Z"/><path d="M215.34,602.16h-45.59c-5.12,0-9.22-4.1-9.22-9.22l-9.22-37.92c0-5.64,5.12-9.74,11.27-9.74h59.42c6.15,0,11.27,4.1,11.27,9.22l-8.71,38.95c0,4.61-4.1,8.71-9.22,8.71Zm-52.76-52.79c-3.59,0-7.17,2.05-7.17,5.12l9.22,37.92c0,3.07,2.05,5.64,5.12,5.64h45.59c2.56,0,5.12-2.05,5.12-5.12l8.71-38.95c0-2.05-3.07-4.61-7.17-4.61h-59.42Z"/><path class="cls-8" d="M151.32,536.57h84c1.54,0,2.56,1.03,2.56,3.08l2.56,16.4c0,1.54-1.02,3.08-3.07,3.08h-88.61c-1.54,0-3.07-1.02-3.07-3.08l2.56-16.4c0-2.05,1.54-3.08,3.07-3.08Z"/><path d="M237.37,560.65h-88.61c-2.56,0-5.12-2.05-5.12-5.12l2.56-16.4c0-2.56,2.05-4.61,4.61-4.61h84c2.56,0,4.61,2.05,4.61,5.12l2.56,15.89c.51,2.56-1.54,5.12-4.61,5.12Zm-86.05-22.04c-.51,0-.51,.51-.51,.51l-2.56,16.4,.51,.51h88.61c.51,0,.51-.51,.51-.51l-2.56-15.89c0-.51-.51-1.02-.51-1.02h-83.49Z"/></svg>